<?xml version="1.0" encoding="UTF-8" standalone="no"?>
<svg
   xmlns:dc="http://purl.org/dc/elements/1.1/"
   xmlns:cc="http://creativecommons.org/ns#"
   xmlns:rdf="http://www.w3.org/1999/02/22-rdf-syntax-ns#"
   xmlns:svg="http://www.w3.org/2000/svg"
   xmlns="http://www.w3.org/2000/svg"
   xmlns:sodipodi="http://sodipodi.sourceforge.net/DTD/sodipodi-0.dtd"
   xmlns:inkscape="http://www.inkscape.org/namespaces/inkscape"
   font-size="12px"
   font-style="normal"
   font-weight="normal"
   height="463"
   stroke-miterlimit="10"
   width="1750"
   id="svg2"
   version="1.1"
   inkscape:version="0.91 r13725"
   sodipodi:docname="and-gate.svg"
   style="font-style:normal;font-weight:normal;font-size:12px;font-family:Dialog;color-interpolation:auto;fill:#000000;fill-opacity:1;stroke:#000000;stroke-width:1;stroke-linecap:square;stroke-linejoin:miter;stroke-miterlimit:10;stroke-dasharray:none;stroke-dashoffset:0;stroke-opacity:1;color-rendering:auto;image-rendering:auto;shape-rendering:auto;text-rendering:auto">
  <metadata
     id="metadata197">
    <rdf:RDF>
      <cc:Work
         rdf:about="">
        <dc:format>image/svg+xml</dc:format>
        <dc:type
           rdf:resource="http://purl.org/dc/dcmitype/StillImage" />
        <dc:title></dc:title>
      </cc:Work>
    </rdf:RDF>
  </metadata>
  <sodipodi:namedview
     pagecolor="#ffffff"
     bordercolor="#666666"
     borderopacity="1"
     objecttolerance="10"
     gridtolerance="10"
     guidetolerance="10"
     inkscape:pageopacity="0"
     inkscape:pageshadow="2"
     inkscape:window-width="1676"
     inkscape:window-height="1005"
     id="namedview195"
     showgrid="false"
     inkscape:zoom="0.21985816"
     inkscape:cx="136.45161"
     inkscape:cy="231.5"
     inkscape:window-x="4"
     inkscape:window-y="1"
     inkscape:window-maximized="1"
     inkscape:current-layer="svg2" />
  <!--Generated by the Batik Graphics2D SVG Generator-->
  <defs
     id="genericDefs" />
  <g
     id="g5"
     transform="translate(170,0.38499999)">
    <g
       font-size="0.75px"
       transform="matrix(50,0,0,50,1205,440)"
       id="g7"
       style="font-size:0.75px;font-family:sans-serif;fill:#0000b2;stroke:#0000b2">
      <path
         d="m -0.1747,0.1546 q -0.0805,0 -0.1336,-0.0597 -0.0532,-0.0597 -0.0532,-0.1505 0,-0.097 0.0526,-0.1512 0.0526,-0.0542 0.1467,-0.0542 0.0465,0 0.104,0.0128 l 0,0.0604 q -0.0612,-0.0179 -0.0996,-0.0179 -0.0553,0 -0.0888,0.0415 -0.0336,0.0416 -0.0336,0.1108 0,0.067 0.0345,0.1084 0.0344,0.0414 0.0901,0.0414 0.0494,0 0.1018,-0.0253 l 0,0.0623 q -0.07,0.0212 -0.1209,0.0212 z m 0.211,-0.1988 0,-0.0542 0.3252,0 0,0.0542 z"
         id="path9"
         inkscape:connector-curvature="0"
         style="stroke:none" />
    </g>
    <g
       font-size="0.75px"
       transform="matrix(50,0,0,50,1205,390)"
       id="g11"
       style="font-size:0.75px;font-family:sans-serif;fill:#0000b2;stroke:#0000b2">
      <path
         d="m -0.1747,0.1546 q -0.0805,0 -0.1336,-0.0597 -0.0532,-0.0597 -0.0532,-0.1505 0,-0.097 0.0526,-0.1512 0.0526,-0.0542 0.1467,-0.0542 0.0465,0 0.104,0.0128 l 0,0.0604 q -0.0612,-0.0179 -0.0996,-0.0179 -0.0553,0 -0.0888,0.0415 -0.0336,0.0416 -0.0336,0.1108 0,0.067 0.0345,0.1084 0.0344,0.0414 0.0901,0.0414 0.0494,0 0.1018,-0.0253 l 0,0.0623 q -0.07,0.0212 -0.1209,0.0212 z m 0.211,-0.1988 0,-0.0542 0.3252,0 0,0.0542 z"
         id="path13"
         inkscape:connector-curvature="0"
         style="stroke:none" />
    </g>
    <g
       font-size="0.75px"
       transform="matrix(50,0,0,50,205,40)"
       id="g15"
       style="font-size:0.75px;font-family:sans-serif;fill:#b20000;stroke:#b20000">
      <path
         d="m -0.2062,0.1044 q -0.0648,0.0597 -0.1249,0.0597 -0.0494,0 -0.082,-0.0309 -0.0326,-0.031 -0.0326,-0.0782 0,-0.0652 0.0548,-0.1002 0.0547,-0.0349 0.1569,-0.0349 l 0.0172,0 0,-0.048 q 0,-0.0692 -0.071,-0.0692 -0.0572,0 -0.1235,0.0351 l 0,-0.0597 q 0.0729,-0.0296 0.1366,-0.0296 0.0667,0 0.0984,0.03 0.0316,0.03 0.0316,0.0934 l 0,0.1802 q 0,0.0618 0.0381,0.0618 0.0048,0 0.0139,-0.0014 l 0.0052,0.0399 q -0.0246,0.0117 -0.0542,0.0117 -0.0506,0 -0.0645,-0.0597 z m -0.0106,-0.0392 0,-0.1029 -0.0242,-7e-4 q -0.0593,0 -0.0959,0.0225 -0.0366,0.0225 -0.0366,0.0592 0,0.026 0.0183,0.0439 0.0183,0.018 0.0447,0.018 0.045,0 0.0937,-0.04 z m 0.4186,0.0898 0,-0.1897 -0.1897,0 0,-0.0542 0.1897,0 0,-0.1897 0.0542,0 0,0.1897 0.1897,0 0,0.0542 -0.1897,0 0,0.1897 z"
         id="path17"
         inkscape:connector-curvature="0"
         style="stroke:none" />
    </g>
    <g
       font-size="0.75px"
       transform="matrix(50,0,0,50,211.25,390)"
       id="g19"
       style="font-size:0.75px;font-family:sans-serif;fill:#b20000;stroke:#b20000">
      <path
         d="m -0.1384,0.0949 q -0.0648,0.0597 -0.1249,0.0597 -0.0494,0 -0.082,-0.0309 -0.0326,-0.031 -0.0326,-0.0782 0,-0.0652 0.0547,-0.1002 0.0548,-0.0349 0.1569,-0.0349 l 0.0173,0 0,-0.048 q 0,-0.0692 -0.0711,-0.0692 -0.0571,0 -0.1234,0.0351 l 0,-0.0597 q 0.0729,-0.0296 0.1366,-0.0296 0.0666,0 0.0983,0.03 0.0317,0.03 0.0317,0.0934 l 0,0.1802 q 0,0.0619 0.0381,0.0619 0.0047,0 0.0139,-0.0015 l 0.0051,0.0399 q -0.0245,0.0117 -0.0542,0.0117 -0.0505,0 -0.0644,-0.0597 z m -0.0106,-0.0391 0,-0.1029 -0.0242,-8e-4 q -0.0593,0 -0.096,0.0225 -0.0366,0.0226 -0.0366,0.0592 0,0.026 0.0183,0.0439 0.0183,0.018 0.0447,0.018 0.045,0 0.0938,-0.0399 z m 0.2017,-0.1 0,-0.0542 0.3252,0 0,0.0542 z"
         id="path21"
         inkscape:connector-curvature="0"
         style="stroke:none" />
    </g>
    <g
       font-size="0.75px"
       transform="matrix(50,0,0,50,1030,215)"
       id="g23"
       style="font-size:0.75px;font-family:sans-serif;fill:#ffffff;stroke:#ffffff">
      <circle
         cx="0"
         cy="0"
         r="0.44999999"
         id="circle25"
         style="stroke:none" />
      <circle
         cx="0"
         cy="0"
         r="0.44999999"
         id="circle27"
         style="fill:none;stroke:#000000;stroke-width:0.1" />
      <circle
         cx="0"
         cy="0"
         r="0.26320001"
         id="circle29"
         style="fill:#000000;stroke:none;stroke-width:0.1" />
    </g>
    <g
       font-size="0.5px"
       font-style="italic"
       transform="matrix(50,0,0,50,1030,215)"
       id="g31"
       style="font-style:italic;font-size:0.5px;font-family:sans-serif;fill:#595959;stroke:#595959;stroke-width:0.1">
      <path
         d="m -0.1675,1.0855 q -0.0537,0 -0.0812,-0.0398 -0.0274,-0.0398 -0.0153,-0.1003 0.0129,-0.0647 0.0552,-0.1009 0.0422,-0.0361 0.105,-0.0361 0.031,0 0.0676,0.0085 l -0.008,0.0403 q -0.0384,-0.0119 -0.0641,-0.0119 -0.0368,0 -0.0647,0.0277 -0.0279,0.0277 -0.0371,0.0738 -0.0089,0.0447 0.0085,0.0723 0.0174,0.0276 0.0545,0.0276 0.033,0 0.0713,-0.0169 L -0.0841,1.0713 Q -0.1336,1.0855 -0.1675,1.0855 Z M 0.0931,1.0884 Q 0.0372,1.0884 0.0132,1.0358 -0.0108,0.9832 0.0061,0.8985 0.0232,0.813 0.0684,0.761 0.1136,0.709 0.1705,0.709 0.2273,0.709 0.2517,0.761 0.2761,0.813 0.2592,0.8978 0.2418,0.9847 0.1966,1.0365 0.1515,1.0884 0.0931,1.0884 Z M 0.1008,1.0523 q 0.0764,0 0.1075,-0.1553 0.0304,-0.1518 -0.0451,-0.1518 -0.0752,0 -0.1058,0.1533 -0.0308,0.1538 0.0434,0.1538 z"
         id="path33"
         inkscape:connector-curvature="0"
         style="stroke:none" />
    </g>
    <g
       font-size="0.75px"
       transform="matrix(50,0,0,50,700.8333,40)"
       id="g35"
       style="font-size:0.75px;font-family:sans-serif;fill:#b20000;stroke:#b20000;stroke-width:0.1">
      <path
         d="m -0.4574,0.21 0,-0.5827 0.0721,0 0,0.2553 q 0.0444,-0.0835 0.133,-0.0835 0.0718,0 0.113,0.0524 0.0412,0.0523 0.0412,0.1432 0,0.0988 -0.0467,0.1594 -0.0467,0.0606 -0.1229,0.0606 -0.0707,0 -0.1176,-0.0542 L -0.394,0.21 Z m 0.0721,-0.0993 q 0.0557,0.0498 0.1062,0.0498 0.1041,0 0.1041,-0.1585 0,-0.1399 -0.0923,-0.1399 -0.0605,0 -0.118,0.0655 z m 0.5988,0.0949 0,-0.1897 -0.1897,0 0,-0.0542 0.1897,0 0,-0.1897 0.0542,0 0,0.1897 0.1897,0 0,0.0542 -0.1897,0 0,0.1897 z"
         id="path37"
         inkscape:connector-curvature="0"
         style="stroke:none" />
    </g>
    <g
       font-size="0.75px"
       transform="matrix(50,0,0,50,880,215)"
       id="g39"
       style="font-size:0.75px;font-family:sans-serif;fill:#ffffff;stroke:#ffffff;stroke-width:0.1">
      <circle
         cx="0"
         cy="0"
         r="0.44999999"
         id="circle41"
         style="stroke:none" />
      <circle
         cx="0"
         cy="0"
         r="0.44999999"
         id="circle43"
         style="fill:none;stroke:#000000" />
    </g>
    <g
       font-size="0.5px"
       font-style="italic"
       transform="matrix(50,0,0,50,880,215)"
       id="g45"
       style="font-style:italic;font-size:0.5px;font-family:sans-serif;fill:#595959;stroke:#595959;stroke-width:0.1">
      <path
         d="m -0.2712,1.0945 0.0776,-0.3884 0.0481,0 -0.034,0.1702 q 0.0407,-0.0557 0.0998,-0.0557 0.0478,0 0.0683,0.0349 0.0205,0.0349 0.0084,0.0955 -0.0132,0.0659 -0.0524,0.1063 -0.0392,0.0404 -0.09,0.0404 -0.0471,0 -0.0712,-0.0361 L -0.229,1.0945 Z m 0.0613,-0.0661 q 0.0305,0.0332 0.0641,0.0332 0.0694,0 0.0905,-0.1057 0.0187,-0.0933 -0.0428,-0.0933 -0.0403,0 -0.0874,0.0437 z m 0.281,0.0632 0.0073,-0.0361 0.0722,0 L 0.2077,0.7703 0.1318,0.7884 0.1392,0.7513 0.2658,0.7212 0.199,1.0555 l 0.0722,0 -0.0072,0.0361 z"
         id="path47"
         inkscape:connector-curvature="0"
         style="stroke:none" />
    </g>
    <g
       font-size="0.75px"
       transform="matrix(50,0,0,50,705,390)"
       id="g49"
       style="font-size:0.75px;font-family:sans-serif;fill:#b20000;stroke:#b20000;stroke-width:0.1">
      <path
         d="m -0.3896,0.21 0,-0.5827 0.0721,0 0,0.2553 q 0.0443,-0.0835 0.1329,-0.0835 0.0718,0 0.113,0.0524 0.0412,0.0523 0.0412,0.1432 0,0.0988 -0.0467,0.1594 -0.0467,0.0606 -0.1229,0.0606 -0.0706,0 -0.1175,-0.0542 L -0.3263,0.21 Z m 0.0721,-0.0993 q 0.0557,0.0498 0.1062,0.0498 0.104,0 0.104,-0.1585 0,-0.1399 -0.0923,-0.1399 -0.0604,0 -0.1179,0.0655 z m 0.382,-0.0948 0,-0.0542 0.3251,0 0,0.0542 z"
         id="path51"
         inkscape:connector-curvature="0"
         style="stroke:none" />
    </g>
    <g
       font-size="0.75px"
       transform="matrix(50,0,0,50,1202.2222,40)"
       id="g53"
       style="font-size:0.75px;font-family:sans-serif;fill:#0000b2;stroke:#0000b2;stroke-width:0.1">
      <path
         d="m -0.2424,0.1641 q -0.0806,0 -0.1337,-0.0597 -0.0531,-0.0597 -0.0531,-0.1505 0,-0.097 0.0526,-0.1512 0.0525,-0.0542 0.1466,-0.0542 0.0465,0 0.104,0.0128 l 0,0.0604 q -0.0611,-0.0179 -0.0996,-0.0179 -0.0553,0 -0.0888,0.0415 -0.0335,0.0416 -0.0335,0.1108 0,0.067 0.0344,0.1084 0.0344,0.0414 0.0901,0.0414 0.0494,0 0.1018,-0.0253 l 0,0.0623 q -0.0699,0.0212 -0.1208,0.0212 z m 0.4277,-0.0091 0,-0.1897 -0.1897,0 0,-0.0542 0.1897,0 0,-0.1897 0.0542,0 0,0.1897 0.1897,0 0,0.0542 -0.1897,0 0,0.1897 z"
         id="path55"
         inkscape:connector-curvature="0"
         style="stroke:none" />
    </g>
    <g
       font-size="0.75px"
       transform="matrix(50,0,0,50,530,215)"
       id="g57"
       style="font-size:0.75px;font-family:sans-serif;fill:#ffffff;stroke:#ffffff;stroke-width:0.1">
      <circle
         cx="0"
         cy="0"
         r="0.44999999"
         id="circle59"
         style="stroke:none" />
      <circle
         cx="0"
         cy="0"
         r="0.44999999"
         id="circle61"
         style="fill:none;stroke:#000000" />
      <circle
         cx="0"
         cy="0"
         r="0.26320001"
         id="circle63"
         style="fill:#000000;stroke:none" />
    </g>
    <g
       font-size="0.5px"
       font-style="italic"
       transform="matrix(50,0,0,50,530,215)"
       id="g65"
       style="font-style:italic;font-size:0.5px;font-family:sans-serif;fill:#595959;stroke:#595959;stroke-width:0.1">
      <path
         d="m -0.3026,1.0975 0.0777,-0.3885 0.0481,0 -0.034,0.1702 q 0.0407,-0.0557 0.0997,-0.0557 0.0479,0 0.0684,0.0349 0.0205,0.035 0.0083,0.0955 -0.0131,0.0659 -0.0523,0.1063 -0.0393,0.0404 -0.09,0.0404 -0.0472,0 -0.0712,-0.0361 l -0.0124,0.033 z m 0.0614,-0.0662 q 0.0304,0.0332 0.0641,0.0332 0.0694,0 0.0905,-0.1057 0.0187,-0.0933 -0.0429,-0.0933 -0.0403,0 -0.0873,0.0437 z m 0.3608,0.0723 q -0.056,0 -0.08,-0.0526 Q 0.0156,0.9983 0.0325,0.9136 0.0496,0.8282 0.0948,0.7762 0.14,0.7242 0.1969,0.7242 q 0.0569,0 0.0813,0.052 0.0244,0.052 0.0074,0.1367 Q 0.2682,0.9998 0.2231,1.0517 0.1779,1.1036 0.1196,1.1036 Z M 0.1273,1.0674 q 0.0764,0 0.1074,-0.1552 0.0304,-0.1519 -0.045,-0.1519 -0.0752,0 -0.1059,0.1533 -0.0307,0.1538 0.0435,0.1538 z"
         id="path67"
         inkscape:connector-curvature="0"
         style="stroke:none" />
    </g>
    <g
       font-size="0.5px"
       font-style="italic"
       transform="matrix(50,0,0,50,1380,215)"
       id="g69"
       style="font-style:italic;font-size:0.5px;font-family:sans-serif;fill:#ffffff;stroke:#ffffff;stroke-width:0.1">
      <circle
         cx="0"
         cy="0"
         r="0.44999999"
         id="circle71"
         style="stroke:none" />
      <circle
         cx="0"
         cy="0"
         r="0.44999999"
         id="circle73"
         style="fill:none;stroke:#000000" />
      <path
         d="m -0.1362,1.0826 q -0.0537,0 -0.0812,-0.0398 -0.0274,-0.0398 -0.0153,-0.1004 0.0129,-0.0647 0.0552,-0.1008 0.0423,-0.0361 0.105,-0.0361 0.031,0 0.0676,0.0085 l -0.008,0.0403 q -0.0384,-0.012 -0.064,-0.012 -0.0369,0 -0.0648,0.0277 -0.0279,0.0278 -0.0371,0.0739 -0.0089,0.0447 0.0085,0.0723 0.0174,0.0276 0.0546,0.0276 0.0329,0 0.0712,-0.0169 l -0.0083,0.0415 q -0.0495,0.0142 -0.0834,0.0142 z m 0.1809,-0.0061 0.0072,-0.0362 0.0723,0 0.057,-0.2851 -0.0759,0.018 0.0075,-0.0371 0.1266,-0.03 -0.0669,0.3342 0.0723,0 -0.0072,0.0362 z"
         id="path75"
         inkscape:connector-curvature="0"
         style="fill:#595959;stroke:none" />
    </g>
    <g
       font-size="0.5px"
       font-style="italic"
       transform="matrix(50,0,0,50,380,215)"
       id="g77"
       style="font-style:italic;font-size:0.5px;font-family:sans-serif;fill:#ffffff;stroke:#ffffff;stroke-width:0.1">
      <circle
         cx="0"
         cy="0"
         r="0.44999999"
         id="circle79"
         style="stroke:none" />
      <circle
         cx="0"
         cy="0"
         r="0.44999999"
         id="circle81"
         style="fill:none;stroke:#000000" />
      <path
         d="m -0.1002,1.0428 q -0.0512,0.0398 -0.0913,0.0398 -0.0329,0 -0.0505,-0.0207 Q -0.2596,1.0413 -0.2533,1.0098 -0.2446,0.9664 -0.2035,0.943 -0.1623,0.9197 -0.0942,0.9197 l 0.0115,0 0.0064,-0.032 q 0.0092,-0.0461 -0.0382,-0.0461 -0.038,0 -0.0869,0.0234 l 0.0079,-0.0398 q 0.0526,-0.0197 0.0951,-0.0197 0.0444,0 0.0615,0.02 0.0171,0.02 0.0087,0.0622 l -0.024,0.1202 q -0.0083,0.0412 0.0171,0.0412 0.0032,0 0.0095,-10e-4 l -0.0019,0.0267 q -0.018,0.0078 -0.0377,0.0078 -0.0337,0 -0.035,-0.0398 z m -0.0019,-0.0261 0.0137,-0.0687 -0.016,-4e-4 q -0.0395,0 -0.067,0.015 -0.0274,0.015 -0.0323,0.0394 -0.0034,0.0173 0.0064,0.0293 0.0098,0.012 0.0274,0.012 0.03,0 0.0678,-0.0266 z m 0.1616,0.0598 0.0072,-0.0362 0.0723,0 0.057,-0.2851 -0.0758,0.018 0.0074,-0.0371 0.1266,-0.03 -0.0668,0.3342 0.0722,0 -0.0072,0.0362 z"
         id="path83"
         inkscape:connector-curvature="0"
         style="fill:#595959;stroke:none" />
    </g>
    <g
       font-size="0.5px"
       font-style="italic"
       transform="matrix(50,0,0,50,30,215)"
       id="g85"
       style="font-style:italic;font-size:0.5px;font-family:sans-serif;fill:#ffffff;stroke:#ffffff;stroke-width:0.1">
      <circle
         cx="0"
         cy="0"
         r="0.44999999"
         id="circle87"
         style="stroke:none" />
      <circle
         cx="0"
         cy="0"
         r="0.44999999"
         id="circle89"
         style="fill:none;stroke:#000000" />
      <circle
         cx="0"
         cy="0"
         r="0.26320001"
         id="circle91"
         style="fill:#000000;stroke:none" />
      <path
         d="m -0.1316,1.0457 q -0.0511,0.0398 -0.0912,0.0398 -0.0329,0 -0.0505,-0.0206 Q -0.2909,1.0442 -0.2846,1.0127 -0.276,0.9693 -0.2348,0.946 -0.1936,0.9227 -0.1255,0.9227 l 0.0115,0 0.0064,-0.032 q 0.0092,-0.0462 -0.0382,-0.0462 -0.0381,0 -0.0869,0.0235 l 0.0079,-0.0398 q 0.0526,-0.0198 0.095,-0.0198 0.0445,0 0.0616,0.02 0.0171,0.02 0.0087,0.0623 l -0.0241,0.1201 q -0.0082,0.0413 0.0172,0.0413 0.0031,0 0.0094,-0.001 l -0.0019,0.0266 q -0.0179,0.0078 -0.0377,0.0078 -0.0336,0 -0.035,-0.0398 z m -0.0018,-0.0261 0.0137,-0.0686 -0.016,-5e-4 q -0.0396,0 -0.067,0.015 -0.0274,0.015 -0.0323,0.0394 -0.0035,0.0174 0.0064,0.0293 0.0098,0.012 0.0274,0.012 0.03,0 0.0678,-0.0266 z M 0.1079,1.0884 Q 0.052,1.0884 0.028,1.0358 0.004,0.9832 0.0209,0.8985 0.038,0.813 0.0832,0.761 0.1284,0.709 0.1853,0.709 0.2422,0.709 0.2666,0.761 0.2909,0.813 0.274,0.8978 0.2566,0.9847 0.2115,1.0365 0.1663,1.0884 0.1079,1.0884 Z M 0.1156,1.0523 q 0.0765,0 0.1075,-0.1553 0.0304,-0.1518 -0.045,-0.1518 -0.0752,0 -0.1059,0.1533 -0.0308,0.1538 0.0434,0.1538 z"
         id="path93"
         inkscape:connector-curvature="0"
         style="fill:#595959;stroke:none" />
    </g>
    <g
       font-size="0.5px"
       font-style="italic"
       transform="matrix(50,0,0,50,705,540)"
       id="g95"
       style="font-style:italic;font-size:0.5px;font-family:sans-serif;stroke-width:0.02">
      <path
         d="M 6.8507,-6.8564 9.2822,-9.3271"
         id="path97"
         inkscape:connector-curvature="0"
         style="fill:none" />
      <path
         d="m 9.2288,-9.3797 0.1069,0.1052 0.2271,-0.3377 z"
         id="path99"
         inkscape:connector-curvature="0"
         style="stroke:none" />
    </g>
    <g
       font-size="0.5px"
       font-style="italic"
       transform="matrix(50,0,0,50,705,540)"
       id="g101"
       style="font-style:italic;font-size:0.5px;font-family:sans-serif;stroke-width:0.02">
      <path
         d="M -0.4818,-3.4818 -2.8636,-5.8636"
         id="path103"
         inkscape:connector-curvature="0"
         style="fill:none" />
      <path
         d="m -2.9166,-5.8106 0.106,-0.106 -0.3358,-0.2298 z"
         id="path105"
         inkscape:connector-curvature="0"
         style="stroke:none" />
    </g>
    <g
       font-size="0.5px"
       font-style="italic"
       transform="matrix(50,0,0,50,705,540)"
       id="g107"
       style="font-style:italic;font-size:0.5px;font-family:sans-serif;stroke-width:0.02">
      <path
         d="m 3.9394,-6.7386 5.4758,-2.974"
         id="path109"
         inkscape:connector-curvature="0"
         style="fill:none" />
    </g>
    <g
       font-size="0.5px"
       font-style="italic"
       transform="matrix(50,0,0,50,705,540)"
       id="g111"
       style="font-style:italic;font-size:0.5px;font-family:sans-serif;stroke-width:0.02">
      <path
         d="M 9.7121,-2.3702 7.0525,-5.7896"
         id="path113"
         inkscape:connector-curvature="0"
         style="fill:none" />
      <path
         d="M 6.9933,-5.7435 7.1117,-5.8356 6.807,-6.1053 Z"
         id="path115"
         inkscape:connector-curvature="0"
         style="stroke:none" />
    </g>
    <g
       font-size="0.5px"
       font-style="italic"
       transform="matrix(50,0,0,50,705,540)"
       id="g117"
       style="font-style:italic;font-size:0.5px;font-family:sans-serif;stroke-width:0.02">
      <path
         d="M 9.6298,-3.3702 7.1364,-5.8636"
         id="path119"
         inkscape:connector-curvature="0"
         style="fill:none" />
      <path
         d="m 7.0834,-5.8106 0.106,-0.106 -0.3358,-0.2298 z"
         id="path121"
         inkscape:connector-curvature="0"
         style="stroke:none" />
    </g>
    <g
       font-size="0.5px"
       font-style="italic"
       transform="matrix(50,0,0,50,705,540)"
       id="g123"
       style="font-style:italic;font-size:0.5px;font-family:sans-serif;stroke-width:0.02">
      <path
         d="m 0.4099,-9.5182 2.4463,2.3893"
         id="path125"
         inkscape:connector-curvature="0"
         style="fill:none" />
      <path
         d="m 2.9086,-7.1825 -0.1048,0.1073 0.3385,0.2258 z"
         id="path127"
         inkscape:connector-curvature="0"
         style="stroke:none" />
    </g>
    <g
       font-size="0.5px"
       font-style="italic"
       transform="matrix(50,0,0,50,705,540)"
       id="g129"
       style="font-style:italic;font-size:0.5px;font-family:sans-serif;stroke-width:0.02">
      <path
         d="M -3.1507,-6.8578 -0.8331,-9.232"
         id="path131"
         inkscape:connector-curvature="0"
         style="fill:none" />
      <path
         d="m -0.8868,-9.2844 0.1074,0.1048 0.2257,-0.3386 z"
         id="path133"
         inkscape:connector-curvature="0"
         style="stroke:none" />
    </g>
    <g
       font-size="0.5px"
       font-style="italic"
       transform="matrix(50,0,0,50,705,540)"
       id="g135"
       style="font-style:italic;font-size:0.5px;font-family:sans-serif;stroke-width:0.02">
      <path
         d="m -13.1464,-6.8536 2.4758,-2.4758"
         id="path137"
         inkscape:connector-curvature="0"
         style="fill:none" />
      <path
         d="m -10.7237,-9.3824 0.1061,0.1061 0.2298,-0.3359 z"
         id="path139"
         inkscape:connector-curvature="0"
         style="stroke:none" />
    </g>
    <g
       font-size="0.5px"
       font-style="italic"
       transform="matrix(50,0,0,50,705,540)"
       id="g141"
       style="font-style:italic;font-size:0.5px;font-family:sans-serif;stroke-width:0.02">
      <path
         d="M 13.1464,-6.1464 10.653,-3.653"
         id="path143"
         inkscape:connector-curvature="0"
         style="fill:none" />
      <path
         d="M 10.706,-3.6 10.6,-3.706 10.3702,-3.3702 Z"
         id="path145"
         inkscape:connector-curvature="0"
         style="stroke:none" />
    </g>
    <g
       font-size="0.5px"
       font-style="italic"
       transform="matrix(50,0,0,50,705,540)"
       id="g147"
       style="font-style:italic;font-size:0.5px;font-family:sans-serif;stroke-width:0.02">
      <path
         d="m -13.4987,-6 0.01,4 L 3,-2 9.5385,-2"
         id="path149"
         inkscape:connector-curvature="0"
         style="fill:none" />
    </g>
    <g
       font-size="0.5px"
       font-style="italic"
       transform="matrix(50,0,0,50,705,540)"
       id="g151"
       style="font-style:italic;font-size:0.5px;font-family:sans-serif;stroke-width:0.02">
      <path
         d="M -6.1263,-6.8322 -2,-10.5 l 11.9444,0 0,0.1122"
         id="path153"
         inkscape:connector-curvature="0"
         style="fill:none" />
    </g>
    <g
       font-size="0.5px"
       font-style="italic"
       transform="matrix(50,0,0,50,705,540)"
       id="g155"
       style="font-style:italic;font-size:0.5px;font-family:sans-serif;stroke-width:0.02">
      <path
         d="M 3.1464,-6.1464 0.7647,-3.7647"
         id="path157"
         inkscape:connector-curvature="0"
         style="fill:none" />
      <path
         d="M 0.8177,-3.7116 0.7116,-3.8177 0.4818,-3.4818 Z"
         id="path159"
         inkscape:connector-curvature="0"
         style="stroke:none" />
    </g>
    <g
       font-size="0.5px"
       font-style="italic"
       transform="matrix(50,0,0,50,705,540)"
       id="g161"
       style="font-style:italic;font-size:0.5px;font-family:sans-serif;stroke-width:0.02">
      <path
         d="m 13.193,-6.1053 -2.6595,3.4194"
         id="path163"
         inkscape:connector-curvature="0"
         style="fill:none" />
      <path
         d="M 10.5927,-2.6399 10.4743,-2.732 10.2879,-2.3702 Z"
         id="path165"
         inkscape:connector-curvature="0"
         style="stroke:none" />
    </g>
    <g
       font-size="0.5px"
       font-style="italic"
       transform="matrix(50,0,0,50,705,540)"
       id="g167"
       style="font-style:italic;font-size:0.5px;font-family:sans-serif;stroke-width:0.02">
      <path
         d="m -9.6122,-9.6122 2.4758,2.4758"
         id="path169"
         inkscape:connector-curvature="0"
         style="fill:none" />
      <path
         d="m -7.0834,-7.1894 -0.106,0.106 0.3358,0.2298 z"
         id="path171"
         inkscape:connector-curvature="0"
         style="stroke:none" />
    </g>
    <g
       font-size="0.5px"
       font-style="italic"
       transform="matrix(50,0,0,50,705,540)"
       id="g173"
       style="font-style:italic;font-size:0.5px;font-family:sans-serif;stroke-width:0.02">
      <path
         d="m -10.2584,-3.3702 -2.5941,-2.5047"
         id="path175"
         inkscape:connector-curvature="0"
         style="fill:none" />
      <path
         d="m -12.9046,-5.8209 0.1042,-0.1079 -0.3399,-0.2239 z"
         id="path177"
         inkscape:connector-curvature="0"
         style="stroke:none" />
    </g>
    <g
       font-size="0.5px"
       font-style="italic"
       transform="matrix(50,0,0,50,705,540)"
       id="g179"
       style="font-style:italic;font-size:0.5px;font-family:sans-serif;stroke-width:0.02">
      <path
         d="m 10.3384,-9.6122 2.5202,2.4808"
         id="path181"
         inkscape:connector-curvature="0"
         style="fill:none" />
      <path
         d="m 12.9112,-7.1848 -0.1052,0.1069 0.3377,0.2271 z"
         id="path183"
         inkscape:connector-curvature="0"
         style="stroke:none" />
    </g>
    <g
       font-size="0.5px"
       font-style="italic"
       transform="matrix(50,0,0,50,705,540)"
       id="g185"
       style="font-style:italic;font-size:0.5px;font-family:sans-serif;stroke-width:0.02">
      <path
         d="M -3.016,-6.3745 9.5385,-3.1196"
         id="path187"
         inkscape:connector-curvature="0"
         style="fill:none" />
    </g>
    <g
       font-size="0.5px"
       font-style="italic"
       transform="matrix(50,0,0,50,705,540)"
       id="g189"
       style="font-style:italic;font-size:0.5px;font-family:sans-serif;stroke-width:0.02">
      <path
         d="m -6.8471,-6.1401 -2.3933,2.482"
         id="path191"
         inkscape:connector-curvature="0"
         style="fill:none" />
      <path
         d="m -9.1864,-3.606 -0.108,-0.1042 -0.2236,0.34 z"
         id="path193"
         inkscape:connector-curvature="0"
         style="stroke:none" />
    </g>
  </g>
</svg>
