<?xml version="1.0" encoding="UTF-8" standalone="no"?>
<svg
   xmlns:dc="http://purl.org/dc/elements/1.1/"
   xmlns:cc="http://creativecommons.org/ns#"
   xmlns:rdf="http://www.w3.org/1999/02/22-rdf-syntax-ns#"
   xmlns:svg="http://www.w3.org/2000/svg"
   xmlns="http://www.w3.org/2000/svg"
   xmlns:sodipodi="http://sodipodi.sourceforge.net/DTD/sodipodi-0.dtd"
   xmlns:inkscape="http://www.inkscape.org/namespaces/inkscape"
   font-size="12px"
   font-style="normal"
   font-weight="normal"
   height="100"
   stroke-miterlimit="10"
   width="1312.5"
   id="svg2"
   version="1.1"
   inkscape:version="0.91 r13725"
   sodipodi:docname="buffer_schematic.svg"
   style="font-style:normal;font-weight:normal;font-size:12px;font-family:Dialog;color-interpolation:auto;fill:#000000;fill-opacity:1;stroke:#000000;stroke-width:1;stroke-linecap:square;stroke-linejoin:miter;stroke-miterlimit:10;stroke-dasharray:none;stroke-dashoffset:0;stroke-opacity:1;color-rendering:auto;image-rendering:auto;shape-rendering:auto;text-rendering:auto">
  <metadata
     id="metadata65">
    <rdf:RDF>
      <cc:Work
         rdf:about="">
        <dc:format>image/svg+xml</dc:format>
        <dc:type
           rdf:resource="http://purl.org/dc/dcmitype/StillImage" />
        <dc:title></dc:title>
      </cc:Work>
    </rdf:RDF>
  </metadata>
  <sodipodi:namedview
     pagecolor="#ffffff"
     bordercolor="#666666"
     borderopacity="1"
     objecttolerance="10"
     gridtolerance="10"
     guidetolerance="10"
     inkscape:pageopacity="0"
     inkscape:pageshadow="2"
     inkscape:window-width="1920"
     inkscape:window-height="1058"
     id="namedview63"
     showgrid="false"
     inkscape:zoom="0.67657143"
     inkscape:cx="499.2613"
     inkscape:cy="-350.90317"
     inkscape:window-x="-8"
     inkscape:window-y="-8"
     inkscape:window-maximized="1"
     inkscape:current-layer="svg2" />
  <!--Generated by the Batik Graphics2D SVG Generator-->
  <defs
     id="genericDefs" />
  <g
     id="g5"
     transform="translate(521.81954,-4.1312255)">
    <g
       transform="matrix(50,0,0,50,233.49,70.725)"
       id="g7"
       style="fill:#ffffff;stroke:#ffffff;stroke-width:0.06">
      <path
         d="M -0.13,-0.13 0,-0.13 0.13,0 0,0.13 l -0.13,0 z"
         id="path9"
         inkscape:connector-curvature="0"
         style="stroke:none" />
      <path
         d="M -0.13,-0.13 0,-0.13 0.13,0 0,0.13 l -0.13,0 z"
         id="path11"
         inkscape:connector-curvature="0"
         style="fill:none;stroke:#000000" />
    </g>
    <g
       font-size="0.5px"
       font-style="italic"
       transform="matrix(50,0,0,50,233.4922,70.7227)"
       id="g13"
       style="font-style:italic;font-size:0.5px;font-family:sans-serif;fill:#0000ff;stroke:#0000ff;stroke-width:0.06">
      <path
         d="m 0.33,0.14 0.0777,-0.3884 0.0481,0 -0.0341,0.1701 q 0.0407,-0.0556 0.0998,-0.0556 0.0479,0 0.0683,0.0349 0.0205,0.0349 0.0084,0.0954 -0.0132,0.066 -0.0524,0.1064 -0.0392,0.0404 -0.09,0.0404 -0.0471,0 -0.0711,-0.0362 L 0.3722,0.14 Z M 0.3913,0.0738 q 0.0305,0.0332 0.0642,0.0332 0.0693,0 0.0905,-0.1057 0.0186,-0.0932 -0.0429,-0.0932 -0.0403,0 -0.0874,0.0437 z"
         id="path15"
         inkscape:connector-curvature="0"
         style="stroke:none" />
    </g>
    <g
       font-size="0.5px"
       font-style="italic"
       transform="matrix(50,0,0,50,33.4922,70.7227)"
       id="g17"
       style="font-style:italic;font-size:0.5px;font-family:sans-serif;fill:#ffffff;stroke:#ffffff;stroke-width:0.06">
      <path
         d="M -0.13,-0.13 0,-0.13 0.13,0 0,0.13 l -0.13,0 z"
         id="path19"
         inkscape:connector-curvature="0"
         style="stroke:none" />
      <path
         d="M -0.13,-0.13 0,-0.13 0.13,0 0,0.13 l -0.13,0 z"
         id="path21"
         inkscape:connector-curvature="0"
         style="fill:none;stroke:#000000" />
    </g>
    <g
       font-size="0.5px"
       font-style="italic"
       transform="matrix(50,0,0,50,33.4922,70.7227)"
       id="g23"
       style="font-style:italic;font-size:0.5px;font-family:sans-serif;fill:#ff0000;stroke:#ff0000;stroke-width:0.06">
      <path
         d="m -0.4105,0.0633 q -0.0511,0.0398 -0.0912,0.0398 -0.0329,0 -0.0505,-0.0206 -0.0176,-0.0207 -0.0113,-0.0522 0.0086,-0.0434 0.0498,-0.0667 0.0412,-0.0234 0.1093,-0.0234 l 0.0115,0 0.0064,-0.0319 q 0.0092,-0.0462 -0.0382,-0.0462 -0.0381,0 -0.0869,0.0235 l 0.0079,-0.0398 q 0.0526,-0.0198 0.095,-0.0198 0.0445,0 0.0616,0.02 0.0171,0.02 0.0087,0.0623 l -0.0241,0.1201 q -0.0082,0.0412 0.0172,0.0412 0.0031,0 0.0094,-9e-4 l -0.0019,0.0266 q -0.0179,0.0078 -0.0377,0.0078 -0.0337,0 -0.035,-0.0398 z m -0.0018,-0.0261 0.0137,-0.0686 -0.016,-5e-4 q -0.0396,0 -0.067,0.015 -0.0274,0.015 -0.0323,0.0394 -0.0035,0.0174 0.0064,0.0293 0.0098,0.012 0.0274,0.012 0.03,0 0.0678,-0.0266 z"
         id="path25"
         inkscape:connector-curvature="0"
         style="stroke:none" />
    </g>
    <g
       font-size="0.5px"
       font-style="italic"
       transform="matrix(50,0,0,50,133.4922,70.7227)"
       id="g27"
       style="font-style:italic;font-size:0.5px;font-family:sans-serif;fill:#ffffff;stroke:#ffffff;stroke-width:0.06">
      <path
         d="m -0.5,-0.5 0,1 1,-0.5 z"
         id="path29"
         inkscape:connector-curvature="0"
         style="stroke:none" />
      <path
         d="m -0.5,-0.5 0,1 1,-0.5 z"
         id="path31"
         inkscape:connector-curvature="0"
         style="fill:none;stroke:#000000" />
      <line
         x1="0.5"
         x2="1"
         y1="0"
         y2="0"
         id="line33"
         style="fill:none;stroke:#000000;stroke-width:0.04" />
      <line
         x1="-0.5"
         x2="-1"
         y1="0"
         y2="0"
         id="line35"
         style="fill:none;stroke:#000000;stroke-width:0.04" />
    </g>
    <g
       font-size="0.5px"
       transform="matrix(50,0,0,50,133.4922,70.7227)"
       id="g37"
       style="font-size:0.5px;font-family:sans-serif;fill:#0000ff;stroke:#0000ff;stroke-width:0.04">
      <path
         d="m -0.7089,-0.8164 0,-0.3884 0.0481,0 0,0.1702 q 0.0296,-0.0557 0.0887,-0.0557 0.0478,0 0.0753,0.0349 0.0274,0.0349 0.0274,0.0955 0,0.0659 -0.0311,0.1063 -0.0311,0.0404 -0.0819,0.0404 -0.0471,0 -0.0784,-0.0361 l -0.0058,0.0329 z m 0.0481,-0.0661 q 0.0371,0.0332 0.0708,0.0332 0.0694,0 0.0694,-0.1058 0,-0.0932 -0.0616,-0.0932 -0.0402,0 -0.0786,0.0437 z m 0.4324,0.0632 0,-0.0498 q -0.0383,0.0559 -0.093,0.0559 -0.0347,0 -0.0552,-0.0219 -0.0205,-0.0218 -0.0205,-0.0589 l 0,-0.1904 0.0481,0 0,0.1748 q 0,0.0297 0.0087,0.0423 0.0086,0.0126 0.0289,0.0126 0.0439,0 0.083,-0.0579 l 0,-0.1718 0.0481,0 0,0.2651 z m 0.2019,-0.229 0,0.229 -0.0483,0 0,-0.229 -0.0376,0 0,-0.0361 0.0376,0 0,-0.0318 q 0,-0.0947 0.0864,-0.0947 0.0242,0 0.0549,0.008 l 0,0.0381 q -0.0324,-0.01 -0.052,-0.01 -0.0237,0 -0.0323,0.0114 -0.0087,0.0113 -0.0087,0.0421 l 0,0.0369 0.0662,0 0,0.0361 z m 0.1838,0 0,0.229 -0.0483,0 0,-0.229 -0.0376,0 0,-0.0361 0.0376,0 0,-0.0318 q 0,-0.0947 0.0864,-0.0947 0.0242,0 0.055,0.008 l 0,0.0381 q -0.0325,-0.01 -0.052,-0.01 -0.0237,0 -0.0324,0.0114 -0.0087,0.0113 -0.0087,0.0421 l 0,0.0369 0.0662,0 0,0.0361 z m 0.3208,0.2204 q -0.0483,0.0147 -0.0827,0.0147 -0.0586,0 -0.0956,-0.0389 -0.037,-0.039 -0.037,-0.101 0,-0.0603 0.0326,-0.0989 0.0326,-0.0386 0.0834,-0.0386 0.0481,0 0.0743,0.0342 0.0263,0.0342 0.0263,0.0972 l -3e-4,0.0149 -0.1672,0 q 0.0105,0.0945 0.0925,0.0945 0.03,0 0.0737,-0.0161 z m -0.164,-0.1525 0.1169,0 q 0,-0.074 -0.0551,-0.074 -0.0555,0 -0.0618,0.074 z m 0.2483,0.1611 0,-0.2651 0.0481,0 0,0.0498 q 0.0285,-0.0557 0.083,-0.0557 0.0073,0 0.0154,0.0012 l 0,0.0449 q -0.0125,-0.0041 -0.022,-0.0041 -0.0457,0 -0.0764,0.0542 l 0,0.1748 z"
         id="path39"
         inkscape:connector-curvature="0"
         style="stroke:none" />
      <path
         d="m -1.3183,-0.7537 0.014,-0.0417 q 0.0378,0.0198 0.0783,0.0198 0.0813,0 0.0986,-0.0862 l 0.0083,-0.0418 q -0.0377,0.0557 -0.0985,0.0557 -0.0476,0 -0.0688,-0.0347 -0.0211,-0.0346 -0.0094,-0.0935 0.0122,-0.0605 0.0518,-0.0986 0.0396,-0.0381 0.0903,-0.0381 0.0445,0 0.0692,0.0361 l 0.0061,-0.0302 0.0483,0 -0.0386,0.1928 q -0.0124,0.0623 -0.0249,0.0922 -0.0124,0.0299 -0.034,0.049 -0.0382,0.0334 -0.1046,0.0334 -0.0464,0 -0.0861,-0.0142 z m 0.2052,-0.1799 0.022,-0.1101 q -0.0251,-0.033 -0.0625,-0.033 -0.0332,0 -0.0573,0.0267 -0.0241,0.0266 -0.0334,0.0729 -0.0174,0.0872 0.0439,0.0872 0.0417,0 0.0873,-0.0437 z m 0.2301,0.1008 q -0.0559,0 -0.0799,-0.0526 -0.0241,-0.0526 -0.0071,-0.1373 0.0171,-0.0855 0.0623,-0.1375 0.0452,-0.052 0.102,-0.052 0.0569,0 0.0813,0.052 0.0244,0.052 0.0075,0.1368 -0.0174,0.0869 -0.0626,0.1388 -0.0452,0.0518 -0.1035,0.0518 z m 0.0077,-0.0361 q 0.0764,0 0.1075,-0.1553 0.0303,-0.1518 -0.0451,-0.1518 -0.0752,0 -0.1058,0.1533 -0.0308,0.1538 0.0434,0.1538 z"
         id="path41"
         inkscape:connector-curvature="0"
         style="fill:#ffffff;stroke:none" />
    </g>
    <g
       font-size="0.5px"
       font-style="italic"
       transform="matrix(50,0,0,50,133.4922,120.7227)"
       id="g43"
       style="font-style:italic;font-size:0.5px;font-family:sans-serif;stroke-width:0.04">
      <path
         d="m 1.11,-1 0.76,0"
         id="path45"
         inkscape:connector-curvature="0"
         style="fill:none" />
      <path
         d="m 1.87,-1.075 0,0.15 0,-0.075 z"
         id="path47"
         inkscape:connector-curvature="0"
         style="stroke:none" />
    </g>
    <g
       font-size="0.5px"
       font-style="italic"
       transform="matrix(50,0,0,50,133.4922,120.7227)"
       id="g49"
       style="font-style:italic;font-size:0.5px;font-family:sans-serif;stroke-width:0.04">
      <line
         x1="1"
         x2="1.11"
         y1="-1"
         y2="-1"
         id="line51"
         style="fill:none" />
    </g>
    <g
       font-size="0.5px"
       font-style="italic"
       transform="matrix(50,0,0,50,133.4922,120.7227)"
       id="g53"
       style="font-style:italic;font-size:0.5px;font-family:sans-serif;stroke-width:0.04">
      <path
         d="m -1.87,-1 0.76,0"
         id="path55"
         inkscape:connector-curvature="0"
         style="fill:none" />
      <path
         d="m -1.11,-1.075 0,0.15 0,-0.075 z"
         id="path57"
         inkscape:connector-curvature="0"
         style="stroke:none" />
    </g>
    <g
       font-size="0.5px"
       font-style="italic"
       transform="matrix(50,0,0,50,133.4922,120.7227)"
       id="g59"
       style="font-style:italic;font-size:0.5px;font-family:sans-serif;stroke-width:0.04">
      <line
         x1="-1.11"
         x2="-1"
         y1="-1"
         y2="-1"
         id="line61"
         style="fill:none" />
    </g>
  </g>
</svg>
