<?xml version="1.0" encoding="UTF-8" standalone="no"?>
<svg
   xmlns:dc="http://purl.org/dc/elements/1.1/"
   xmlns:cc="http://creativecommons.org/ns#"
   xmlns:rdf="http://www.w3.org/1999/02/22-rdf-syntax-ns#"
   xmlns:svg="http://www.w3.org/2000/svg"
   xmlns="http://www.w3.org/2000/svg"
   xmlns:sodipodi="http://sodipodi.sourceforge.net/DTD/sodipodi-0.dtd"
   xmlns:inkscape="http://www.inkscape.org/namespaces/inkscape"
   color-interpolation="auto"
   color-rendering="auto"
   fill="black"
   fill-opacity="1"
   font-family="'Dialog'"
   font-size="12"
   font-style="normal"
   font-weight="normal"
   height="243"
   image-rendering="auto"
   shape-rendering="auto"
   stroke="black"
   stroke-dasharray="none"
   stroke-dashoffset="0"
   stroke-linecap="square"
   stroke-linejoin="miter"
   stroke-miterlimit="10"
   stroke-opacity="1"
   stroke-width="1"
   text-rendering="auto"
   width="1750"
   id="svg2"
   version="1.1"
   inkscape:version="0.91 r13725"
   sodipodi:docname="buffer-inverter_schematic.svg">
  <metadata
     id="metadata101">
    <rdf:RDF>
      <cc:Work
         rdf:about="">
        <dc:format>image/svg+xml</dc:format>
        <dc:type
           rdf:resource="http://purl.org/dc/dcmitype/StillImage" />
      </cc:Work>
    </rdf:RDF>
  </metadata>
  <sodipodi:namedview
     pagecolor="#ffffff"
     bordercolor="#666666"
     borderopacity="1"
     objecttolerance="10"
     gridtolerance="10"
     guidetolerance="10"
     inkscape:pageopacity="0"
     inkscape:pageshadow="2"
     inkscape:window-width="1920"
     inkscape:window-height="1058"
     id="namedview99"
     showgrid="false"
     inkscape:zoom="0.16914286"
     inkscape:cx="875"
     inkscape:cy="115.58784"
     inkscape:window-x="-8"
     inkscape:window-y="-8"
     inkscape:window-maximized="1"
     inkscape:current-layer="svg2" />
  <!--Generated by the Batik Graphics2D SVG Generator-->
  <defs
     id="genericDefs" />
  <g
     id="g5"
     transform="translate(665.1941,-1.6833255)">
    <g
       transform="matrix(50,0,0,50,209.5609,213.6448)"
       id="g7"
       style="fill:#ffffff;stroke:#ffffff;stroke-width:0.06">
      <path
         d="m -0.5,-0.5 0,1 1,-0.5 z"
         id="path9"
         inkscape:connector-curvature="0"
         style="stroke:none" />
    </g>
    <g
       transform="matrix(50,0,0,50,209.5609,213.6448)"
       id="g11"
       style="stroke-width:0.06">
      <path
         d="m -0.5,-0.5 0,1 1,-0.5 z"
         id="path13"
         inkscape:connector-curvature="0"
         style="fill:none" />
      <line
         x1="0.5"
         x2="2"
         y1="0"
         y2="0"
         id="line15"
         style="fill:none;stroke-width:0.04" />
      <line
         x1="-0.5"
         x2="-2"
         y1="0"
         y2="0"
         id="line17"
         style="fill:none;stroke-width:0.04" />
    </g>
    <g
       font-size="0.5"
       font-style="italic"
       transform="matrix(50,0,0,50,209.5609,213.6448)"
       id="g19"
       style="font-style:italic;font-size:0.5px;font-family:sans-serif;fill:#3333ff;stroke:#3333ff;stroke-width:0.04">
      <path
         d="m -0.6526,-0.811 0.0747,-0.3579 0.0442,0 -0.0266,0.128 q 0.021,-0.0193 0.0381,-0.0273 0.0171,-0.0079 0.0356,-0.0079 0.0364,0 0.0607,0.0271 0.0243,0.0271 0.0243,0.0789 0,0.0344 -0.0098,0.0629 -0.0097,0.0286 -0.0242,0.048 -0.0144,0.0194 -0.0297,0.031 -0.0154,0.0116 -0.0315,0.0174 -0.0161,0.0057 -0.031,0.0057 -0.0257,0 -0.0452,-0.0136 -0.0195,-0.0135 -0.0305,-0.0413 l -0.0103,0.049 -0.0388,0 z m 0.0654,-0.1064 -2e-4,0.0083 q 0,0.0332 0.0159,0.0505 0.0158,0.0174 0.0395,0.0174 0.0232,0 0.0426,-0.0163 0.0194,-0.0162 0.0319,-0.0506 0.0124,-0.0345 0.0124,-0.0635 0,-0.0327 -0.0157,-0.0508 -0.0158,-0.0181 -0.039,-0.0181 -0.0239,0 -0.0439,0.0185 -0.02,0.0184 -0.0334,0.0567 -0.0101,0.0286 -0.0101,0.0479 z m 0.3897,0.0596 q -0.0466,0.0527 -0.0955,0.0527 -0.03,0 -0.0484,-0.0172 -0.0185,-0.0172 -0.0185,-0.0421 0,-0.0164 0.0083,-0.0562 l 0.0313,-0.1496 0.0442,0 -0.0347,0.1657 q -0.0044,0.0208 -0.0044,0.0323 0,0.0146 0.0089,0.0228 0.0089,0.0082 0.0263,0.0082 0.0185,0 0.0362,-0.0091 0.0177,-0.009 0.0305,-0.0244 0.0129,-0.0154 0.0209,-0.0364 0.0054,-0.0134 0.0125,-0.0471 l 0.0234,-0.112 0.0442,0 -0.0542,0.2592 -0.0408,0 0.0098,-0.0468 z m 0.1072,0.0468 0.0471,-0.2251 -0.0396,0 0.0071,-0.0341 0.0396,0 0.0075,-0.0369 q 0.0059,-0.0276 0.0121,-0.0398 0.0062,-0.0122 0.0203,-0.0201 0.014,-0.008 0.0382,-0.008 0.0168,0 0.0488,0.0071 l -0.008,0.0386 q -0.0225,-0.0059 -0.0376,-0.0059 -0.013,0 -0.0197,0.0065 -0.0067,0.0065 -0.0116,0.0306 l -0.0058,0.0279 0.0493,0 -0.0071,0.0341 -0.0493,0 -0.0472,0.2251 -0.0441,0 z m 0.1389,0 0.0471,-0.2251 -0.0395,0 0.007,-0.0341 0.0396,0 0.0075,-0.0369 q 0.0059,-0.0276 0.0121,-0.0398 0.0063,-0.0122 0.0203,-0.0201 0.014,-0.008 0.0382,-0.008 0.0168,0 0.0488,0.0071 l -0.008,0.0386 q -0.0225,-0.0059 -0.0376,-0.0059 -0.013,0 -0.0197,0.0065 -0.0067,0.0065 -0.0116,0.0306 l -0.0058,0.0279 0.0493,0 -0.0071,0.0341 -0.0493,0 -0.0471,0.2251 -0.0442,0 z m 0.3232,-0.0881 0.043,0.0044 q -0.0093,0.032 -0.0426,0.0608 -0.0333,0.0288 -0.0795,0.0288 -0.0288,0 -0.0528,-0.0133 Q 0.2158,-0.8317 0.2032,-0.8571 0.1907,-0.8825 0.1907,-0.915 q 0,-0.0424 0.0196,-0.0824 0.0197,-0.0399 0.0509,-0.0593 0.0313,-0.0194 0.0677,-0.0194 0.0463,0 0.0741,0.0288 0.0277,0.0288 0.0277,0.0786 0,0.0191 -0.0035,0.0391 l -0.1909,0 q -9e-4,0.0076 -9e-4,0.0137 0,0.0363 0.0167,0.0555 0.0167,0.0192 0.0409,0.0192 0.0227,0 0.0446,-0.0149 0.022,-0.0149 0.0342,-0.043 z m -0.1284,-0.0642 0.1455,0 q 2e-4,-0.0068 2e-4,-0.0098 0,-0.0332 -0.0166,-0.0509 -0.0166,-0.0177 -0.0427,-0.0177 -0.0283,0 -0.0516,0.0195 -0.0233,0.0196 -0.0348,0.0589 z m 0.2161,0.1523 0.0542,-0.2592 0.039,0 -0.011,0.0529 q 0.0201,-0.03 0.0392,-0.0444 0.0192,-0.0144 0.0392,-0.0144 0.0132,0 0.0325,0.0095 l -0.0181,0.041 Q 0.623,-1.0339 0.6094,-1.0339 q -0.0232,0 -0.0476,0.0259 -0.0244,0.0259 -0.0384,0.093 l -0.0219,0.104 -0.042,0 z"
         id="path21"
         inkscape:connector-curvature="0"
         style="stroke:none" />
    </g>
    <g
       font-size="0.5"
       font-style="italic"
       transform="matrix(-50,0,0,-50,217.0609,63.6448)"
       id="g23"
       style="font-style:italic;font-size:0.5px;font-family:sans-serif;fill:#ffffff;stroke:#ffffff;stroke-width:0.06">
      <path
         d="m -0.5,-0.5 0,1 1,-0.5 z"
         id="path25"
         inkscape:connector-curvature="0"
         style="stroke:none" />
      <path
         d="m -0.5,-0.5 0,1 1,-0.5 z"
         id="path27"
         inkscape:connector-curvature="0"
         style="fill:none;stroke:#000000" />
      <circle
         cx="0"
         cy="0"
         r="0.15000001"
         transform="translate(0.65,0)"
         id="circle29"
         style="stroke:none" />
      <circle
         cx="0"
         cy="0"
         r="0.15000001"
         transform="translate(0.65,0)"
         id="circle31"
         style="fill:none;stroke:#000000" />
      <line
         transform="matrix(-1,0,0,-1,0.15,0)"
         x1="0.64999998"
         x2="2"
         y1="0"
         y2="0"
         id="line33"
         style="fill:none;stroke:#000000;stroke-width:0.04" />
      <line
         transform="matrix(-1,0,0,-1,0.15,0)"
         x1="-0.64999998"
         x2="-2"
         y1="0"
         y2="0"
         id="line35"
         style="fill:none;stroke:#000000;stroke-width:0.04" />
      <path
         d="m -0.7833,-1.117 0.0105,-0.05 0.0439,0 -0.0105,0.05 -0.0439,0 z m -0.0645,0.3079 0.0542,-0.2593 0.0442,0 -0.0542,0.2593 -0.0442,0 z m 0.1128,0 0.0542,-0.2593 0.0401,0 -0.0096,0.0452 q 0.0262,-0.0266 0.0489,-0.0389 0.0227,-0.0122 0.0463,-0.0122 0.0315,0 0.0495,0.0171 0.0179,0.0171 0.0179,0.0457 0,0.0144 -0.0063,0.0454 l -0.033,0.157 -0.0442,0 0.0345,-0.1643 q 0.0051,-0.024 0.0051,-0.0354 0,-0.013 -0.0089,-0.021 -0.0089,-0.0081 -0.0258,-0.0081 -0.0339,0 -0.0604,0.0244 -0.0265,0.0244 -0.0389,0.0838 l -0.0252,0.1206 -0.0442,0 z m 0.3435,0 -0.0425,-0.2593 0.043,0 0.0222,0.1428 q 0.0037,0.0235 0.0091,0.0764 0.0127,-0.0276 0.0324,-0.0632 l 0.0867,-0.156 0.0466,0 -0.1484,0.2593 -0.0491,0 z m 0.375,-0.0882 0.043,0.0044 q -0.0093,0.032 -0.0426,0.0608 -0.0333,0.0288 -0.0795,0.0288 -0.0288,0 -0.0528,-0.0133 -0.0241,-0.0133 -0.0367,-0.0387 -0.0125,-0.0254 -0.0125,-0.0578 0,-0.0425 0.0196,-0.0824 0.0197,-0.0399 0.0509,-0.0594 0.0313,-0.0194 0.0677,-0.0194 0.0463,0 0.0741,0.0288 0.0277,0.0289 0.0277,0.0787 0,0.019 -0.0035,0.039 l -0.1909,0 q -9e-4,0.0076 -9e-4,0.0137 0,0.0364 0.0167,0.0555 0.0167,0.0192 0.0409,0.0192 0.0227,0 0.0446,-0.0149 0.022,-0.0149 0.0342,-0.043 z m -0.1284,-0.0642 0.1455,0 q 2e-4,-0.0068 2e-4,-0.0097 0,-0.0332 -0.0166,-0.0509 -0.0166,-0.0177 -0.0427,-0.0177 -0.0283,0 -0.0516,0.0195 -0.0233,0.0195 -0.0348,0.0588 z m 0.2161,0.1524 0.0542,-0.2593 0.039,0 -0.011,0.053 q 0.0201,-0.0301 0.0392,-0.0445 0.0192,-0.0144 0.0392,-0.0144 0.0132,0 0.0325,0.0096 l -0.0181,0.041 Q 0.2347,-1.032 0.2211,-1.032 q -0.0232,0 -0.0476,0.0258 -0.0245,0.0259 -0.0384,0.0931 l -0.0219,0.104 -0.042,0 z M 0.3409,-0.845 0.3336,-0.8089 q -0.0158,0.0042 -0.0307,0.0042 -0.0264,0 -0.042,-0.013 -0.0118,-0.0097 -0.0118,-0.0266 0,-0.0085 0.0064,-0.0393 l 0.0315,-0.1506 -0.0349,0 0.0071,-0.0342 0.0349,0 0.0134,-0.0637 0.0505,-0.0305 -0.0197,0.0942 0.0434,0 -0.0073,0.0342 -0.0432,0 -0.0301,0.1433 q -0.0056,0.0273 -0.0056,0.0327 0,0.0078 0.0046,0.012 0.0045,0.0041 0.0147,0.0041 0.0147,0 0.0261,-0.0029 z M 0.567,-0.8973 0.61,-0.8929 q -0.0093,0.032 -0.0426,0.0608 -0.0333,0.0288 -0.0795,0.0288 -0.0288,0 -0.0528,-0.0133 Q 0.411,-0.8299 0.3984,-0.8553 0.3859,-0.8807 0.3859,-0.9131 q 0,-0.0425 0.0196,-0.0824 0.0197,-0.0399 0.0509,-0.0594 0.0313,-0.0194 0.0676,-0.0194 0.0464,0 0.0741,0.0288 0.0278,0.0289 0.0278,0.0787 0,0.019 -0.0035,0.039 l -0.1909,0 q -0.001,0.0076 -0.001,0.0137 0,0.0364 0.0168,0.0555 0.0167,0.0192 0.0409,0.0192 0.0227,0 0.0446,-0.0149 0.022,-0.0149 0.0342,-0.043 z m -0.1284,-0.0642 0.1455,0 q 2e-4,-0.0068 2e-4,-0.0097 0,-0.0332 -0.0166,-0.0509 -0.0166,-0.0177 -0.0427,-0.0177 -0.0283,0 -0.0516,0.0195 -0.0233,0.0195 -0.0348,0.0588 z m 0.2161,0.1524 0.0542,-0.2593 0.039,0 -0.011,0.053 q 0.0201,-0.0301 0.0392,-0.0445 0.0192,-0.0144 0.0392,-0.0144 0.0132,0 0.0325,0.0096 l -0.0181,0.041 Q 0.8182,-1.032 0.8046,-1.032 q -0.0232,0 -0.0476,0.0258 -0.0245,0.0259 -0.0384,0.0931 l -0.0219,0.104 -0.042,0 z"
         transform="matrix(-1,0,0,-1,0.15,0)"
         id="path37"
         inkscape:connector-curvature="0"
         style="fill:#3333ff;stroke:none;stroke-width:0.04" />
    </g>
    <g
       font-size="0.5"
       font-style="italic"
       transform="matrix(-50,0,0,-50,34.5609,138.6448)"
       id="g39"
       style="font-style:italic;font-size:0.5px;font-family:sans-serif;fill:#ffffff;stroke:#ffffff;stroke-width:0.04">
      <path
         d="M -0.15,-0.15 0,-0.15 0.15,0 0,0.15 l -0.15,0 z"
         id="path41"
         inkscape:connector-curvature="0"
         style="stroke:none" />
      <path
         d="M -0.15,-0.15 0,-0.15 0.15,0 0,0.15 l -0.15,0 z"
         id="path43"
         inkscape:connector-curvature="0"
         style="fill:none;stroke:#000000" />
    </g>
    <g
       font-size="0.5"
       font-style="italic"
       transform="matrix(50,0,0,50,34.5609,138.6448)"
       id="g45"
       style="font-style:italic;font-size:0.5px;font-family:sans-serif;fill:#0000ff;stroke:#0000ff;stroke-width:0.04">
      <path
         d="m -0.4218,0.0626 q -0.0229,0.0198 -0.0442,0.029 -0.0212,0.0091 -0.0454,0.0091 -0.0359,0 -0.0578,-0.0211 -0.022,-0.0211 -0.022,-0.0541 0,-0.0217 0.0099,-0.0384 0.0099,-0.0168 0.0262,-0.0269 0.0164,-0.0101 0.0401,-0.0145 0.0148,-0.0029 0.0565,-0.0047 0.0416,-0.0017 0.0597,-0.0087 0.0051,-0.0181 0.0051,-0.0301 0,-0.0154 -0.0112,-0.0241 -0.0154,-0.0122 -0.045,-0.0122 -0.0278,0 -0.0455,0.0123 -0.0177,0.0123 -0.0257,0.035 l -0.0447,-0.0039 q 0.0136,-0.0386 0.0433,-0.0591 0.0297,-0.0205 0.0748,-0.0205 0.0481,0 0.0762,0.023 0.0215,0.0171 0.0215,0.0444 0,0.0208 -0.0061,0.0481 l -0.0144,0.0644 q -0.0068,0.0308 -0.0068,0.0501 0,0.0122 0.0053,0.0352 l -0.0447,0 Q -0.4203,0.0821 -0.4218,0.0626 Z m 0.0164,-0.0991 q -0.0093,0.0037 -0.0199,0.0056 -0.0106,0.002 -0.0355,0.0042 -0.0386,0.0034 -0.0545,0.0086 -0.0159,0.0053 -0.0239,0.0168 -0.0081,0.0114 -0.0081,0.0254 0,0.0185 0.0128,0.0305 0.0129,0.0119 0.0365,0.0119 0.022,0 0.0423,-0.0116 0.0202,-0.0116 0.032,-0.0323 0.0117,-0.0208 0.0183,-0.0591 z"
         id="path47"
         inkscape:connector-curvature="0"
         style="stroke:none" />
    </g>
    <g
       font-size="0.5"
       font-style="italic"
       transform="matrix(50,0,0,50,384.5609,138.6448)"
       id="g49"
       style="font-style:italic;font-size:0.5px;font-family:sans-serif;fill:#ffffff;stroke:#ffffff;stroke-width:0.04">
      <path
         d="M -0.15,-0.15 0,-0.15 0.15,0 0,0.15 l -0.15,0 z"
         id="path51"
         inkscape:connector-curvature="0"
         style="stroke:none" />
      <path
         d="M -0.15,-0.15 0,-0.15 0.15,0 0,0.15 l -0.15,0 z"
         id="path53"
         inkscape:connector-curvature="0"
         style="fill:none;stroke:#000000" />
    </g>
    <g
       font-size="0.5"
       font-style="italic"
       transform="matrix(50,0,0,50,384.5609,138.6448)"
       id="g55"
       style="font-style:italic;font-size:0.5px;font-family:sans-serif;fill:#0000ff;stroke:#0000ff;stroke-width:0.04">
      <path
         d="m 0.35,0.1273 0.0747,-0.3579 0.0442,0 -0.0266,0.1279 q 0.021,-0.0192 0.0381,-0.0272 0.0171,-0.0079 0.0356,-0.0079 0.0364,0 0.0607,0.0271 0.0243,0.0271 0.0243,0.0788 0,0.0345 -0.0098,0.063 Q 0.5814,0.0597 0.567,0.0791 0.5526,0.0985 0.5372,0.1101 0.5219,0.1217 0.5058,0.1274 0.4896,0.1332 0.4747,0.1332 0.4491,0.1332 0.4296,0.1196 0.41,0.1061 0.3991,0.0782 l -0.0103,0.0491 -0.0388,0 z m 0.0654,-0.1064 -2e-4,0.0083 q 0,0.0332 0.0158,0.0505 0.0159,0.0173 0.0396,0.0173 0.0232,0 0.0426,-0.0162 0.0194,-0.0162 0.0319,-0.0507 0.0124,-0.0344 0.0124,-0.0634 0,-0.0327 -0.0157,-0.0508 -0.0158,-0.0181 -0.039,-0.0181 -0.0239,0 -0.0439,0.0185 -0.02,0.0184 -0.0335,0.0567 -0.01,0.0286 -0.01,0.0479 z"
         id="path57"
         inkscape:connector-curvature="0"
         style="stroke:none" />
    </g>
    <g
       font-size="0.5"
       font-style="italic"
       transform="matrix(50,0,0,50,184.5609,213.6448)"
       id="g59"
       style="font-style:italic;font-size:0.5px;font-family:sans-serif;stroke-width:0.04">
      <line
         x1="-1.5"
         x2="-1.61"
         y1="-3"
         y2="-3"
         id="line61"
         style="fill:none" />
    </g>
    <g
       font-size="0.5"
       font-style="italic"
       transform="matrix(50,0,0,50,184.5609,213.6448)"
       id="g63"
       style="font-style:italic;font-size:0.5px;font-family:sans-serif;stroke-width:0.04">
      <path
         d="m -1.61,-3 -0.89,0 0,1.5 -0.35,0"
         id="path65"
         inkscape:connector-curvature="0"
         style="fill:none" />
      <path
         d="m -2.85,-1.425 0,-0.15 0,0.075 z"
         id="path67"
         inkscape:connector-curvature="0"
         style="stroke:none" />
    </g>
    <g
       font-size="0.5"
       font-style="italic"
       transform="matrix(50,0,0,50,184.5609,213.6448)"
       id="g69"
       style="font-style:italic;font-size:0.5px;font-family:sans-serif;stroke-width:0.04">
      <line
         x1="-1.61"
         x2="-1.5"
         y1="0"
         y2="0"
         id="line71"
         style="fill:none" />
    </g>
    <g
       font-size="0.5"
       font-style="italic"
       transform="matrix(50,0,0,50,184.5609,213.6448)"
       id="g73"
       style="font-style:italic;font-size:0.5px;font-family:sans-serif;stroke-width:0.04">
      <path
         d="m -2.85,-1.5 0.35,0 0,1.5 0.89,0"
         id="path75"
         inkscape:connector-curvature="0"
         style="fill:none" />
      <path
         d="m -1.61,-0.075 0,0.15 0,-0.075 z"
         id="path77"
         inkscape:connector-curvature="0"
         style="stroke:none" />
    </g>
    <g
       font-size="0.5"
       font-style="italic"
       transform="matrix(50,0,0,50,184.5609,213.6448)"
       id="g79"
       style="font-style:italic;font-size:0.5px;font-family:sans-serif;stroke-width:0.04">
      <line
         x1="2.5"
         x2="2.6099999"
         y1="0"
         y2="0"
         id="line81"
         style="fill:none" />
    </g>
    <g
       font-size="0.5"
       font-style="italic"
       transform="matrix(50,0,0,50,184.5609,213.6448)"
       id="g83"
       style="font-style:italic;font-size:0.5px;font-family:sans-serif;stroke-width:0.04">
      <path
         d="m 2.61,0 0.89,0 0,-1.5 0.35,0"
         id="path85"
         inkscape:connector-curvature="0"
         style="fill:none" />
      <path
         d="m 3.85,-1.575 0,0.15 0,-0.075 z"
         id="path87"
         inkscape:connector-curvature="0"
         style="stroke:none" />
    </g>
    <g
       font-size="0.5"
       font-style="italic"
       transform="matrix(50,0,0,50,184.5609,213.6448)"
       id="g89"
       style="font-style:italic;font-size:0.5px;font-family:sans-serif;stroke-width:0.04">
      <line
         x1="2.6099999"
         x2="2.5"
         y1="-3"
         y2="-3"
         id="line91"
         style="fill:none" />
    </g>
    <g
       font-size="0.5"
       font-style="italic"
       transform="matrix(50,0,0,50,184.5609,213.6448)"
       id="g93"
       style="font-style:italic;font-size:0.5px;font-family:sans-serif;stroke-width:0.04">
      <path
         d="m 3.85,-1.5 -0.35,0 0,-1.5 -0.89,0"
         id="path95"
         inkscape:connector-curvature="0"
         style="fill:none" />
      <path
         d="m 2.61,-2.925 0,-0.15 0,0.075 z"
         id="path97"
         inkscape:connector-curvature="0"
         style="stroke:none" />
    </g>
  </g>
</svg>
