<?xml version="1.0" encoding="UTF-8" standalone="no"?>
<svg
   xmlns:dc="http://purl.org/dc/elements/1.1/"
   xmlns:cc="http://creativecommons.org/ns#"
   xmlns:rdf="http://www.w3.org/1999/02/22-rdf-syntax-ns#"
   xmlns:svg="http://www.w3.org/2000/svg"
   xmlns="http://www.w3.org/2000/svg"
   xmlns:sodipodi="http://sodipodi.sourceforge.net/DTD/sodipodi-0.dtd"
   xmlns:inkscape="http://www.inkscape.org/namespaces/inkscape"
   font-size="12"
   font-style="normal"
   font-weight="normal"
   height="417"
   stroke-miterlimit="10"
   width="1750"
   id="svg2"
   version="1.1"
   inkscape:version="0.91 r13725"
   sodipodi:docname="bufferAndInverter00.svg"
   style="font-style:normal;font-weight:normal;font-size:12px;font-family:Dialog;color-interpolation:auto;fill:#000000;fill-opacity:1;stroke:#000000;stroke-width:1;stroke-linecap:square;stroke-linejoin:miter;stroke-miterlimit:10;stroke-dasharray:none;stroke-dashoffset:0;stroke-opacity:1;color-rendering:auto;image-rendering:auto;shape-rendering:auto;text-rendering:auto">
  <metadata
     id="metadata127">
    <rdf:RDF>
      <cc:Work
         rdf:about="">
        <dc:format>image/svg+xml</dc:format>
        <dc:type
           rdf:resource="http://purl.org/dc/dcmitype/StillImage" />
        <dc:title></dc:title>
      </cc:Work>
    </rdf:RDF>
  </metadata>
  <sodipodi:namedview
     pagecolor="#ffffff"
     bordercolor="#666666"
     borderopacity="1"
     objecttolerance="10"
     gridtolerance="10"
     guidetolerance="10"
     inkscape:pageopacity="0"
     inkscape:pageshadow="2"
     inkscape:window-width="1680"
     inkscape:window-height="1005"
     id="namedview125"
     showgrid="false"
     inkscape:zoom="0.30693069"
     inkscape:cx="-32.580645"
     inkscape:cy="-263.91935"
     inkscape:window-x="0"
     inkscape:window-y="1"
     inkscape:window-maximized="1"
     inkscape:current-layer="svg2" />
  <!--Generated by the Batik Graphics2D SVG Generator-->
  <defs
     id="genericDefs" />
  <g
     id="g5"
     transform="translate(370,1.2887)">
    <g
       font-size="0.75"
       transform="matrix(50,0,0,50,180,27.7338)"
       id="g7"
       style="font-size:0.75px;font-family:sans-serif;fill:#b20000;stroke:#b20000">
      <path
         d="m -0.117,0.1097 q -0.0366,0.0311 -0.0705,0.0439 -0.0339,0.0129 -0.0727,0.0129 -0.0641,0 -0.0985,-0.0314 -0.0344,-0.0313 -0.0344,-0.08 0,-0.0286 0.013,-0.0522 0.013,-0.0236 0.034,-0.0379 0.0211,-0.0142 0.0475,-0.0216 0.0194,-0.0051 0.0586,-0.0099 0.0798,-0.0095 0.1175,-0.0227 4e-4,-0.0135 4e-4,-0.0172 0,-0.0403 -0.0187,-0.0567 -0.0253,-0.0224 -0.0751,-0.0224 -0.0465,0 -0.0686,0.0163 -0.0222,0.0163 -0.0328,0.0577 l -0.0645,-0.0088 q 0.0088,-0.0414 0.029,-0.0668 0.0201,-0.0255 0.0582,-0.0392 0.0381,-0.0137 0.0883,-0.0137 0.0498,0 0.0809,0.0117 0.0311,0.0117 0.0457,0.0295 0.0147,0.0177 0.0206,0.0448 0.0033,0.0169 0.0033,0.0608 l 0,0.0879 q 0,0.0919 0.0042,0.1163 0.0042,0.0243 0.0166,0.0467 l -0.0688,0 Q -0.1141,0.1371 -0.117,0.1097 Z m -0.0055,-0.1472 q -0.0359,0.0146 -0.1077,0.0249 -0.0406,0.0058 -0.0575,0.0132 -0.0168,0.0073 -0.026,0.0214 -0.0091,0.0141 -0.0091,0.0313 0,0.0264 0.0199,0.0439 0.02,0.0176 0.0585,0.0176 0.0381,0 0.0677,-0.0166 0.0297,-0.0167 0.0436,-0.0457 0.0106,-0.0223 0.0106,-0.0659 l 0,-0.0241 z m 0.3073,0.1084 0,-0.1473 -0.1462,0 0,-0.0615 0.1462,0 0,-0.1461 0.0622,0 0,0.1461 0.1461,0 0,0.0615 -0.1461,0 0,0.1473 -0.0622,0 z"
         id="path9"
         inkscape:connector-curvature="0"
         style="stroke:none" />
    </g>
    <g
       font-size="0.75"
       transform="matrix(50,0,0,50,180,327.7338)"
       id="g11"
       style="font-size:0.75px;font-family:sans-serif;fill:#b20000;stroke:#b20000">
      <path
         d="m -0.032,0.0943 q -0.0367,0.0311 -0.0705,0.044 -0.0339,0.0128 -0.0727,0.0128 -0.0641,0 -0.0985,-0.0313 -0.0345,-0.0314 -0.0345,-0.0801 0,-0.0285 0.013,-0.0522 0.013,-0.0236 0.0341,-0.0378 0.0211,-0.0143 0.0474,-0.0217 0.0194,-0.0051 0.0586,-0.0098 0.0799,-0.0096 0.1176,-0.0228 3e-4,-0.0135 3e-4,-0.0172 0,-0.0403 -0.0186,-0.0567 -0.0253,-0.0224 -0.0751,-0.0224 -0.0465,0 -0.0687,0.0163 -0.0221,0.0163 -0.0328,0.0577 l -0.0644,-0.0088 q 0.0088,-0.0414 0.0289,-0.0668 0.0202,-0.0255 0.0583,-0.0392 0.038,-0.0137 0.0882,-0.0137 0.0498,0 0.0809,0.0117 0.0312,0.0117 0.0458,0.0295 0.0147,0.0177 0.0205,0.0448 0.0033,0.0169 0.0033,0.0608 l 0,0.0879 q 0,0.0919 0.0042,0.1163 0.0042,0.0243 0.0167,0.0467 l -0.0689,0 Q -0.0291,0.1218 -0.032,0.0943 Z m -0.0055,-0.1472 q -0.0359,0.0146 -0.1077,0.0249 -0.0406,0.0059 -0.0575,0.0132 -0.0168,0.0073 -0.026,0.0214 -0.0092,0.0141 -0.0092,0.0313 0,0.0264 0.02,0.044 0.02,0.0175 0.0584,0.0175 0.0381,0 0.0678,-0.0166 0.0296,-0.0167 0.0435,-0.0456 0.0107,-0.0224 0.0107,-0.0659 l 0,-0.0242 z m 0.1432,0.034 0,-0.0662 0.2025,0 0,0.0662 -0.2025,0 z"
         id="path13"
         inkscape:connector-curvature="0"
         style="stroke:none" />
    </g>
    <g
       font-size="0.75"
       transform="matrix(50,0,0,50,830,27.7338)"
       id="g15"
       style="font-size:0.75px;font-family:sans-serif;fill:#0000b2;stroke:#0000b2">
      <path
         d="m -0.321,0.191 -0.0611,0 0,-0.5369 0.0659,0 0,0.1915 q 0.0417,-0.0523 0.1065,-0.0523 0.0359,0 0.068,0.0144 0.032,0.0145 0.0527,0.0407 0.0207,0.0262 0.0324,0.0632 0.0117,0.0369 0.0117,0.0791 0,0.0999 -0.0494,0.1545 -0.0494,0.0546 -0.1186,0.0546 -0.0689,0 -0.1081,-0.0575 l 0,0.0487 z m -7e-4,-0.1974 q 0,0.0699 0.019,0.1011 0.0312,0.0509 0.0843,0.0509 0.0432,0 0.0747,-0.0376 0.0315,-0.0375 0.0315,-0.1118 0,-0.0762 -0.0303,-0.1125 -0.0302,-0.0362 -0.073,-0.0362 -0.0432,0 -0.0747,0.0375 -0.0315,0.0375 -0.0315,0.1086 z m 0.4955,0.1106 0,-0.1472 -0.1461,0 0,-0.0616 0.1461,0 0,-0.1461 0.0622,0 0,0.1461 0.1461,0 0,0.0616 -0.1461,0 0,0.1472 -0.0622,0 z"
         id="path17"
         inkscape:connector-curvature="0"
         style="stroke:none" />
    </g>
    <g
       font-size="0.75"
       transform="matrix(50,0,0,50,830,327.7338)"
       id="g19"
       style="font-size:0.75px;font-family:sans-serif;fill:#0000b2;stroke:#0000b2">
      <path
         d="m -0.236,0.191 -0.0612,0 0,-0.5369 0.0659,0 0,0.1915 q 0.0418,-0.0523 0.1066,-0.0523 0.0359,0 0.0679,0.0144 0.0321,0.0145 0.0528,0.0407 0.0207,0.0262 0.0324,0.0632 0.0117,0.0369 0.0117,0.0791 0,0.0999 -0.0494,0.1545 -0.0495,0.0546 -0.1187,0.0546 -0.0688,0 -0.108,-0.0575 l 0,0.0487 z m -8e-4,-0.1974 q 0,0.0699 0.0191,0.1011 0.0311,0.0509 0.0842,0.0509 0.0432,0 0.0747,-0.0376 0.0315,-0.0375 0.0315,-0.1118 0,-0.0762 -0.0302,-0.1125 -0.0302,-0.0362 -0.073,-0.0362 -0.0433,0 -0.0748,0.0375 -0.0315,0.0375 -0.0315,0.1086 z m 0.3315,0.0362 0,-0.0662 0.2025,0 0,0.0662 -0.2025,0 z"
         id="path21"
         inkscape:connector-curvature="0"
         style="stroke:none" />
    </g>
    <g
       font-size="0.75"
       transform="matrix(50,0,0,50,30,177.7338)"
       id="g23"
       style="font-size:0.75px;font-family:sans-serif;fill:#ffffff;stroke:#ffffff">
      <circle
         cx="0"
         cy="0"
         r="0.44999999"
         id="circle25"
         style="stroke:none" />
      <circle
         cx="0"
         cy="0"
         r="0.44999999"
         id="circle27"
         style="fill:none;stroke:#000000;stroke-width:0.1" />
      <circle
         cx="0"
         cy="0"
         r="0.26320001"
         id="circle29"
         style="fill:#000000;stroke:none;stroke-width:0.1" />
    </g>
    <g
       font-size="0.5"
       font-style="italic"
       transform="matrix(50,0,0,50,30,177.7338)"
       id="g31"
       style="font-style:italic;font-size:0.5px;font-family:sans-serif;fill:#0000b2;stroke:#0000b2;stroke-width:0.1">
      <path
         d="m -0.239,-0.8699 q -0.023,0.0198 -0.0442,0.029 -0.0212,0.0091 -0.0454,0.0091 -0.0359,0 -0.0579,-0.0211 -0.022,-0.0211 -0.022,-0.0541 0,-0.0217 0.0099,-0.0384 0.0099,-0.0167 0.0263,-0.0269 0.0163,-0.0101 0.04,-0.0145 0.0149,-0.0029 0.0565,-0.0046 0.0417,-0.0017 0.0597,-0.0088 0.0052,-0.0181 0.0052,-0.03 0,-0.0154 -0.0113,-0.0242 -0.0153,-0.0122 -0.0449,-0.0122 -0.0278,0 -0.0455,0.0123 -0.0177,0.0123 -0.0258,0.035 l -0.0447,-0.0039 q 0.0137,-0.0385 0.0434,-0.0591 0.0296,-0.0205 0.0748,-0.0205 0.0481,0 0.0762,0.023 0.0215,0.0171 0.0215,0.0444 0,0.0208 -0.0061,0.0481 l -0.0144,0.0645 q -0.0069,0.0307 -0.0069,0.05 0,0.0122 0.0054,0.0352 l -0.0447,0 Q -0.2375,-0.8503 -0.239,-0.8699 Z m 0.0163,-0.0991 q -0.0092,0.0037 -0.0199,0.0056 -0.0106,0.002 -0.0355,0.0042 -0.0386,0.0034 -0.0544,0.0087 -0.0159,0.0052 -0.0239,0.0167 -0.0081,0.0115 -0.0081,0.0254 0,0.0185 0.0128,0.0305 0.0128,0.012 0.0365,0.012 0.022,0 0.0422,-0.0116 0.0203,-0.0116 0.032,-0.0324 0.0118,-0.0207 0.0183,-0.0591 z m 0.0386,0.2307 0,-0.0317 0.2913,0 0,0.0317 -0.2913,0 z m 0.3452,-0.2168 q 0,-0.0454 0.0136,-0.0922 0.0135,-0.0469 0.0301,-0.075 0.0166,-0.0281 0.0345,-0.0439 0.0178,-0.0159 0.035,-0.0233 0.0172,-0.0075 0.0382,-0.0075 0.041,0 0.0685,0.0305 0.0275,0.0305 0.0275,0.0882 0,0.0593 -0.0191,0.1174 -0.0224,0.0688 -0.0625,0.1033 -0.0308,0.0261 -0.0701,0.0261 -0.0402,0 -0.068,-0.0316 -0.0277,-0.0316 -0.0277,-0.092 z m 0.0428,0.0113 q 0,0.0329 0.0109,0.0515 0.0149,0.0256 0.0442,0.0256 0.0257,0 0.0467,-0.0232 0.0302,-0.0327 0.0455,-0.0958 0.0153,-0.0631 0.0153,-0.1031 0,-0.0386 -0.0148,-0.0557 -0.0148,-0.0171 -0.039,-0.0171 -0.0175,0 -0.0328,0.009 -0.0152,0.0091 -0.0292,0.031 -0.0197,0.031 -0.0344,0.0928 -0.0124,0.0528 -0.0124,0.085 z"
         id="path33"
         inkscape:connector-curvature="0"
         style="stroke:none" />
    </g>
    <g
       font-size="0.5"
       font-style="italic"
       transform="matrix(50,0,0,50,330,177.7338)"
       id="g35"
       style="font-style:italic;font-size:0.5px;font-family:sans-serif;fill:#ffffff;stroke:#ffffff;stroke-width:0.1">
      <circle
         cx="0"
         cy="0"
         r="0.44999999"
         id="circle37"
         style="stroke:none" />
      <circle
         cx="0"
         cy="0"
         r="0.44999999"
         id="circle39"
         style="fill:none;stroke:#000000" />
      <path
         d="m -0.2175,-0.8699 q -0.023,0.0198 -0.0442,0.029 -0.0213,0.0091 -0.0454,0.0091 -0.0359,0 -0.0579,-0.0211 -0.022,-0.0211 -0.022,-0.0541 0,-0.0217 0.0099,-0.0384 0.0099,-0.0167 0.0263,-0.0269 0.0163,-0.0101 0.04,-0.0145 0.0149,-0.0029 0.0565,-0.0046 0.0417,-0.0017 0.0597,-0.0088 0.0051,-0.0181 0.0051,-0.03 0,-0.0154 -0.0112,-0.0242 -0.0154,-0.0122 -0.0449,-0.0122 -0.0278,0 -0.0455,0.0123 -0.0177,0.0123 -0.0258,0.035 l -0.0447,-0.0039 q 0.0137,-0.0385 0.0434,-0.0591 0.0296,-0.0205 0.0748,-0.0205 0.0481,0 0.0762,0.023 0.0215,0.0171 0.0215,0.0444 0,0.0208 -0.0062,0.0481 l -0.0144,0.0645 q -0.0068,0.0307 -0.0068,0.05 0,0.0122 0.0054,0.0352 l -0.0447,0 q -0.0037,-0.0127 -0.0051,-0.0323 z m 0.0163,-0.0991 q -0.0093,0.0037 -0.0199,0.0056 -0.0106,0.002 -0.0355,0.0042 -0.0386,0.0034 -0.0544,0.0087 -0.0159,0.0052 -0.024,0.0167 -0.008,0.0115 -0.008,0.0254 0,0.0185 0.0128,0.0305 0.0128,0.012 0.0365,0.012 0.022,0 0.0422,-0.0116 0.0203,-0.0116 0.032,-0.0324 0.0117,-0.0207 0.0183,-0.0591 z m 0.0386,0.2307 0,-0.0317 0.2913,0 0,0.0317 -0.2913,0 z m 0.4302,-0.0993 0.0566,-0.2703 q -0.0366,0.0288 -0.103,0.0462 L 0.2295,-1.1018 Q 0.2625,-1.115 0.2946,-1.1362 0.3267,-1.1574 0.3428,-1.1733 0.3525,-1.1831 0.3613,-1.197 l 0.0257,0 -0.075,0.3594 -0.0444,0 z"
         id="path41"
         inkscape:connector-curvature="0"
         style="fill:#0000b2;stroke:none" />
    </g>
    <g
       font-size="0.5"
       font-style="italic"
       transform="matrix(50,0,0,50,980,177.7338)"
       id="g43"
       style="font-style:italic;font-size:0.5px;font-family:sans-serif;fill:#ffffff;stroke:#ffffff;stroke-width:0.1">
      <circle
         cx="0"
         cy="0"
         r="0.44999999"
         id="circle45"
         style="stroke:none" />
      <circle
         cx="0"
         cy="0"
         r="0.44999999"
         id="circle47"
         style="fill:none;stroke:#000000" />
      <path
         d="m -0.3896,-0.8376 0.0747,-0.3579 0.0441,0 -0.0266,0.1279 q 0.021,-0.0193 0.0381,-0.0272 0.0171,-0.008 0.0357,-0.008 0.0363,0 0.0606,0.0271 0.0243,0.0271 0.0243,0.0789 0,0.0344 -0.0097,0.063 -0.0098,0.0286 -0.0242,0.048 -0.0144,0.0194 -0.0298,0.031 -0.0154,0.0116 -0.0315,0.0173 -0.0161,0.0057 -0.031,0.0057 -0.0256,0 -0.0452,-0.0135 -0.0195,-0.0136 -0.0305,-0.0414 l -0.0102,0.0491 -0.0388,0 z m 0.0654,-0.1065 -3e-4,0.0083 q 0,0.0332 0.0159,0.0506 0.0159,0.0173 0.0395,0.0173 0.0233,0 0.0427,-0.0162 0.0194,-0.0163 0.0318,-0.0507 0.0125,-0.0344 0.0125,-0.0635 0,-0.0327 -0.0158,-0.0507 -0.0157,-0.0181 -0.0389,-0.0181 -0.0239,0 -0.044,0.0184 -0.02,0.0185 -0.0334,0.0568 -0.01,0.0285 -0.01,0.0478 z m 0.1643,0.2058 0,-0.0317 0.2912,0 0,0.0317 -0.2912,0 z m 0.4302,-0.0993 0.0566,-0.2703 q -0.0366,0.0288 -0.103,0.0462 L 0.2322,-1.1018 Q 0.2651,-1.115 0.2972,-1.1362 0.3293,-1.1574 0.3455,-1.1733 0.3552,-1.1831 0.364,-1.197 l 0.0256,0 -0.0749,0.3594 -0.0444,0 z"
         id="path49"
         inkscape:connector-curvature="0"
         style="fill:#0000b2;stroke:none" />
    </g>
    <g
       font-size="0.5"
       font-style="italic"
       transform="matrix(50,0,0,50,680,177.7338)"
       id="g51"
       style="font-style:italic;font-size:0.5px;font-family:sans-serif;fill:#ffffff;stroke:#ffffff;stroke-width:0.1">
      <circle
         cx="0"
         cy="0"
         r="0.44999999"
         id="circle53"
         style="stroke:none" />
      <circle
         cx="0"
         cy="0"
         r="0.44999999"
         id="circle55"
         style="fill:none;stroke:#000000" />
      <circle
         cx="0"
         cy="0"
         r="0.26320001"
         id="circle57"
         style="fill:#000000;stroke:none" />
      <path
         d="m -0.4111,-0.8376 0.0747,-0.3579 0.0442,0 -0.0266,0.1279 q 0.021,-0.0193 0.038,-0.0272 0.0171,-0.008 0.0357,-0.008 0.0364,0 0.0606,0.0271 0.0243,0.0271 0.0243,0.0789 0,0.0344 -0.0097,0.063 -0.0098,0.0286 -0.0242,0.048 -0.0144,0.0194 -0.0298,0.031 -0.0154,0.0116 -0.0315,0.0173 -0.0161,0.0057 -0.031,0.0057 -0.0256,0 -0.0452,-0.0135 -0.0195,-0.0136 -0.0305,-0.0414 l -0.0102,0.0491 -0.0388,0 z m 0.0654,-0.1065 -3e-4,0.0083 q 0,0.0332 0.0159,0.0506 0.0159,0.0173 0.0396,0.0173 0.0232,0 0.0426,-0.0162 0.0194,-0.0163 0.0318,-0.0507 0.0125,-0.0344 0.0125,-0.0635 0,-0.0327 -0.0158,-0.0507 -0.0157,-0.0181 -0.0389,-0.0181 -0.0239,0 -0.0439,0.0184 -0.0201,0.0185 -0.0335,0.0568 -0.01,0.0285 -0.01,0.0478 z m 0.1643,0.2058 0,-0.0317 0.2913,0 0,0.0317 -0.2913,0 z m 0.3452,-0.2168 q 0,-0.0454 0.0136,-0.0922 0.0135,-0.0469 0.0301,-0.075 0.0166,-0.0281 0.0344,-0.0439 0.0179,-0.0159 0.0351,-0.0233 0.0172,-0.0075 0.0382,-0.0075 0.041,0 0.0685,0.0305 0.0274,0.0305 0.0274,0.0882 0,0.0593 -0.019,0.1174 -0.0225,0.0688 -0.0625,0.1033 -0.0308,0.0261 -0.0701,0.0261 -0.0403,0 -0.068,-0.0316 -0.0277,-0.0316 -0.0277,-0.092 z m 0.0427,0.0113 q 0,0.0329 0.011,0.0515 0.0149,0.0256 0.0442,0.0256 0.0256,0 0.0466,-0.0232 0.0303,-0.0327 0.0456,-0.0958 0.0152,-0.0631 0.0152,-0.1031 0,-0.0386 -0.0147,-0.0557 -0.0148,-0.0171 -0.039,-0.0171 -0.0176,0 -0.0328,0.009 -0.0153,0.0091 -0.0292,0.031 -0.0198,0.031 -0.0344,0.0928 -0.0125,0.0528 -0.0125,0.085 z"
         id="path59"
         inkscape:connector-curvature="0"
         style="fill:#0000b2;stroke:none" />
    </g>
    <g
       font-size="0.5"
       font-style="italic"
       transform="matrix(50,0,0,50,680,427.7338)"
       id="g61"
       style="font-style:italic;font-size:0.5px;font-family:sans-serif;stroke-width:0.02">
      <path
         d="m -9.6072,-7.6072 1.9708,1.9708"
         id="path63"
         inkscape:connector-curvature="0"
         style="fill:none" />
      <path
         d="m -7.5834,-5.6894 -0.106,0.106 0.3358,0.2298 z"
         id="path65"
         inkscape:connector-curvature="0"
         style="stroke:none" />
    </g>
    <g
       font-size="0.5"
       font-style="italic"
       transform="matrix(50,0,0,50,680,427.7338)"
       id="g67"
       style="font-style:italic;font-size:0.5px;font-family:sans-serif;stroke-width:0.02">
      <path
         d="m -7.3536,-4.6464 -1.9993,1.9993"
         id="path69"
         inkscape:connector-curvature="0"
         style="fill:none" />
      <path
         d="M -9.2999,-2.594 -9.406,-2.7001 -9.6358,-2.3642 Z"
         id="path71"
         inkscape:connector-curvature="0"
         style="stroke:none" />
    </g>
    <g
       font-size="0.5"
       font-style="italic"
       transform="matrix(50,0,0,50,680,427.7338)"
       id="g73"
       style="font-style:italic;font-size:0.5px;font-family:sans-serif;stroke-width:0.02">
      <path
         d="m -10.3642,-2.3642 -1.9994,-1.9994"
         id="path75"
         inkscape:connector-curvature="0"
         style="fill:none" />
      <path
         d="m -12.4166,-4.3106 0.106,-0.106 -0.3358,-0.2298 z"
         id="path77"
         inkscape:connector-curvature="0"
         style="stroke:none" />
    </g>
    <g
       font-size="0.5"
       font-style="italic"
       transform="matrix(50,0,0,50,680,427.7338)"
       id="g79"
       style="font-style:italic;font-size:0.5px;font-family:sans-serif;stroke-width:0.02">
      <path
         d="m -12.6464,-5.3536 1.9708,-1.9708"
         id="path81"
         inkscape:connector-curvature="0"
         style="fill:none" />
      <path
         d="m -10.7287,-7.3774 0.1061,0.1061 0.2298,-0.3359 z"
         id="path83"
         inkscape:connector-curvature="0"
         style="stroke:none" />
    </g>
    <g
       font-size="0.5"
       font-style="italic"
       transform="matrix(50,0,0,50,680,427.7338)"
       id="g85"
       style="font-style:italic;font-size:0.5px;font-family:sans-serif;stroke-width:0.02">
      <path
         d="m 3.4547,-7.5453 1.9089,1.9089"
         id="path87"
         inkscape:connector-curvature="0"
         style="fill:none" />
      <path
         d="m 5.4166,-5.6894 -0.106,0.106 0.3358,0.2298 z"
         id="path89"
         inkscape:connector-curvature="0"
         style="stroke:none" />
    </g>
    <g
       font-size="0.5"
       font-style="italic"
       transform="matrix(50,0,0,50,680,427.7338)"
       id="g91"
       style="font-style:italic;font-size:0.5px;font-family:sans-serif;stroke-width:0.02">
      <path
         d="M 5.6464,-4.6464 3.68,-2.68"
         id="path93"
         inkscape:connector-curvature="0"
         style="fill:none" />
      <path
         d="M 3.733,-2.627 3.627,-2.733 3.3972,-2.3972 Z"
         id="path95"
         inkscape:connector-curvature="0"
         style="stroke:none" />
    </g>
    <g
       font-size="0.5"
       font-style="italic"
       transform="matrix(50,0,0,50,680,427.7338)"
       id="g97"
       style="font-style:italic;font-size:0.5px;font-family:sans-serif;stroke-width:0.02">
      <path
         d="M 2.6028,-2.3972 0.6364,-4.3636"
         id="path99"
         inkscape:connector-curvature="0"
         style="fill:none" />
      <path
         d="m 0.5834,-4.3106 0.106,-0.106 -0.3358,-0.2298 z"
         id="path101"
         inkscape:connector-curvature="0"
         style="stroke:none" />
    </g>
    <g
       font-size="0.5"
       font-style="italic"
       transform="matrix(50,0,0,50,680,427.7338)"
       id="g103"
       style="font-style:italic;font-size:0.5px;font-family:sans-serif;stroke-width:0.02">
      <path
         d="M 0.3536,-5.3536 2.2625,-7.2625"
         id="path105"
         inkscape:connector-curvature="0"
         style="fill:none" />
      <path
         d="m 2.2095,-7.3155 0.106,0.106 0.2298,-0.3358 z"
         id="path107"
         inkscape:connector-curvature="0"
         style="stroke:none" />
    </g>
    <g
       font-size="0.5"
       font-style="italic"
       transform="matrix(50,0,0,50,680,427.7338)"
       id="g109"
       style="font-style:italic;font-size:0.5px;font-family:sans-serif;stroke-width:0.05">
      <path
         d="M -6.5528,-5.2236 -1,-8 l 3.5,0 0.0179,0"
         id="path111"
         inkscape:connector-curvature="0"
         style="fill:none" />
    </g>
    <g
       font-size="0.5"
       font-style="italic"
       transform="matrix(50,0,0,50,680,427.7338)"
       id="g113"
       style="font-style:italic;font-size:0.5px;font-family:sans-serif;stroke-width:0.05">
      <path
         d="m 6,-4.5 0,3.5 -16,0 0,-0.6358"
         id="path115"
         inkscape:connector-curvature="0"
         style="fill:none" />
    </g>
    <g
       font-size="0.5"
       font-style="italic"
       transform="matrix(50,0,0,50,680,427.7338)"
       id="g117"
       style="font-style:italic;font-size:0.5px;font-family:sans-serif;stroke-width:0.05">
      <path
         d="m -13,-4.5 0,4 16,0 0,-1.0453"
         id="path119"
         inkscape:connector-curvature="0"
         style="fill:none" />
    </g>
    <g
       font-size="0.5"
       font-style="italic"
       transform="matrix(50,0,0,50,680,427.7338)"
       id="g121"
       style="font-style:italic;font-size:0.5px;font-family:sans-serif;stroke-width:0.05">
      <path
         d="M -0.454,-5.2095 -6.5,-8 -9.5069,-8"
         id="path123"
         inkscape:connector-curvature="0"
         style="fill:none" />
    </g>
  </g>
</svg>
