<?xml version="1.0" encoding="UTF-8" standalone="no"?>
<svg
   xmlns:dc="http://purl.org/dc/elements/1.1/"
   xmlns:cc="http://creativecommons.org/ns#"
   xmlns:rdf="http://www.w3.org/1999/02/22-rdf-syntax-ns#"
   xmlns:svg="http://www.w3.org/2000/svg"
   xmlns="http://www.w3.org/2000/svg"
   xmlns:sodipodi="http://sodipodi.sourceforge.net/DTD/sodipodi-0.dtd"
   xmlns:inkscape="http://www.inkscape.org/namespaces/inkscape"
   font-size="12px"
   font-style="normal"
   font-weight="normal"
   height="100"
   stroke-miterlimit="10"
   width="1000"
   id="svg4275"
   version="1.1"
   inkscape:version="0.91 r13725"
   sodipodi:docname="c-element-circuit.svg"
   style="font-style:normal;font-weight:normal;font-size:12px;font-family:Dialog;color-interpolation:auto;fill:#000000;fill-opacity:1;stroke:#000000;stroke-width:1;stroke-linecap:square;stroke-linejoin:miter;stroke-miterlimit:10;stroke-dasharray:none;stroke-dashoffset:0;stroke-opacity:1;color-rendering:auto;image-rendering:auto;shape-rendering:auto;text-rendering:auto">
  <metadata
     id="metadata4358">
    <rdf:RDF>
      <cc:Work
         rdf:about="">
        <dc:format>image/svg+xml</dc:format>
        <dc:type
           rdf:resource="http://purl.org/dc/dcmitype/StillImage" />
        <dc:title></dc:title>
      </cc:Work>
    </rdf:RDF>
  </metadata>
  <sodipodi:namedview
     pagecolor="#ffffff"
     bordercolor="#666666"
     borderopacity="1"
     objecttolerance="10"
     gridtolerance="10"
     guidetolerance="10"
     inkscape:pageopacity="0"
     inkscape:pageshadow="2"
     inkscape:window-width="1676"
     inkscape:window-height="1005"
     id="namedview4356"
     showgrid="false"
     inkscape:zoom="0.56860133"
     inkscape:cx="-195.64717"
     inkscape:cy="310.04989"
     inkscape:window-x="4"
     inkscape:window-y="1"
     inkscape:window-maximized="1"
     inkscape:current-layer="svg4275" />
  <!--Generated by the Batik Graphics2D SVG Generator-->
  <defs
     id="genericDefs" />
  <g
     id="g4278"
     transform="translate(402.9939,20)">
    <g
       transform="matrix(50,0,0,50,160.515,30)"
       id="g4280"
       style="fill:#ffffff;stroke:#ffffff;stroke-width:0.06">
      <path
         d="M -0.13,-0.13 0,-0.13 0.13,0 0,0.13 l -0.13,0 z"
         id="path4282"
         inkscape:connector-curvature="0"
         style="stroke:none" />
      <path
         d="M -0.13,-0.13 0,-0.13 0.13,0 0,0.13 l -0.13,0 z"
         id="path4284"
         inkscape:connector-curvature="0"
         style="fill:none;stroke:#000000" />
    </g>
    <g
       font-size="0.5px"
       font-style="italic"
       transform="matrix(50,0,0,50,160.5161,30)"
       id="g4286"
       style="font-style:italic;font-size:0.5px;font-family:sans-serif;fill:#0000ff;stroke:#0000ff;stroke-width:0.06">
      <path
         d="M 0.4386,0.1031 Q 0.3849,0.1031 0.3574,0.0633 0.33,0.0235 0.3421,-0.037 0.355,-0.1017 0.3973,-0.1379 0.4396,-0.174 0.5023,-0.174 q 0.031,0 0.0676,0.0085 l -0.008,0.0403 q -0.0384,-0.0119 -0.064,-0.0119 -0.0369,0 -0.0648,0.0277 -0.0279,0.0277 -0.0371,0.0738 -0.0089,0.0447 0.0085,0.0723 0.0174,0.0276 0.0546,0.0276 0.0329,0 0.0712,-0.0169 L 0.522,0.0889 Q 0.4725,0.1031 0.4386,0.1031 Z"
         id="path4288"
         inkscape:connector-curvature="0"
         style="stroke:none" />
    </g>
    <g
       font-size="0.5px"
       font-style="italic"
       transform="matrix(50,0,0,50,35.5161,17.5)"
       id="g4290"
       style="font-style:italic;font-size:0.5px;font-family:sans-serif;fill:#ffffff;stroke:#ffffff;stroke-width:0.06">
      <path
         d="M -0.13,-0.13 0,-0.13 0.13,0 0,0.13 l -0.13,0 z"
         id="path4292"
         inkscape:connector-curvature="0"
         style="stroke:none" />
      <path
         d="M -0.13,-0.13 0,-0.13 0.13,0 0,0.13 l -0.13,0 z"
         id="path4294"
         inkscape:connector-curvature="0"
         style="fill:none;stroke:#000000" />
    </g>
    <g
       font-size="0.5px"
       font-style="italic"
       transform="matrix(50,0,0,50,35.5161,17.5)"
       id="g4296"
       style="font-style:italic;font-size:0.5px;font-family:sans-serif;fill:#ff0000;stroke:#ff0000;stroke-width:0.06">
      <path
         d="m -0.4105,0.0633 q -0.0511,0.0398 -0.0912,0.0398 -0.0329,0 -0.0505,-0.0206 -0.0176,-0.0207 -0.0113,-0.0522 0.0086,-0.0434 0.0498,-0.0667 0.0412,-0.0234 0.1093,-0.0234 l 0.0115,0 0.0064,-0.0319 q 0.0092,-0.0462 -0.0382,-0.0462 -0.0381,0 -0.0869,0.0235 l 0.0079,-0.0398 q 0.0526,-0.0198 0.095,-0.0198 0.0445,0 0.0616,0.02 0.0171,0.02 0.0087,0.0623 l -0.0241,0.1201 q -0.0082,0.0412 0.0172,0.0412 0.0031,0 0.0094,-9e-4 l -0.0019,0.0266 q -0.0179,0.0078 -0.0377,0.0078 -0.0337,0 -0.035,-0.0398 z m -0.0018,-0.0261 0.0137,-0.0686 -0.016,-5e-4 q -0.0396,0 -0.067,0.015 -0.0274,0.015 -0.0323,0.0394 -0.0035,0.0174 0.0064,0.0293 0.0098,0.012 0.0274,0.012 0.03,0 0.0678,-0.0266 z"
         id="path4298"
         inkscape:connector-curvature="0"
         style="stroke:none" />
    </g>
    <g
       font-size="0.5px"
       font-style="italic"
       transform="matrix(50,0,0,50,35.5161,42.5)"
       id="g4300"
       style="font-style:italic;font-size:0.5px;font-family:sans-serif;fill:#ffffff;stroke:#ffffff;stroke-width:0.06">
      <path
         d="M -0.13,-0.13 0,-0.13 0.13,0 0,0.13 l -0.13,0 z"
         id="path4302"
         inkscape:connector-curvature="0"
         style="stroke:none" />
      <path
         d="M -0.13,-0.13 0,-0.13 0.13,0 0,0.13 l -0.13,0 z"
         id="path4304"
         inkscape:connector-curvature="0"
         style="fill:none;stroke:#000000" />
    </g>
    <g
       font-size="0.5px"
       font-style="italic"
       transform="matrix(50,0,0,50,35.5161,42.5)"
       id="g4306"
       style="font-style:italic;font-size:0.5px;font-family:sans-serif;fill:#ff0000;stroke:#ff0000;stroke-width:0.06">
      <path
         d="m -0.6103,0.14 0.0777,-0.3884 0.0481,0 -0.0341,0.1701 q 0.0407,-0.0556 0.0998,-0.0556 0.0478,0 0.0683,0.0349 0.0205,0.0349 0.0084,0.0954 -0.0132,0.066 -0.0524,0.1064 -0.0392,0.0404 -0.09,0.0404 -0.0471,0 -0.0711,-0.0362 L -0.5681,0.14 Z M -0.549,0.0738 q 0.0305,0.0332 0.0642,0.0332 0.0693,0 0.0904,-0.1057 0.0187,-0.0932 -0.0428,-0.0932 -0.0403,0 -0.0874,0.0437 z"
         id="path4308"
         inkscape:connector-curvature="0"
         style="stroke:none" />
    </g>
    <g
       font-size="0.5px"
       font-style="italic"
       transform="matrix(50,0,0,50,98.0161,30)"
       id="g4310"
       style="font-style:italic;font-size:0.5px;font-family:sans-serif;fill:#ffffff;stroke:#ffffff;stroke-width:0.06">
      <path
         d="m -0.4062,-0.5 0.25,0 c 0.75,0 0.75,1 0,1 l -0.25,0 z"
         id="path4312"
         inkscape:connector-curvature="0"
         style="stroke:none" />
      <path
         d="m -0.4062,-0.5 0.25,0 c 0.75,0 0.75,1 0,1 l -0.25,0 z"
         id="path4314"
         inkscape:connector-curvature="0"
         style="fill:none;stroke:#000000" />
    </g>
    <g
       font-size="0.5px"
       font-style="italic"
       transform="matrix(50,0,0,50,98.0161,30)"
       id="g4316"
       style="font-style:italic;font-size:0.5px;font-family:sans-serif;stroke-width:0.04">
      <line
         x1="0.40619999"
         x2="1"
         y1="0"
         y2="0"
         id="line4318"
         style="fill:none" />
      <line
         x1="-0.40619999"
         x2="-1"
         y1="-0.25"
         y2="-0.25"
         id="line4320"
         style="fill:none" />
      <line
         x1="-0.40619999"
         x2="-1"
         y1="0.25"
         y2="0.25"
         id="line4322"
         style="fill:none" />
      <path
         d="m 0.075,-0.1299 a 0.15,0.15 0 1 0 0,0.2598"
         id="path4324"
         inkscape:connector-curvature="0"
         style="fill:none" />
    </g>
    <g
       font-size="0.5px"
       font-style="italic"
       transform="matrix(50,0,0,50,98.0161,30)"
       id="g4326"
       style="font-style:italic;font-size:0.5px;font-family:sans-serif;stroke-width:0.04">
      <path
         d="m -1.12,-0.25 0.01,0"
         id="path4328"
         inkscape:connector-curvature="0"
         style="fill:none" />
      <path
         d="m -1.11,-0.325 0,0.15 0,-0.075 z"
         id="path4330"
         inkscape:connector-curvature="0"
         style="stroke:none" />
    </g>
    <g
       font-size="0.5px"
       font-style="italic"
       transform="matrix(50,0,0,50,98.0161,30)"
       id="g4332"
       style="font-style:italic;font-size:0.5px;font-family:sans-serif;stroke-width:0.04">
      <line
         x1="-1.11"
         x2="-1"
         y1="-0.25"
         y2="-0.25"
         id="line4334"
         style="fill:none" />
    </g>
    <g
       font-size="0.5px"
       font-style="italic"
       transform="matrix(50,0,0,50,98.0161,30)"
       id="g4336"
       style="font-style:italic;font-size:0.5px;font-family:sans-serif;stroke-width:0.04">
      <path
         d="m -1.12,0.25 0.01,0"
         id="path4338"
         inkscape:connector-curvature="0"
         style="fill:none" />
      <path
         d="m -1.11,0.175 0,0.15 0,-0.075 z"
         id="path4340"
         inkscape:connector-curvature="0"
         style="stroke:none" />
    </g>
    <g
       font-size="0.5px"
       font-style="italic"
       transform="matrix(50,0,0,50,98.0161,30)"
       id="g4342"
       style="font-style:italic;font-size:0.5px;font-family:sans-serif;stroke-width:0.04">
      <line
         x1="-1.11"
         x2="-1"
         y1="0.25"
         y2="0.25"
         id="line4344"
         style="fill:none" />
    </g>
    <g
       font-size="0.5px"
       font-style="italic"
       transform="matrix(50,0,0,50,98.0161,30)"
       id="g4346"
       style="font-style:italic;font-size:0.5px;font-family:sans-serif;stroke-width:0.04">
      <path
         d="M 1.11,0 1.12,0"
         id="path4348"
         inkscape:connector-curvature="0"
         style="fill:none" />
      <path
         d="m 1.12,-0.075 0,0.15 0,-0.075 z"
         id="path4350"
         inkscape:connector-curvature="0"
         style="stroke:none" />
    </g>
    <g
       font-size="0.5px"
       font-style="italic"
       transform="matrix(50,0,0,50,98.0161,30)"
       id="g4352"
       style="font-style:italic;font-size:0.5px;font-family:sans-serif;stroke-width:0.04">
      <line
         x1="1"
         x2="1.11"
         y1="0"
         y2="0"
         id="line4354"
         style="fill:none" />
    </g>
  </g>
</svg>
