<?xml version="1.0" encoding="UTF-8" standalone="no"?>
<svg
   xmlns:dc="http://purl.org/dc/elements/1.1/"
   xmlns:cc="http://creativecommons.org/ns#"
   xmlns:rdf="http://www.w3.org/1999/02/22-rdf-syntax-ns#"
   xmlns:svg="http://www.w3.org/2000/svg"
   xmlns="http://www.w3.org/2000/svg"
   xmlns:sodipodi="http://sodipodi.sourceforge.net/DTD/sodipodi-0.dtd"
   xmlns:inkscape="http://www.inkscape.org/namespaces/inkscape"
   font-size="12px"
   font-style="normal"
   font-weight="normal"
   height="445"
   stroke-miterlimit="10"
   width="1000"
   id="svg2"
   version="1.1"
   inkscape:version="0.91 r13725"
   sodipodi:docname="c-element-mined.svg"
   style="font-style:normal;font-weight:normal;font-size:12px;font-family:Dialog;color-interpolation:auto;fill:#000000;fill-opacity:1;stroke:#000000;stroke-width:1;stroke-linecap:square;stroke-linejoin:miter;stroke-miterlimit:10;stroke-dasharray:none;stroke-dashoffset:0;stroke-opacity:1;color-rendering:auto;image-rendering:auto;shape-rendering:auto;text-rendering:auto">
  <metadata
     id="metadata95">
    <rdf:RDF>
      <cc:Work
         rdf:about="">
        <dc:format>image/svg+xml</dc:format>
        <dc:type
           rdf:resource="http://purl.org/dc/dcmitype/StillImage" />
        <dc:title></dc:title>
      </cc:Work>
    </rdf:RDF>
  </metadata>
  <sodipodi:namedview
     pagecolor="#ffffff"
     bordercolor="#666666"
     borderopacity="1"
     objecttolerance="10"
     gridtolerance="10"
     guidetolerance="10"
     inkscape:pageopacity="0"
     inkscape:pageshadow="2"
     inkscape:window-width="1676"
     inkscape:window-height="1005"
     id="namedview93"
     showgrid="false"
     inkscape:zoom="0.53033708"
     inkscape:cx="-145.69915"
     inkscape:cy="222.5"
     inkscape:window-x="4"
     inkscape:window-y="1"
     inkscape:window-maximized="1"
     inkscape:current-layer="svg2" />
  <!--Generated by the Batik Graphics2D SVG Generator-->
  <defs
     id="genericDefs" />
  <g
     id="g5"
     transform="translate(410,-5.5295497)">
    <g
       transform="matrix(50,0,0,50,27.5,417.955)"
       id="g7"
       style="fill:#ffffff;stroke:#ffffff">
      <circle
         cx="0"
         cy="0"
         r="0.44999999"
         id="circle9"
         style="stroke:none" />
      <circle
         cx="0"
         cy="0"
         r="0.44999999"
         id="circle11"
         style="fill:none;stroke:#000000;stroke-width:0.1" />
    </g>
    <g
       font-size="0.5px"
       transform="matrix(50,0,0,50,17.625,385.455)"
       id="g13"
       style="font-size:0.5px;font-family:LMRoman10;stroke-width:0.1">
      <path
         d="m 0.2415,-0.0445 c 0,0.0405 -0.0305,0.0475 -0.041,0.0475 -0.0235,0 -0.037,-0.021 -0.039,-0.041 C 0.152,-0.0145 0.129,0.0055 0.096,0.0055 c -0.0315,0 -0.08,-0.0125 -0.08,-0.053 0,-0.022 0.0125,-0.048 0.05,-0.065 0.0315,-0.015 0.0665,-0.0165 0.092,-0.018 l 0,-0.0185 c 0,-0.0445 -0.0285,-0.064 -0.053,-0.064 -0.016,0 -0.0405,0.0055 -0.054,0.023 0.023,5e-4 0.0255,0.017 0.0255,0.023 0,0.013 -0.009,0.023 -0.023,0.023 -0.013,0 -0.023,-0.0085 -0.023,-0.0235 0,-0.033 0.0345,-0.0565 0.0755,-0.0565 0.024,0 0.049,0.008 0.0685,0.0275 0.018,0.0185 0.018,0.038 0.018,0.059 l 0,0.1 c 0,0.0025 0.002,0.025 0.0185,0.025 0.0055,0 0.018,-0.003 0.018,-0.032 l 0,-0.028 0.0125,0 z M 0.158,-0.07 l 0,-0.05 c -0.0825,0.003 -0.1035,0.0445 -0.1035,0.072 0,0.025 0.0205,0.0425 0.045,0.0425 0.0225,0 0.0585,-0.017 0.0585,-0.0645 z"
         id="path15"
         inkscape:connector-curvature="0"
         style="stroke:none" />
      <path
         d="m 0.372,-0.0935 -0.1325,0 0,-0.029 0.1325,0 z"
         id="path17"
         inkscape:connector-curvature="0"
         style="stroke:none" />
    </g>
    <g
       font-size="0.5px"
       transform="matrix(50,0,0,50,152.5,372.9541)"
       id="g19"
       style="font-size:0.5px;font-family:LMRoman10;fill:#ffffff;stroke:#ffffff;stroke-width:0.025">
      <circle
         cx="0"
         cy="0"
         r="0.44999999"
         id="circle21"
         style="stroke:none" />
      <circle
         cx="0"
         cy="0"
         r="0.44999999"
         id="circle23"
         style="fill:none;stroke:#000000;stroke-width:0.1" />
      <path
         d="m 0.2075,-0.0595 c 0,0.005 -0.016,0.065 -0.083,0.065 -0.058,0 -0.1075,-0.0495 -0.1075,-0.1135 0,-0.062 0.046,-0.116 0.1085,-0.116 0.0385,0 0.0765,0.0195 0.0765,0.0535 0,0.015 -0.01,0.0235 -0.023,0.0235 -0.014,0 -0.023,-0.01 -0.023,-0.023 0,-0.0065 0.003,-0.0215 0.0235,-0.023 -0.0175,-0.018 -0.049,-0.0185 -0.0535,-0.0185 -0.0265,0 -0.0675,0.021 -0.0675,0.1025 0,0.0805 0.044,0.102 0.0705,0.102 0.0185,0 0.051,-0.006 0.0655,-0.0525 0.001,-0.003 0.002,-0.005 0.0065,-0.005 0.0015,0 0.0065,0 0.0065,0.005 z"
         transform="translate(-0.183,-0.65)"
         id="path25"
         inkscape:connector-curvature="0"
         style="fill:#000000;stroke:none;stroke-width:0.1" />
      <path
         d="m 0.343,-0.0935 -0.1325,0 0,-0.029 0.1325,0 z"
         transform="translate(-0.183,-0.65)"
         id="path27"
         inkscape:connector-curvature="0"
         style="fill:#000000;stroke:none;stroke-width:0.1" />
    </g>
    <g
       font-size="0.5px"
       transform="matrix(50,0,0,50,27.5,292.9541)"
       id="g29"
       style="font-size:0.5px;font-family:LMRoman10;fill:#ffffff;stroke:#ffffff;stroke-width:0.025">
      <circle
         cx="0"
         cy="0"
         r="0.44999999"
         id="circle31"
         style="stroke:none" />
      <circle
         cx="0"
         cy="0"
         r="0.44999999"
         id="circle33"
         style="fill:none;stroke:#000000;stroke-width:0.1" />
      <path
         d="m 0.2605,-0.108 c 0,0.0645 -0.052,0.1135 -0.1115,0.1135 -0.037,0 -0.058,-0.025 -0.0655,-0.0365 L 0.0655,0 0.053,0 l 0,-0.298 c 0,-0.0245 -0.004,-0.028 -0.039,-0.028 l 0,-0.0155 0.072,-0.0055 0,0.1585 c 0.008,-0.009 0.0295,-0.0325 0.0685,-0.0325 0.057,0 0.106,0.0495 0.106,0.113 z M 0.219,-0.1085 C 0.219,-0.129 0.2175,-0.1575 0.2045,-0.178 0.1925,-0.197 0.1745,-0.21 0.152,-0.21 0.14,-0.21 0.1125,-0.206 0.093,-0.178 0.0875,-0.17 0.0875,-0.1695 0.0875,-0.16 l 0,0.103 c 0,0.009 0,0.0105 0.007,0.021 0.012,0.0185 0.03,0.0305 0.0525,0.0305 0.027,0 0.046,-0.0165 0.0565,-0.032 C 0.218,-0.06 0.219,-0.09 0.219,-0.1085 Z"
         transform="translate(-0.2122,-0.65)"
         id="path35"
         inkscape:connector-curvature="0"
         style="fill:#000000;stroke:none;stroke-width:0.1" />
      <path
         d="m 0.4015,-0.0935 -0.1325,0 0,-0.029 0.1325,0 z"
         transform="translate(-0.2122,-0.65)"
         id="path37"
         inkscape:connector-curvature="0"
         style="fill:#000000;stroke:none;stroke-width:0.1" />
    </g>
    <g
       font-size="0.5px"
       transform="matrix(50,0,0,50,27.5,62.9541)"
       id="g39"
       style="font-size:0.5px;font-family:LMRoman10;fill:#ffffff;stroke:#ffffff;stroke-width:0.025">
      <circle
         cx="0"
         cy="0"
         r="0.44999999"
         id="circle41"
         style="stroke:none" />
      <circle
         cx="0"
         cy="0"
         r="0.44999999"
         id="circle43"
         style="fill:none;stroke:#000000;stroke-width:0.1" />
      <path
         d="m 0.2605,-0.108 c 0,0.0645 -0.052,0.1135 -0.1115,0.1135 -0.037,0 -0.058,-0.025 -0.0655,-0.0365 L 0.0655,0 0.053,0 l 0,-0.298 c 0,-0.0245 -0.004,-0.028 -0.039,-0.028 l 0,-0.0155 0.072,-0.0055 0,0.1585 c 0.008,-0.009 0.0295,-0.0325 0.0685,-0.0325 0.057,0 0.106,0.0495 0.106,0.113 z M 0.219,-0.1085 C 0.219,-0.129 0.2175,-0.1575 0.2045,-0.178 0.1925,-0.197 0.1745,-0.21 0.152,-0.21 0.14,-0.21 0.1125,-0.206 0.093,-0.178 0.0875,-0.17 0.0875,-0.1695 0.0875,-0.16 l 0,0.103 c 0,0.009 0,0.0105 0.007,0.021 0.012,0.0185 0.03,0.0305 0.0525,0.0305 0.027,0 0.046,-0.0165 0.0565,-0.032 C 0.218,-0.06 0.219,-0.09 0.219,-0.1085 Z"
         transform="translate(-0.312,-0.65)"
         id="path45"
         inkscape:connector-curvature="0"
         style="fill:#000000;stroke:none;stroke-width:0.1" />
      <path
         d="m 0.624,-0.125 c 0,0.01 -0.0095,0.01 -0.0165,0.01 l -0.1395,0 0,0.14 c 0,0.007 0,0.0165 -0.01,0.0165 -0.01,0 -0.01,-0.0095 -0.01,-0.0165 l 0,-0.14 -0.14,0 c -0.007,0 -0.0165,0 -0.0165,-0.01 0,-0.01 0.0095,-0.01 0.0165,-0.01 l 0.14,0 0,-0.14 c 0,-0.007 0,-0.0165 0.01,-0.0165 0.01,0 0.01,0.0095 0.01,0.0165 l 0,0.14 0.1395,0 c 0.007,0 0.0165,0 0.0165,0.01 z"
         transform="translate(-0.312,-0.65)"
         id="path47"
         inkscape:connector-curvature="0"
         style="fill:#000000;stroke:none;stroke-width:0.1" />
    </g>
    <g
       font-size="0.5px"
       transform="matrix(50,0,0,50,27.5,187.9541)"
       id="g49"
       style="font-size:0.5px;font-family:LMRoman10;fill:#ffffff;stroke:#ffffff;stroke-width:0.025">
      <circle
         cx="0"
         cy="0"
         r="0.44999999"
         id="circle51"
         style="stroke:none" />
      <circle
         cx="0"
         cy="0"
         r="0.44999999"
         id="circle53"
         style="fill:none;stroke:#000000;stroke-width:0.1" />
      <path
         d="m 0.2415,-0.0445 c 0,0.0405 -0.0305,0.0475 -0.041,0.0475 -0.0235,0 -0.037,-0.021 -0.039,-0.041 C 0.152,-0.0145 0.129,0.0055 0.096,0.0055 c -0.0315,0 -0.08,-0.0125 -0.08,-0.053 0,-0.022 0.0125,-0.048 0.05,-0.065 0.0315,-0.015 0.0665,-0.0165 0.092,-0.018 l 0,-0.0185 c 0,-0.0445 -0.0285,-0.064 -0.053,-0.064 -0.016,0 -0.0405,0.0055 -0.054,0.023 0.023,5e-4 0.0255,0.017 0.0255,0.023 0,0.013 -0.009,0.023 -0.023,0.023 -0.013,0 -0.023,-0.0085 -0.023,-0.0235 0,-0.033 0.0345,-0.0565 0.0755,-0.0565 0.024,0 0.049,0.008 0.0685,0.0275 0.018,0.0185 0.018,0.038 0.018,0.059 l 0,0.1 c 0,0.0025 0.002,0.025 0.0185,0.025 0.0055,0 0.018,-0.003 0.018,-0.032 l 0,-0.028 0.0125,0 z M 0.158,-0.07 l 0,-0.05 c -0.0825,0.003 -0.1035,0.0445 -0.1035,0.072 0,0.025 0.0205,0.0425 0.045,0.0425 0.0225,0 0.0585,-0.017 0.0585,-0.0645 z"
         transform="translate(-0.2973,-0.65)"
         id="path55"
         inkscape:connector-curvature="0"
         style="fill:#000000;stroke:none;stroke-width:0.1" />
      <path
         d="m 0.5945,-0.125 c 0,0.01 -0.0095,0.01 -0.0165,0.01 l -0.1395,0 0,0.14 c 0,0.007 0,0.0165 -0.01,0.0165 -0.01,0 -0.01,-0.0095 -0.01,-0.0165 l 0,-0.14 -0.14,0 c -0.007,0 -0.0165,0 -0.0165,-0.01 0,-0.01 0.0095,-0.01 0.0165,-0.01 l 0.14,0 0,-0.14 c 0,-0.007 0,-0.0165 0.01,-0.0165 0.01,0 0.01,0.0095 0.01,0.0165 l 0,0.14 0.1395,0 c 0.007,0 0.0165,0 0.0165,0.01 z"
         transform="translate(-0.2973,-0.65)"
         id="path57"
         inkscape:connector-curvature="0"
         style="fill:#000000;stroke:none;stroke-width:0.1" />
    </g>
    <g
       font-size="0.5px"
       transform="matrix(50,0,0,50,152.5,122.9541)"
       id="g59"
       style="font-size:0.5px;font-family:LMRoman10;fill:#ffffff;stroke:#ffffff;stroke-width:0.025">
      <circle
         cx="0"
         cy="0"
         r="0.44999999"
         id="circle61"
         style="stroke:none" />
      <circle
         cx="0"
         cy="0"
         r="0.44999999"
         id="circle63"
         style="fill:none;stroke:#000000;stroke-width:0.1" />
      <path
         d="m 0.2075,-0.0595 c 0,0.005 -0.016,0.065 -0.083,0.065 -0.058,0 -0.1075,-0.0495 -0.1075,-0.1135 0,-0.062 0.046,-0.116 0.1085,-0.116 0.0385,0 0.0765,0.0195 0.0765,0.0535 0,0.015 -0.01,0.0235 -0.023,0.0235 -0.014,0 -0.023,-0.01 -0.023,-0.023 0,-0.0065 0.003,-0.0215 0.0235,-0.023 -0.0175,-0.018 -0.049,-0.0185 -0.0535,-0.0185 -0.0265,0 -0.0675,0.021 -0.0675,0.1025 0,0.0805 0.044,0.102 0.0705,0.102 0.0185,0 0.051,-0.006 0.0655,-0.0525 0.001,-0.003 0.002,-0.005 0.0065,-0.005 0.0015,0 0.0065,0 0.0065,0.005 z"
         transform="translate(-0.2828,-0.65)"
         id="path65"
         inkscape:connector-curvature="0"
         style="fill:#000000;stroke:none;stroke-width:0.1" />
      <path
         d="m 0.5655,-0.125 c 0,0.01 -0.0095,0.01 -0.0165,0.01 l -0.1395,0 0,0.14 c 0,0.007 0,0.0165 -0.01,0.0165 -0.01,0 -0.01,-0.0095 -0.01,-0.0165 l 0,-0.14 -0.14,0 c -0.007,0 -0.0165,0 -0.0165,-0.01 0,-0.01 0.0095,-0.01 0.0165,-0.01 l 0.14,0 0,-0.14 c 0,-0.007 0,-0.0165 0.01,-0.0165 0.01,0 0.01,0.0095 0.01,0.0165 l 0,0.14 0.1395,0 c 0.007,0 0.0165,0 0.0165,0.01 z"
         transform="translate(-0.2828,-0.65)"
         id="path67"
         inkscape:connector-curvature="0"
         style="fill:#000000;stroke:none;stroke-width:0.1" />
    </g>
    <g
       font-size="0.5px"
       transform="matrix(50,0,0,50,27.5,-27.0459)"
       id="g69"
       style="font-size:0.5px;font-family:LMRoman10;stroke-width:0.02">
      <path
         d="M 0.379,6.6426 1.7841,7.5418"
         id="path71"
         inkscape:connector-curvature="0"
         style="fill:none" />
      <path
         d="M 1.8245,7.4786 1.7436,7.605 2.121,7.7574 Z"
         id="path73"
         inkscape:connector-curvature="0"
         style="stroke:none" />
    </g>
    <g
       font-size="0.5px"
       transform="matrix(50,0,0,50,27.5,-27.0459)"
       id="g75"
       style="font-size:0.5px;font-family:LMRoman10;stroke-width:0.02">
      <path
         d="M 0.4234,8.7476 1.7002,8.2879"
         id="path77"
         inkscape:connector-curvature="0"
         style="fill:none" />
      <path
         d="M 1.6748,8.2173 1.7257,8.3585 2.0766,8.1524 Z"
         id="path79"
         inkscape:connector-curvature="0"
         style="stroke:none" />
    </g>
    <g
       font-size="0.5px"
       transform="matrix(50,0,0,50,27.5,-27.0459)"
       id="g81"
       style="font-size:0.5px;font-family:LMRoman10;stroke-width:0.02">
      <path
         d="M 0.3992,4.0924 1.7459,3.3921"
         id="path83"
         inkscape:connector-curvature="0"
         style="fill:none" />
      <path
         d="M 1.7113,3.3256 1.7805,3.4587 2.1008,3.2076 Z"
         id="path85"
         inkscape:connector-curvature="0"
         style="stroke:none" />
    </g>
    <g
       font-size="0.5px"
       transform="matrix(50,0,0,50,27.5,-27.0459)"
       id="g87"
       style="font-size:0.5px;font-family:LMRoman10;stroke-width:0.02">
      <path
         d="m 0.4057,1.9947 1.328,0.6375"
         id="path89"
         inkscape:connector-curvature="0"
         style="fill:none" />
      <path
         d="M 1.7662,2.5646 1.7013,2.6998 2.0943,2.8053 Z"
         id="path91"
         inkscape:connector-curvature="0"
         style="stroke:none" />
    </g>
  </g>
</svg>
