<?xml version="1.0" encoding="UTF-8" standalone="no"?>
<svg
   xmlns:dc="http://purl.org/dc/elements/1.1/"
   xmlns:cc="http://creativecommons.org/ns#"
   xmlns:rdf="http://www.w3.org/1999/02/22-rdf-syntax-ns#"
   xmlns:svg="http://www.w3.org/2000/svg"
   xmlns="http://www.w3.org/2000/svg"
   xmlns:sodipodi="http://sodipodi.sourceforge.net/DTD/sodipodi-0.dtd"
   xmlns:inkscape="http://www.inkscape.org/namespaces/inkscape"
   font-size="12"
   font-style="normal"
   font-weight="normal"
   height="200"
   stroke-miterlimit="10"
   width="1000"
   id="svg2"
   version="1.1"
   inkscape:version="0.91 r13725"
   sodipodi:docname="double-buffer_schematic.svg"
   style="font-style:normal;font-weight:normal;font-size:12px;font-family:Dialog;color-interpolation:auto;fill:#000000;fill-opacity:1;stroke:#000000;stroke-width:1;stroke-linecap:square;stroke-linejoin:miter;stroke-miterlimit:10;stroke-dasharray:none;stroke-dashoffset:0;stroke-opacity:1;color-rendering:auto;image-rendering:auto;shape-rendering:auto;text-rendering:auto">
  <metadata
     id="metadata111">
    <rdf:RDF>
      <cc:Work
         rdf:about="">
        <dc:format>image/svg+xml</dc:format>
        <dc:type
           rdf:resource="http://purl.org/dc/dcmitype/StillImage" />
        <dc:title></dc:title>
      </cc:Work>
    </rdf:RDF>
  </metadata>
  <sodipodi:namedview
     pagecolor="#ffffff"
     bordercolor="#666666"
     borderopacity="1"
     objecttolerance="10"
     gridtolerance="10"
     guidetolerance="10"
     inkscape:pageopacity="0"
     inkscape:pageshadow="2"
     inkscape:window-width="1920"
     inkscape:window-height="1058"
     id="namedview109"
     showgrid="false"
     inkscape:zoom="0.67657143"
     inkscape:cx="690.48968"
     inkscape:cy="-6.2775123"
     inkscape:window-x="-8"
     inkscape:window-y="-8"
     inkscape:window-maximized="1"
     inkscape:current-layer="svg2" />
  <!--Generated by the Batik Graphics2D SVG Generator-->
  <defs
     id="genericDefs" />
  <g
     id="g5"
     transform="translate(198.2866,19.4962)">
    <g
       stroke-miterlimit="1"
       transform="matrix(50,0,0,50,289.5609,84.1613)"
       id="g7"
       style="stroke-width:0.05;stroke-miterlimit:1;stroke-dasharray:0.2, 0.2">
      <rect
         height="2.0023999"
         width="11.8685"
         x="-5.6911998"
         y="-0.90240002"
         id="rect9"
         style="fill:none" />
    </g>
    <g
       font-size="0.5"
       font-style="italic"
       stroke-miterlimit="1"
       transform="matrix(50,0,0,50,289.5609,84.1613)"
       id="g11"
       style="font-style:italic;font-size:0.5px;font-family:sans-serif;fill:#595959;stroke:#595959;stroke-width:0.05;stroke-miterlimit:1;stroke-dasharray:0.2, 0.2">
      <path
         d="m 0.0974,1.4311 0,-0.0317 0.2913,0 0,0.0317 -0.2913,0 z"
         id="path13"
         inkscape:connector-curvature="0"
         style="stroke:none" />
      <path
         d="m -0.9855,-1.2134 0,-0.0327 q -0.0246,0.0386 -0.0725,0.0386 -0.031,0 -0.057,-0.0171 -0.026,-0.0171 -0.0403,-0.0477 -0.0143,-0.0306 -0.0143,-0.0704 0,-0.0389 0.013,-0.0705 0.0129,-0.0316 0.0388,-0.0484 0.0259,-0.0169 0.0579,-0.0169 0.0234,0 0.0417,0.0099 0.0183,0.0099 0.0298,0.0257 l 0,-0.1284 0.0437,0 0,0.3579 -0.0408,0 z m -0.1389,-0.1293 q 0,0.0498 0.021,0.0744 0.021,0.0247 0.0496,0.0247 0.0288,0 0.0489,-0.0236 0.0202,-0.0235 0.0202,-0.0719 0,-0.0532 -0.0206,-0.0781 -0.0205,-0.0249 -0.0505,-0.0249 -0.0293,0 -0.0489,0.0239 -0.0197,0.0239 -0.0197,0.0755 z m 0.2324,-3e-4 q 0,-0.072 0.0401,-0.1067 0.0334,-0.0288 0.0815,-0.0288 0.0535,0 0.0874,0.035 0.0339,0.0351 0.0339,0.0969 0,0.05 -0.015,0.0787 -0.015,0.0287 -0.0437,0.0445 -0.0287,0.0159 -0.0626,0.0159 -0.0544,0 -0.088,-0.0349 Q -0.892,-1.2773 -0.892,-1.343 Z m 0.0452,0 q 0,0.0498 0.0217,0.0746 0.0217,0.0248 0.0547,0.0248 0.0327,0 0.0545,-0.0249 0.0217,-0.0249 0.0217,-0.076 0,-0.0481 -0.0219,-0.0728 -0.0218,-0.0248 -0.0543,-0.0248 -0.033,0 -0.0547,0.0246 -0.0217,0.0247 -0.0217,0.0745 z m 0.4192,0.1296 0,-0.038 q -0.0303,0.0439 -0.0823,0.0439 -0.0229,0 -0.0428,-0.0088 -0.0199,-0.0088 -0.0296,-0.0221 -0.0096,-0.0133 -0.0135,-0.0326 -0.0027,-0.0129 -0.0027,-0.041 l 0,-0.1606 0.0439,0 0,0.1438 q 0,0.0344 0.0027,0.0464 0.0042,0.0173 0.0176,0.0272 0.0134,0.0099 0.0332,0.0099 0.0198,0 0.0371,-0.0102 0.0173,-0.0101 0.0245,-0.0276 0.0073,-0.0174 0.0073,-0.0506 l 0,-0.1389 0.0439,0 0,0.2592 -0.0393,0 z m 0.1487,0 -0.0408,0 0,-0.3579 0.0439,0 0,0.1277 q 0.0279,-0.0349 0.0711,-0.0349 0.0239,0 0.0453,0.0097 0.0213,0.0096 0.0351,0.0271 0.0138,0.0174 0.0216,0.0421 0.0078,0.0246 0.0078,0.0527 0,0.0667 -0.0329,0.103 -0.033,0.0364 -0.0791,0.0364 -0.0459,0 -0.072,-0.0383 l 0,0.0324 z m -5e-4,-0.1315 q 0,0.0466 0.0127,0.0673 0.0207,0.034 0.0561,0.034 0.0288,0 0.0498,-0.0251 0.021,-0.025 0.021,-0.0745 0,-0.0508 -0.0201,-0.075 -0.0202,-0.0242 -0.0487,-0.0242 -0.0288,0 -0.0498,0.0251 -0.021,0.025 -0.021,0.0724 z m 0.237,0.1315 0,-0.3579 0.044,0 0,0.3579 -0.044,0 z m 0.2896,-0.0835 0.0454,0.0057 q -0.0107,0.0398 -0.0398,0.0617 -0.029,0.022 -0.0742,0.022 -0.0569,0 -0.0902,-0.035 -0.0334,-0.0351 -0.0334,-0.0983 0,-0.0654 0.0337,-0.1016 0.0337,-0.0361 0.0874,-0.0361 0.052,0 0.085,0.0354 0.033,0.0354 0.033,0.0996 0,0.0039 -3e-4,0.0117 l -0.1933,0 q 0.0024,0.0428 0.0241,0.0655 0.0218,0.0227 0.0542,0.0227 0.0242,0 0.0413,-0.0127 0.0171,-0.0127 0.0271,-0.0406 z m -0.1443,-0.071 0.1448,0 Q 0.2448,-1.4006 0.2311,-1.417 0.2101,-1.4424 0.1766,-1.4424 q -0.0302,0 -0.0509,0.0203 -0.0206,0.0203 -0.0228,0.0542 z m 0.2485,0.1545 0,-0.3579 0.1343,0 q 0.041,0 0.0658,0.0109 0.0248,0.0109 0.0388,0.0334 0.0141,0.0226 0.0141,0.0473 0,0.0229 -0.0125,0.0432 -0.0124,0.0203 -0.0376,0.0327 0.0325,0.0095 0.0499,0.0325 0.0175,0.0229 0.0175,0.0542 0,0.0251 -0.0106,0.0467 -0.0106,0.0216 -0.0263,0.0334 -0.0156,0.0117 -0.0392,0.0177 -0.0235,0.0059 -0.0577,0.0059 l -0.1365,0 z m 0.0474,-0.2075 0.0774,0 q 0.0315,0 0.0452,-0.0041 0.018,-0.0054 0.0272,-0.0178 0.0091,-0.0125 0.0091,-0.0313 0,-0.0178 -0.0085,-0.0314 Q 0.5406,-1.519 0.5248,-1.524 0.5089,-1.529 0.4703,-1.529 l -0.0715,0 0,0.1081 z m 0,0.1653 0.0891,0 q 0.023,0 0.0322,-0.0017 0.0164,-0.0029 0.0274,-0.0098 0.011,-0.0068 0.018,-0.0199 0.0071,-0.013 0.0071,-0.0301 0,-0.02 -0.0102,-0.0348 Q 0.5521,-1.3667 0.5339,-1.3727 0.5157,-1.3786 0.4816,-1.3786 l -0.0828,0 0,0.123 z m 0.4524,0.0422 0,-0.038 q -0.0303,0.0439 -0.0823,0.0439 -0.0229,0 -0.0428,-0.0088 Q 0.7062,-1.2251 0.6965,-1.2384 0.6869,-1.2517 0.683,-1.271 0.6803,-1.2839 0.6803,-1.312 l 0,-0.1606 0.0439,0 0,0.1438 q 0,0.0344 0.0027,0.0464 0.0042,0.0173 0.0176,0.0272 0.0134,0.0099 0.0332,0.0099 0.0198,0 0.0371,-0.0102 0.0174,-0.0101 0.0246,-0.0276 0.0072,-0.0174 0.0072,-0.0506 l 0,-0.1389 0.0439,0 0,0.2592 -0.0393,0 z m 0.1186,0 0,-0.225 -0.0388,0 0,-0.0342 0.0388,0 0,-0.0276 q 0,-0.0261 0.0047,-0.0388 0.0063,-0.0171 0.0223,-0.0277 0.016,-0.0107 0.0448,-0.0107 0.0186,0 0.041,0.0044 L 1.076,-1.5346 q -0.0136,-0.0025 -0.0258,-0.0025 -0.02,0 -0.0284,0.0086 -0.0083,0.0085 -0.0083,0.0319 l 0,0.024 0.0506,0 0,0.0342 -0.0506,0 0,0.225 -0.0437,0 z m 0.139,0 0,-0.225 -0.0389,0 0,-0.0342 0.0389,0 0,-0.0276 q 0,-0.0261 0.0046,-0.0388 0.0063,-0.0171 0.0223,-0.0277 0.016,-0.0107 0.0448,-0.0107 0.0186,0 0.0411,0.0044 L 1.215,-1.5346 q -0.0137,-0.0025 -0.0259,-0.0025 -0.02,0 -0.0283,0.0086 -0.0083,0.0085 -0.0083,0.0319 l 0,0.024 0.0505,0 0,0.0342 -0.0505,0 0,0.225 -0.0437,0 z m 0.3059,-0.0835 0.0454,0.0057 q -0.0108,0.0398 -0.0398,0.0617 -0.0291,0.022 -0.0742,0.022 -0.0569,0 -0.0902,-0.035 -0.0334,-0.0351 -0.0334,-0.0983 0,-0.0654 0.0337,-0.1016 0.0337,-0.0361 0.0874,-0.0361 0.052,0 0.085,0.0354 0.0329,0.0354 0.0329,0.0996 0,0.0039 -2e-4,0.0117 l -0.1934,0 q 0.0025,0.0428 0.0242,0.0655 0.0217,0.0227 0.0542,0.0227 0.0242,0 0.0413,-0.0127 0.0171,-0.0127 0.0271,-0.0406 z m -0.1443,-0.071 0.1448,0 Q 1.4122,-1.4006 1.3986,-1.417 1.3776,-1.4424 1.3441,-1.4424 q -0.0303,0 -0.0509,0.0203 -0.0206,0.0203 -0.0228,0.0542 z m 0.2444,0.1545 0,-0.2592 0.0395,0 0,0.0393 q 0.0151,-0.0276 0.028,-0.0364 0.0128,-0.0088 0.0282,-0.0088 0.0222,0 0.0451,0.0142 l -0.0151,0.0407 q -0.0161,-0.0095 -0.0322,-0.0095 -0.0144,0 -0.0259,0.0087 -0.0115,0.0087 -0.0164,0.024 -0.0073,0.0235 -0.0073,0.0513 l 0,0.1357 -0.0439,0 z"
         id="path15"
         inkscape:connector-curvature="0"
         style="fill:#000000;stroke:none" />
    </g>
    <g
       font-size="0.5"
       transform="matrix(50,0,0,50,464.5609,109.1613)"
       id="g17"
       style="font-size:0.5px;font-family:sans-serif;fill:#ffffff;stroke:#ffffff;stroke-width:0.06">
      <path
         d="m -0.5,-0.5 0,1 1,-0.5 z"
         id="path19"
         inkscape:connector-curvature="0"
         style="stroke:none" />
      <path
         d="m -0.5,-0.5 0,1 1,-0.5 z"
         id="path21"
         inkscape:connector-curvature="0"
         style="fill:none;stroke:#000000" />
      <line
         x1="0.5"
         x2="1.5"
         y1="0"
         y2="0"
         id="line23"
         style="fill:none;stroke:#000000;stroke-width:0.04" />
      <line
         x1="-0.5"
         x2="-1.5"
         y1="0"
         y2="0"
         id="line25"
         style="fill:none;stroke:#000000;stroke-width:0.04" />
    </g>
    <g
       font-size="0.5"
       font-style="italic"
       transform="matrix(50,0,0,50,464.5609,109.1613)"
       id="g27"
       style="font-style:italic;font-size:0.5px;font-family:sans-serif;fill:#0000b2;stroke:#0000b2;stroke-width:0.04">
      <path
         d="m -0.9105,-0.839 0.0747,-0.3579 0.0442,0 -0.0266,0.1279 q 0.021,-0.0193 0.0381,-0.0272 0.017,-0.008 0.0356,-0.008 0.0364,0 0.0607,0.0271 0.0243,0.0271 0.0243,0.0789 0,0.0344 -0.0098,0.063 -0.0098,0.0286 -0.0242,0.048 -0.0144,0.0194 -0.0298,0.031 -0.0153,0.0116 -0.0315,0.0173 -0.0161,0.0057 -0.031,0.0057 -0.0256,0 -0.0451,-0.0135 -0.0196,-0.0135 -0.0306,-0.0414 l -0.0102,0.0491 -0.0388,0 z m 0.0654,-0.1065 -2e-4,0.0083 q 0,0.0332 0.0158,0.0506 0.0159,0.0173 0.0396,0.0173 0.0232,0 0.0426,-0.0162 0.0194,-0.0163 0.0318,-0.0507 0.0125,-0.0344 0.0125,-0.0635 0,-0.0327 -0.0158,-0.0507 -0.0157,-0.0181 -0.0389,-0.0181 -0.0239,0 -0.0439,0.0184 -0.0201,0.0185 -0.0335,0.0568 -0.01,0.0286 -0.01,0.0478 z m 0.3897,0.0596 q -0.0467,0.0527 -0.0955,0.0527 -0.03,0 -0.0485,-0.0172 -0.0184,-0.0172 -0.0184,-0.0421 0,-0.0163 0.0083,-0.0561 l 0.0312,-0.1497 0.0442,0 -0.0346,0.1658 q -0.0044,0.0207 -0.0044,0.0322 0,0.0147 0.0089,0.0228 0.0089,0.0082 0.0262,0.0082 0.0186,0 0.0363,-0.009 0.0177,-0.0091 0.0305,-0.0244 0.0128,-0.0154 0.0209,-0.0364 0.0054,-0.0134 0.0124,-0.0471 l 0.0235,-0.1121 0.0442,0 -0.0542,0.2593 -0.0408,0 0.0098,-0.0469 z m 0.1071,0.0469 0.0472,-0.2251 -0.0396,0 0.0071,-0.0342 0.0395,0 0.0076,-0.0369 q 0.0059,-0.0275 0.0121,-0.0398 0.0062,-0.0122 0.0202,-0.0201 0.0141,-0.0079 0.0383,-0.0079 0.0168,0 0.0488,0.007 l -0.0081,0.0386 q -0.0224,-0.0058 -0.0376,-0.0058 -0.0129,0 -0.0196,0.0064 -0.0067,0.0065 -0.0116,0.0307 l -0.0059,0.0278 0.0493,0 -0.007,0.0342 -0.0494,0 -0.0471,0.2251 -0.0442,0 z m 0.1389,0 0.0472,-0.2251 -0.0396,0 0.0071,-0.0342 0.0395,0 0.0076,-0.0369 q 0.0059,-0.0275 0.0121,-0.0398 0.0062,-0.0122 0.0203,-0.0201 0.014,-0.0079 0.0382,-0.0079 0.0168,0 0.0488,0.007 l -0.0081,0.0386 q -0.0224,-0.0058 -0.0376,-0.0058 -0.0129,0 -0.0196,0.0064 -0.0067,0.0065 -0.0116,0.0307 l -0.0059,0.0278 0.0493,0 -0.007,0.0342 -0.0493,0 -0.0472,0.2251 -0.0442,0 z m 0.3233,-0.0882 0.043,0.0045 q -0.0093,0.0319 -0.0426,0.0607 -0.0334,0.0288 -0.0795,0.0288 -0.0288,0 -0.0529,-0.0133 -0.024,-0.0133 -0.0366,-0.0387 -0.0126,-0.0253 -0.0126,-0.0578 0,-0.0425 0.0197,-0.0824 0.0196,-0.0399 0.0509,-0.0593 0.0312,-0.0195 0.0676,-0.0195 0.0464,0 0.0741,0.0289 0.0277,0.0288 0.0277,0.0786 0,0.019 -0.0034,0.039 l -0.1909,0 q -10e-4,0.0076 -10e-4,0.0137 0,0.0364 0.0167,0.0555 0.0168,0.0192 0.0409,0.0192 0.0227,0 0.0447,-0.0149 0.022,-0.0149 0.0342,-0.043 z m -0.1284,-0.0642 0.1455,0 q 2e-4,-0.0068 2e-4,-0.0097 0,-0.0332 -0.0166,-0.0509 -0.0166,-0.0177 -0.0427,-0.0177 -0.0283,0 -0.0516,0.0195 -0.0233,0.0195 -0.0348,0.0588 z m 0.216,0.1524 0.0542,-0.2593 0.0391,0 -0.011,0.053 q 0.02,-0.03 0.0392,-0.0444 0.0192,-0.0145 0.0392,-0.0145 0.0132,0 0.0325,0.0096 l -0.0181,0.041 q -0.0115,-0.0083 -0.0252,-0.0083 -0.0232,0 -0.0476,0.0259 -0.0244,0.0258 -0.0383,0.093 l -0.022,0.104 -0.042,0 z m 0.1182,0.0993 0,-0.0317 0.2913,0 0,0.0317 -0.2913,0 z M 0.6588,-0.839 q 0.0069,-0.032 0.0189,-0.0536 0.0121,-0.0216 0.0321,-0.041 0.0201,-0.0194 0.0772,-0.0651 0.0347,-0.0276 0.0473,-0.0408 0.0184,-0.019 0.0267,-0.0373 0.0056,-0.0125 0.0056,-0.0271 0,-0.0247 -0.0175,-0.0419 -0.0174,-0.0172 -0.0428,-0.0172 -0.0252,0 -0.044,0.0175 -0.0188,0.0174 -0.0268,0.056 L 0.6923,-1.0959 q 0.0063,-0.0476 0.037,-0.075 0.0306,-0.0275 0.0762,-0.0275 0.0306,0 0.0553,0.0127 0.0248,0.0127 0.0373,0.0356 0.0124,0.023 0.0124,0.0474 0,0.0357 -0.0254,0.0686 -0.0156,0.0205 -0.0918,0.0808 -0.0327,0.0259 -0.0487,0.0425 -0.016,0.0166 -0.024,0.0313 l 0.1601,0 -0.0085,0.0405 -0.2134,0 z"
         id="path29"
         inkscape:connector-curvature="0"
         style="stroke:none" />
    </g>
    <g
       font-size="0.5"
       font-style="italic"
       transform="matrix(50,0,0,50,564.5609,109.1613)"
       id="g31"
       style="font-style:italic;font-size:0.5px;font-family:sans-serif;fill:#ffffff;stroke:#ffffff;stroke-width:0.04">
      <path
         d="M -0.15,-0.15 0,-0.15 0.15,0 0,0.15 l -0.15,0 z"
         id="path33"
         inkscape:connector-curvature="0"
         style="stroke:none" />
      <path
         d="M -0.15,-0.15 0,-0.15 0.15,0 0,0.15 l -0.15,0 z"
         id="path35"
         inkscape:connector-curvature="0"
         style="fill:none;stroke:#000000" />
    </g>
    <g
       font-size="0.5"
       font-style="italic"
       transform="matrix(50,0,0,50,564.5609,109.1613)"
       id="g37"
       style="font-style:italic;font-size:0.5px;font-family:sans-serif;fill:#0000ff;stroke:#0000ff;stroke-width:0.04">
      <path
         d="M 0.5175,4e-4 0.5617,0.005 Q 0.5451,0.0536 0.5144,0.0771 0.4838,0.1007 0.4447,0.1007 0.4025,0.1007 0.3762,0.0734 0.35,0.046 0.35,-0.0031 q 0,-0.0424 0.0168,-0.0834 0.0169,-0.0411 0.0483,-0.0624 0.0313,-0.0214 0.0716,-0.0214 0.0418,0 0.0662,0.0236 0.0244,0.0235 0.0244,0.0623 l -0.0435,0.003 Q 0.5336,-0.1061 0.5196,-0.12 0.5055,-0.1339 0.4826,-0.1339 q -0.0266,0 -0.0462,0.0168 -0.0195,0.0169 -0.0306,0.0512 -0.0111,0.0343 -0.0111,0.066 0,0.0332 0.0146,0.0498 0.0147,0.0166 0.0362,0.0166 0.0214,0 0.0411,-0.0163 Q 0.5063,0.0338 0.5175,4e-4 Z"
         id="path39"
         inkscape:connector-curvature="0"
         style="stroke:none" />
    </g>
    <g
       font-size="0.5"
       font-style="italic"
       transform="matrix(50,0,0,50,289.5609,84.1613)"
       id="g41"
       style="font-style:italic;font-size:0.5px;font-family:sans-serif;fill:#ffffff;fill-opacity:0;stroke:#ffffff;stroke-width:0.04;stroke-opacity:0">
      <rect
         height="1.2"
         width="1.4"
         x="-0.69999999"
         y="-0.60000002"
         id="rect43"
         style="stroke:none" />
    </g>
    <g
       font-size="0.5"
       font-style="italic"
       stroke-miterlimit="1"
       transform="matrix(50,0,0,50,289.5609,84.1613)"
       id="g45"
       style="font-style:italic;font-size:0.5px;font-family:sans-serif;fill:#808080;fill-opacity:0;stroke:#808080;stroke-width:0.02;stroke-miterlimit:1;stroke-dasharray:0.2, 0.2;stroke-opacity:0">
      <rect
         height="1.2"
         width="1.4"
         x="-0.69999999"
         y="-0.60000002"
         id="rect47"
         style="fill:none" />
    </g>
    <g
       font-size="0.5"
       stroke-miterlimit="1"
       transform="matrix(50,0,0,50,289.5609,84.1613)"
       id="g49"
       style="font-size:0.5px;font-family:sans-serif;fill:#009900;stroke:#009900;stroke-width:0.02;stroke-miterlimit:1;stroke-dasharray:0.2, 0.2">
      <path
         d="m -0.0717,0.1273 -0.0407,0 0,-0.3579 0.0439,0 0,0.1277 q 0.0279,-0.0349 0.0711,-0.0349 0.0239,0 0.0453,0.0096 0.0213,0.0097 0.0351,0.0271 0.0138,0.0175 0.0216,0.0421 0.0078,0.0247 0.0078,0.0528 0,0.0666 -0.0329,0.103 -0.033,0.0364 -0.0791,0.0364 -0.0459,0 -0.0721,-0.0384 l 0,0.0325 z m -4e-4,-0.1316 q 0,0.0466 0.0126,0.0674 0.0208,0.0339 0.0562,0.0339 0.0288,0 0.0498,-0.025 0.021,-0.025 0.021,-0.0746 0,-0.0508 -0.0201,-0.0749 -0.0202,-0.0242 -0.0487,-0.0242 -0.0289,0 -0.0498,0.025 -0.021,0.0251 -0.021,0.0724 z"
         id="path51"
         inkscape:connector-curvature="0"
         style="stroke:none" />
    </g>
    <g
       font-size="0.5"
       transform="matrix(50,0,0,50,139.5609,109.1613)"
       id="g53"
       style="font-size:0.5px;font-family:sans-serif;fill:#ffffff;stroke:#ffffff;stroke-width:0.06">
      <path
         d="m -0.5,-0.5 0,1 1,-0.5 z"
         id="path55"
         inkscape:connector-curvature="0"
         style="stroke:none" />
      <path
         d="m -0.5,-0.5 0,1 1,-0.5 z"
         id="path57"
         inkscape:connector-curvature="0"
         style="fill:none;stroke:#000000" />
      <line
         x1="0.5"
         x2="1.5"
         y1="0"
         y2="0"
         id="line59"
         style="fill:none;stroke:#000000;stroke-width:0.04" />
      <line
         x1="-0.5"
         x2="-1.5"
         y1="0"
         y2="0"
         id="line61"
         style="fill:none;stroke:#000000;stroke-width:0.04" />
    </g>
    <g
       font-size="0.5"
       font-style="italic"
       transform="matrix(50,0,0,50,139.5609,109.1613)"
       id="g63"
       style="font-style:italic;font-size:0.5px;font-family:sans-serif;fill:#0000b2;stroke:#0000b2;stroke-width:0.04">
      <path
         d="m -0.8899,-0.839 0.0747,-0.3579 0.0442,0 -0.0266,0.1279 q 0.021,-0.0193 0.0381,-0.0272 0.0171,-0.008 0.0356,-0.008 0.0364,0 0.0607,0.0271 0.0243,0.0271 0.0243,0.0789 0,0.0344 -0.0098,0.063 -0.0098,0.0286 -0.0242,0.048 -0.0144,0.0194 -0.0297,0.031 -0.0154,0.0116 -0.0315,0.0173 -0.0161,0.0057 -0.031,0.0057 -0.0257,0 -0.0452,-0.0135 -0.0195,-0.0135 -0.0305,-0.0414 l -0.0103,0.0491 -0.0388,0 z m 0.0654,-0.1065 -2e-4,0.0083 q 0,0.0332 0.0159,0.0506 0.0158,0.0173 0.0395,0.0173 0.0232,0 0.0426,-0.0162 0.0194,-0.0163 0.0319,-0.0507 0.0124,-0.0344 0.0124,-0.0635 0,-0.0327 -0.0157,-0.0507 -0.0158,-0.0181 -0.039,-0.0181 -0.0239,0 -0.0439,0.0184 -0.02,0.0185 -0.0335,0.0568 -0.01,0.0286 -0.01,0.0478 z m 0.3897,0.0596 q -0.0467,0.0527 -0.0955,0.0527 -0.03,0 -0.0484,-0.0172 -0.0185,-0.0172 -0.0185,-0.0421 0,-0.0163 0.0083,-0.0561 l 0.0313,-0.1497 0.0442,0 -0.0347,0.1658 q -0.0044,0.0207 -0.0044,0.0322 0,0.0147 0.0089,0.0228 0.0089,0.0082 0.0263,0.0082 0.0185,0 0.0362,-0.009 0.0177,-0.0091 0.0305,-0.0244 0.0128,-0.0154 0.0209,-0.0364 0.0054,-0.0134 0.0125,-0.0471 l 0.0234,-0.1121 0.0442,0 -0.0542,0.2593 -0.0408,0 0.0098,-0.0469 z m 0.1072,0.0469 0.0471,-0.2251 -0.0396,0 0.0071,-0.0342 0.0396,0 0.0075,-0.0369 q 0.0059,-0.0275 0.0121,-0.0398 0.0062,-0.0122 0.0203,-0.0201 0.014,-0.0079 0.0382,-0.0079 0.0168,0 0.0488,0.007 l -0.0081,0.0386 q -0.0224,-0.0058 -0.0375,-0.0058 -0.013,0 -0.0197,0.0064 -0.0067,0.0065 -0.0116,0.0307 l -0.0059,0.0278 0.0494,0 -0.0071,0.0342 -0.0493,0 -0.0472,0.2251 -0.0441,0 z m 0.1389,0 0.0471,-0.2251 -0.0396,0 0.0071,-0.0342 0.0396,0 0.0075,-0.0369 q 0.0059,-0.0275 0.0121,-0.0398 0.0062,-0.0122 0.0203,-0.0201 0.014,-0.0079 0.0382,-0.0079 0.0168,0 0.0488,0.007 l -0.008,0.0386 q -0.0225,-0.0058 -0.0376,-0.0058 -0.013,0 -0.0197,0.0064 -0.0067,0.0065 -0.0116,0.0307 l -0.0058,0.0278 0.0493,0 -0.0071,0.0342 -0.0493,0 -0.0471,0.2251 -0.0442,0 z m 0.3232,-0.0882 0.043,0.0045 q -0.0093,0.0319 -0.0426,0.0607 -0.0333,0.0288 -0.0795,0.0288 -0.0288,0 -0.0528,-0.0133 -0.0241,-0.0133 -0.0367,-0.0387 -0.0125,-0.0253 -0.0125,-0.0578 0,-0.0425 0.0196,-0.0824 0.0197,-0.0399 0.0509,-0.0593 0.0313,-0.0195 0.0676,-0.0195 0.0464,0 0.0741,0.0289 0.0278,0.0288 0.0278,0.0786 0,0.019 -0.0035,0.039 l -0.1909,0 q -0.001,0.0076 -0.001,0.0137 0,0.0364 0.0168,0.0555 0.0167,0.0192 0.0409,0.0192 0.0227,0 0.0446,-0.0149 0.022,-0.0149 0.0342,-0.043 z m -0.1284,-0.0642 0.1455,0 q 2e-4,-0.0068 2e-4,-0.0097 0,-0.0332 -0.0166,-0.0509 -0.0166,-0.0177 -0.0427,-0.0177 -0.0283,0 -0.0516,0.0195 -0.0233,0.0195 -0.0348,0.0588 z m 0.2161,0.1524 0.0542,-0.2593 0.039,0 -0.011,0.053 q 0.0201,-0.03 0.0392,-0.0444 0.0192,-0.0145 0.0392,-0.0145 0.0132,0 0.0325,0.0096 l -0.0181,0.041 Q 0.3857,-1.0619 0.3721,-1.0619 0.3489,-1.0619 0.3245,-1.036 0.3,-1.0102 0.2861,-0.943 l -0.0219,0.104 -0.042,0 z m 0.1181,0.0993 0,-0.0317 0.2913,0 0,0.0317 -0.2913,0 z M 0.7705,-0.839 0.8271,-1.1093 q -0.0366,0.0288 -0.103,0.0462 l 0.0083,-0.0401 q 0.033,-0.0132 0.0651,-0.0344 0.0321,-0.0212 0.0482,-0.0371 0.0098,-0.0098 0.0186,-0.0237 l 0.0256,0 -0.075,0.3594 -0.0444,0 z"
         id="path65"
         inkscape:connector-curvature="0"
         style="stroke:none" />
    </g>
    <g
       font-size="0.5"
       font-style="italic"
       transform="matrix(50,0,0,50,39.5609,109.1613)"
       id="g67"
       style="font-style:italic;font-size:0.5px;font-family:sans-serif;fill:#ffffff;stroke:#ffffff;stroke-width:0.04">
      <path
         d="M -0.15,-0.15 0,-0.15 0.15,0 0,0.15 l -0.15,0 z"
         id="path69"
         inkscape:connector-curvature="0"
         style="stroke:none" />
      <path
         d="M -0.15,-0.15 0,-0.15 0.15,0 0,0.15 l -0.15,0 z"
         id="path71"
         inkscape:connector-curvature="0"
         style="fill:none;stroke:#000000" />
    </g>
    <g
       font-size="0.5"
       font-style="italic"
       transform="matrix(50,0,0,50,39.5609,109.1613)"
       id="g73"
       style="font-style:italic;font-size:0.5px;font-family:sans-serif;fill:#ff0000;stroke:#ff0000;stroke-width:0.04">
      <path
         d="m -0.4218,0.0626 q -0.0229,0.0198 -0.0442,0.029 -0.0212,0.0091 -0.0454,0.0091 -0.0359,0 -0.0578,-0.0211 -0.022,-0.0211 -0.022,-0.0541 0,-0.0217 0.0099,-0.0384 0.0099,-0.0168 0.0262,-0.0269 0.0164,-0.0101 0.0401,-0.0145 0.0148,-0.0029 0.0565,-0.0047 0.0416,-0.0017 0.0597,-0.0087 0.0051,-0.0181 0.0051,-0.0301 0,-0.0154 -0.0112,-0.0241 -0.0154,-0.0122 -0.045,-0.0122 -0.0278,0 -0.0455,0.0123 -0.0177,0.0123 -0.0257,0.035 l -0.0447,-0.0039 q 0.0136,-0.0386 0.0433,-0.0591 0.0297,-0.0205 0.0748,-0.0205 0.0481,0 0.0762,0.023 0.0215,0.0171 0.0215,0.0444 0,0.0208 -0.0061,0.0481 l -0.0144,0.0644 q -0.0068,0.0308 -0.0068,0.0501 0,0.0122 0.0053,0.0352 l -0.0447,0 Q -0.4203,0.0821 -0.4218,0.0626 Z m 0.0164,-0.0991 q -0.0093,0.0037 -0.0199,0.0056 -0.0106,0.002 -0.0355,0.0042 -0.0386,0.0034 -0.0545,0.0086 -0.0159,0.0053 -0.0239,0.0168 -0.0081,0.0114 -0.0081,0.0254 0,0.0185 0.0128,0.0305 0.0129,0.0119 0.0365,0.0119 0.022,0 0.0423,-0.0116 0.0202,-0.0116 0.032,-0.0323 0.0117,-0.0208 0.0183,-0.0591 z"
         id="path75"
         inkscape:connector-curvature="0"
         style="stroke:none" />
    </g>
    <g
       font-size="0.5"
       font-style="italic"
       transform="matrix(50,0,0,50,289.5609,84.1613)"
       id="g77"
       style="font-style:italic;font-size:0.5px;font-family:sans-serif;stroke-width:0.04">
      <line
         x1="5"
         x2="5.1100001"
         y1="0.5"
         y2="0.5"
         id="line79"
         style="fill:none" />
    </g>
    <g
       font-size="0.5"
       font-style="italic"
       transform="matrix(50,0,0,50,289.5609,84.1613)"
       id="g81"
       style="font-style:italic;font-size:0.5px;font-family:sans-serif;stroke-width:0.04">
      <path
         d="m 5.11,0.5 0.24,0"
         id="path83"
         inkscape:connector-curvature="0"
         style="fill:none" />
      <path
         d="m 5.35,0.425 0,0.15 0,-0.075 z"
         id="path85"
         inkscape:connector-curvature="0"
         style="stroke:none" />
    </g>
    <g
       font-size="0.5"
       font-style="italic"
       transform="matrix(50,0,0,50,289.5609,84.1613)"
       id="g87"
       style="font-style:italic;font-size:0.5px;font-family:sans-serif;stroke-width:0.04">
      <line
         x1="-4.6100001"
         x2="-4.5"
         y1="0.5"
         y2="0.5"
         id="line89"
         style="fill:none" />
    </g>
    <g
       font-size="0.5"
       font-style="italic"
       transform="matrix(50,0,0,50,289.5609,84.1613)"
       id="g91"
       style="font-style:italic;font-size:0.5px;font-family:sans-serif;stroke-width:0.04">
      <path
         d="m -4.85,0.5 0.24,0"
         id="path93"
         inkscape:connector-curvature="0"
         style="fill:none" />
      <path
         d="m -4.61,0.425 0,0.15 0,-0.075 z"
         id="path95"
         inkscape:connector-curvature="0"
         style="stroke:none" />
    </g>
    <g
       font-size="0.5"
       font-style="italic"
       transform="matrix(50,0,0,50,289.5609,84.1613)"
       id="g97"
       style="font-style:italic;font-size:0.5px;font-family:sans-serif;stroke-width:0.04">
      <line
         x1="-1.5"
         x2="-1.39"
         y1="0.5"
         y2="0.5"
         id="line99"
         style="fill:none" />
      <line
         x1="1.89"
         x2="2"
         y1="0.5"
         y2="0.5"
         id="line101"
         style="fill:none" />
    </g>
    <g
       font-size="0.5"
       font-style="italic"
       transform="matrix(50,0,0,50,289.5609,84.1613)"
       id="g103"
       style="font-style:italic;font-size:0.5px;font-family:sans-serif;stroke-width:0.04">
      <path
         d="m -1.39,0.5 3.28,0"
         id="path105"
         inkscape:connector-curvature="0"
         style="fill:none" />
      <path
         d="m 1.89,0.425 0,0.15 0,-0.075 z"
         id="path107"
         inkscape:connector-curvature="0"
         style="stroke:none" />
    </g>
  </g>
</svg>
