<?xml version="1.0" encoding="UTF-8" standalone="no"?>
<svg
   xmlns:dc="http://purl.org/dc/elements/1.1/"
   xmlns:cc="http://creativecommons.org/ns#"
   xmlns:rdf="http://www.w3.org/1999/02/22-rdf-syntax-ns#"
   xmlns:svg="http://www.w3.org/2000/svg"
   xmlns="http://www.w3.org/2000/svg"
   xmlns:sodipodi="http://sodipodi.sourceforge.net/DTD/sodipodi-0.dtd"
   xmlns:inkscape="http://www.inkscape.org/namespaces/inkscape"
   color-interpolation="auto"
   color-rendering="auto"
   fill="black"
   fill-opacity="1"
   font-family="'Dialog'"
   font-size="12"
   font-style="normal"
   font-weight="normal"
   height="430"
   image-rendering="auto"
   shape-rendering="auto"
   stroke="black"
   stroke-dasharray="none"
   stroke-dashoffset="0"
   stroke-linecap="square"
   stroke-linejoin="miter"
   stroke-miterlimit="10"
   stroke-opacity="1"
   stroke-width="1"
   text-rendering="auto"
   width="1750"
   id="svg2"
   version="1.1"
   inkscape:version="0.91 r13725"
   sodipodi:docname="double-buffer_STG.svg">
  <metadata
     id="metadata183">
    <rdf:RDF>
      <cc:Work
         rdf:about="">
        <dc:format>image/svg+xml</dc:format>
        <dc:type
           rdf:resource="http://purl.org/dc/dcmitype/StillImage" />
      </cc:Work>
    </rdf:RDF>
  </metadata>
  <sodipodi:namedview
     pagecolor="#ffffff"
     bordercolor="#666666"
     borderopacity="1"
     objecttolerance="10"
     gridtolerance="10"
     guidetolerance="10"
     inkscape:pageopacity="0"
     inkscape:pageshadow="2"
     inkscape:window-width="1920"
     inkscape:window-height="1058"
     id="namedview181"
     showgrid="false"
     inkscape:zoom="0.16914286"
     inkscape:cx="875"
     inkscape:cy="209.08784"
     inkscape:window-x="-8"
     inkscape:window-y="-8"
     inkscape:window-maximized="1"
     inkscape:current-layer="svg2" />
  <!--Generated by the Batik Graphics2D SVG Generator-->
  <defs
     id="genericDefs" />
  <g
     id="g5"
     transform="translate(20,-4.7113)">
    <g
       transform="matrix(50,0,0,50,330,177.7338)"
       id="g7"
       style="fill:#ffffff;stroke:#ffffff">
      <circle
         cx="0"
         cy="0"
         r="0.44999999"
         id="circle9"
         style="stroke:none" />
    </g>
    <g
       transform="matrix(50,0,0,50,330,177.7338)"
       id="g11"
       style="stroke-width:0.1">
      <circle
         cx="0"
         cy="0"
         r="0.44999999"
         id="circle13"
         style="fill:none" />
    </g>
    <g
       font-size="0.5"
       font-style="italic"
       transform="matrix(50,0,0,50,330,177.7338)"
       id="g15"
       style="font-style:italic;font-size:0.5px;font-family:sans-serif;fill:#3333ff;stroke:#3333ff;stroke-width:0.1">
      <path
         d="m -0.2175,1.1265 q -0.023,0.0198 -0.0442,0.0289 -0.0213,0.0092 -0.0454,0.0092 -0.0359,0 -0.0579,-0.0211 -0.022,-0.0211 -0.022,-0.0541 0,-0.0217 0.0099,-0.0385 0.0099,-0.0167 0.0263,-0.0268 0.0163,-0.0101 0.04,-0.0145 0.0149,-0.003 0.0565,-0.0047 0.0417,-0.0017 0.0597,-0.0088 0.0051,-0.018 0.0051,-0.03 0,-0.0154 -0.0112,-0.0242 -0.0154,-0.0122 -0.0449,-0.0122 -0.0278,0 -0.0455,0.0124 -0.0177,0.0123 -0.0258,0.035 L -0.3616,0.9732 q 0.0137,-0.0386 0.0434,-0.0591 0.0296,-0.0205 0.0748,-0.0205 0.0481,0 0.0762,0.0229 0.0215,0.0171 0.0215,0.0445 0,0.0207 -0.0062,0.0481 l -0.0144,0.0644 q -0.0068,0.0308 -0.0068,0.0501 0,0.0122 0.0054,0.0351 l -0.0447,0 Q -0.2161,1.146 -0.2175,1.1265 Z M -0.2012,1.0274 Q -0.2105,1.031 -0.2211,1.033 -0.2317,1.035 -0.2566,1.0372 -0.2952,1.0406 -0.311,1.0458 -0.3269,1.0511 -0.335,1.0625 -0.343,1.074 -0.343,1.0879 q 0,0.0186 0.0128,0.0305 0.0128,0.012 0.0365,0.012 0.022,0 0.0422,-0.0116 0.0203,-0.0116 0.032,-0.0323 0.0117,-0.0208 0.0183,-0.0591 z m 0.0386,0.2307 0,-0.0317 0.2913,0 0,0.0317 -0.2913,0 z M 0.2676,1.1587 0.3242,0.8885 Q 0.2876,0.9173 0.2212,0.9346 l 0.0083,-0.04 Q 0.2625,0.8814 0.2946,0.8601 0.3267,0.8389 0.3428,0.823 0.3525,0.8133 0.3613,0.7994 l 0.0257,0 -0.075,0.3593 -0.0444,0 z"
         id="path17"
         inkscape:connector-curvature="0"
         style="stroke:none" />
    </g>
    <g
       font-size="0.5"
       font-style="italic"
       transform="matrix(50,0,0,50,30,177.7338)"
       id="g19"
       style="font-style:italic;font-size:0.5px;font-family:sans-serif;fill:#ffffff;stroke:#ffffff;stroke-width:0.1">
      <circle
         cx="0"
         cy="0"
         r="0.44999999"
         id="circle21"
         style="stroke:none" />
      <circle
         cx="0"
         cy="0"
         r="0.44999999"
         id="circle23"
         style="fill:none;stroke:#000000" />
      <circle
         cx="0"
         cy="0"
         r="0.26320001"
         id="circle25"
         style="fill:#000000;stroke:none" />
      <path
         d="m -0.239,-0.8699 q -0.023,0.0198 -0.0442,0.029 -0.0212,0.0091 -0.0454,0.0091 -0.0359,0 -0.0579,-0.0211 -0.022,-0.0211 -0.022,-0.0541 0,-0.0217 0.0099,-0.0384 0.0099,-0.0167 0.0263,-0.0269 0.0163,-0.0101 0.04,-0.0145 0.0149,-0.0029 0.0565,-0.0046 0.0417,-0.0017 0.0597,-0.0088 0.0052,-0.0181 0.0052,-0.03 0,-0.0154 -0.0113,-0.0242 -0.0153,-0.0122 -0.0449,-0.0122 -0.0278,0 -0.0455,0.0123 -0.0177,0.0123 -0.0258,0.035 l -0.0447,-0.0039 q 0.0137,-0.0385 0.0434,-0.0591 0.0296,-0.0205 0.0748,-0.0205 0.0481,0 0.0762,0.023 0.0215,0.0171 0.0215,0.0444 0,0.0208 -0.0061,0.0481 l -0.0144,0.0645 q -0.0069,0.0307 -0.0069,0.05 0,0.0122 0.0054,0.0352 l -0.0447,0 Q -0.2375,-0.8503 -0.239,-0.8699 Z m 0.0163,-0.0991 q -0.0092,0.0037 -0.0199,0.0056 -0.0106,0.002 -0.0355,0.0042 -0.0386,0.0034 -0.0544,0.0087 -0.0159,0.0052 -0.0239,0.0167 -0.0081,0.0115 -0.0081,0.0254 0,0.0185 0.0128,0.0305 0.0128,0.012 0.0365,0.012 0.022,0 0.0422,-0.0116 0.0203,-0.0116 0.032,-0.0324 0.0118,-0.0207 0.0183,-0.0591 z m 0.0386,0.2307 0,-0.0317 0.2913,0 0,0.0317 -0.2913,0 z m 0.3452,-0.2168 q 0,-0.0454 0.0136,-0.0922 0.0135,-0.0469 0.0301,-0.075 0.0166,-0.0281 0.0345,-0.0439 0.0178,-0.0159 0.035,-0.0233 0.0172,-0.0075 0.0382,-0.0075 0.041,0 0.0685,0.0305 0.0275,0.0305 0.0275,0.0882 0,0.0593 -0.0191,0.1174 -0.0224,0.0688 -0.0625,0.1033 -0.0308,0.0261 -0.0701,0.0261 -0.0402,0 -0.068,-0.0316 -0.0277,-0.0316 -0.0277,-0.092 z m 0.0428,0.0113 q 0,0.0329 0.0109,0.0515 0.0149,0.0256 0.0442,0.0256 0.0257,0 0.0467,-0.0232 0.0302,-0.0327 0.0455,-0.0958 0.0153,-0.0631 0.0153,-0.1031 0,-0.0386 -0.0148,-0.0557 -0.0148,-0.0171 -0.039,-0.0171 -0.0175,0 -0.0328,0.009 -0.0152,0.0091 -0.0292,0.031 -0.0197,0.031 -0.0344,0.0928 -0.0124,0.0528 -0.0124,0.085 z"
         id="path27"
         inkscape:connector-curvature="0"
         style="fill:#3333ff;stroke:none" />
    </g>
    <g
       font-size="0.75"
       transform="matrix(50,0,0,50,180,27.7338)"
       id="g29"
       style="font-size:0.75px;font-family:sans-serif;fill:#b20000;stroke:#b20000;stroke-width:0.1">
      <path
         d="m -0.117,0.1097 q -0.0366,0.0311 -0.0705,0.0439 -0.0339,0.0129 -0.0727,0.0129 -0.0641,0 -0.0985,-0.0314 -0.0344,-0.0313 -0.0344,-0.08 0,-0.0286 0.013,-0.0522 0.013,-0.0236 0.034,-0.0379 0.0211,-0.0142 0.0475,-0.0216 0.0194,-0.0051 0.0586,-0.0099 0.0798,-0.0095 0.1175,-0.0227 4e-4,-0.0135 4e-4,-0.0172 0,-0.0403 -0.0187,-0.0567 -0.0253,-0.0224 -0.0751,-0.0224 -0.0465,0 -0.0686,0.0163 -0.0222,0.0163 -0.0328,0.0577 l -0.0645,-0.0088 q 0.0088,-0.0414 0.029,-0.0668 0.0201,-0.0255 0.0582,-0.0392 0.0381,-0.0137 0.0883,-0.0137 0.0498,0 0.0809,0.0117 0.0311,0.0117 0.0457,0.0295 0.0147,0.0177 0.0206,0.0448 0.0033,0.0169 0.0033,0.0608 l 0,0.0879 q 0,0.0919 0.0042,0.1163 0.0042,0.0243 0.0166,0.0467 l -0.0688,0 Q -0.1141,0.1371 -0.117,0.1097 Z m -0.0055,-0.1472 q -0.0359,0.0146 -0.1077,0.0249 -0.0406,0.0058 -0.0575,0.0132 -0.0168,0.0073 -0.026,0.0214 -0.0091,0.0141 -0.0091,0.0313 0,0.0264 0.0199,0.0439 0.02,0.0176 0.0585,0.0176 0.0381,0 0.0677,-0.0166 0.0297,-0.0167 0.0436,-0.0457 0.0106,-0.0223 0.0106,-0.0659 l 0,-0.0241 z m 0.3073,0.1084 0,-0.1473 -0.1462,0 0,-0.0615 0.1462,0 0,-0.1461 0.0622,0 0,0.1461 0.1461,0 0,0.0615 -0.1461,0 0,0.1473 -0.0622,0 z"
         id="path31"
         inkscape:connector-curvature="0"
         style="stroke:none" />
    </g>
    <g
       font-size="0.75"
       transform="matrix(50,0,0,50,180,327.7338)"
       id="g33"
       style="font-size:0.75px;font-family:sans-serif;fill:#b20000;stroke:#b20000;stroke-width:0.1">
      <path
         d="m -0.032,0.0943 q -0.0367,0.0311 -0.0705,0.044 -0.0339,0.0128 -0.0727,0.0128 -0.0641,0 -0.0985,-0.0313 -0.0345,-0.0314 -0.0345,-0.0801 0,-0.0285 0.013,-0.0522 0.013,-0.0236 0.0341,-0.0378 0.0211,-0.0143 0.0474,-0.0217 0.0194,-0.0051 0.0586,-0.0098 0.0799,-0.0096 0.1176,-0.0228 3e-4,-0.0135 3e-4,-0.0172 0,-0.0403 -0.0186,-0.0567 -0.0253,-0.0224 -0.0751,-0.0224 -0.0465,0 -0.0687,0.0163 -0.0221,0.0163 -0.0328,0.0577 l -0.0644,-0.0088 q 0.0088,-0.0414 0.0289,-0.0668 0.0202,-0.0255 0.0583,-0.0392 0.038,-0.0137 0.0882,-0.0137 0.0498,0 0.0809,0.0117 0.0312,0.0117 0.0458,0.0295 0.0147,0.0177 0.0205,0.0448 0.0033,0.0169 0.0033,0.0608 l 0,0.0879 q 0,0.0919 0.0042,0.1163 0.0042,0.0243 0.0167,0.0467 l -0.0689,0 Q -0.0291,0.1218 -0.032,0.0943 Z m -0.0055,-0.1472 q -0.0359,0.0146 -0.1077,0.0249 -0.0406,0.0059 -0.0575,0.0132 -0.0168,0.0073 -0.026,0.0214 -0.0092,0.0141 -0.0092,0.0313 0,0.0264 0.02,0.044 0.02,0.0175 0.0584,0.0175 0.0381,0 0.0678,-0.0166 0.0296,-0.0167 0.0435,-0.0456 0.0107,-0.0224 0.0107,-0.0659 l 0,-0.0242 z m 0.1432,0.034 0,-0.0662 0.2025,0 0,0.0662 -0.2025,0 z"
         id="path35"
         inkscape:connector-curvature="0"
         style="stroke:none" />
    </g>
    <g
       font-size="0.75"
       transform="matrix(50,0,0,50,1380,177.7338)"
       id="g37"
       style="font-size:0.75px;font-family:sans-serif;fill:#ffffff;stroke:#ffffff;stroke-width:0.1">
      <circle
         cx="0"
         cy="0"
         r="0.44999999"
         id="circle39"
         style="stroke:none" />
      <circle
         cx="0"
         cy="0"
         r="0.44999999"
         id="circle41"
         style="fill:none;stroke:#000000" />
      <circle
         cx="0"
         cy="0"
         r="0.26320001"
         id="circle43"
         style="fill:#000000;stroke:none" />
    </g>
    <g
       font-size="0.5"
       font-style="italic"
       transform="matrix(50,0,0,50,1380,177.7338)"
       id="g45"
       style="font-style:italic;font-size:0.5px;font-family:sans-serif;fill:#3333ff;stroke:#3333ff;stroke-width:0.1">
      <path
         d="m -0.2239,1.0642 0.0442,0.0047 q -0.0166,0.0486 -0.0472,0.0721 -0.0307,0.0236 -0.0697,0.0236 -0.0423,0 -0.0685,-0.0274 -0.0263,-0.0273 -0.0263,-0.0764 0,-0.0424 0.0169,-0.0835 0.0168,-0.041 0.0482,-0.0623 0.0314,-0.0214 0.0717,-0.0214 0.0417,0 0.0661,0.0236 0.0244,0.0235 0.0244,0.0623 l -0.0434,0.003 Q -0.2078,0.9578 -0.2218,0.9439 -0.2358,0.93 -0.2588,0.93 q -0.0266,0 -0.0461,0.0168 -0.0196,0.0169 -0.0307,0.0512 -0.0111,0.0343 -0.0111,0.066 0,0.0332 0.0147,0.0498 0.0146,0.0166 0.0361,0.0166 0.0215,0 0.0411,-0.0163 0.0197,-0.0164 0.0309,-0.0499 z m 0.0227,0.1939 0,-0.0317 0.2913,0 0,0.0317 -0.2913,0 z M 0.144,1.0413 Q 0.144,0.9959 0.1576,0.949 0.1711,0.9021 0.1877,0.8741 0.2043,0.846 0.2222,0.8301 0.24,0.8142 0.2572,0.8068 0.2744,0.7994 0.2954,0.7994 q 0.041,0 0.0685,0.0305 0.0275,0.0305 0.0275,0.0881 0,0.0593 -0.0191,0.1174 Q 0.3499,1.1043 0.3098,1.1387 0.279,1.1648 0.2397,1.1648 0.1995,1.1648 0.1718,1.1332 0.144,1.1016 0.144,1.0413 Z m 0.0428,0.0112 q 0,0.033 0.0109,0.0515 0.0149,0.0257 0.0442,0.0257 0.0257,0 0.0467,-0.0232 Q 0.3188,1.0738 0.3341,1.0107 0.3494,0.9475 0.3494,0.9075 0.3494,0.8689 0.3346,0.8519 0.3198,0.8348 0.2957,0.8348 0.2781,0.8348 0.2628,0.8438 0.2476,0.8528 0.2336,0.8748 0.2139,0.9058 0.1992,0.9676 0.1868,1.0203 0.1868,1.0525 Z"
         id="path47"
         inkscape:connector-curvature="0"
         style="stroke:none" />
    </g>
    <g
       font-size="0.75"
       transform="matrix(50,0,0,50,1530,27.7338)"
       id="g49"
       style="font-size:0.75px;font-family:sans-serif;fill:#0000b2;stroke:#0000b2;stroke-width:0.1">
      <path
         d="m -0.097,0.0152 0.0648,0.0084 q -0.0106,0.067 -0.0544,0.1049 -0.0438,0.038 -0.1075,0.038 -0.0798,0 -0.1283,-0.0522 -0.0486,-0.0522 -0.0486,-0.1496 0,-0.063 0.0209,-0.1103 0.0209,-0.0472 0.0635,-0.0708 0.0427,-0.0236 0.0929,-0.0236 0.0633,0 0.1036,0.032 0.0403,0.032 0.0516,0.091 l -0.064,0.0099 q -0.0092,-0.0392 -0.0324,-0.059 -0.0233,-0.0197 -0.0563,-0.0197 -0.0498,0 -0.0809,0.0357 -0.0311,0.0357 -0.0311,0.1129 0,0.0784 0.03,0.1139 0.03,0.0356 0.0784,0.0356 0.0388,0 0.0648,-0.0239 0.026,-0.0238 0.033,-0.0732 z m 0.2596,0.0557 0,-0.1473 -0.1461,0 0,-0.0615 0.1461,0 0,-0.1461 0.0623,0 0,0.1461 0.1461,0 0,0.0615 -0.1461,0 0,0.1473 -0.0623,0 z"
         id="path51"
         inkscape:connector-curvature="0"
         style="stroke:none" />
    </g>
    <g
       font-size="0.75"
       transform="matrix(50,0,0,50,1530,327.7338)"
       id="g53"
       style="font-size:0.75px;font-family:sans-serif;fill:#0000b2;stroke:#0000b2;stroke-width:0.1">
      <path
         d="m -0.0121,-2e-4 0.0648,0.0084 q -0.0106,0.0671 -0.0543,0.105 -0.0438,0.0379 -0.1075,0.0379 -0.0799,0 -0.1284,-0.0522 -0.0485,-0.0522 -0.0485,-0.1496 0,-0.063 0.0209,-0.1103 0.0208,-0.0472 0.0635,-0.0708 0.0427,-0.0236 0.0928,-0.0236 0.0634,0 0.1037,0.032 0.0403,0.0321 0.0516,0.091 l -0.0641,0.0099 q -0.0091,-0.0392 -0.0324,-0.059 -0.0232,-0.0197 -0.0562,-0.0197 -0.0498,0 -0.0809,0.0357 -0.0312,0.0357 -0.0312,0.1129 0,0.0784 0.0301,0.1139 0.03,0.0356 0.0783,0.0356 0.0389,0 0.0649,-0.0238 0.026,-0.0238 0.0329,-0.0733 z m 0.0956,-0.0187 0,-0.0662 0.2025,0 0,0.0662 -0.2025,0 z"
         id="path55"
         inkscape:connector-curvature="0"
         style="stroke:none" />
    </g>
    <g
       font-size="0.75"
       transform="matrix(50,0,0,50,1680,177.7338)"
       id="g57"
       style="font-size:0.75px;font-family:sans-serif;fill:#ffffff;stroke:#ffffff;stroke-width:0.1">
      <circle
         cx="0"
         cy="0"
         r="0.44999999"
         id="circle59"
         style="stroke:none" />
      <circle
         cx="0"
         cy="0"
         r="0.44999999"
         id="circle61"
         style="fill:none;stroke:#000000" />
    </g>
    <g
       font-size="0.5"
       font-style="italic"
       transform="matrix(50,0,0,50,1680,177.7338)"
       id="g63"
       style="font-style:italic;font-size:0.5px;font-family:sans-serif;fill:#3333ff;stroke:#3333ff;stroke-width:0.1">
      <path
         d="m -0.2024,1.0642 0.0442,0.0047 q -0.0166,0.0486 -0.0473,0.0721 -0.0306,0.0236 -0.0697,0.0236 -0.0422,0 -0.0684,-0.0274 -0.0263,-0.0273 -0.0263,-0.0764 0,-0.0424 0.0169,-0.0835 0.0168,-0.041 0.0482,-0.0623 0.0314,-0.0214 0.0716,-0.0214 0.0418,0 0.0662,0.0236 0.0244,0.0235 0.0244,0.0623 L -0.186,0.9825 Q -0.1863,0.9578 -0.2003,0.9439 -0.2144,0.93 -0.2373,0.93 q -0.0266,0 -0.0462,0.0168 -0.0195,0.0169 -0.0306,0.0512 -0.0111,0.0343 -0.0111,0.066 0,0.0332 0.0146,0.0498 0.0147,0.0166 0.0362,0.0166 0.0215,0 0.0411,-0.0163 0.0197,-0.0164 0.0309,-0.0499 z m 0.0227,0.1939 0,-0.0317 0.2913,0 0,0.0317 -0.2913,0 z M 0.2505,1.1587 0.3071,0.8885 Q 0.2705,0.9173 0.2041,0.9346 l 0.0083,-0.04 Q 0.2454,0.8814 0.2775,0.8601 0.3096,0.8389 0.3257,0.823 0.3355,0.8133 0.3442,0.7994 l 0.0257,0 -0.075,0.3593 -0.0444,0 z"
         id="path65"
         inkscape:connector-curvature="0"
         style="stroke:none" />
    </g>
    <g
       font-size="0.5"
       font-style="italic"
       transform="matrix(50,0,0,50,680,177.7338)"
       id="g67"
       style="font-style:italic;font-size:0.5px;font-family:sans-serif;fill:#ffffff;stroke:#ffffff;stroke-width:0.1">
      <circle
         cx="0"
         cy="0"
         r="0.44999999"
         id="circle69"
         style="stroke:none" />
      <circle
         cx="0"
         cy="0"
         r="0.44999999"
         id="circle71"
         style="fill:none;stroke:#000000" />
      <circle
         cx="0"
         cy="0"
         r="0.26320001"
         id="circle73"
         style="fill:#000000;stroke:none" />
      <path
         d="m -1.5223,0.1606 0.0747,-0.3579 0.0442,0 -0.0266,0.1279 q 0.021,-0.0193 0.0381,-0.0272 0.0171,-0.008 0.0357,-0.008 0.0363,0 0.0606,0.0271 0.0243,0.0271 0.0243,0.0789 0,0.0344 -0.0098,0.063 -0.0097,0.0285 -0.0241,0.0479 -0.0144,0.0194 -0.0298,0.031 -0.0154,0.0116 -0.0315,0.0174 -0.0161,0.0057 -0.031,0.0057 -0.0257,0 -0.0452,-0.0135 -0.0195,-0.0136 -0.0305,-0.0414 l -0.0102,0.0491 -0.0389,0 z m 0.0655,-0.1065 -3e-4,0.0083 q 0,0.0332 0.0159,0.0505 0.0159,0.0174 0.0395,0.0174 0.0232,0 0.0426,-0.0163 0.0194,-0.0162 0.0319,-0.0506 0.0125,-0.0344 0.0125,-0.0635 0,-0.0327 -0.0158,-0.0508 -0.0157,-0.018 -0.0389,-0.018 -0.024,0 -0.044,0.0184 -0.02,0.0184 -0.0334,0.0568 -0.01,0.0285 -0.01,0.0478 z m 0.1643,0.2058 0,-0.0317 0.2912,0 0,0.0317 -0.2912,0 z m 0.3452,-0.2168 q 0,-0.0454 0.0135,-0.0923 0.0136,-0.0468 0.0302,-0.0749 0.0166,-0.0281 0.0344,-0.044 0.0178,-0.0158 0.035,-0.0233 0.0172,-0.0074 0.0382,-0.0074 0.0411,0 0.0685,0.0305 0.0275,0.0305 0.0275,0.0881 0,0.0594 -0.019,0.1175 -0.0225,0.0688 -0.0625,0.1032 -0.0308,0.0262 -0.0701,0.0262 -0.0403,0 -0.068,-0.0317 -0.0277,-0.0316 -0.0277,-0.0919 z m 0.0427,0.0113 q 0,0.0329 0.011,0.0515 0.0149,0.0256 0.0442,0.0256 0.0256,0 0.0466,-0.0232 0.0303,-0.0327 0.0455,-0.0958 0.0153,-0.0631 0.0153,-0.1032 0,-0.0385 -0.0148,-0.0556 -0.0147,-0.0171 -0.0389,-0.0171 -0.0176,0 -0.0328,0.009 -0.0153,0.0091 -0.0292,0.031 -0.0198,0.031 -0.0344,0.0928 -0.0125,0.0527 -0.0125,0.085 z"
         id="path75"
         inkscape:connector-curvature="0"
         style="fill:#3333ff;stroke:none" />
    </g>
    <g
       font-size="0.5"
       font-style="italic"
       transform="matrix(50,0,0,50,980,177.7338)"
       id="g77"
       style="font-style:italic;font-size:0.5px;font-family:sans-serif;fill:#ffffff;stroke:#ffffff;stroke-width:0.1">
      <circle
         cx="0"
         cy="0"
         r="0.44999999"
         id="circle79"
         style="stroke:none" />
      <circle
         cx="0"
         cy="0"
         r="0.44999999"
         id="circle81"
         style="fill:none;stroke:#000000" />
      <path
         d="m 0.7,0.1606 0.0747,-0.3579 0.0442,0 -0.0266,0.1279 q 0.021,-0.0193 0.0381,-0.0272 0.0171,-0.008 0.0356,-0.008 0.0364,0 0.0607,0.0271 0.0243,0.0271 0.0243,0.0789 0,0.0344 -0.0098,0.063 Q 0.9314,0.0929 0.917,0.1123 0.9026,0.1317 0.8873,0.1433 0.8719,0.1549 0.8558,0.1607 0.8396,0.1664 0.8248,0.1664 0.7991,0.1664 0.7796,0.1529 0.76,0.1393 0.7491,0.1115 l -0.0103,0.0491 -0.0388,0 z m 0.0654,-0.1065 -2e-4,0.0083 q 0,0.0332 0.0158,0.0505 0.0159,0.0174 0.0396,0.0174 0.0232,0 0.0426,-0.0163 Q 0.8826,0.0978 0.8951,0.0634 0.9075,0.029 0.9075,-1e-4 q 0,-0.0327 -0.0157,-0.0508 -0.0158,-0.018 -0.039,-0.018 -0.0239,0 -0.0439,0.0184 -0.02,0.0184 -0.0335,0.0568 -0.01,0.0285 -0.01,0.0478 z m 0.1643,0.2058 0,-0.0317 0.2913,0 0,0.0317 -0.2913,0 z M 1.3599,0.1606 1.4165,-0.1097 q -0.0366,0.0288 -0.103,0.0461 l 0.0083,-0.04 Q 1.3548,-0.1168 1.3869,-0.138 1.419,-0.1593 1.4351,-0.1751 1.4449,-0.1849 1.4537,-0.1988 l 0.0256,0 -0.075,0.3594 -0.0444,0 z"
         id="path83"
         inkscape:connector-curvature="0"
         style="fill:#3333ff;stroke:none" />
    </g>
    <g
       font-size="0.75"
       transform="matrix(50,0,0,50,830,27.7338)"
       id="g85"
       style="font-size:0.75px;font-family:sans-serif;fill:#00b200;stroke:#00b200;stroke-width:0.1">
      <path
         d="m -0.321,0.191 -0.0611,0 0,-0.5369 0.0659,0 0,0.1915 q 0.0417,-0.0523 0.1065,-0.0523 0.0359,0 0.068,0.0144 0.032,0.0145 0.0527,0.0407 0.0207,0.0262 0.0324,0.0632 0.0117,0.0369 0.0117,0.0791 0,0.0999 -0.0494,0.1545 -0.0494,0.0546 -0.1186,0.0546 -0.0689,0 -0.1081,-0.0575 l 0,0.0487 z m -7e-4,-0.1974 q 0,0.0699 0.019,0.1011 0.0312,0.0509 0.0843,0.0509 0.0432,0 0.0747,-0.0376 0.0315,-0.0375 0.0315,-0.1118 0,-0.0762 -0.0303,-0.1125 -0.0302,-0.0362 -0.073,-0.0362 -0.0432,0 -0.0747,0.0375 -0.0315,0.0375 -0.0315,0.1086 z m 0.4955,0.1106 0,-0.1472 -0.1461,0 0,-0.0616 0.1461,0 0,-0.1461 0.0622,0 0,0.1461 0.1461,0 0,0.0616 -0.1461,0 0,0.1472 -0.0622,0 z"
         id="path87"
         inkscape:connector-curvature="0"
         style="stroke:none" />
    </g>
    <g
       font-size="0.75"
       transform="matrix(50,0,0,50,830,327.7338)"
       id="g89"
       style="font-size:0.75px;font-family:sans-serif;fill:#00b200;stroke:#00b200;stroke-width:0.1">
      <path
         d="m -0.236,0.191 -0.0612,0 0,-0.5369 0.0659,0 0,0.1915 q 0.0418,-0.0523 0.1066,-0.0523 0.0359,0 0.0679,0.0144 0.0321,0.0145 0.0528,0.0407 0.0207,0.0262 0.0324,0.0632 0.0117,0.0369 0.0117,0.0791 0,0.0999 -0.0494,0.1545 -0.0495,0.0546 -0.1187,0.0546 -0.0688,0 -0.108,-0.0575 l 0,0.0487 z m -8e-4,-0.1974 q 0,0.0699 0.0191,0.1011 0.0311,0.0509 0.0842,0.0509 0.0432,0 0.0747,-0.0376 0.0315,-0.0375 0.0315,-0.1118 0,-0.0762 -0.0302,-0.1125 -0.0302,-0.0362 -0.073,-0.0362 -0.0433,0 -0.0748,0.0375 -0.0315,0.0375 -0.0315,0.1086 z m 0.3315,0.0362 0,-0.0662 0.2025,0 0,0.0662 -0.2025,0 z"
         id="path91"
         inkscape:connector-curvature="0"
         style="stroke:none" />
    </g>
    <g
       font-size="0.75"
       transform="matrix(50,0,0,50,1180,177.7338)"
       id="g93"
       style="font-size:0.75px;font-family:sans-serif;stroke-width:0.05">
      <path
         d="M -3.6465,-0.3535 -1,-3 6.529,-3"
         id="path95"
         inkscape:connector-curvature="0"
         style="fill:none" />
    </g>
    <g
       font-size="0.75"
       transform="matrix(50,0,0,50,1180,177.7338)"
       id="g97"
       style="font-size:0.75px;font-family:sans-serif;stroke-width:0.05">
      <path
         d="M -10,0.5 -10,5 7,5 7,3.3642"
         id="path99"
         inkscape:connector-curvature="0"
         style="fill:none" />
    </g>
    <g
       font-size="0.75"
       transform="matrix(50,0,0,50,1180,177.7338)"
       id="g101"
       style="font-size:0.75px;font-family:sans-serif;stroke-width:0.05">
      <path
         d="M -16.6465,-0.3535 -14,-3 l 6.5179,0"
         id="path103"
         inkscape:connector-curvature="0"
         style="fill:none" />
    </g>
    <g
       font-size="0.75"
       transform="matrix(50,0,0,50,1180,177.7338)"
       id="g105"
       style="font-size:0.75px;font-family:sans-serif;stroke-width:0.05">
      <path
         d="M -23,0.5 -23,4 -7,4 -7,3.4547"
         id="path107"
         inkscape:connector-curvature="0"
         style="fill:none" />
    </g>
    <g
       font-size="0.75"
       transform="matrix(50,0,0,50,1180,177.7338)"
       id="g109"
       style="font-size:0.75px;font-family:sans-serif;stroke-width:0.02">
      <path
         d="m -19.6072,-2.6072 1.9708,1.9708"
         id="path111"
         inkscape:connector-curvature="0"
         style="fill:none" />
      <path
         d="m -17.5834,-0.6894 -0.106,0.106 0.3359,0.2298 z"
         id="path113"
         inkscape:connector-curvature="0"
         style="stroke:none" />
    </g>
    <g
       font-size="0.75"
       transform="matrix(50,0,0,50,1180,177.7338)"
       id="g115"
       style="font-size:0.75px;font-family:sans-serif;stroke-width:0.02">
      <path
         d="m -17.3535,0.3536 -1.9994,1.9993"
         id="path117"
         inkscape:connector-curvature="0"
         style="fill:none" />
      <path
         d="M -19.2999,2.406 -19.406,2.2999 -19.6358,2.6358 Z"
         id="path119"
         inkscape:connector-curvature="0"
         style="stroke:none" />
    </g>
    <g
       font-size="0.75"
       transform="matrix(50,0,0,50,1180,177.7338)"
       id="g121"
       style="font-size:0.75px;font-family:sans-serif;stroke-width:0.02">
      <path
         d="M -20.3642,2.6358 -22.3636,0.6364"
         id="path123"
         inkscape:connector-curvature="0"
         style="fill:none" />
      <path
         d="m -22.4166,0.6894 0.106,-0.106 -0.3359,-0.2298 z"
         id="path125"
         inkscape:connector-curvature="0"
         style="stroke:none" />
    </g>
    <g
       font-size="0.75"
       transform="matrix(50,0,0,50,1180,177.7338)"
       id="g127"
       style="font-size:0.75px;font-family:sans-serif;stroke-width:0.02">
      <path
         d="m -22.6465,-0.3536 1.9709,-1.9708"
         id="path129"
         inkscape:connector-curvature="0"
         style="fill:none" />
      <path
         d="m -20.7287,-2.3774 0.1061,0.1061 0.2298,-0.3359 z"
         id="path131"
         inkscape:connector-curvature="0"
         style="stroke:none" />
    </g>
    <g
       font-size="0.75"
       transform="matrix(50,0,0,50,1180,177.7338)"
       id="g133"
       style="font-size:0.75px;font-family:sans-serif;stroke-width:0.02">
      <path
         d="m 7.3928,-2.6072 1.9708,1.9708"
         id="path135"
         inkscape:connector-curvature="0"
         style="fill:none" />
      <path
         d="m 9.4166,-0.6894 -0.106,0.106 0.3358,0.2298 z"
         id="path137"
         inkscape:connector-curvature="0"
         style="stroke:none" />
    </g>
    <g
       font-size="0.75"
       transform="matrix(50,0,0,50,1180,177.7338)"
       id="g139"
       style="font-size:0.75px;font-family:sans-serif;stroke-width:0.02">
      <path
         d="M 4.3536,-0.3536 6.3244,-2.3244"
         id="path141"
         inkscape:connector-curvature="0"
         style="fill:none" />
      <path
         d="m 6.2713,-2.3774 0.1061,0.1061 0.2298,-0.3359 z"
         id="path143"
         inkscape:connector-curvature="0"
         style="stroke:none" />
    </g>
    <g
       font-size="0.75"
       transform="matrix(50,0,0,50,1180,177.7338)"
       id="g145"
       style="font-size:0.75px;font-family:sans-serif;stroke-width:0.02">
      <path
         d="M 9.6464,0.3536 7.6471,2.3529"
         id="path147"
         inkscape:connector-curvature="0"
         style="fill:none" />
      <path
         d="M 7.7001,2.406 7.594,2.2999 7.3642,2.6358 Z"
         id="path149"
         inkscape:connector-curvature="0"
         style="stroke:none" />
    </g>
    <g
       font-size="0.75"
       transform="matrix(50,0,0,50,1180,177.7338)"
       id="g151"
       style="font-size:0.75px;font-family:sans-serif;stroke-width:0.02">
      <path
         d="M 6.6358,2.6358 4.6364,0.6364"
         id="path153"
         inkscape:connector-curvature="0"
         style="fill:none" />
      <path
         d="M 4.5834,0.6894 4.6894,0.5834 4.3536,0.3536 Z"
         id="path155"
         inkscape:connector-curvature="0"
         style="stroke:none" />
    </g>
    <g
       font-size="0.75"
       transform="matrix(50,0,0,50,1180,177.7338)"
       id="g157"
       style="font-size:0.75px;font-family:sans-serif;stroke-width:0.02">
      <path
         d="m -9.6464,-0.3536 1.9089,-1.9089"
         id="path159"
         inkscape:connector-curvature="0"
         style="fill:none" />
      <path
         d="m -7.7905,-2.3155 0.106,0.106 0.2298,-0.3358 z"
         id="path161"
         inkscape:connector-curvature="0"
         style="stroke:none" />
    </g>
    <g
       font-size="0.75"
       transform="matrix(50,0,0,50,1180,177.7338)"
       id="g163"
       style="font-size:0.75px;font-family:sans-serif;stroke-width:0.02">
      <path
         d="M -4.3536,0.3536 -6.32,2.32"
         id="path165"
         inkscape:connector-curvature="0"
         style="fill:none" />
      <path
         d="M -6.267,2.373 -6.373,2.267 -6.6028,2.6028 Z"
         id="path167"
         inkscape:connector-curvature="0"
         style="stroke:none" />
    </g>
    <g
       font-size="0.75"
       transform="matrix(50,0,0,50,1180,177.7338)"
       id="g169"
       style="font-size:0.75px;font-family:sans-serif;stroke-width:0.02">
      <path
         d="M -7.3972,2.6028 -9.3636,0.6364"
         id="path171"
         inkscape:connector-curvature="0"
         style="fill:none" />
      <path
         d="m -9.4166,0.6894 0.106,-0.106 -0.3358,-0.2298 z"
         id="path173"
         inkscape:connector-curvature="0"
         style="stroke:none" />
    </g>
    <g
       font-size="0.75"
       transform="matrix(50,0,0,50,1180,177.7338)"
       id="g175"
       style="font-size:0.75px;font-family:sans-serif;stroke-width:0.02">
      <path
         d="m -6.5453,-2.5453 1.9089,1.9089"
         id="path177"
         inkscape:connector-curvature="0"
         style="fill:none" />
      <path
         d="m -4.5834,-0.6894 -0.106,0.106 0.3358,0.2298 z"
         id="path179"
         inkscape:connector-curvature="0"
         style="stroke:none" />
    </g>
  </g>
</svg>
