<?xml version="1.0" encoding="UTF-8" standalone="no"?>
<svg
   xmlns:dc="http://purl.org/dc/elements/1.1/"
   xmlns:cc="http://creativecommons.org/ns#"
   xmlns:rdf="http://www.w3.org/1999/02/22-rdf-syntax-ns#"
   xmlns:svg="http://www.w3.org/2000/svg"
   xmlns="http://www.w3.org/2000/svg"
   xmlns:sodipodi="http://sodipodi.sourceforge.net/DTD/sodipodi-0.dtd"
   xmlns:inkscape="http://www.inkscape.org/namespaces/inkscape"
   color-interpolation="auto"
   color-rendering="auto"
   fill="black"
   fill-opacity="1"
   font-family="'Dialog'"
   font-size="12px"
   font-style="normal"
   font-weight="normal"
   height="308"
   image-rendering="auto"
   shape-rendering="auto"
   stroke="black"
   stroke-dasharray="none"
   stroke-dashoffset="0"
   stroke-linecap="square"
   stroke-linejoin="miter"
   stroke-miterlimit="10"
   stroke-opacity="1"
   stroke-width="1"
   text-rendering="auto"
   width="1750"
   id="svg2"
   version="1.1"
   inkscape:version="0.91 r13725"
   sodipodi:docname="handshake1.svg">
  <metadata
     id="metadata53">
    <rdf:RDF>
      <cc:Work
         rdf:about="">
        <dc:format>image/svg+xml</dc:format>
        <dc:type
           rdf:resource="http://purl.org/dc/dcmitype/StillImage" />
      </cc:Work>
    </rdf:RDF>
  </metadata>
  <sodipodi:namedview
     pagecolor="#ffffff"
     bordercolor="#666666"
     borderopacity="1"
     objecttolerance="10"
     gridtolerance="10"
     guidetolerance="10"
     inkscape:pageopacity="0"
     inkscape:pageshadow="2"
     inkscape:window-width="1920"
     inkscape:window-height="1058"
     id="namedview51"
     showgrid="false"
     inkscape:zoom="0.16914286"
     inkscape:cx="875"
     inkscape:cy="148.08784"
     inkscape:window-x="-8"
     inkscape:window-y="-8"
     inkscape:window-maximized="1"
     inkscape:current-layer="svg2" />
  <!--Generated by the Batik Graphics2D SVG Generator-->
  <defs
     id="genericDefs" />
  <g
     id="g5"
     transform="translate(717.42305,3.8594)">
    <g
       font-size="0.75px"
       transform="matrix(50,0,0,50,32.285,29.09)"
       id="g7"
       style="font-size:0.75px;font-family:sans-serif;fill:#0000b2;stroke:#0000b2">
      <path
         d="m -0.2062,0.1044 q -0.0648,0.0597 -0.1249,0.0597 -0.0494,0 -0.082,-0.0309 -0.0326,-0.031 -0.0326,-0.0782 0,-0.0652 0.0548,-0.1002 0.0547,-0.0349 0.1569,-0.0349 l 0.0172,0 0,-0.048 q 0,-0.0692 -0.071,-0.0692 -0.0572,0 -0.1235,0.0351 l 0,-0.0597 q 0.0729,-0.0296 0.1366,-0.0296 0.0667,0 0.0984,0.03 0.0316,0.03 0.0316,0.0934 l 0,0.1802 q 0,0.0618 0.0381,0.0618 0.0048,0 0.0139,-0.0014 l 0.0052,0.0399 q -0.0246,0.0117 -0.0542,0.0117 -0.0506,0 -0.0645,-0.0597 z m -0.0106,-0.0392 0,-0.1029 -0.0242,-7e-4 q -0.0593,0 -0.0959,0.0225 -0.0366,0.0225 -0.0366,0.0592 0,0.026 0.0183,0.0439 0.0183,0.018 0.0447,0.018 0.045,0 0.0937,-0.04 z m 0.4186,0.0898 0,-0.1897 -0.1897,0 0,-0.0542 0.1897,0 0,-0.1897 0.0542,0 0,0.1897 0.1897,0 0,0.0542 -0.1897,0 0,0.1897 z"
         id="path9"
         inkscape:connector-curvature="0"
         style="stroke:none" />
    </g>
    <g
       font-size="0.75px"
       transform="matrix(50,0,0,50,282.2839,29.0906)"
       id="g11"
       style="font-size:0.75px;font-family:sans-serif;fill:#0000b2;stroke:#0000b2">
      <path
         d="m -0.4574,0.21 0,-0.5827 0.0721,0 0,0.2553 q 0.0444,-0.0835 0.133,-0.0835 0.0718,0 0.113,0.0524 0.0412,0.0523 0.0412,0.1432 0,0.0988 -0.0467,0.1594 -0.0467,0.0606 -0.1229,0.0606 -0.0707,0 -0.1176,-0.0542 L -0.394,0.21 Z m 0.0721,-0.0993 q 0.0557,0.0498 0.1062,0.0498 0.1041,0 0.1041,-0.1585 0,-0.1399 -0.0923,-0.1399 -0.0605,0 -0.118,0.0655 z m 0.5988,0.0949 0,-0.1897 -0.1897,0 0,-0.0542 0.1897,0 0,-0.1897 0.0542,0 0,0.1897 0.1897,0 0,0.0542 -0.1897,0 0,0.1897 z"
         id="path13"
         inkscape:connector-curvature="0"
         style="stroke:none" />
    </g>
    <g
       font-size="0.75px"
       transform="matrix(50,0,0,50,32.2839,279.0906)"
       id="g15"
       style="font-size:0.75px;font-family:sans-serif;fill:#0000b2;stroke:#0000b2">
      <path
         d="m -0.3896,0.21 0,-0.5827 0.0721,0 0,0.2553 q 0.0443,-0.0835 0.1329,-0.0835 0.0718,0 0.113,0.0524 0.0412,0.0523 0.0412,0.1432 0,0.0988 -0.0467,0.1594 -0.0467,0.0606 -0.1229,0.0606 -0.0706,0 -0.1175,-0.0542 L -0.3263,0.21 Z m 0.0721,-0.0993 q 0.0557,0.0498 0.1062,0.0498 0.104,0 0.104,-0.1585 0,-0.1399 -0.0923,-0.1399 -0.0604,0 -0.1179,0.0655 z m 0.382,-0.0948 0,-0.0542 0.3251,0 0,0.0542 z"
         id="path17"
         inkscape:connector-curvature="0"
         style="stroke:none" />
    </g>
    <g
       font-size="0.75px"
       transform="matrix(50,0,0,50,282.2839,279.0906)"
       id="g19"
       style="font-size:0.75px;font-family:sans-serif;fill:#0000b2;stroke:#0000b2">
      <path
         d="m -0.1384,0.0949 q -0.0648,0.0597 -0.1249,0.0597 -0.0494,0 -0.082,-0.0309 -0.0326,-0.031 -0.0326,-0.0782 0,-0.0652 0.0547,-0.1002 0.0548,-0.0349 0.1569,-0.0349 l 0.0173,0 0,-0.048 q 0,-0.0692 -0.0711,-0.0692 -0.0571,0 -0.1234,0.0351 l 0,-0.0597 q 0.0729,-0.0296 0.1366,-0.0296 0.0666,0 0.0983,0.03 0.0317,0.03 0.0317,0.0934 l 0,0.1802 q 0,0.0619 0.0381,0.0619 0.0047,0 0.0139,-0.0015 l 0.0051,0.0399 q -0.0245,0.0117 -0.0542,0.0117 -0.0505,0 -0.0644,-0.0597 z m -0.0106,-0.0391 0,-0.1029 -0.0242,-8e-4 q -0.0593,0 -0.096,0.0225 -0.0366,0.0226 -0.0366,0.0592 0,0.026 0.0183,0.0439 0.0183,0.018 0.0447,0.018 0.045,0 0.0938,-0.0399 z m 0.2017,-0.1 0,-0.0542 0.3252,0 0,0.0542 z"
         id="path21"
         inkscape:connector-curvature="0"
         style="stroke:none" />
    </g>
    <g
       font-size="0.75px"
       transform="matrix(50,0,0,50,532.2839,529.0906)"
       id="g23"
       style="font-size:0.75px;font-family:sans-serif;stroke-width:0.02">
      <path
         d="m -9.4543,-10 3.4969,0"
         id="path25"
         inkscape:connector-curvature="0"
         style="fill:none" />
      <path
         d="m -5.9574,-10.075 0,0.15 0.4,-0.075 z"
         id="path27"
         inkscape:connector-curvature="0"
         style="stroke:none" />
    </g>
    <g
       font-size="0.75px"
       transform="matrix(50,0,0,50,532.2839,529.0906)"
       id="g29"
       style="font-size:0.75px;font-family:sans-serif;stroke-width:0.02">
      <path
         d="m -5,-9.5182 0,3.748"
         id="path31"
         inkscape:connector-curvature="0"
         style="fill:none" />
      <path
         d="m -4.925,-5.7702 -0.15,0 0.075,0.4 z"
         id="path33"
         inkscape:connector-curvature="0"
         style="stroke:none" />
    </g>
    <g
       font-size="0.75px"
       transform="matrix(50,0,0,50,532.2839,529.0906)"
       id="g35"
       style="font-size:0.75px;font-family:sans-serif;stroke-width:0.02">
      <path
         d="m -5.4779,-5 -3.6325,0"
         id="path37"
         inkscape:connector-curvature="0"
         style="fill:none" />
      <path
         d="m -9.1104,-4.925 0,-0.15 -0.4,0.075 z"
         id="path39"
         inkscape:connector-curvature="0"
         style="stroke:none" />
    </g>
    <g
       font-size="0.75px"
       transform="matrix(50,0,0,50,532.2839,529.0906)"
       id="g41"
       style="font-size:0.75px;font-family:sans-serif;stroke-width:0.02">
      <path
         d="m -10,-5.4818 0,-3.7304"
         id="path43"
         inkscape:connector-curvature="0"
         style="fill:none" />
      <path
         d="m -10.075,-9.2122 0.15,0 -0.075,-0.4 z"
         id="path45"
         inkscape:connector-curvature="0"
         style="stroke:none" />
    </g>
    <g
       font-size="0.75px"
       transform="matrix(50,0,0,50,32.2839,161.7406)"
       id="g47"
       style="font-size:0.75px;font-family:sans-serif;stroke-width:0.02">
      <circle
         cx="0"
         cy="0"
         r="0.2105"
         id="circle49"
         style="stroke:none" />
    </g>
  </g>
</svg>
