<?xml version="1.0" encoding="UTF-8" standalone="no"?>
<svg
   xmlns:dc="http://purl.org/dc/elements/1.1/"
   xmlns:cc="http://creativecommons.org/ns#"
   xmlns:rdf="http://www.w3.org/1999/02/22-rdf-syntax-ns#"
   xmlns:svg="http://www.w3.org/2000/svg"
   xmlns="http://www.w3.org/2000/svg"
   xmlns:sodipodi="http://sodipodi.sourceforge.net/DTD/sodipodi-0.dtd"
   xmlns:inkscape="http://www.inkscape.org/namespaces/inkscape"
   font-size="12"
   font-style="normal"
   font-weight="normal"
   height="305"
   stroke-miterlimit="10"
   width="1750"
   id="svg2"
   version="1.1"
   inkscape:version="0.91 r13725"
   sodipodi:docname="handshake00.svg"
   style="font-style:normal;font-weight:normal;font-size:12px;font-family:Dialog;color-interpolation:auto;fill:#000000;fill-opacity:1;stroke:#000000;stroke-width:1;stroke-linecap:square;stroke-linejoin:miter;stroke-miterlimit:10;stroke-dasharray:none;stroke-dashoffset:0;stroke-opacity:1;color-rendering:auto;image-rendering:auto;shape-rendering:auto;text-rendering:auto">
  <metadata
     id="metadata53">
    <rdf:RDF>
      <cc:Work
         rdf:about="">
        <dc:format>image/svg+xml</dc:format>
        <dc:type
           rdf:resource="http://purl.org/dc/dcmitype/StillImage" />
        <dc:title></dc:title>
      </cc:Work>
    </rdf:RDF>
  </metadata>
  <sodipodi:namedview
     pagecolor="#ffffff"
     bordercolor="#666666"
     borderopacity="1"
     objecttolerance="10"
     gridtolerance="10"
     guidetolerance="10"
     inkscape:pageopacity="0"
     inkscape:pageshadow="2"
     inkscape:window-width="1680"
     inkscape:window-height="1005"
     id="namedview51"
     showgrid="false"
     inkscape:zoom="0.77377049"
     inkscape:cx="-10.04661"
     inkscape:cy="152.5"
     inkscape:window-x="0"
     inkscape:window-y="1"
     inkscape:window-maximized="1"
     inkscape:current-layer="svg2" />
  <!--Generated by the Batik Graphics2D SVG Generator-->
  <defs
     id="genericDefs" />
  <g
     id="g5"
     transform="translate(723.3964,3.4187)">
    <g
       font-size="0.75"
       transform="matrix(50,0,0,50,29.6564,27.7338)"
       id="g7"
       style="font-size:0.75px;font-family:sans-serif;fill:#b20000;stroke:#b20000">
      <path
         d="m -0.117,0.1097 q -0.0366,0.0311 -0.0705,0.0439 -0.0339,0.0129 -0.0727,0.0129 -0.0641,0 -0.0985,-0.0314 -0.0344,-0.0313 -0.0344,-0.08 0,-0.0286 0.013,-0.0522 0.013,-0.0236 0.034,-0.0379 0.0211,-0.0142 0.0475,-0.0216 0.0194,-0.0051 0.0586,-0.0099 0.0798,-0.0095 0.1175,-0.0227 4e-4,-0.0135 4e-4,-0.0172 0,-0.0403 -0.0187,-0.0567 -0.0253,-0.0224 -0.0751,-0.0224 -0.0465,0 -0.0686,0.0163 -0.0222,0.0163 -0.0328,0.0577 l -0.0645,-0.0088 q 0.0088,-0.0414 0.029,-0.0668 0.0201,-0.0255 0.0582,-0.0392 0.0381,-0.0137 0.0883,-0.0137 0.0498,0 0.0809,0.0117 0.0311,0.0117 0.0457,0.0295 0.0147,0.0177 0.0206,0.0448 0.0033,0.0169 0.0033,0.0608 l 0,0.0879 q 0,0.0919 0.0042,0.1163 0.0042,0.0243 0.0166,0.0467 l -0.0688,0 Q -0.1141,0.1371 -0.117,0.1097 Z m -0.0055,-0.1472 q -0.0359,0.0146 -0.1077,0.0249 -0.0406,0.0058 -0.0575,0.0132 -0.0168,0.0073 -0.026,0.0214 -0.0091,0.0141 -0.0091,0.0313 0,0.0264 0.0199,0.0439 0.02,0.0176 0.0585,0.0176 0.0381,0 0.0677,-0.0166 0.0297,-0.0167 0.0436,-0.0457 0.0106,-0.0223 0.0106,-0.0659 l 0,-0.0241 z m 0.3073,0.1084 0,-0.1473 -0.1462,0 0,-0.0615 0.1462,0 0,-0.1461 0.0622,0 0,0.1461 0.1461,0 0,0.0615 -0.1461,0 0,0.1473 -0.0622,0 z"
         id="path9"
         inkscape:connector-curvature="0"
         style="stroke:none" />
    </g>
    <g
       font-size="0.75"
       transform="matrix(50,0,0,50,274.1008,27.7338)"
       id="g11"
       style="font-size:0.75px;font-family:sans-serif;fill:#0000b2;stroke:#0000b2">
      <path
         d="m -0.321,0.191 -0.0611,0 0,-0.5369 0.0659,0 0,0.1915 q 0.0417,-0.0523 0.1065,-0.0523 0.0359,0 0.068,0.0144 0.032,0.0145 0.0527,0.0407 0.0207,0.0262 0.0324,0.0632 0.0117,0.0369 0.0117,0.0791 0,0.0999 -0.0494,0.1545 -0.0494,0.0546 -0.1186,0.0546 -0.0689,0 -0.1081,-0.0575 l 0,0.0487 z m -7e-4,-0.1974 q 0,0.0699 0.019,0.1011 0.0312,0.0509 0.0843,0.0509 0.0432,0 0.0747,-0.0376 0.0315,-0.0375 0.0315,-0.1118 0,-0.0762 -0.0303,-0.1125 -0.0302,-0.0362 -0.073,-0.0362 -0.0432,0 -0.0747,0.0375 -0.0315,0.0375 -0.0315,0.1086 z m 0.4955,0.1106 0,-0.1472 -0.1461,0 0,-0.0616 0.1461,0 0,-0.1461 0.0622,0 0,0.1461 0.1461,0 0,0.0616 -0.1461,0 0,0.1472 -0.0622,0 z"
         id="path13"
         inkscape:connector-curvature="0"
         style="stroke:none" />
    </g>
    <g
       font-size="0.75"
       transform="matrix(50,0,0,50,274.1008,277.7338)"
       id="g15"
       style="font-size:0.75px;font-family:sans-serif;fill:#b20000;stroke:#b20000">
      <path
         d="m -0.032,0.0943 q -0.0367,0.0311 -0.0705,0.044 -0.0339,0.0128 -0.0727,0.0128 -0.0641,0 -0.0985,-0.0313 -0.0345,-0.0314 -0.0345,-0.0801 0,-0.0285 0.013,-0.0522 0.013,-0.0236 0.0341,-0.0378 0.0211,-0.0143 0.0474,-0.0217 0.0194,-0.0051 0.0586,-0.0098 0.0799,-0.0096 0.1176,-0.0228 3e-4,-0.0135 3e-4,-0.0172 0,-0.0403 -0.0186,-0.0567 -0.0253,-0.0224 -0.0751,-0.0224 -0.0465,0 -0.0687,0.0163 -0.0221,0.0163 -0.0328,0.0577 l -0.0644,-0.0088 q 0.0088,-0.0414 0.0289,-0.0668 0.0202,-0.0255 0.0583,-0.0392 0.038,-0.0137 0.0882,-0.0137 0.0498,0 0.0809,0.0117 0.0312,0.0117 0.0458,0.0295 0.0147,0.0177 0.0205,0.0448 0.0033,0.0169 0.0033,0.0608 l 0,0.0879 q 0,0.0919 0.0042,0.1163 0.0042,0.0243 0.0167,0.0467 l -0.0689,0 Q -0.0291,0.1218 -0.032,0.0943 Z m -0.0055,-0.1472 q -0.0359,0.0146 -0.1077,0.0249 -0.0406,0.0059 -0.0575,0.0132 -0.0168,0.0073 -0.026,0.0214 -0.0092,0.0141 -0.0092,0.0313 0,0.0264 0.02,0.044 0.02,0.0175 0.0584,0.0175 0.0381,0 0.0678,-0.0166 0.0296,-0.0167 0.0435,-0.0456 0.0107,-0.0224 0.0107,-0.0659 l 0,-0.0242 z m 0.1432,0.034 0,-0.0662 0.2025,0 0,0.0662 -0.2025,0 z"
         id="path17"
         inkscape:connector-curvature="0"
         style="stroke:none" />
    </g>
    <g
       font-size="0.75"
       transform="matrix(50,0,0,50,29.6564,277.7338)"
       id="g19"
       style="font-size:0.75px;font-family:sans-serif;fill:#0000b2;stroke:#0000b2">
      <path
         d="m -0.236,0.191 -0.0612,0 0,-0.5369 0.0659,0 0,0.1915 q 0.0418,-0.0523 0.1066,-0.0523 0.0359,0 0.0679,0.0144 0.0321,0.0145 0.0528,0.0407 0.0207,0.0262 0.0324,0.0632 0.0117,0.0369 0.0117,0.0791 0,0.0999 -0.0494,0.1545 -0.0495,0.0546 -0.1187,0.0546 -0.0688,0 -0.108,-0.0575 l 0,0.0487 z m -8e-4,-0.1974 q 0,0.0699 0.0191,0.1011 0.0311,0.0509 0.0842,0.0509 0.0432,0 0.0747,-0.0376 0.0315,-0.0375 0.0315,-0.1118 0,-0.0762 -0.0302,-0.1125 -0.0302,-0.0362 -0.073,-0.0362 -0.0433,0 -0.0748,0.0375 -0.0315,0.0375 -0.0315,0.1086 z m 0.3315,0.0362 0,-0.0662 0.2025,0 0,0.0662 -0.2025,0 z"
         id="path21"
         inkscape:connector-curvature="0"
         style="stroke:none" />
    </g>
    <g
       font-size="0.75"
       transform="matrix(50,0,0,50,274.1008,277.7338)"
       id="g23"
       style="font-size:0.75px;font-family:sans-serif;stroke-width:0.02">
      <path
         d="m -4.3958,-5.0014 0.9255,-0.0026 0.4326,0.0017 0.4876,0.0019 0.4686,0.0018 0.4592,0.0018 0.7402,-0.0014"
         id="path25"
         inkscape:connector-curvature="0"
         style="fill:none" />
      <path
         d="m -0.8823,-5.0732 3e-4,0.15 0.3999,-0.0758 z"
         id="path27"
         inkscape:connector-curvature="0"
         style="stroke:none" />
    </g>
    <g
       font-size="0.75"
       transform="matrix(50,0,0,50,274.1008,277.7338)"
       id="g29"
       style="font-size:0.75px;font-family:sans-serif;stroke-width:0.02">
      <path
         d="M -0.4082,-0.0013 -1.355,-0.0043 -1.7799,-0.0026 -2.2623,-7e-4 -2.7301,0.0011 -3.2092,0.003 -4.0917,0.0014"
         id="path31"
         inkscape:connector-curvature="0"
         style="fill:none" />
      <path
         d="m -4.0919,0.0764 3e-4,-0.15 -0.4001,0.0743 z"
         id="path33"
         inkscape:connector-curvature="0"
         style="stroke:none" />
    </g>
    <g
       font-size="0.75"
       transform="matrix(50,0,0,50,274.1008,277.7338)"
       id="g35"
       style="font-size:0.75px;font-family:sans-serif;stroke-width:0.02">
      <path
         d="m 0,-4.5453 -2e-4,1.269 1e-4,0.4405 1e-4,0.479 1e-4,0.45 1e-4,0.5305 -1e-4,0.6121"
         id="path37"
         inkscape:connector-curvature="0"
         style="fill:none" />
      <path
         d="m 0.0751,-0.7642 -0.15,0 0.075,0.4 z"
         id="path39"
         inkscape:connector-curvature="0"
         style="stroke:none" />
    </g>
    <g
       font-size="0.75"
       transform="matrix(50,0,0,50,29.6558,152.7338)"
       id="g41"
       style="font-size:0.75px;font-family:sans-serif;stroke-width:0.02">
      <circle
         cx="0"
         cy="0"
         r="0.2105"
         id="circle43"
         style="stroke:none" />
    </g>
    <g
       font-size="0.75"
       transform="matrix(50,0,0,50,274.1008,277.7338)"
       id="g45"
       style="font-size:0.75px;font-family:sans-serif;stroke-width:0.02">
      <path
         d="m -4.8889,-0.4547 0,-3.7525"
         id="path47"
         inkscape:connector-curvature="0"
         style="fill:none" />
      <path
         d="m -4.9639,-4.2072 0.15,0 -0.075,-0.4 z"
         id="path49"
         inkscape:connector-curvature="0"
         style="stroke:none" />
    </g>
  </g>
</svg>
