<?xml version="1.0" encoding="UTF-8" standalone="no"?>
<svg
   xmlns:dc="http://purl.org/dc/elements/1.1/"
   xmlns:cc="http://creativecommons.org/ns#"
   xmlns:rdf="http://www.w3.org/1999/02/22-rdf-syntax-ns#"
   xmlns:svg="http://www.w3.org/2000/svg"
   xmlns="http://www.w3.org/2000/svg"
   xmlns:sodipodi="http://sodipodi.sourceforge.net/DTD/sodipodi-0.dtd"
   xmlns:inkscape="http://www.inkscape.org/namespaces/inkscape"
   font-size="12px"
   font-style="normal"
   font-weight="normal"
   height="650"
   stroke-miterlimit="10"
   width="1750"
   id="svg2"
   version="1.1"
   inkscape:version="0.91 r13725"
   sodipodi:docname="interface_c-element_2.svg"
   style="font-style:normal;font-weight:normal;font-size:12px;font-family:Dialog;color-interpolation:auto;fill:#000000;fill-opacity:1;stroke:#000000;stroke-width:1;stroke-linecap:square;stroke-linejoin:miter;stroke-miterlimit:10;stroke-dasharray:none;stroke-dashoffset:0;stroke-opacity:1;color-rendering:auto;image-rendering:auto;shape-rendering:auto;text-rendering:auto">
  <metadata
     id="metadata187">
    <rdf:RDF>
      <cc:Work
         rdf:about="">
        <dc:format>image/svg+xml</dc:format>
        <dc:type
           rdf:resource="http://purl.org/dc/dcmitype/StillImage" />
        <dc:title></dc:title>
      </cc:Work>
    </rdf:RDF>
  </metadata>
  <sodipodi:namedview
     pagecolor="#ffffff"
     bordercolor="#666666"
     borderopacity="1"
     objecttolerance="10"
     gridtolerance="10"
     guidetolerance="10"
     inkscape:pageopacity="0"
     inkscape:pageshadow="2"
     inkscape:window-width="1676"
     inkscape:window-height="1005"
     id="namedview185"
     showgrid="false"
     inkscape:zoom="0.36307692"
     inkscape:cx="-14.279661"
     inkscape:cy="325"
     inkscape:window-x="4"
     inkscape:window-y="1"
     inkscape:window-maximized="1"
     inkscape:current-layer="svg2" />
  <!--Generated by the Batik Graphics2D SVG Generator-->
  <defs
     id="genericDefs" />
  <g
     id="g5"
     transform="translate(545,2.1362)">
    <g
       transform="matrix(50,0,0,50,30,152.735)"
       id="g7"
       style="fill:#ffffff;stroke:#ffffff">
      <circle
         cx="0"
         cy="0"
         r="0.44999999"
         id="circle9"
         style="stroke:none" />
      <circle
         cx="0"
         cy="0"
         r="0.44999999"
         id="circle11"
         style="fill:none;stroke:#000000;stroke-width:0.1" />
      <circle
         cx="0"
         cy="0"
         r="0.26320001"
         id="circle13"
         style="fill:#000000;stroke:none;stroke-width:0.1" />
    </g>
    <g
       font-size="0.5px"
       font-style="italic"
       transform="matrix(50,0,0,50,30,152.735)"
       id="g15"
       style="font-style:italic;font-size:0.5px;font-family:sans-serif;fill:#595959;stroke:#595959;stroke-width:0.1">
      <path
         d="m -0.3131,1.0655 0.2029,-0.3579 0.0564,0 0.059,0.3579 -0.0463,0 -0.0174,-0.103 -0.1447,0 -0.0574,0.103 -0.0525,0 z m 0.1304,-0.1399 0.1184,0 -0.0139,-0.0898 Q -0.0863,0.7823 -0.0883,0.7466 -0.1005,0.7774 -0.1239,0.8196 l -0.0588,0.106 z M 0.0658,0.948 q 0,-0.0454 0.0135,-0.0922 Q 0.0929,0.8089 0.1095,0.7808 0.1261,0.7527 0.1439,0.7369 0.1617,0.721 0.179,0.7136 0.1962,0.7061 0.2172,0.7061 q 0.041,0 0.0684,0.0305 0.0275,0.0305 0.0275,0.0882 0,0.0593 -0.019,0.1174 Q 0.2716,1.011 0.2316,1.0455 0.2008,1.0716 0.1615,1.0716 0.1212,1.0716 0.0935,1.04 0.0658,1.0084 0.0658,0.948 Z m 0.0427,0.0113 q 0,0.0329 0.011,0.0515 0.0149,0.0256 0.0442,0.0256 0.0256,0 0.0466,-0.0232 Q 0.2406,0.9805 0.2559,0.9174 0.2711,0.8543 0.2711,0.8143 0.2711,0.7757 0.2563,0.7586 0.2416,0.7415 0.2174,0.7415 0.1998,0.7415 0.1846,0.7505 0.1693,0.7596 0.1554,0.7815 0.1356,0.8125 0.121,0.8743 0.1085,0.9271 0.1085,0.9593 Z"
         id="path17"
         inkscape:connector-curvature="0"
         style="stroke:none" />
    </g>
    <g
       font-size="0.75px"
       transform="matrix(50,0,0,50,155,27.7338)"
       id="g19"
       style="font-size:0.75px;font-family:sans-serif;fill:#b20000;stroke:#b20000;stroke-width:0.1">
      <path
         d="m -0.117,0.1097 q -0.0366,0.0311 -0.0705,0.0439 -0.0339,0.0129 -0.0727,0.0129 -0.0641,0 -0.0985,-0.0314 -0.0344,-0.0313 -0.0344,-0.08 0,-0.0286 0.013,-0.0522 0.013,-0.0236 0.034,-0.0379 0.0211,-0.0142 0.0475,-0.0216 0.0194,-0.0051 0.0586,-0.0099 0.0798,-0.0095 0.1175,-0.0227 4e-4,-0.0135 4e-4,-0.0172 0,-0.0403 -0.0187,-0.0567 -0.0253,-0.0224 -0.0751,-0.0224 -0.0465,0 -0.0686,0.0163 -0.0222,0.0163 -0.0328,0.0577 l -0.0645,-0.0088 q 0.0088,-0.0414 0.029,-0.0668 0.0201,-0.0255 0.0582,-0.0392 0.0381,-0.0137 0.0883,-0.0137 0.0498,0 0.0809,0.0117 0.0311,0.0117 0.0457,0.0295 0.0147,0.0177 0.0206,0.0448 0.0033,0.0169 0.0033,0.0608 l 0,0.0879 q 0,0.0919 0.0042,0.1163 0.0042,0.0243 0.0166,0.0467 l -0.0688,0 Q -0.1141,0.1371 -0.117,0.1097 Z m -0.0055,-0.1472 q -0.0359,0.0146 -0.1077,0.0249 -0.0406,0.0058 -0.0575,0.0132 -0.0168,0.0073 -0.026,0.0214 -0.0091,0.0141 -0.0091,0.0313 0,0.0264 0.0199,0.0439 0.02,0.0176 0.0585,0.0176 0.0381,0 0.0677,-0.0166 0.0297,-0.0167 0.0436,-0.0457 0.0106,-0.0223 0.0106,-0.0659 l 0,-0.0241 z m 0.3073,0.1084 0,-0.1473 -0.1462,0 0,-0.0615 0.1462,0 0,-0.1461 0.0622,0 0,0.1461 0.1461,0 0,0.0615 -0.1461,0 0,0.1473 -0.0622,0 z"
         id="path21"
         inkscape:connector-curvature="0"
         style="stroke:none" />
    </g>
    <g
       font-size="0.75px"
       transform="matrix(50,0,0,50,280,152.7338)"
       id="g23"
       style="font-size:0.75px;font-family:sans-serif;fill:#ffffff;stroke:#ffffff;stroke-width:0.1">
      <circle
         cx="0"
         cy="0"
         r="0.44999999"
         id="circle25"
         style="stroke:none" />
      <circle
         cx="0"
         cy="0"
         r="0.44999999"
         id="circle27"
         style="fill:none;stroke:#000000" />
    </g>
    <g
       font-size="0.5px"
       font-style="italic"
       transform="matrix(50,0,0,50,280,152.7338)"
       id="g29"
       style="font-style:italic;font-size:0.5px;font-family:sans-serif;fill:#595959;stroke:#595959;stroke-width:0.1">
      <path
         d="m -0.2916,1.0594 0.2029,-0.3579 0.0564,0 0.059,0.3579 -0.0463,0 -0.0174,-0.1031 -0.1448,0 -0.0573,0.1031 -0.0525,0 z m 0.1303,-0.1399 0.1185,0 -0.014,-0.0899 q -0.008,-0.0534 -0.01,-0.0891 -0.0122,0.0308 -0.0356,0.073 l -0.0589,0.106 z M 0.1722,1.0594 0.2289,0.7891 Q 0.1923,0.8179 0.1258,0.8353 L 0.1342,0.7952 Q 0.1671,0.782 0.1992,0.7608 0.2313,0.7395 0.2474,0.7237 0.2572,0.7139 0.266,0.7 l 0.0256,0 -0.0749,0.3594 -0.0445,0 z"
         id="path31"
         inkscape:connector-curvature="0"
         style="stroke:none" />
    </g>
    <g
       font-size="0.75px"
       transform="matrix(50,0,0,50,155,277.7338)"
       id="g33"
       style="font-size:0.75px;font-family:sans-serif;fill:#b20000;stroke:#b20000;stroke-width:0.1">
      <path
         d="m -0.032,0.0943 q -0.0367,0.0311 -0.0705,0.044 -0.0339,0.0128 -0.0727,0.0128 -0.0641,0 -0.0985,-0.0313 -0.0345,-0.0314 -0.0345,-0.0801 0,-0.0285 0.013,-0.0522 0.013,-0.0236 0.0341,-0.0378 0.0211,-0.0143 0.0474,-0.0217 0.0194,-0.0051 0.0586,-0.0098 0.0799,-0.0096 0.1176,-0.0228 3e-4,-0.0135 3e-4,-0.0172 0,-0.0403 -0.0186,-0.0567 -0.0253,-0.0224 -0.0751,-0.0224 -0.0465,0 -0.0687,0.0163 -0.0221,0.0163 -0.0328,0.0577 l -0.0644,-0.0088 q 0.0088,-0.0414 0.0289,-0.0668 0.0202,-0.0255 0.0583,-0.0392 0.038,-0.0137 0.0882,-0.0137 0.0498,0 0.0809,0.0117 0.0312,0.0117 0.0458,0.0295 0.0147,0.0177 0.0205,0.0448 0.0033,0.0169 0.0033,0.0608 l 0,0.0879 q 0,0.0919 0.0042,0.1163 0.0042,0.0243 0.0167,0.0467 l -0.0689,0 Q -0.0291,0.1218 -0.032,0.0943 Z m -0.0055,-0.1472 q -0.0359,0.0146 -0.1077,0.0249 -0.0406,0.0059 -0.0575,0.0132 -0.0168,0.0073 -0.026,0.0214 -0.0092,0.0141 -0.0092,0.0313 0,0.0264 0.02,0.044 0.02,0.0175 0.0584,0.0175 0.0381,0 0.0678,-0.0166 0.0296,-0.0167 0.0435,-0.0456 0.0107,-0.0224 0.0107,-0.0659 l 0,-0.0242 z m 0.1432,0.034 0,-0.0662 0.2025,0 0,0.0662 -0.2025,0 z"
         id="path35"
         inkscape:connector-curvature="0"
         style="stroke:none" />
    </g>
    <g
       font-size="0.75px"
       transform="matrix(50,0,0,50,380,152.7338)"
       id="g37"
       style="font-size:0.75px;font-family:sans-serif;fill:#ffffff;stroke:#ffffff;stroke-width:0.1">
      <circle
         cx="0"
         cy="0"
         r="0.44999999"
         id="circle39"
         style="stroke:none" />
      <circle
         cx="0"
         cy="0"
         r="0.44999999"
         id="circle41"
         style="fill:none;stroke:#000000" />
      <circle
         cx="0"
         cy="0"
         r="0.26320001"
         id="circle43"
         style="fill:#000000;stroke:none" />
    </g>
    <g
       font-size="0.5px"
       font-style="italic"
       transform="matrix(50,0,0,50,380,152.7338)"
       id="g45"
       style="font-style:italic;font-size:0.5px;font-family:sans-serif;fill:#595959;stroke:#595959;stroke-width:0.1">
      <path
         d="m -0.2972,1.0655 0.0749,-0.3579 0.1108,0 q 0.0303,0 0.045,0.0024 0.0239,0.0042 0.0404,0.0145 0.0165,0.0104 0.0255,0.0284 0.009,0.0179 0.009,0.0396 0,0.0296 -0.0162,0.052 -0.0163,0.0225 -0.0497,0.0342 0.0291,0.0095 0.0435,0.0287 0.0144,0.0192 0.0144,0.0448 0,0.0296 -0.017,0.0566 -0.017,0.0271 -0.0449,0.0419 -0.028,0.0148 -0.0624,0.0148 l -0.1733,0 z m 0.0908,-0.2051 0.0725,0 q 0.052,0 0.0748,-0.0166 0.0228,-0.0166 0.0228,-0.0483 0,-0.0152 -0.007,-0.0262 Q -0.0504,0.7584 -0.0623,0.7534 -0.0741,0.7483 -0.1068,0.7483 l -0.0762,0 -0.0234,0.1121 z m -0.0344,0.1646 0.0815,0 q 0.0325,0 0.0437,-0.0022 Q -0.0929,1.0189 -0.0787,1.0095 -0.0646,1 -0.0565,0.9847 q 0.008,-0.0154 0.008,-0.0322 0,-0.0252 -0.0157,-0.0383 -0.0158,-0.013 -0.0599,-0.013 l -0.0909,0 -0.0258,0.1238 z M 0.0499,0.948 q 0,-0.0454 0.0136,-0.0922 Q 0.077,0.8089 0.0936,0.7808 0.1102,0.7527 0.128,0.7369 0.1459,0.721 0.1631,0.7136 0.1803,0.7061 0.2013,0.7061 q 0.041,0 0.0685,0.0305 0.0274,0.0305 0.0274,0.0882 0,0.0593 -0.019,0.1174 Q 0.2557,1.011 0.2157,1.0455 0.1849,1.0716 0.1456,1.0716 0.1053,1.0716 0.0776,1.04 0.0499,1.0084 0.0499,0.948 Z m 0.0427,0.0113 q 0,0.0329 0.011,0.0515 0.0149,0.0256 0.0442,0.0256 0.0257,0 0.0467,-0.0232 Q 0.2247,0.9805 0.24,0.9174 0.2552,0.8543 0.2552,0.8143 0.2552,0.7757 0.2405,0.7586 0.2257,0.7415 0.2015,0.7415 0.184,0.7415 0.1687,0.7505 0.1534,0.7596 0.1395,0.7815 0.1197,0.8125 0.1051,0.8743 0.0926,0.9271 0.0926,0.9593 Z"
         id="path47"
         inkscape:connector-curvature="0"
         style="stroke:none" />
    </g>
    <g
       font-size="0.75px"
       transform="matrix(50,0,0,50,505,27.7338)"
       id="g49"
       style="font-size:0.75px;font-family:sans-serif;fill:#0000b2;stroke:#0000b2;stroke-width:0.1">
      <path
         d="m -0.321,0.191 -0.0611,0 0,-0.5369 0.0659,0 0,0.1915 q 0.0417,-0.0523 0.1065,-0.0523 0.0359,0 0.068,0.0144 0.032,0.0145 0.0527,0.0407 0.0207,0.0262 0.0324,0.0632 0.0117,0.0369 0.0117,0.0791 0,0.0999 -0.0494,0.1545 -0.0494,0.0546 -0.1186,0.0546 -0.0689,0 -0.1081,-0.0575 l 0,0.0487 z m -7e-4,-0.1974 q 0,0.0699 0.019,0.1011 0.0312,0.0509 0.0843,0.0509 0.0432,0 0.0747,-0.0376 0.0315,-0.0375 0.0315,-0.1118 0,-0.0762 -0.0303,-0.1125 -0.0302,-0.0362 -0.073,-0.0362 -0.0432,0 -0.0747,0.0375 -0.0315,0.0375 -0.0315,0.1086 z m 0.4955,0.1106 0,-0.1472 -0.1461,0 0,-0.0616 0.1461,0 0,-0.1461 0.0622,0 0,0.1461 0.1461,0 0,0.0616 -0.1461,0 0,0.1472 -0.0622,0 z"
         id="path51"
         inkscape:connector-curvature="0"
         style="stroke:none" />
    </g>
    <g
       font-size="0.75px"
       transform="matrix(50,0,0,50,630,152.7338)"
       id="g53"
       style="font-size:0.75px;font-family:sans-serif;fill:#ffffff;stroke:#ffffff;stroke-width:0.1">
      <circle
         cx="0"
         cy="0"
         r="0.44999999"
         id="circle55"
         style="stroke:none" />
      <circle
         cx="0"
         cy="0"
         r="0.44999999"
         id="circle57"
         style="fill:none;stroke:#000000" />
    </g>
    <g
       font-size="0.5px"
       font-style="italic"
       transform="matrix(50,0,0,50,630,152.7338)"
       id="g59"
       style="font-style:italic;font-size:0.5px;font-family:sans-serif;fill:#595959;stroke:#595959;stroke-width:0.1">
      <path
         d="m -0.2758,1.0594 0.075,-0.3579 0.1108,0 q 0.0303,0 0.0449,0.0024 0.024,0.0042 0.0405,0.0145 0.0164,0.0104 0.0255,0.0284 0.009,0.0179 0.009,0.0396 0,0.0296 -0.0162,0.052 -0.0163,0.0225 -0.0497,0.0342 0.029,0.0095 0.0434,0.0287 0.0145,0.0192 0.0145,0.0448 0,0.0295 -0.017,0.0566 -0.017,0.0271 -0.0449,0.0419 -0.028,0.0148 -0.0624,0.0148 l -0.1734,0 z m 0.0909,-0.2051 0.0725,0 q 0.052,0 0.0748,-0.0166 0.0228,-0.0166 0.0228,-0.0483 0,-0.0152 -0.007,-0.0262 -0.0071,-0.0109 -0.019,-0.016 -0.0118,-0.005 -0.0445,-0.005 l -0.0762,0 -0.0234,0.1121 z m -0.0345,0.1645 0.0816,0 q 0.0325,0 0.0437,-0.0021 0.0227,-0.0039 0.0368,-0.0134 0.0142,-0.0094 0.0223,-0.0247 0.008,-0.0154 0.008,-0.0323 0,-0.0251 -0.0157,-0.0382 -0.0158,-0.013 -0.06,-0.013 l -0.0908,0 -0.0259,0.1237 z M 0.1564,1.0594 0.213,0.7891 Q 0.1764,0.8179 0.11,0.8353 L 0.1183,0.7952 Q 0.1512,0.782 0.1833,0.7608 0.2154,0.7395 0.2316,0.7237 0.2413,0.7139 0.2501,0.7 l 0.0257,0 -0.075,0.3594 -0.0444,0 z"
         id="path61"
         inkscape:connector-curvature="0"
         style="stroke:none" />
    </g>
    <g
       font-size="0.75px"
       transform="matrix(50,0,0,50,505,277.7338)"
       id="g63"
       style="font-size:0.75px;font-family:sans-serif;fill:#0000b2;stroke:#0000b2;stroke-width:0.1">
      <path
         d="m -0.236,0.191 -0.0612,0 0,-0.5369 0.0659,0 0,0.1915 q 0.0418,-0.0523 0.1066,-0.0523 0.0359,0 0.0679,0.0144 0.0321,0.0145 0.0528,0.0407 0.0207,0.0262 0.0324,0.0632 0.0117,0.0369 0.0117,0.0791 0,0.0999 -0.0494,0.1545 -0.0495,0.0546 -0.1187,0.0546 -0.0688,0 -0.108,-0.0575 l 0,0.0487 z m -8e-4,-0.1974 q 0,0.0699 0.0191,0.1011 0.0311,0.0509 0.0842,0.0509 0.0432,0 0.0747,-0.0376 0.0315,-0.0375 0.0315,-0.1118 0,-0.0762 -0.0302,-0.1125 -0.0302,-0.0362 -0.073,-0.0362 -0.0433,0 -0.0748,0.0375 -0.0315,0.0375 -0.0315,0.1086 z m 0.3315,0.0362 0,-0.0662 0.2025,0 0,0.0662 -0.2025,0 z"
         id="path65"
         inkscape:connector-curvature="0"
         style="stroke:none" />
    </g>
    <g
       font-size="0.75px"
       transform="matrix(50,0,0,50,205,502.7338)"
       id="g67"
       style="font-size:0.75px;font-family:sans-serif;fill:#ffffff;stroke:#ffffff;stroke-width:0.1">
      <circle
         cx="0"
         cy="0"
         r="0.44999999"
         id="circle69"
         style="stroke:none" />
      <circle
         cx="0"
         cy="0"
         r="0.44999999"
         id="circle71"
         style="fill:none;stroke:#000000" />
      <circle
         cx="0"
         cy="0"
         r="0.26320001"
         id="circle73"
         style="fill:#000000;stroke:none" />
    </g>
    <g
       font-size="0.5px"
       font-style="italic"
       transform="matrix(50,0,0,50,205,502.7338)"
       id="g75"
       style="font-style:italic;font-size:0.5px;font-family:sans-serif;fill:#595959;stroke:#595959;stroke-width:0.1">
      <path
         d="m -0.0431,0.9441 0.0474,0.0066 q -0.0225,0.0621 -0.0655,0.0938 -0.0429,0.0317 -0.0964,0.0317 -0.0652,0 -0.1034,-0.0398 -0.0382,-0.0398 -0.0382,-0.114 0,-0.0967 0.0581,-0.1599 0.0518,-0.0564 0.1287,-0.0564 0.0569,0 0.0921,0.0305 0.0353,0.0305 0.0409,0.0821 L -0.024,0.8228 Q -0.0311,0.784 -0.0532,0.7648 -0.0753,0.7457 -0.1102,0.7457 q -0.0657,0 -0.1062,0.0583 -0.0352,0.0503 -0.0352,0.1194 0,0.0552 0.0271,0.0842 0.0271,0.0291 0.0706,0.0291 0.0371,0 0.0671,-0.0242 0.03,-0.0242 0.0437,-0.0684 z m 0.095,0.0086 q 0,-0.0454 0.0135,-0.0923 Q 0.079,0.8135 0.0956,0.7855 0.1122,0.7574 0.13,0.7415 0.1478,0.7256 0.165,0.7182 0.1822,0.7107 0.2032,0.7107 q 0.0411,0 0.0685,0.0306 0.0275,0.0305 0.0275,0.0881 0,0.0593 -0.019,0.1174 Q 0.2577,1.0157 0.2177,1.0501 0.1869,1.0762 0.1476,1.0762 0.1073,1.0762 0.0796,1.0446 0.0519,1.013 0.0519,0.9527 Z m 0.0427,0.0112 q 0,0.033 0.011,0.0515 0.0149,0.0257 0.0442,0.0257 0.0256,0 0.0466,-0.0232 Q 0.2267,0.9852 0.2419,0.922 0.2572,0.8589 0.2572,0.8189 0.2572,0.7803 0.2424,0.7632 0.2277,0.7462 0.2035,0.7462 0.1859,0.7462 0.1707,0.7552 0.1554,0.7642 0.1415,0.7862 0.1217,0.8172 0.1071,0.879 0.0946,0.9317 0.0946,0.9639 Z"
         id="path77"
         inkscape:connector-curvature="0"
         style="stroke:none" />
    </g>
    <g
       font-size="0.75px"
       transform="matrix(50,0,0,50,330,377.7338)"
       id="g79"
       style="font-size:0.75px;font-family:sans-serif;fill:#00b200;stroke:#00b200;stroke-width:0.1">
      <path
         d="m -0.097,0.0152 0.0648,0.0084 q -0.0106,0.067 -0.0544,0.1049 -0.0438,0.038 -0.1075,0.038 -0.0798,0 -0.1283,-0.0522 -0.0486,-0.0522 -0.0486,-0.1496 0,-0.063 0.0209,-0.1103 0.0209,-0.0472 0.0635,-0.0708 0.0427,-0.0236 0.0929,-0.0236 0.0633,0 0.1036,0.032 0.0403,0.032 0.0516,0.091 l -0.064,0.0099 q -0.0092,-0.0392 -0.0324,-0.059 -0.0233,-0.0197 -0.0563,-0.0197 -0.0498,0 -0.0809,0.0357 -0.0311,0.0357 -0.0311,0.1129 0,0.0784 0.03,0.1139 0.03,0.0356 0.0784,0.0356 0.0388,0 0.0648,-0.0239 0.026,-0.0238 0.033,-0.0732 z m 0.2596,0.0557 0,-0.1473 -0.1461,0 0,-0.0615 0.1461,0 0,-0.1461 0.0623,0 0,0.1461 0.1461,0 0,0.0615 -0.1461,0 0,0.1473 -0.0623,0 z"
         id="path81"
         inkscape:connector-curvature="0"
         style="stroke:none" />
    </g>
    <g
       font-size="0.75px"
       transform="matrix(50,0,0,50,455,502.7338)"
       id="g83"
       style="font-size:0.75px;font-family:sans-serif;fill:#ffffff;stroke:#ffffff;stroke-width:0.1">
      <circle
         cx="0"
         cy="0"
         r="0.44999999"
         id="circle85"
         style="stroke:none" />
      <circle
         cx="0"
         cy="0"
         r="0.44999999"
         id="circle87"
         style="fill:none;stroke:#000000" />
    </g>
    <g
       font-size="0.5px"
       font-style="italic"
       transform="matrix(50,0,0,50,455,502.7338)"
       id="g89"
       style="font-style:italic;font-size:0.5px;font-family:sans-serif;fill:#595959;stroke:#595959;stroke-width:0.1">
      <path
         d="m -0.0216,0.9441 0.0474,0.0066 q -0.0225,0.0621 -0.0655,0.0938 -0.0429,0.0317 -0.0964,0.0317 -0.0652,0 -0.1034,-0.0398 -0.0382,-0.0398 -0.0382,-0.114 0,-0.0967 0.0581,-0.1599 0.0518,-0.0564 0.1287,-0.0564 0.0568,0 0.0921,0.0305 0.0353,0.0305 0.0409,0.0821 l -0.0447,0.0041 q -0.007,-0.0388 -0.0291,-0.058 -0.0221,-0.0191 -0.057,-0.0191 -0.0657,0 -0.1062,0.0583 -0.0352,0.0503 -0.0352,0.1194 0,0.0552 0.0271,0.0842 0.0271,0.0291 0.0706,0.0291 0.0371,0 0.0671,-0.0242 0.03,-0.0242 0.0437,-0.0684 z M 0.1583,1.0701 0.215,0.7999 Q 0.1783,0.8287 0.1119,0.846 L 0.1202,0.806 Q 0.1532,0.7928 0.1853,0.7715 0.2174,0.7503 0.2335,0.7344 0.2433,0.7247 0.2521,0.7107 l 0.0256,0 -0.0749,0.3594 -0.0445,0 z"
         id="path91"
         inkscape:connector-curvature="0"
         style="stroke:none" />
    </g>
    <g
       font-size="0.75px"
       transform="matrix(50,0,0,50,330,627.7338)"
       id="g93"
       style="font-size:0.75px;font-family:sans-serif;fill:#00b200;stroke:#00b200;stroke-width:0.1">
      <path
         d="m -0.0121,-2e-4 0.0648,0.0084 q -0.0106,0.0671 -0.0543,0.105 -0.0438,0.0379 -0.1075,0.0379 -0.0799,0 -0.1284,-0.0522 -0.0485,-0.0522 -0.0485,-0.1496 0,-0.063 0.0209,-0.1103 0.0208,-0.0472 0.0635,-0.0708 0.0427,-0.0236 0.0928,-0.0236 0.0634,0 0.1037,0.032 0.0403,0.0321 0.0516,0.091 l -0.0641,0.0099 q -0.0091,-0.0392 -0.0324,-0.059 -0.0232,-0.0197 -0.0562,-0.0197 -0.0498,0 -0.0809,0.0357 -0.0312,0.0357 -0.0312,0.1129 0,0.0784 0.0301,0.1139 0.03,0.0356 0.0783,0.0356 0.0389,0 0.0649,-0.0238 0.026,-0.0238 0.0329,-0.0733 z m 0.0956,-0.0187 0,-0.0662 0.2025,0 0,0.0662 -0.2025,0 z"
         id="path95"
         inkscape:connector-curvature="0"
         style="stroke:none" />
    </g>
    <g
       font-size="0.75px"
       transform="matrix(50,0,0,50,155,152.7338)"
       id="g97"
       style="font-size:0.75px;font-family:sans-serif;stroke-width:0.02">
      <path
         d="m -2.1464,-0.3536 1.4708,-1.4708"
         id="path99"
         inkscape:connector-curvature="0"
         style="fill:none" />
      <path
         d="m -0.7287,-1.8774 0.1061,0.1061 0.2298,-0.3359 z"
         id="path101"
         inkscape:connector-curvature="0"
         style="stroke:none" />
    </g>
    <g
       font-size="0.75px"
       transform="matrix(50,0,0,50,155,152.7338)"
       id="g103"
       style="font-size:0.75px;font-family:sans-serif;stroke-width:0.02">
      <path
         d="m 0.3928,-2.1072 1.4708,1.4708"
         id="path105"
         inkscape:connector-curvature="0"
         style="fill:none" />
      <path
         d="m 1.9166,-0.6894 -0.106,0.106 0.3358,0.2298 z"
         id="path107"
         inkscape:connector-curvature="0"
         style="stroke:none" />
    </g>
    <g
       font-size="0.75px"
       transform="matrix(50,0,0,50,155,152.7338)"
       id="g109"
       style="font-size:0.75px;font-family:sans-serif;stroke-width:0.02">
      <path
         d="M 2.1464,0.3536 0.6471,1.8529"
         id="path111"
         inkscape:connector-curvature="0"
         style="fill:none" />
      <path
         d="M 0.7001,1.906 0.594,1.7999 0.3642,2.1358 Z"
         id="path113"
         inkscape:connector-curvature="0"
         style="stroke:none" />
    </g>
    <g
       font-size="0.75px"
       transform="matrix(50,0,0,50,155,152.7338)"
       id="g115"
       style="font-size:0.75px;font-family:sans-serif;stroke-width:0.02">
      <path
         d="M -0.3642,2.1358 -1.8636,0.6364"
         id="path117"
         inkscape:connector-curvature="0"
         style="fill:none" />
      <path
         d="m -1.9166,0.6894 0.106,-0.106 -0.3358,-0.2298 z"
         id="path119"
         inkscape:connector-curvature="0"
         style="stroke:none" />
    </g>
    <g
       font-size="0.75px"
       transform="matrix(50,0,0,50,155,152.7338)"
       id="g121"
       style="font-size:0.75px;font-family:sans-serif;stroke-width:0.02">
      <path
         d="M 4.8536,-0.3536 6.2625,-1.7625"
         id="path123"
         inkscape:connector-curvature="0"
         style="fill:none" />
      <path
         d="m 6.2094,-1.8155 0.1061,0.1061 0.2298,-0.3359 z"
         id="path125"
         inkscape:connector-curvature="0"
         style="stroke:none" />
    </g>
    <g
       font-size="0.75px"
       transform="matrix(50,0,0,50,155,152.7338)"
       id="g127"
       style="font-size:0.75px;font-family:sans-serif;stroke-width:0.02">
      <path
         d="m 7.4547,-2.0453 1.4089,1.4089"
         id="path129"
         inkscape:connector-curvature="0"
         style="fill:none" />
      <path
         d="m 8.9166,-0.6894 -0.106,0.106 0.3358,0.2298 z"
         id="path131"
         inkscape:connector-curvature="0"
         style="stroke:none" />
    </g>
    <g
       font-size="0.75px"
       transform="matrix(50,0,0,50,155,152.7338)"
       id="g133"
       style="font-size:0.75px;font-family:sans-serif;stroke-width:0.02">
      <path
         d="M 9.1464,0.3536 7.68,1.82"
         id="path135"
         inkscape:connector-curvature="0"
         style="fill:none" />
      <path
         d="M 7.733,1.873 7.627,1.767 7.3972,2.1028 Z"
         id="path137"
         inkscape:connector-curvature="0"
         style="stroke:none" />
    </g>
    <g
       font-size="0.75px"
       transform="matrix(50,0,0,50,155,152.7338)"
       id="g139"
       style="font-size:0.75px;font-family:sans-serif;stroke-width:0.02">
      <path
         d="M 6.6028,2.1028 5.1364,0.6364"
         id="path141"
         inkscape:connector-curvature="0"
         style="fill:none" />
      <path
         d="M 5.0834,0.6894 5.1894,0.5834 4.8536,0.3536 Z"
         id="path143"
         inkscape:connector-curvature="0"
         style="stroke:none" />
    </g>
    <g
       font-size="0.75px"
       transform="matrix(50,0,0,50,155,152.7338)"
       id="g145"
       style="font-size:0.75px;font-family:sans-serif;stroke-width:0.02">
      <path
         d="M 1.3536,6.6464 2.8244,5.1756"
         id="path147"
         inkscape:connector-curvature="0"
         style="fill:none" />
      <path
         d="M 2.7713,5.1226 2.8774,5.2287 3.1072,4.8928 Z"
         id="path149"
         inkscape:connector-curvature="0"
         style="stroke:none" />
    </g>
    <g
       font-size="0.75px"
       transform="matrix(50,0,0,50,155,152.7338)"
       id="g151"
       style="font-size:0.75px;font-family:sans-serif;stroke-width:0.02">
      <path
         d="M 3.8928,4.8928 5.3636,6.3636"
         id="path153"
         inkscape:connector-curvature="0"
         style="fill:none" />
      <path
         d="m 5.4166,6.3106 -0.106,0.106 0.3358,0.2298 z"
         id="path155"
         inkscape:connector-curvature="0"
         style="stroke:none" />
    </g>
    <g
       font-size="0.75px"
       transform="matrix(50,0,0,50,155,152.7338)"
       id="g157"
       style="font-size:0.75px;font-family:sans-serif;stroke-width:0.02">
      <path
         d="M 5.6464,7.3536 4.1471,8.8529"
         id="path159"
         inkscape:connector-curvature="0"
         style="fill:none" />
      <path
         d="M 4.2001,8.906 4.094,8.7999 3.8642,9.1358 Z"
         id="path161"
         inkscape:connector-curvature="0"
         style="stroke:none" />
    </g>
    <g
       font-size="0.75px"
       transform="matrix(50,0,0,50,155,152.7338)"
       id="g163"
       style="font-size:0.75px;font-family:sans-serif;stroke-width:0.02">
      <path
         d="M 3.1358,9.1358 1.6364,7.6364"
         id="path165"
         inkscape:connector-curvature="0"
         style="fill:none" />
      <path
         d="M 1.5834,7.6894 1.6894,7.5834 1.3536,7.3536 Z"
         id="path167"
         inkscape:connector-curvature="0"
         style="stroke:none" />
    </g>
    <g
       font-size="0.75px"
       transform="matrix(50,0,0,50,155,152.7338)"
       id="g169"
       style="font-size:0.75px;font-family:sans-serif;stroke-width:0.02">
      <path
         d="m 9.5,0.5 0,4 -5.529,0"
         id="path171"
         inkscape:connector-curvature="0"
         style="fill:none" />
    </g>
    <g
       font-size="0.75px"
       transform="matrix(50,0,0,50,155,152.7338)"
       id="g173"
       style="font-size:0.75px;font-family:sans-serif;stroke-width:0.02">
      <path
         d="m 2.5,0.5 0,4 0.529,0"
         id="path175"
         inkscape:connector-curvature="0"
         style="fill:none" />
    </g>
    <g
       font-size="0.75px"
       transform="matrix(50,0,0,50,155,152.7338)"
       id="g177"
       style="font-size:0.75px;font-family:sans-serif;stroke-width:0.02">
      <path
         d="M -2.4019,0.4903 -1,7.5 3.114,9.3284"
         id="path179"
         inkscape:connector-curvature="0"
         style="fill:none" />
    </g>
    <g
       font-size="0.75px"
       transform="matrix(50,0,0,50,155,152.7338)"
       id="g181"
       style="font-size:0.75px;font-family:sans-serif;stroke-width:0.02">
      <path
         d="M 4.6857,0.4642 7.5,7.5 3.886,9.307"
         id="path183"
         inkscape:connector-curvature="0"
         style="fill:none" />
    </g>
  </g>
</svg>
