<?xml version="1.0" encoding="UTF-8" standalone="no"?>
<svg
   xmlns:dc="http://purl.org/dc/elements/1.1/"
   xmlns:cc="http://creativecommons.org/ns#"
   xmlns:rdf="http://www.w3.org/1999/02/22-rdf-syntax-ns#"
   xmlns:svg="http://www.w3.org/2000/svg"
   xmlns="http://www.w3.org/2000/svg"
   xmlns:sodipodi="http://sodipodi.sourceforge.net/DTD/sodipodi-0.dtd"
   xmlns:inkscape="http://www.inkscape.org/namespaces/inkscape"
   font-size="12px"
   font-style="normal"
   font-weight="normal"
   height="118"
   stroke-miterlimit="10"
   width="1750"
   id="svg2"
   version="1.1"
   inkscape:version="0.91 r13725"
   sodipodi:docname="inverter_schematic.svg"
   style="font-style:normal;font-weight:normal;font-size:12px;font-family:Dialog;color-interpolation:auto;fill:#000000;fill-opacity:1;stroke:#000000;stroke-width:1;stroke-linecap:square;stroke-linejoin:miter;stroke-miterlimit:10;stroke-dasharray:none;stroke-dashoffset:0;stroke-opacity:1;color-rendering:auto;image-rendering:auto;shape-rendering:auto;text-rendering:auto">
  <metadata
     id="metadata69">
    <rdf:RDF>
      <cc:Work
         rdf:about="">
        <dc:format>image/svg+xml</dc:format>
        <dc:type
           rdf:resource="http://purl.org/dc/dcmitype/StillImage" />
        <dc:title></dc:title>
      </cc:Work>
    </rdf:RDF>
  </metadata>
  <sodipodi:namedview
     pagecolor="#ffffff"
     bordercolor="#666666"
     borderopacity="1"
     objecttolerance="10"
     gridtolerance="10"
     guidetolerance="10"
     inkscape:pageopacity="0"
     inkscape:pageshadow="2"
     inkscape:window-width="1920"
     inkscape:window-height="1058"
     id="namedview67"
     showgrid="false"
     inkscape:zoom="0.67657143"
     inkscape:cx="979.74498"
     inkscape:cy="-166.5587"
     inkscape:window-x="-8"
     inkscape:window-y="-8"
     inkscape:window-maximized="1"
     inkscape:current-layer="svg2" />
  <!--Generated by the Batik Graphics2D SVG Generator-->
  <defs
     id="genericDefs" />
  <g
     id="g5"
     transform="translate(740.56954,8.5319)">
    <g
       transform="matrix(50,0,0,50,233.49,63.885)"
       id="g7"
       style="fill:#ffffff;stroke:#ffffff;stroke-width:0.06">
      <path
         d="M -0.13,-0.13 0,-0.13 0.13,0 0,0.13 l -0.13,0 z"
         id="path9"
         inkscape:connector-curvature="0"
         style="stroke:none" />
      <path
         d="M -0.13,-0.13 0,-0.13 0.13,0 0,0.13 l -0.13,0 z"
         id="path11"
         inkscape:connector-curvature="0"
         style="fill:none;stroke:#000000" />
    </g>
    <g
       font-size="0.5px"
       font-style="italic"
       transform="matrix(50,0,0,50,233.4922,63.8831)"
       id="g13"
       style="font-style:italic;font-size:0.5px;font-family:sans-serif;fill:#0000ff;stroke:#0000ff;stroke-width:0.06">
      <path
         d="m 0.33,0.14 0.0777,-0.3884 0.0481,0 -0.0341,0.1701 q 0.0407,-0.0556 0.0998,-0.0556 0.0479,0 0.0683,0.0349 0.0205,0.0349 0.0084,0.0954 -0.0132,0.066 -0.0524,0.1064 -0.0392,0.0404 -0.09,0.0404 -0.0471,0 -0.0711,-0.0362 L 0.3722,0.14 Z M 0.3913,0.0738 q 0.0305,0.0332 0.0642,0.0332 0.0693,0 0.0905,-0.1057 0.0186,-0.0932 -0.0429,-0.0932 -0.0403,0 -0.0874,0.0437 z"
         id="path15"
         inkscape:connector-curvature="0"
         style="stroke:none" />
    </g>
    <g
       font-size="0.5px"
       font-style="italic"
       transform="matrix(50,0,0,50,33.4922,63.8831)"
       id="g17"
       style="font-style:italic;font-size:0.5px;font-family:sans-serif;fill:#ffffff;stroke:#ffffff;stroke-width:0.06">
      <path
         d="M -0.13,-0.13 0,-0.13 0.13,0 0,0.13 l -0.13,0 z"
         id="path19"
         inkscape:connector-curvature="0"
         style="stroke:none" />
      <path
         d="M -0.13,-0.13 0,-0.13 0.13,0 0,0.13 l -0.13,0 z"
         id="path21"
         inkscape:connector-curvature="0"
         style="fill:none;stroke:#000000" />
    </g>
    <g
       font-size="0.5px"
       font-style="italic"
       transform="matrix(50,0,0,50,33.4922,63.8831)"
       id="g23"
       style="font-style:italic;font-size:0.5px;font-family:sans-serif;fill:#ff0000;stroke:#ff0000;stroke-width:0.06">
      <path
         d="m -0.4105,0.0633 q -0.0511,0.0398 -0.0912,0.0398 -0.0329,0 -0.0505,-0.0206 -0.0176,-0.0207 -0.0113,-0.0522 0.0086,-0.0434 0.0498,-0.0667 0.0412,-0.0234 0.1093,-0.0234 l 0.0115,0 0.0064,-0.0319 q 0.0092,-0.0462 -0.0382,-0.0462 -0.0381,0 -0.0869,0.0235 l 0.0079,-0.0398 q 0.0526,-0.0198 0.095,-0.0198 0.0445,0 0.0616,0.02 0.0171,0.02 0.0087,0.0623 l -0.0241,0.1201 q -0.0082,0.0412 0.0172,0.0412 0.0031,0 0.0094,-9e-4 l -0.0019,0.0266 q -0.0179,0.0078 -0.0377,0.0078 -0.0337,0 -0.035,-0.0398 z m -0.0018,-0.0261 0.0137,-0.0686 -0.016,-5e-4 q -0.0396,0 -0.067,0.015 -0.0274,0.015 -0.0323,0.0394 -0.0035,0.0174 0.0064,0.0293 0.0098,0.012 0.0274,0.012 0.03,0 0.0678,-0.0266 z"
         id="path25"
         inkscape:connector-curvature="0"
         style="stroke:none" />
    </g>
    <g
       font-size="0.5px"
       font-style="italic"
       transform="matrix(50,0,0,50,125.9922,63.8831)"
       id="g27"
       style="font-style:italic;font-size:0.5px;font-family:sans-serif;fill:#ffffff;stroke:#ffffff;stroke-width:0.06">
      <path
         d="m -0.5,-0.5 0,1 1,-0.5 z"
         id="path29"
         inkscape:connector-curvature="0"
         style="stroke:none" />
      <path
         d="m -0.5,-0.5 0,1 1,-0.5 z"
         id="path31"
         inkscape:connector-curvature="0"
         style="fill:none;stroke:#000000" />
      <circle
         cx="0"
         cy="0"
         r="0.15000001"
         transform="translate(0.65,0)"
         id="circle33"
         style="stroke:none" />
      <circle
         cx="0"
         cy="0"
         r="0.15000001"
         transform="translate(0.65,0)"
         id="circle35"
         style="fill:none;stroke:#000000" />
      <line
         transform="translate(0.15,0)"
         x1="0.64999998"
         x2="1"
         y1="0"
         y2="0"
         id="line37"
         style="fill:none;stroke:#000000;stroke-width:0.04" />
      <line
         transform="translate(0.15,0)"
         x1="-0.64999998"
         x2="-1"
         y1="0"
         y2="0"
         id="line39"
         style="fill:none;stroke:#000000;stroke-width:0.04" />
    </g>
    <g
       font-size="0.5px"
       transform="matrix(50,0,0,50,133.4922,63.8831)"
       id="g41"
       style="font-size:0.5px;font-family:sans-serif;fill:#0000ff;stroke:#0000ff;stroke-width:0.04">
      <path
         d="m -0.9044,-0.8102 0,-0.2652 0.0481,0 0,0.2652 z m 0,-0.3133 0,-0.0481 0.0481,0 0,0.0481 z m 0.1445,0.3133 0,-0.2652 0.0481,0 0,0.0498 q 0.0381,-0.0556 0.0933,-0.0556 0.0344,0 0.0549,0.0218 0.0205,0.0219 0.0205,0.0587 l 0,0.1905 -0.0481,0 0,-0.1748 q 0,-0.0296 -0.0087,-0.0421 -0.0086,-0.0126 -0.0286,-0.0126 -0.0442,0 -0.0833,0.0578 l 0,0.1717 z m 0.3652,0 -0.0986,-0.2652 0.0481,0 0.0772,0.2063 0.0813,-0.2063 0.0449,0 -0.1048,0.2652 z m 0.3982,-0.0086 q -0.0483,0.0147 -0.0827,0.0147 -0.0586,0 -0.0956,-0.039 -0.037,-0.0389 -0.037,-0.1009 0,-0.0603 0.0326,-0.0989 0.0326,-0.0386 0.0834,-0.0386 0.0481,0 0.0743,0.0342 0.0263,0.0342 0.0263,0.0972 l -3e-4,0.0149 -0.1672,0 q 0.0105,0.0945 0.0925,0.0945 0.03,0 0.0737,-0.0162 z m -0.164,-0.1526 0.1169,0 q 0,-0.0739 -0.0552,-0.0739 -0.0554,0 -0.0617,0.0739 z m 0.2483,0.1612 0,-0.2652 0.0481,0 0,0.0498 q 0.0285,-0.0556 0.083,-0.0556 0.0073,0 0.0154,0.0012 l 0,0.0449 q -0.0125,-0.0041 -0.022,-0.0041 -0.0457,0 -0.0764,0.0542 l 0,0.1748 z m 0.2841,0.0061 q -0.0366,0 -0.0571,-0.021 -0.0205,-0.021 -0.0205,-0.0584 l 0,-0.1557 -0.0332,0 0,-0.0362 0.0332,0 0,-0.0481 0.0481,-0.0046 0,0.0527 0.0693,0 0,0.0362 -0.0693,0 0,0.1469 q 0,0.052 0.0449,0.052 0.0096,0 0.0232,-0.0031 l 0,0.0332 q -0.0222,0.0061 -0.0386,0.0061 z m 0.3018,-0.0147 q -0.0483,0.0147 -0.0828,0.0147 -0.0586,0 -0.0955,-0.039 -0.037,-0.0389 -0.037,-0.1009 0,-0.0603 0.0326,-0.0989 0.0326,-0.0386 0.0833,-0.0386 0.0481,0 0.0744,0.0342 0.0262,0.0342 0.0262,0.0972 l -2e-4,0.0149 -0.1673,0 q 0.0105,0.0945 0.0926,0.0945 0.03,0 0.0737,-0.0162 z m -0.1641,-0.1526 0.117,0 q 0,-0.0739 -0.0552,-0.0739 -0.0554,0 -0.0618,0.0739 z m 0.2483,0.1612 0,-0.2652 0.0481,0 0,0.0498 q 0.0286,-0.0556 0.083,-0.0556 0.0074,0 0.0154,0.0012 l 0,0.0449 q -0.0124,-0.0041 -0.022,-0.0041 -0.0456,0 -0.0764,0.0542 l 0,0.1748 z"
         id="path43"
         inkscape:connector-curvature="0"
         style="stroke:none" />
    </g>
    <g
       font-size="0.5px"
       font-style="italic"
       transform="matrix(50,0,0,50,133.4922,113.8831)"
       id="g47"
       style="font-style:italic;font-size:0.5px;font-family:sans-serif;stroke-width:0.04">
      <path
         d="m 1.11,-1 0.76,0"
         id="path49"
         inkscape:connector-curvature="0"
         style="fill:none" />
      <path
         d="m 1.87,-1.075 0,0.15 0,-0.075 z"
         id="path51"
         inkscape:connector-curvature="0"
         style="stroke:none" />
    </g>
    <g
       font-size="0.5px"
       font-style="italic"
       transform="matrix(50,0,0,50,133.4922,113.8831)"
       id="g53"
       style="font-style:italic;font-size:0.5px;font-family:sans-serif;stroke-width:0.04">
      <line
         x1="1"
         x2="1.11"
         y1="-1"
         y2="-1"
         id="line55"
         style="fill:none" />
    </g>
    <g
       font-size="0.5px"
       font-style="italic"
       transform="matrix(50,0,0,50,133.4922,113.8831)"
       id="g57"
       style="font-style:italic;font-size:0.5px;font-family:sans-serif;stroke-width:0.04">
      <path
         d="m -1.87,-1 0.76,0"
         id="path59"
         inkscape:connector-curvature="0"
         style="fill:none" />
      <path
         d="m -1.11,-1.075 0,0.15 0,-0.075 z"
         id="path61"
         inkscape:connector-curvature="0"
         style="stroke:none" />
    </g>
    <g
       font-size="0.5px"
       font-style="italic"
       transform="matrix(50,0,0,50,133.4922,113.8831)"
       id="g63"
       style="font-style:italic;font-size:0.5px;font-family:sans-serif;stroke-width:0.04">
      <line
         x1="-1.11"
         x2="-1"
         y1="-1"
         y2="-1"
         id="line65"
         style="fill:none" />
    </g>
  </g>
</svg>
