<?xml version="1.0" encoding="UTF-8" standalone="no"?>
<svg
   xmlns:dc="http://purl.org/dc/elements/1.1/"
   xmlns:cc="http://creativecommons.org/ns#"
   xmlns:rdf="http://www.w3.org/1999/02/22-rdf-syntax-ns#"
   xmlns:svg="http://www.w3.org/2000/svg"
   xmlns="http://www.w3.org/2000/svg"
   xmlns:sodipodi="http://sodipodi.sourceforge.net/DTD/sodipodi-0.dtd"
   xmlns:inkscape="http://www.inkscape.org/namespaces/inkscape"
   color-interpolation="auto"
   color-rendering="auto"
   fill="black"
   fill-opacity="1"
   font-family="'Dialog'"
   font-size="12px"
   font-style="normal"
   font-weight="normal"
   height="358"
   image-rendering="auto"
   shape-rendering="auto"
   stroke="black"
   stroke-dasharray="none"
   stroke-dashoffset="0"
   stroke-linecap="square"
   stroke-linejoin="miter"
   stroke-miterlimit="10"
   stroke-opacity="1"
   stroke-width="1"
   text-rendering="auto"
   width="1750"
   id="svg2"
   version="1.1"
   inkscape:version="0.91 r13725"
   sodipodi:docname="inverter1.svg">
  <metadata
     id="metadata115">
    <rdf:RDF>
      <cc:Work
         rdf:about="">
        <dc:format>image/svg+xml</dc:format>
        <dc:type
           rdf:resource="http://purl.org/dc/dcmitype/StillImage" />
      </cc:Work>
    </rdf:RDF>
  </metadata>
  <sodipodi:namedview
     pagecolor="#ffffff"
     bordercolor="#666666"
     borderopacity="1"
     objecttolerance="10"
     gridtolerance="10"
     guidetolerance="10"
     inkscape:pageopacity="0"
     inkscape:pageshadow="2"
     inkscape:window-width="1920"
     inkscape:window-height="1058"
     id="namedview113"
     showgrid="false"
     inkscape:zoom="0.16914286"
     inkscape:cx="875"
     inkscape:cy="173.08784"
     inkscape:window-x="-8"
     inkscape:window-y="-8"
     inkscape:window-maximized="1"
     inkscape:current-layer="svg2" />
  <!--Generated by the Batik Graphics2D SVG Generator-->
  <defs
     id="genericDefs" />
  <g
     id="g5"
     transform="translate(370,3.8594)">
    <g
       font-size="0.75px"
       transform="matrix(50,0,0,50,180,29.09)"
       id="g7"
       style="font-size:0.75px;font-family:sans-serif;fill:#b20000;stroke:#b20000">
      <path
         d="m -0.2062,0.1044 q -0.0648,0.0597 -0.1249,0.0597 -0.0494,0 -0.082,-0.0309 -0.0326,-0.031 -0.0326,-0.0782 0,-0.0652 0.0548,-0.1002 0.0547,-0.0349 0.1569,-0.0349 l 0.0172,0 0,-0.048 q 0,-0.0692 -0.071,-0.0692 -0.0572,0 -0.1235,0.0351 l 0,-0.0597 q 0.0729,-0.0296 0.1366,-0.0296 0.0667,0 0.0984,0.03 0.0316,0.03 0.0316,0.0934 l 0,0.1802 q 0,0.0618 0.0381,0.0618 0.0048,0 0.0139,-0.0014 l 0.0052,0.0399 q -0.0246,0.0117 -0.0542,0.0117 -0.0506,0 -0.0645,-0.0597 z m -0.0106,-0.0392 0,-0.1029 -0.0242,-7e-4 q -0.0593,0 -0.0959,0.0225 -0.0366,0.0225 -0.0366,0.0592 0,0.026 0.0183,0.0439 0.0183,0.018 0.0447,0.018 0.045,0 0.0937,-0.04 z m 0.4186,0.0898 0,-0.1897 -0.1897,0 0,-0.0542 0.1897,0 0,-0.1897 0.0542,0 0,0.1897 0.1897,0 0,0.0542 -0.1897,0 0,0.1897 z"
         id="path9"
         inkscape:connector-curvature="0"
         style="stroke:none" />
    </g>
    <g
       font-size="0.75px"
       transform="matrix(50,0,0,50,180,329.0906)"
       id="g11"
       style="font-size:0.75px;font-family:sans-serif;fill:#b20000;stroke:#b20000">
      <path
         d="m -0.1384,0.0949 q -0.0648,0.0597 -0.1249,0.0597 -0.0494,0 -0.082,-0.0309 -0.0326,-0.031 -0.0326,-0.0782 0,-0.0652 0.0547,-0.1002 0.0548,-0.0349 0.1569,-0.0349 l 0.0173,0 0,-0.048 q 0,-0.0692 -0.0711,-0.0692 -0.0571,0 -0.1234,0.0351 l 0,-0.0597 q 0.0729,-0.0296 0.1366,-0.0296 0.0666,0 0.0983,0.03 0.0317,0.03 0.0317,0.0934 l 0,0.1802 q 0,0.0619 0.0381,0.0619 0.0047,0 0.0139,-0.0015 l 0.0051,0.0399 q -0.0245,0.0117 -0.0542,0.0117 -0.0505,0 -0.0644,-0.0597 z m -0.0106,-0.0391 0,-0.1029 -0.0242,-8e-4 q -0.0593,0 -0.096,0.0225 -0.0366,0.0226 -0.0366,0.0592 0,0.026 0.0183,0.0439 0.0183,0.018 0.0447,0.018 0.045,0 0.0938,-0.0399 z m 0.2017,-0.1 0,-0.0542 0.3252,0 0,0.0542 z"
         id="path13"
         inkscape:connector-curvature="0"
         style="stroke:none" />
    </g>
    <g
       font-size="0.75px"
       transform="matrix(50,0,0,50,830,29.0906)"
       id="g15"
       style="font-size:0.75px;font-family:sans-serif;fill:#0000b2;stroke:#0000b2">
      <path
         d="m -0.4574,0.21 0,-0.5827 0.0721,0 0,0.2553 q 0.0444,-0.0835 0.133,-0.0835 0.0718,0 0.113,0.0524 0.0412,0.0523 0.0412,0.1432 0,0.0988 -0.0467,0.1594 -0.0467,0.0606 -0.1229,0.0606 -0.0707,0 -0.1176,-0.0542 L -0.394,0.21 Z m 0.0721,-0.0993 q 0.0557,0.0498 0.1062,0.0498 0.1041,0 0.1041,-0.1585 0,-0.1399 -0.0923,-0.1399 -0.0605,0 -0.118,0.0655 z m 0.5988,0.0949 0,-0.1897 -0.1897,0 0,-0.0542 0.1897,0 0,-0.1897 0.0542,0 0,0.1897 0.1897,0 0,0.0542 -0.1897,0 0,0.1897 z"
         id="path17"
         inkscape:connector-curvature="0"
         style="stroke:none" />
    </g>
    <g
       font-size="0.75px"
       transform="matrix(50,0,0,50,842.5,329.0906)"
       id="g19"
       style="font-size:0.75px;font-family:sans-serif;fill:#0000b2;stroke:#0000b2">
      <path
         d="m -0.3896,0.21 0,-0.5827 0.0721,0 0,0.2553 q 0.0443,-0.0835 0.1329,-0.0835 0.0718,0 0.113,0.0524 0.0412,0.0523 0.0412,0.1432 0,0.0988 -0.0467,0.1594 -0.0467,0.0606 -0.1229,0.0606 -0.0706,0 -0.1175,-0.0542 L -0.3263,0.21 Z m 0.0721,-0.0993 q 0.0557,0.0498 0.1062,0.0498 0.104,0 0.104,-0.1585 0,-0.1399 -0.0923,-0.1399 -0.0604,0 -0.1179,0.0655 z m 0.382,-0.0948 0,-0.0542 0.3251,0 0,0.0542 z"
         id="path21"
         inkscape:connector-curvature="0"
         style="stroke:none" />
    </g>
    <g
       font-size="0.75px"
       transform="matrix(50,0,0,50,30,179.0906)"
       id="g23"
       style="font-size:0.75px;font-family:sans-serif;fill:#ffffff;stroke:#ffffff">
      <circle
         cx="0"
         cy="0"
         r="0.44999999"
         id="circle25"
         style="stroke:none" />
      <circle
         cx="0"
         cy="0"
         r="0.44999999"
         id="circle27"
         style="fill:none;stroke:#000000;stroke-width:0.1" />
      <circle
         cx="0"
         cy="0"
         r="0.26320001"
         id="circle29"
         style="fill:#000000;stroke:none;stroke-width:0.1" />
    </g>
    <g
       font-size="0.5px"
       font-style="italic"
       transform="matrix(50,0,0,50,30,179.0906)"
       id="g31"
       style="font-style:italic;font-size:0.5px;font-family:sans-serif;fill:#0000b2;stroke:#0000b2;stroke-width:0.1">
      <path
         d="m -0.2566,-0.8701 q -0.0511,0.0398 -0.0912,0.0398 -0.0329,0 -0.0505,-0.0206 -0.0176,-0.0206 -0.0113,-0.0521 0.0086,-0.0435 0.0498,-0.0668 0.0412,-0.0233 0.1093,-0.0233 l 0.0115,0 0.0064,-0.032 q 0.0092,-0.0461 -0.0382,-0.0461 -0.0381,0 -0.0869,0.0234 l 0.0079,-0.0398 q 0.0526,-0.0198 0.095,-0.0198 0.0445,0 0.0616,0.02 0.0171,0.0201 0.0087,0.0623 l -0.0241,0.1201 q -0.0082,0.0413 0.0172,0.0413 0.0031,0 0.0094,-0.001 l -0.0019,0.0266 q -0.0179,0.0078 -0.0377,0.0078 -0.0336,0 -0.035,-0.0398 z m -0.0018,-0.0261 0.0137,-0.0686 -0.016,-5e-4 q -0.0396,0 -0.067,0.015 -0.0274,0.015 -0.0323,0.0395 -0.0035,0.0173 0.0064,0.0293 0.0098,0.0119 0.0274,0.0119 0.03,0 0.0678,-0.0266 z m 0.0696,0.1441 0.0072,-0.0362 0.25,0 -0.0072,0.0362 z M 0.2329,-0.8273 Q 0.177,-0.8273 0.153,-0.88 0.129,-0.9326 0.1459,-1.0173 0.163,-1.1027 0.2082,-1.1547 q 0.0452,-0.052 0.1021,-0.052 0.0569,0 0.0813,0.052 0.0243,0.052 0.0074,0.1367 -0.0174,0.0869 -0.0625,0.1388 -0.0452,0.0519 -0.1036,0.0519 z m 0.0077,-0.0362 q 0.0765,0 0.1075,-0.1552 0.0304,-0.1519 -0.045,-0.1519 -0.0752,0 -0.1059,0.1533 -0.0308,0.1538 0.0434,0.1538 z"
         id="path33"
         inkscape:connector-curvature="0"
         style="stroke:none" />
    </g>
    <g
       font-size="0.5px"
       font-style="italic"
       transform="matrix(50,0,0,50,330,179.0906)"
       id="g35"
       style="font-style:italic;font-size:0.5px;font-family:sans-serif;fill:#ffffff;stroke:#ffffff;stroke-width:0.1">
      <circle
         cx="0"
         cy="0"
         r="0.44999999"
         id="circle37"
         style="stroke:none" />
      <circle
         cx="0"
         cy="0"
         r="0.44999999"
         id="circle39"
         style="fill:none;stroke:#000000" />
      <path
         d="m -0.2252,-0.8701 q -0.0512,0.0398 -0.0913,0.0398 -0.0329,0 -0.0505,-0.0206 -0.0176,-0.0206 -0.0113,-0.0521 0.0087,-0.0435 0.0498,-0.0668 0.0412,-0.0233 0.1093,-0.0233 l 0.0115,0 0.0064,-0.032 q 0.0092,-0.0461 -0.0382,-0.0461 -0.038,0 -0.0869,0.0234 l 0.0079,-0.0398 q 0.0526,-0.0198 0.0951,-0.0198 0.0444,0 0.0615,0.02 0.0171,0.0201 0.0087,0.0623 l -0.024,0.1201 q -0.0083,0.0413 0.0171,0.0413 0.0032,0 0.0095,-0.001 l -0.0019,0.0266 q -0.018,0.0078 -0.0377,0.0078 -0.0337,0 -0.035,-0.0398 z m -0.0019,-0.0261 0.0137,-0.0686 -0.016,-5e-4 q -0.0395,0 -0.067,0.015 -0.0274,0.015 -0.0323,0.0395 -0.0034,0.0173 0.0064,0.0293 0.0098,0.0119 0.0274,0.0119 0.03,0 0.0678,-0.0266 z m 0.0696,0.1441 0.0072,-0.0362 0.25,0 -0.0072,0.0362 z m 0.342,-0.0843 0.0072,-0.0361 0.0723,0 0.057,-0.2852 -0.0758,0.0181 0.0074,-0.0371 0.1266,-0.03 -0.0668,0.3342 0.0722,0 -0.0072,0.0361 z"
         id="path41"
         inkscape:connector-curvature="0"
         style="fill:#0000b2;stroke:none" />
    </g>
    <g
       font-size="0.5px"
       font-style="italic"
       transform="matrix(50,0,0,50,980,179.0906)"
       id="g43"
       style="font-style:italic;font-size:0.5px;font-family:sans-serif;fill:#ffffff;stroke:#ffffff;stroke-width:0.1">
      <circle
         cx="0"
         cy="0"
         r="0.44999999"
         id="circle45"
         style="stroke:none" />
      <circle
         cx="0"
         cy="0"
         r="0.44999999"
         id="circle47"
         style="fill:none;stroke:#000000" />
      <path
         d="m -0.3962,-0.838 0.0776,-0.3884 0.0481,0 -0.034,0.1702 q 0.0407,-0.0557 0.0998,-0.0557 0.0478,0 0.0683,0.0349 0.0205,0.0349 0.0084,0.0955 -0.0132,0.0659 -0.0524,0.1063 -0.0392,0.0404 -0.09,0.0404 -0.0471,0 -0.0712,-0.0361 L -0.354,-0.838 Z m 0.0613,-0.0662 q 0.0305,0.0333 0.0641,0.0333 0.0694,0 0.0905,-0.1058 0.0187,-0.0932 -0.0428,-0.0932 -0.0403,0 -0.0874,0.0437 z m 0.189,0.1475 0.0072,-0.0361 0.25,0 -0.0072,0.0361 z m 0.342,-0.0842 0.0073,-0.0362 0.0722,0 0.0571,-0.2851 -0.0759,0.0181 0.0074,-0.0371 0.1266,-0.0301 -0.0668,0.3342 0.0722,0 -0.0072,0.0362 z"
         id="path49"
         inkscape:connector-curvature="0"
         style="fill:#0000b2;stroke:none" />
    </g>
    <g
       font-size="0.5px"
       font-style="italic"
       transform="matrix(50,0,0,50,680,179.0906)"
       id="g51"
       style="font-style:italic;font-size:0.5px;font-family:sans-serif;fill:#ffffff;stroke:#ffffff;stroke-width:0.1">
      <circle
         cx="0"
         cy="0"
         r="0.44999999"
         id="circle53"
         style="stroke:none" />
      <circle
         cx="0"
         cy="0"
         r="0.44999999"
         id="circle55"
         style="fill:none;stroke:#000000" />
      <circle
         cx="0"
         cy="0"
         r="0.26320001"
         id="circle57"
         style="fill:#000000;stroke:none" />
      <path
         d="m -0.4276,-0.838 0.0777,-0.3884 0.0481,0 -0.034,0.1702 q 0.0407,-0.0557 0.0997,-0.0557 0.0479,0 0.0684,0.0349 0.0205,0.0349 0.0083,0.0955 -0.0131,0.0659 -0.0523,0.1063 -0.0393,0.0404 -0.09,0.0404 -0.0472,0 -0.0712,-0.0361 l -0.0124,0.0329 z m 0.0614,-0.0662 q 0.0304,0.0333 0.0641,0.0333 0.0694,0 0.0905,-0.1058 0.0187,-0.0932 -0.0429,-0.0932 -0.0403,0 -0.0873,0.0437 z m 0.189,0.1475 0.0072,-0.0361 0.25,0 -0.0072,0.0361 z m 0.4218,-0.0752 q -0.056,0 -0.08,-0.0526 -0.024,-0.0526 -0.0071,-0.1373 0.0171,-0.0855 0.0623,-0.1375 0.0452,-0.052 0.1021,-0.052 0.0569,0 0.0813,0.052 0.0244,0.052 0.0074,0.1367 -0.0174,0.087 -0.0625,0.1388 -0.0452,0.0519 -0.1035,0.0519 z M 0.2523,-0.868 q 0.0764,0 0.1074,-0.1553 0.0304,-0.1518 -0.045,-0.1518 -0.0752,0 -0.1059,0.1533 -0.0307,0.1538 0.0435,0.1538 z"
         id="path59"
         inkscape:connector-curvature="0"
         style="fill:#0000b2;stroke:none" />
    </g>
    <g
       font-size="0.5px"
       font-style="italic"
       transform="matrix(50,0,0,50,680,429.0906)"
       id="g61"
       style="font-style:italic;font-size:0.5px;font-family:sans-serif;stroke-width:0.02">
      <path
         d="m -9.6122,-7.6122 1.9758,1.9758"
         id="path63"
         inkscape:connector-curvature="0"
         style="fill:none" />
      <path
         d="m -7.5834,-5.6894 -0.106,0.106 0.3358,0.2298 z"
         id="path65"
         inkscape:connector-curvature="0"
         style="stroke:none" />
    </g>
    <g
       font-size="0.5px"
       font-style="italic"
       transform="matrix(50,0,0,50,680,429.0906)"
       id="g67"
       style="font-style:italic;font-size:0.5px;font-family:sans-serif;stroke-width:0.02">
      <path
         d="M -7.3536,-4.6464 -9.347,-2.653"
         id="path69"
         inkscape:connector-curvature="0"
         style="fill:none" />
      <path
         d="M -9.294,-2.6 -9.4,-2.706 -9.6298,-2.3702 Z"
         id="path71"
         inkscape:connector-curvature="0"
         style="stroke:none" />
    </g>
    <g
       font-size="0.5px"
       font-style="italic"
       transform="matrix(50,0,0,50,680,429.0906)"
       id="g73"
       style="font-style:italic;font-size:0.5px;font-family:sans-serif;stroke-width:0.02">
      <path
         d="m -10.3702,-2.3702 -1.9934,-1.9934"
         id="path75"
         inkscape:connector-curvature="0"
         style="fill:none" />
      <path
         d="m -12.4166,-4.3106 0.106,-0.106 -0.3358,-0.2298 z"
         id="path77"
         inkscape:connector-curvature="0"
         style="stroke:none" />
    </g>
    <g
       font-size="0.5px"
       font-style="italic"
       transform="matrix(50,0,0,50,680,429.0906)"
       id="g79"
       style="font-style:italic;font-size:0.5px;font-family:sans-serif;stroke-width:0.02">
      <path
         d="m -12.6464,-5.3536 1.9758,-1.9758"
         id="path81"
         inkscape:connector-curvature="0"
         style="fill:none" />
      <path
         d="m -10.7237,-7.3824 0.1061,0.1061 0.2298,-0.3359 z"
         id="path83"
         inkscape:connector-curvature="0"
         style="stroke:none" />
    </g>
    <g
       font-size="0.5px"
       font-style="italic"
       transform="matrix(50,0,0,50,680,429.0906)"
       id="g85"
       style="font-style:italic;font-size:0.5px;font-family:sans-serif;stroke-width:0.02">
      <path
         d="m 3.4818,-7.5182 1.8818,1.8818"
         id="path87"
         inkscape:connector-curvature="0"
         style="fill:none" />
      <path
         d="m 5.4166,-5.6894 -0.106,0.106 0.3358,0.2298 z"
         id="path89"
         inkscape:connector-curvature="0"
         style="stroke:none" />
    </g>
    <g
       font-size="0.5px"
       font-style="italic"
       transform="matrix(50,0,0,50,680,429.0906)"
       id="g91"
       style="font-style:italic;font-size:0.5px;font-family:sans-serif;stroke-width:0.02">
      <path
         d="M 5.6621,-4.6314 3.962,-2.7767"
         id="path93"
         inkscape:connector-curvature="0"
         style="fill:none" />
      <path
         d="M 4.0172,-2.726 3.9067,-2.8274 3.6917,-2.4818 Z"
         id="path95"
         inkscape:connector-curvature="0"
         style="stroke:none" />
    </g>
    <g
       font-size="0.5px"
       font-style="italic"
       transform="matrix(50,0,0,50,680,429.0906)"
       id="g97"
       style="font-style:italic;font-size:0.5px;font-family:sans-serif;stroke-width:0.02">
      <path
         d="M 2.7604,-2.452 0.6613,-4.3895"
         id="path99"
         inkscape:connector-curvature="0"
         style="fill:none" />
      <path
         d="M 0.6105,-4.3344 0.7122,-4.4447 0.3674,-4.6609 Z"
         id="path101"
         inkscape:connector-curvature="0"
         style="stroke:none" />
    </g>
    <g
       font-size="0.5px"
       font-style="italic"
       transform="matrix(50,0,0,50,680,429.0906)"
       id="g103"
       style="font-style:italic;font-size:0.5px;font-family:sans-serif;stroke-width:0.02">
      <path
         d="M 0.3536,-5.3536 2.2353,-7.2353"
         id="path105"
         inkscape:connector-curvature="0"
         style="fill:none" />
      <path
         d="m 2.1823,-7.2884 0.1061,0.1061 0.2298,-0.3359 z"
         id="path107"
         inkscape:connector-curvature="0"
         style="stroke:none" />
    </g>
    <g
       font-size="0.5px"
       font-style="italic"
       transform="matrix(50,0,0,50,680,429.0906)"
       id="g109"
       style="font-style:italic;font-size:0.5px;font-family:sans-serif;stroke-width:0.05">
      <path
         d="m -7,-4.5 0,2.5 9.7603,0"
         id="path111"
         inkscape:connector-curvature="0"
         style="fill:none" />
    </g>
  </g>
</svg>
