<?xml version="1.0" encoding="UTF-8" standalone="no"?>
<svg
   xmlns:dc="http://purl.org/dc/elements/1.1/"
   xmlns:cc="http://creativecommons.org/ns#"
   xmlns:rdf="http://www.w3.org/1999/02/22-rdf-syntax-ns#"
   xmlns:svg="http://www.w3.org/2000/svg"
   xmlns="http://www.w3.org/2000/svg"
   xmlns:sodipodi="http://sodipodi.sourceforge.net/DTD/sodipodi-0.dtd"
   xmlns:inkscape="http://www.inkscape.org/namespaces/inkscape"
   font-size="12px"
   font-style="normal"
   font-weight="normal"
   height="429"
   stroke-miterlimit="10"
   width="1750"
   id="svg2"
   version="1.1"
   inkscape:version="0.91 r13725"
   sodipodi:docname="s-r-latch1.svg"
   style="font-style:normal;font-weight:normal;font-size:12px;font-family:Dialog;color-interpolation:auto;fill:#000000;fill-opacity:1;stroke:#000000;stroke-width:1;stroke-linecap:square;stroke-linejoin:miter;stroke-miterlimit:10;stroke-dasharray:none;stroke-dashoffset:0;stroke-opacity:1;color-rendering:auto;image-rendering:auto;shape-rendering:auto;text-rendering:auto">
  <metadata
     id="metadata177">
    <rdf:RDF>
      <cc:Work
         rdf:about="">
        <dc:format>image/svg+xml</dc:format>
        <dc:type
           rdf:resource="http://purl.org/dc/dcmitype/StillImage" />
        <dc:title></dc:title>
      </cc:Work>
    </rdf:RDF>
  </metadata>
  <sodipodi:namedview
     pagecolor="#ffffff"
     bordercolor="#666666"
     borderopacity="1"
     objecttolerance="10"
     gridtolerance="10"
     guidetolerance="10"
     inkscape:pageopacity="0"
     inkscape:pageshadow="2"
     inkscape:window-width="1676"
     inkscape:window-height="1005"
     id="namedview175"
     showgrid="false"
     inkscape:zoom="0.22794118"
     inkscape:cx="131.6129"
     inkscape:cy="214.5"
     inkscape:window-x="4"
     inkscape:window-y="1"
     inkscape:window-maximized="1"
     inkscape:current-layer="svg2" />
  <!--Generated by the Batik Graphics2D SVG Generator-->
  <defs
     id="genericDefs" />
  <g
     id="g5"
     transform="translate(195,-0.5)">
    <g
       font-size="0.75px"
       transform="matrix(50,0,0,50,180,65)"
       id="g7"
       style="font-size:0.75px;font-family:sans-serif;fill:#b20000;stroke:#b20000">
      <path
         d="m -0.2997,0.1641 q -0.0495,0 -0.1202,-0.0231 l 0,-0.0662 q 0.0707,0.0351 0.1231,0.0351 0.0311,0 0.0516,-0.0168 0.0205,-0.0169 0.0205,-0.0421 0,-0.037 -0.0575,-0.0612 l -0.0421,-0.0179 q -0.0934,-0.0389 -0.0934,-0.1117 0,-0.052 0.0368,-0.0819 0.0368,-0.0298 0.1009,-0.0298 0.0334,0 0.0824,0.0091 l 0.015,0.003 0,0.06 q -0.0604,-0.0179 -0.0959,-0.0179 -0.0696,0 -0.0696,0.0505 0,0.0326 0.0528,0.0549 l 0.0347,0.0147 q 0.059,0.0249 0.0835,0.0525 0.0246,0.0277 0.0246,0.0691 0,0.0523 -0.0414,0.086 -0.0414,0.0337 -0.1058,0.0337 z M 0.176,0.155 l 0,-0.1897 -0.1897,0 0,-0.0542 0.1897,0 0,-0.1897 0.0542,0 0,0.1897 0.1897,0 0,0.0542 -0.1897,0 0,0.1897 z"
         id="path9"
         inkscape:connector-curvature="0"
         style="stroke:none" />
    </g>
    <g
       font-size="0.75px"
       transform="matrix(50,0,0,50,680,65)"
       id="g11"
       style="font-size:0.75px;font-family:sans-serif;fill:#b20000;stroke:#b20000">
      <path
         d="m -0.3748,0.1518 0,-0.3977 0.0721,0 0,0.0747 q 0.0429,-0.0835 0.1245,-0.0835 0.011,0 0.0231,0.0018 l 0,0.0674 q -0.0187,-0.0062 -0.0329,-0.0062 -0.0685,0 -0.1147,0.0813 l 0,0.2622 z m 0.5057,0 0,-0.1897 -0.1897,0 0,-0.0542 0.1897,0 0,-0.1897 0.0542,0 0,0.1897 0.1897,0 0,0.0542 -0.1897,0 0,0.1897 z"
         id="path13"
         inkscape:connector-curvature="0"
         style="stroke:none" />
    </g>
    <g
       font-size="0.75px"
       transform="matrix(50,0,0,50,1180,65)"
       id="g15"
       style="font-size:0.75px;font-family:sans-serif;fill:#0000b2;stroke:#0000b2">
      <path
         d="m -0.1864,0.347 0,-0.2193 q -0.0439,0.0838 -0.1326,0.0838 -0.0717,0 -0.1129,-0.0523 -0.0412,-0.0524 -0.0412,-0.1432 0,-0.0993 0.0466,-0.1597 0.0467,-0.0604 0.1229,-0.0604 0.0707,0 0.1172,0.0542 l 0,-0.0454 0.0725,0 0,0.5423 z m 0,-0.4475 q -0.056,-0.0494 -0.1062,-0.0494 -0.1036,0 -0.1036,0.1586 0,0.1395 0.0922,0.1395 0.0601,0 0.1176,-0.0656 z m 0.4156,0.3029 0,-0.1897 -0.1896,0 0,-0.0542 0.1896,0 0,-0.1897 0.0542,0 0,0.1897 0.1897,0 0,0.0542 -0.1897,0 0,0.1897 z"
         id="path17"
         inkscape:connector-curvature="0"
         style="stroke:none" />
    </g>
    <g
       font-size="0.75px"
       transform="matrix(50,0,0,50,180,365)"
       id="g19"
       style="font-size:0.75px;font-family:sans-serif;fill:#b20000;stroke:#b20000">
      <path
         d="m -0.232,0.1546 q -0.0494,0 -0.1201,-0.023 l 0,-0.0663 q 0.0707,0.0351 0.123,0.0351 0.0312,0 0.0517,-0.0168 0.0205,-0.0169 0.0205,-0.0421 0,-0.037 -0.0575,-0.0612 l -0.0421,-0.0179 q -0.0934,-0.0388 -0.0934,-0.1117 0,-0.052 0.0368,-0.0819 0.0368,-0.0298 0.1009,-0.0298 0.0333,0 0.0824,0.0091 l 0.015,0.003 0,0.06 q -0.0604,-0.0179 -0.096,-0.0179 -0.0695,0 -0.0695,0.0505 0,0.0326 0.0527,0.055 l 0.0348,0.0146 q 0.0589,0.0249 0.0835,0.0526 0.0245,0.0276 0.0245,0.069 0,0.0523 -0.0414,0.086 -0.0413,0.0337 -0.1058,0.0337 z m 0.2589,-0.1988 0,-0.0542 0.3252,0 0,0.0542 z"
         id="path21"
         inkscape:connector-curvature="0"
         style="stroke:none" />
    </g>
    <g
       font-size="0.75px"
       transform="matrix(50,0,0,50,680,365)"
       id="g23"
       style="font-size:0.75px;font-family:sans-serif;fill:#b20000;stroke:#b20000">
      <path
         d="m -0.3071,0.1423 0,-0.3977 0.0722,0 0,0.0747 q 0.0428,-0.0835 0.1245,-0.0835 0.011,0 0.0231,0.0018 l 0,0.0674 q -0.0187,-0.0062 -0.033,-0.0062 -0.0685,0 -0.1146,0.0813 l 0,0.2622 z m 0.289,-0.1897 0,-0.0542 0.3252,0 0,0.0542 z"
         id="path25"
         inkscape:connector-curvature="0"
         style="stroke:none" />
    </g>
    <g
       font-size="0.75px"
       transform="matrix(50,0,0,50,1180,365)"
       id="g27"
       style="font-size:0.75px;font-family:sans-serif;fill:#0000b2;stroke:#0000b2">
      <path
         d="m -0.1187,0.3376 0,-0.2194 q -0.0439,0.0839 -0.1325,0.0839 -0.0718,0 -0.113,-0.0524 -0.0412,-0.0524 -0.0412,-0.1432 0,-0.0992 0.0467,-0.1597 0.0467,-0.0604 0.1229,-0.0604 0.0706,0 0.1171,0.0542 l 0,-0.0454 0.0726,0 0,0.5424 z m 0,-0.4476 q -0.056,-0.0494 -0.1062,-0.0494 -0.1036,0 -0.1036,0.1586 0,0.1395 0.0923,0.1395 0.0601,0 0.1175,-0.0655 z m 0.1989,0.1132 0,-0.0542 0.3252,0 0,0.0542 z"
         id="path29"
         inkscape:connector-curvature="0"
         style="stroke:none" />
    </g>
    <g
       font-size="0.75px"
       transform="matrix(50,0,0,50,30,215)"
       id="g31"
       style="font-size:0.75px;font-family:sans-serif;fill:#ffffff;stroke:#ffffff">
      <circle
         cx="0"
         cy="0"
         r="0.44999999"
         id="circle33"
         style="stroke:none" />
      <circle
         cx="0"
         cy="0"
         r="0.44999999"
         id="circle35"
         style="fill:none;stroke:#000000;stroke-width:0.1" />
      <circle
         cx="0"
         cy="0"
         r="0.26320001"
         id="circle37"
         style="fill:#000000;stroke:none;stroke-width:0.1" />
    </g>
    <g
       font-size="0.5px"
       font-style="italic"
       transform="matrix(50,0,0,50,30,215)"
       id="g39"
       style="font-style:italic;font-size:0.5px;font-family:sans-serif;stroke-width:0.1">
      <path
         d="m -0.3243,1.1607 q -0.033,0 -0.077,-0.0154 l 0.0088,-0.0442 q 0.0425,0.0235 0.0774,0.0235 0.0207,0 0.0366,-0.0113 0.016,-0.0112 0.0193,-0.028 0.005,-0.0247 -0.0302,-0.0408 L -0.315,1.0325 Q -0.3721,1.0066 -0.3624,0.9581 -0.3555,0.9234 -0.327,0.9035 q 0.0286,-0.0199 0.0713,-0.0199 0.0222,0 0.0537,0.0061 l 0.0096,0.002 -0.008,0.04 q -0.0379,-0.012 -0.0616,-0.012 -0.0463,0 -0.0531,0.0337 -0.0043,0.0217 0.0278,0.0366 l 0.0213,0.0098 q 0.036,0.0166 0.0486,0.035 0.0127,0.0185 0.0072,0.0461 -0.007,0.0349 -0.0391,0.0573 -0.032,0.0225 -0.075,0.0225 z m 0.1208,0.0781 0.0073,-0.0361 0.25,0 -0.0073,0.0361 z M 0.2183,1.1636 Q 0.1624,1.1636 0.1384,1.111 0.1144,1.0584 0.1313,0.9737 0.1484,0.8882 0.1936,0.8362 q 0.0452,-0.052 0.1021,-0.052 0.0568,0 0.0812,0.052 0.0244,0.052 0.0075,0.1367 Q 0.367,1.0599 0.3218,1.1117 0.2767,1.1636 0.2183,1.1636 Z M 0.226,1.1275 q 0.0764,0 0.1075,-0.1553 0.0304,-0.1518 -0.0451,-0.1518 -0.0752,0 -0.1058,0.1533 -0.0308,0.1538 0.0434,0.1538 z"
         id="path41"
         inkscape:connector-curvature="0"
         style="stroke:none" />
    </g>
    <g
       font-size="0.5px"
       font-style="italic"
       transform="matrix(50,0,0,50,330,215)"
       id="g43"
       style="font-style:italic;font-size:0.5px;font-family:sans-serif;fill:#ffffff;stroke:#ffffff;stroke-width:0.1">
      <circle
         cx="0"
         cy="0"
         r="0.44999999"
         id="circle45"
         style="stroke:none" />
      <circle
         cx="0"
         cy="0"
         r="0.44999999"
         id="circle47"
         style="fill:none;stroke:#000000" />
      <path
         d="m -0.293,1.1607 q -0.033,0 -0.077,-0.0154 l 0.0088,-0.0442 q 0.0425,0.0235 0.0774,0.0235 0.0207,0 0.0367,-0.0113 0.0159,-0.0112 0.0192,-0.028 0.005,-0.0247 -0.0301,-0.0408 l -0.0257,-0.012 q -0.0571,-0.0259 -0.0474,-0.0744 0.007,-0.0347 0.0355,-0.0546 0.0285,-0.0199 0.0712,-0.0199 0.0222,0 0.0537,0.0061 l 0.0096,0.002 -0.008,0.04 q -0.0379,-0.012 -0.0615,-0.012 -0.0464,0 -0.0532,0.0337 -0.0043,0.0217 0.0279,0.0366 l 0.0212,0.0098 q 0.036,0.0166 0.0487,0.035 0.0126,0.0185 0.0071,0.0461 -0.007,0.0349 -0.039,0.0573 Q -0.25,1.1607 -0.293,1.1607 Z m 0.1209,0.0781 0.0072,-0.0361 0.25,0 -0.0072,0.0361 z m 0.342,-0.0842 0.0072,-0.0361 0.0723,0 L 0.3064,0.8333 0.2305,0.8514 0.238,0.8143 0.3646,0.7842 0.2977,1.1185 l 0.0723,0 -0.0072,0.0361 z"
         id="path49"
         inkscape:connector-curvature="0"
         style="fill:#595959;stroke:none" />
    </g>
    <g
       font-size="0.5px"
       font-style="italic"
       transform="matrix(50,0,0,50,530,215)"
       id="g51"
       style="font-style:italic;font-size:0.5px;font-family:sans-serif;fill:#ffffff;stroke:#ffffff;stroke-width:0.1">
      <circle
         cx="0"
         cy="0"
         r="0.44999999"
         id="circle53"
         style="stroke:none" />
      <circle
         cx="0"
         cy="0"
         r="0.44999999"
         id="circle55"
         style="fill:none;stroke:#000000" />
      <circle
         cx="0"
         cy="0"
         r="0.26320001"
         id="circle57"
         style="fill:#000000;stroke:none" />
      <path
         d="m -0.3722,1.1546 0.053,-0.2651 0.0481,0 -0.01,0.0498 q 0.0397,-0.0557 0.0942,-0.0557 0.0073,0 0.0151,0.0012 l -0.009,0.0449 q -0.0116,-0.0041 -0.0211,-0.0041 -0.0457,0 -0.0873,0.0542 l -0.0349,0.1748 z m 0.1396,0.0842 0.0073,-0.0361 0.25,0 -0.0073,0.0361 z M 0.1892,1.1636 Q 0.1333,1.1636 0.1093,1.111 0.0853,1.0584 0.1022,0.9737 0.1193,0.8882 0.1645,0.8362 q 0.0452,-0.052 0.1021,-0.052 0.0568,0 0.0812,0.052 0.0244,0.052 0.0075,0.1367 Q 0.3379,1.0599 0.2927,1.1117 0.2476,1.1636 0.1892,1.1636 Z M 0.1969,1.1275 q 0.0764,0 0.1075,-0.1553 0.0304,-0.1518 -0.0451,-0.1518 -0.0752,0 -0.1058,0.1533 -0.0308,0.1538 0.0434,0.1538 z"
         id="path59"
         inkscape:connector-curvature="0"
         style="fill:#595959;stroke:none" />
    </g>
    <g
       font-size="0.5px"
       font-style="italic"
       transform="matrix(50,0,0,50,830,215)"
       id="g61"
       style="font-style:italic;font-size:0.5px;font-family:sans-serif;fill:#ffffff;stroke:#ffffff;stroke-width:0.1">
      <circle
         cx="0"
         cy="0"
         r="0.44999999"
         id="circle63"
         style="stroke:none" />
      <circle
         cx="0"
         cy="0"
         r="0.44999999"
         id="circle65"
         style="fill:none;stroke:#000000" />
      <path
         d="m -0.3409,1.1546 0.053,-0.2651 0.0481,0 -0.0099,0.0498 q 0.0397,-0.0557 0.0941,-0.0557 0.0073,0 0.0151,0.0012 l -0.0089,0.0449 q -0.0117,-0.0041 -0.0212,-0.0041 -0.0456,0 -0.0872,0.0542 l -0.035,0.1748 z m 0.1397,0.0842 0.0072,-0.0361 0.25,0 -0.0072,0.0361 z m 0.342,-0.0842 0.0072,-0.0361 0.0723,0 0.057,-0.2852 -0.0759,0.0181 0.0075,-0.0371 0.1266,-0.0301 -0.0669,0.3343 0.0723,0 -0.0072,0.0361 z"
         id="path67"
         inkscape:connector-curvature="0"
         style="fill:#595959;stroke:none" />
    </g>
    <g
       font-size="0.5px"
       font-style="italic"
       transform="matrix(50,0,0,50,1030,215)"
       id="g69"
       style="font-style:italic;font-size:0.5px;font-family:sans-serif;fill:#ffffff;stroke:#ffffff;stroke-width:0.1">
      <circle
         cx="0"
         cy="0"
         r="0.44999999"
         id="circle71"
         style="stroke:none" />
      <circle
         cx="0"
         cy="0"
         r="0.44999999"
         id="circle73"
         style="fill:none;stroke:#000000" />
      <circle
         cx="0"
         cy="0"
         r="0.26320001"
         id="circle75"
         style="fill:#000000;stroke:none" />
      <path
         d="M -0.2723,1.2632 -0.243,1.117 q -0.0405,0.0559 -0.0996,0.0559 -0.0478,0 -0.0683,-0.0349 -0.0205,-0.0349 -0.0084,-0.0955 0.0132,-0.0661 0.0524,-0.1064 0.0392,-0.0403 0.09,-0.0403 0.0471,0 0.0709,0.0361 l 0.006,-0.0302 0.0484,0 -0.0723,0.3615 z m 0.0597,-0.2983 q -0.0308,-0.033 -0.0642,-0.033 -0.0691,0 -0.0902,0.1057 -0.0186,0.0931 0.0429,0.0931 0.04,0 0.0871,-0.0437 z m 0.0392,0.2861 0.0072,-0.0361 0.25,0 L 0.0766,1.251 Z M 0.2484,1.1758 Q 0.1925,1.1758 0.1685,1.1232 0.1444,1.0706 0.1614,0.9859 0.1785,0.9004 0.2237,0.8484 q 0.0451,-0.052 0.102,-0.052 0.0569,0 0.0813,0.052 0.0244,0.052 0.0075,0.1368 Q 0.3971,1.0721 0.3519,1.124 0.3067,1.1758 0.2484,1.1758 Z M 0.2561,1.1397 q 0.0764,0 0.1075,-0.1553 0.0303,-0.1518 -0.0451,-0.1518 -0.0752,0 -0.1059,0.1533 -0.0307,0.1538 0.0435,0.1538 z"
         id="path77"
         inkscape:connector-curvature="0"
         style="fill:#595959;stroke:none" />
    </g>
    <g
       font-size="0.5px"
       font-style="italic"
       transform="matrix(50,0,0,50,1330,215)"
       id="g79"
       style="font-style:italic;font-size:0.5px;font-family:sans-serif;fill:#ffffff;stroke:#ffffff;stroke-width:0.1">
      <circle
         cx="0"
         cy="0"
         r="0.44999999"
         id="circle81"
         style="stroke:none" />
      <circle
         cx="0"
         cy="0"
         r="0.44999999"
         id="circle83"
         style="fill:none;stroke:#000000" />
      <path
         d="M -0.2409,1.2632 -0.2117,1.117 q -0.0405,0.0559 -0.0996,0.0559 -0.0478,0 -0.0683,-0.0349 -0.0205,-0.0349 -0.0084,-0.0955 0.0133,-0.0661 0.0525,-0.1064 0.0391,-0.0403 0.0899,-0.0403 0.0471,0 0.0709,0.0361 l 0.0061,-0.0302 0.0483,0 -0.0723,0.3615 z m 0.0596,-0.2983 q -0.0307,-0.033 -0.0642,-0.033 -0.0691,0 -0.0902,0.1057 -0.0186,0.0931 0.0429,0.0931 0.04,0 0.0871,-0.0437 z m 0.0392,0.2861 0.0073,-0.0361 0.25,0 L 0.1079,1.251 Z M 0.2,1.1668 0.2072,1.1307 l 0.0723,0 L 0.3365,0.8455 0.2606,0.8636 0.268,0.8265 0.3947,0.7964 0.3278,1.1307 l 0.0723,0 -0.0073,0.0361 z"
         id="path85"
         inkscape:connector-curvature="0"
         style="fill:#595959;stroke:none" />
    </g>
    <g
       font-size="0.5px"
       font-style="italic"
       transform="matrix(50,0,0,50,680,515)"
       id="g87"
       style="font-style:italic;font-size:0.5px;font-family:sans-serif;stroke-width:0.02">
      <path
         d="m -12.6464,-6.3536 1.9758,-1.9758"
         id="path89"
         inkscape:connector-curvature="0"
         style="fill:none" />
      <path
         d="m -10.7237,-8.3824 0.1061,0.1061 0.2298,-0.3359 z"
         id="path91"
         inkscape:connector-curvature="0"
         style="stroke:none" />
    </g>
    <g
       font-size="0.5px"
       font-style="italic"
       transform="matrix(50,0,0,50,680,515)"
       id="g93"
       style="font-style:italic;font-size:0.5px;font-family:sans-serif;stroke-width:0.02">
      <path
         d="m -9.6122,-8.6122 1.9758,1.9758"
         id="path95"
         inkscape:connector-curvature="0"
         style="fill:none" />
      <path
         d="m -7.5834,-6.6894 -0.106,0.106 0.3358,0.2298 z"
         id="path97"
         inkscape:connector-curvature="0"
         style="stroke:none" />
    </g>
    <g
       font-size="0.5px"
       font-style="italic"
       transform="matrix(50,0,0,50,680,515)"
       id="g99"
       style="font-style:italic;font-size:0.5px;font-family:sans-serif;stroke-width:0.02">
      <path
         d="M -7.3536,-5.6464 -9.347,-3.653"
         id="path101"
         inkscape:connector-curvature="0"
         style="fill:none" />
      <path
         d="M -9.294,-3.6 -9.4,-3.706 -9.6298,-3.3702 Z"
         id="path103"
         inkscape:connector-curvature="0"
         style="stroke:none" />
    </g>
    <g
       font-size="0.5px"
       font-style="italic"
       transform="matrix(50,0,0,50,680,515)"
       id="g105"
       style="font-style:italic;font-size:0.5px;font-family:sans-serif;stroke-width:0.02">
      <path
         d="m -10.3702,-3.3702 -1.9934,-1.9934"
         id="path107"
         inkscape:connector-curvature="0"
         style="fill:none" />
      <path
         d="m -12.4166,-5.3106 0.106,-0.106 -0.3358,-0.2298 z"
         id="path109"
         inkscape:connector-curvature="0"
         style="stroke:none" />
    </g>
    <g
       font-size="0.5px"
       font-style="italic"
       transform="matrix(50,0,0,50,680,515)"
       id="g111"
       style="font-style:italic;font-size:0.5px;font-family:sans-serif;stroke-width:0.02">
      <path
         d="m -2.6464,-6.3536 1.9817,-1.9817"
         id="path113"
         inkscape:connector-curvature="0"
         style="fill:none" />
      <path
         d="m -0.7177,-8.3884 0.1061,0.1061 0.2298,-0.3359 z"
         id="path115"
         inkscape:connector-curvature="0"
         style="stroke:none" />
    </g>
    <g
       font-size="0.5px"
       font-style="italic"
       transform="matrix(50,0,0,50,680,515)"
       id="g117"
       style="font-style:italic;font-size:0.5px;font-family:sans-serif;stroke-width:0.02">
      <path
         d="m 0.3818,-8.6182 1.9818,1.9818"
         id="path119"
         inkscape:connector-curvature="0"
         style="fill:none" />
      <path
         d="m 2.4166,-6.6894 -0.106,0.106 0.3358,0.2298 z"
         id="path121"
         inkscape:connector-curvature="0"
         style="stroke:none" />
    </g>
    <g
       font-size="0.5px"
       font-style="italic"
       transform="matrix(50,0,0,50,680,515)"
       id="g123"
       style="font-style:italic;font-size:0.5px;font-family:sans-serif;stroke-width:0.02">
      <path
         d="M 2.6464,-5.6464 0.6471,-3.6471"
         id="path125"
         inkscape:connector-curvature="0"
         style="fill:none" />
      <path
         d="M 0.7001,-3.594 0.594,-3.7001 0.3642,-3.3642 Z"
         id="path127"
         inkscape:connector-curvature="0"
         style="stroke:none" />
    </g>
    <g
       font-size="0.5px"
       font-style="italic"
       transform="matrix(50,0,0,50,680,515)"
       id="g129"
       style="font-style:italic;font-size:0.5px;font-family:sans-serif;stroke-width:0.02">
      <path
         d="M -0.3642,-3.3642 -2.3636,-5.3636"
         id="path131"
         inkscape:connector-curvature="0"
         style="fill:none" />
      <path
         d="m -2.4166,-5.3106 0.106,-0.106 -0.3358,-0.2298 z"
         id="path133"
         inkscape:connector-curvature="0"
         style="stroke:none" />
    </g>
    <g
       font-size="0.5px"
       font-style="italic"
       transform="matrix(50,0,0,50,680,515)"
       id="g135"
       style="font-style:italic;font-size:0.5px;font-family:sans-serif;stroke-width:0.02">
      <path
         d="M 7.3536,-6.3536 9.2413,-8.2413"
         id="path137"
         inkscape:connector-curvature="0"
         style="fill:none" />
      <path
         d="m 9.1883,-8.2943 0.106,0.106 0.2298,-0.3358 z"
         id="path139"
         inkscape:connector-curvature="0"
         style="stroke:none" />
    </g>
    <g
       font-size="0.5px"
       font-style="italic"
       transform="matrix(50,0,0,50,680,515)"
       id="g141"
       style="font-style:italic;font-size:0.5px;font-family:sans-serif;stroke-width:0.02">
      <path
         d="m 10.4759,-8.5241 1.8877,1.8877"
         id="path143"
         inkscape:connector-curvature="0"
         style="fill:none" />
      <path
         d="m 12.4166,-6.6894 -0.106,0.106 0.3358,0.2298 z"
         id="path145"
         inkscape:connector-curvature="0"
         style="stroke:none" />
    </g>
    <g
       font-size="0.5px"
       font-style="italic"
       transform="matrix(50,0,0,50,680,515)"
       id="g147"
       style="font-style:italic;font-size:0.5px;font-family:sans-serif;stroke-width:0.02">
      <path
         d="m 12.6464,-5.6464 -1.9053,1.9053"
         id="path149"
         inkscape:connector-curvature="0"
         style="fill:none" />
      <path
         d="m 10.7941,-3.6881 -0.106,-0.106 -0.2299,0.3359 z"
         id="path151"
         inkscape:connector-curvature="0"
         style="stroke:none" />
    </g>
    <g
       font-size="0.5px"
       font-style="italic"
       transform="matrix(50,0,0,50,680,515)"
       id="g153"
       style="font-style:italic;font-size:0.5px;font-family:sans-serif;stroke-width:0.02">
      <path
         d="M 9.5418,-3.4582 7.6364,-5.3636"
         id="path155"
         inkscape:connector-curvature="0"
         style="fill:none" />
      <path
         d="m 7.5834,-5.3106 0.106,-0.106 -0.3358,-0.2298 z"
         id="path157"
         inkscape:connector-curvature="0"
         style="stroke:none" />
    </g>
    <g
       font-size="0.5px"
       font-style="italic"
       transform="matrix(50,0,0,50,680,515)"
       id="g159"
       style="font-style:italic;font-size:0.5px;font-family:sans-serif;stroke-width:0.05">
      <path
         d="M -6.7764,-6.4472 -5,-10 l 14,0 0.5241,0.5241"
         id="path161"
         inkscape:connector-curvature="0"
         style="fill:none" />
    </g>
    <g
       font-size="0.5px"
       font-style="italic"
       transform="matrix(50,0,0,50,680,515)"
       id="g163"
       style="font-style:italic;font-size:0.5px;font-family:sans-serif;stroke-width:0.05">
      <path
         d="m -13,-5.5 0,3.5 22,0 0.5418,-0.5418"
         id="path165"
         inkscape:connector-curvature="0"
         style="fill:none" />
    </g>
    <g
       font-size="0.5px"
       font-style="italic"
       transform="matrix(50,0,0,50,680,515)"
       id="g167"
       style="font-style:italic;font-size:0.5px;font-family:sans-serif;stroke-width:0.05">
      <path
         d="m 3.4596,-5.803 6.035,2.5864"
         id="path169"
         inkscape:connector-curvature="0"
         style="fill:none" />
    </g>
    <g
       font-size="0.5px"
       font-style="italic"
       transform="matrix(50,0,0,50,680,515)"
       id="g171"
       style="font-style:italic;font-size:0.5px;font-family:sans-serif;stroke-width:0.05">
      <path
         d="M -2.5128,-6.1124 9.4269,-8.8677"
         id="path173"
         inkscape:connector-curvature="0"
         style="fill:none" />
    </g>
  </g>
</svg>
