<?xml version="1.0" encoding="UTF-8" standalone="no"?>
<svg
   xmlns:dc="http://purl.org/dc/elements/1.1/"
   xmlns:cc="http://creativecommons.org/ns#"
   xmlns:rdf="http://www.w3.org/1999/02/22-rdf-syntax-ns#"
   xmlns:svg="http://www.w3.org/2000/svg"
   xmlns="http://www.w3.org/2000/svg"
   xmlns:sodipodi="http://sodipodi.sourceforge.net/DTD/sodipodi-0.dtd"
   xmlns:inkscape="http://www.inkscape.org/namespaces/inkscape"
   font-size="12px"
   font-style="normal"
   font-weight="normal"
   height="429"
   stroke-miterlimit="10"
   width="1750"
   id="svg2"
   version="1.1"
   inkscape:version="0.91 r13725"
   sodipodi:docname="s-r-latch.svg"
   style="font-style:normal;font-weight:normal;font-size:12px;font-family:Dialog;color-interpolation:auto;fill:#000000;fill-opacity:1;stroke:#000000;stroke-width:1;stroke-linecap:square;stroke-linejoin:miter;stroke-miterlimit:10;stroke-dasharray:none;stroke-dashoffset:0;stroke-opacity:1;color-rendering:auto;image-rendering:auto;shape-rendering:auto;text-rendering:auto">
  <metadata
     id="metadata177">
    <rdf:RDF>
      <cc:Work
         rdf:about="">
        <dc:format>image/svg+xml</dc:format>
        <dc:type
           rdf:resource="http://purl.org/dc/dcmitype/StillImage" />
        <dc:title></dc:title>
      </cc:Work>
    </rdf:RDF>
  </metadata>
  <sodipodi:namedview
     pagecolor="#ffffff"
     bordercolor="#666666"
     borderopacity="1"
     objecttolerance="10"
     gridtolerance="10"
     guidetolerance="10"
     inkscape:pageopacity="0"
     inkscape:pageshadow="2"
     inkscape:window-width="1676"
     inkscape:window-height="1005"
     id="namedview175"
     showgrid="false"
     inkscape:zoom="0.22794118"
     inkscape:cx="131.6129"
     inkscape:cy="214.5"
     inkscape:window-x="4"
     inkscape:window-y="1"
     inkscape:window-maximized="1"
     inkscape:current-layer="svg2" />
  <!--Generated by the Batik Graphics2D SVG Generator-->
  <defs
     id="genericDefs" />
  <g
     id="g5"
     transform="translate(195,-0.5)">
    <g
       font-size="0.75px"
       transform="matrix(50,0,0,50,180,65)"
       id="g7"
       style="font-size:0.75px;font-family:sans-serif;fill:#b20000;stroke:#b20000">
      <path
         d="m -0.2062,0.1044 q -0.0648,0.0597 -0.1249,0.0597 -0.0494,0 -0.082,-0.0309 -0.0326,-0.031 -0.0326,-0.0782 0,-0.0652 0.0548,-0.1002 0.0547,-0.0349 0.1569,-0.0349 l 0.0172,0 0,-0.048 q 0,-0.0692 -0.071,-0.0692 -0.0572,0 -0.1235,0.0351 l 0,-0.0597 q 0.0729,-0.0296 0.1366,-0.0296 0.0667,0 0.0984,0.03 0.0316,0.03 0.0316,0.0934 l 0,0.1802 q 0,0.0618 0.0381,0.0618 0.0048,0 0.0139,-0.0014 l 0.0052,0.0399 q -0.0246,0.0117 -0.0542,0.0117 -0.0506,0 -0.0645,-0.0597 z m -0.0106,-0.0392 0,-0.1029 -0.0242,-7e-4 q -0.0593,0 -0.0959,0.0225 -0.0366,0.0225 -0.0366,0.0592 0,0.026 0.0183,0.0439 0.0183,0.018 0.0447,0.018 0.045,0 0.0937,-0.04 z m 0.4186,0.0898 0,-0.1897 -0.1897,0 0,-0.0542 0.1897,0 0,-0.1897 0.0542,0 0,0.1897 0.1897,0 0,0.0542 -0.1897,0 0,0.1897 z"
         id="path9"
         inkscape:connector-curvature="0"
         style="stroke:none" />
    </g>
    <g
       font-size="0.75px"
       transform="matrix(50,0,0,50,680,65)"
       id="g11"
       style="font-size:0.75px;font-family:sans-serif;fill:#b20000;stroke:#b20000">
      <path
         d="m -0.4574,0.21 0,-0.5827 0.0721,0 0,0.2553 q 0.0444,-0.0835 0.133,-0.0835 0.0718,0 0.113,0.0524 0.0412,0.0523 0.0412,0.1432 0,0.0988 -0.0467,0.1594 -0.0467,0.0606 -0.1229,0.0606 -0.0707,0 -0.1176,-0.0542 L -0.394,0.21 Z m 0.0721,-0.0993 q 0.0557,0.0498 0.1062,0.0498 0.1041,0 0.1041,-0.1585 0,-0.1399 -0.0923,-0.1399 -0.0605,0 -0.118,0.0655 z m 0.5988,0.0949 0,-0.1897 -0.1897,0 0,-0.0542 0.1897,0 0,-0.1897 0.0542,0 0,0.1897 0.1897,0 0,0.0542 -0.1897,0 0,0.1897 z"
         id="path13"
         inkscape:connector-curvature="0"
         style="stroke:none" />
    </g>
    <g
       font-size="0.75px"
       transform="matrix(50,0,0,50,1180,65)"
       id="g15"
       style="font-size:0.75px;font-family:sans-serif;fill:#0000b2;stroke:#0000b2">
      <path
         d="m -0.2424,0.1641 q -0.0806,0 -0.1337,-0.0597 -0.0531,-0.0597 -0.0531,-0.1505 0,-0.097 0.0526,-0.1512 0.0525,-0.0542 0.1466,-0.0542 0.0465,0 0.104,0.0128 l 0,0.0604 q -0.0611,-0.0179 -0.0996,-0.0179 -0.0553,0 -0.0888,0.0415 -0.0335,0.0416 -0.0335,0.1108 0,0.067 0.0344,0.1084 0.0344,0.0414 0.0901,0.0414 0.0494,0 0.1018,-0.0253 l 0,0.0623 q -0.0699,0.0212 -0.1208,0.0212 z m 0.4277,-0.0091 0,-0.1897 -0.1897,0 0,-0.0542 0.1897,0 0,-0.1897 0.0542,0 0,0.1897 0.1897,0 0,0.0542 -0.1897,0 0,0.1897 z"
         id="path17"
         inkscape:connector-curvature="0"
         style="stroke:none" />
    </g>
    <g
       font-size="0.75px"
       transform="matrix(50,0,0,50,180,365)"
       id="g19"
       style="font-size:0.75px;font-family:sans-serif;fill:#b20000;stroke:#b20000">
      <path
         d="m -0.1384,0.0949 q -0.0648,0.0597 -0.1249,0.0597 -0.0494,0 -0.082,-0.0309 -0.0326,-0.031 -0.0326,-0.0782 0,-0.0652 0.0547,-0.1002 0.0548,-0.0349 0.1569,-0.0349 l 0.0173,0 0,-0.048 q 0,-0.0692 -0.0711,-0.0692 -0.0571,0 -0.1234,0.0351 l 0,-0.0597 q 0.0729,-0.0296 0.1366,-0.0296 0.0666,0 0.0983,0.03 0.0317,0.03 0.0317,0.0934 l 0,0.1802 q 0,0.0619 0.0381,0.0619 0.0047,0 0.0139,-0.0015 l 0.0051,0.0399 q -0.0245,0.0117 -0.0542,0.0117 -0.0505,0 -0.0644,-0.0597 z m -0.0106,-0.0391 0,-0.1029 -0.0242,-8e-4 q -0.0593,0 -0.096,0.0225 -0.0366,0.0226 -0.0366,0.0592 0,0.026 0.0183,0.0439 0.0183,0.018 0.0447,0.018 0.045,0 0.0938,-0.0399 z m 0.2017,-0.1 0,-0.0542 0.3252,0 0,0.0542 z"
         id="path21"
         inkscape:connector-curvature="0"
         style="stroke:none" />
    </g>
    <g
       font-size="0.75px"
       transform="matrix(50,0,0,50,680,365)"
       id="g23"
       style="font-size:0.75px;font-family:sans-serif;fill:#b20000;stroke:#b20000">
      <path
         d="m -0.3896,0.21 0,-0.5827 0.0721,0 0,0.2553 q 0.0443,-0.0835 0.1329,-0.0835 0.0718,0 0.113,0.0524 0.0412,0.0523 0.0412,0.1432 0,0.0988 -0.0467,0.1594 -0.0467,0.0606 -0.1229,0.0606 -0.0706,0 -0.1175,-0.0542 L -0.3263,0.21 Z m 0.0721,-0.0993 q 0.0557,0.0498 0.1062,0.0498 0.104,0 0.104,-0.1585 0,-0.1399 -0.0923,-0.1399 -0.0604,0 -0.1179,0.0655 z m 0.382,-0.0948 0,-0.0542 0.3251,0 0,0.0542 z"
         id="path25"
         inkscape:connector-curvature="0"
         style="stroke:none" />
    </g>
    <g
       font-size="0.75px"
       transform="matrix(50,0,0,50,1180,365)"
       id="g27"
       style="font-size:0.75px;font-family:sans-serif;fill:#0000b2;stroke:#0000b2">
      <path
         d="m -0.1747,0.1546 q -0.0805,0 -0.1336,-0.0597 -0.0532,-0.0597 -0.0532,-0.1505 0,-0.097 0.0526,-0.1512 0.0526,-0.0542 0.1467,-0.0542 0.0465,0 0.104,0.0128 l 0,0.0604 q -0.0612,-0.0179 -0.0996,-0.0179 -0.0553,0 -0.0888,0.0415 -0.0336,0.0416 -0.0336,0.1108 0,0.067 0.0345,0.1084 0.0344,0.0414 0.0901,0.0414 0.0494,0 0.1018,-0.0253 l 0,0.0623 q -0.07,0.0212 -0.1209,0.0212 z m 0.211,-0.1988 0,-0.0542 0.3252,0 0,0.0542 z"
         id="path29"
         inkscape:connector-curvature="0"
         style="stroke:none" />
    </g>
    <g
       font-size="0.75px"
       transform="matrix(50,0,0,50,30,215)"
       id="g31"
       style="font-size:0.75px;font-family:sans-serif;fill:#ffffff;stroke:#ffffff">
      <circle
         cx="0"
         cy="0"
         r="0.44999999"
         id="circle33"
         style="stroke:none" />
      <circle
         cx="0"
         cy="0"
         r="0.44999999"
         id="circle35"
         style="fill:none;stroke:#000000;stroke-width:0.1" />
      <circle
         cx="0"
         cy="0"
         r="0.26320001"
         id="circle37"
         style="fill:#000000;stroke:none;stroke-width:0.1" />
    </g>
    <g
       font-size="0.5px"
       font-style="italic"
       transform="matrix(50,0,0,50,30,215)"
       id="g39"
       style="font-style:italic;font-size:0.5px;font-family:sans-serif;stroke-width:0.1">
      <path
         d="m -0.2566,1.1209 q -0.0511,0.0398 -0.0912,0.0398 -0.0329,0 -0.0505,-0.0206 Q -0.4159,1.1194 -0.4096,1.0879 -0.401,1.0445 -0.3598,1.0212 -0.3186,0.9979 -0.2505,0.9979 l 0.0115,0 0.0064,-0.032 q 0.0092,-0.0462 -0.0382,-0.0462 -0.0381,0 -0.0869,0.0235 l 0.0079,-0.0398 q 0.0526,-0.0198 0.095,-0.0198 0.0445,0 0.0616,0.02 0.0171,0.02 0.0087,0.0623 L -0.2086,1.086 q -0.0082,0.0412 0.0172,0.0412 0.0031,0 0.0094,-9e-4 l -0.0019,0.0266 q -0.0179,0.0078 -0.0377,0.0078 -0.0336,0 -0.035,-0.0398 z m -0.0018,-0.0261 0.0137,-0.0686 -0.016,-5e-4 q -0.0396,0 -0.067,0.015 -0.0274,0.015 -0.0323,0.0394 -0.0035,0.0174 0.0064,0.0293 0.0098,0.012 0.0274,0.012 0.03,0 0.0678,-0.0266 z m 0.0696,0.144 0.0072,-0.0361 0.25,0 -0.0072,0.0361 z M 0.2329,1.1636 Q 0.177,1.1636 0.153,1.111 0.129,1.0584 0.1459,0.9737 0.163,0.8882 0.2082,0.8362 q 0.0452,-0.052 0.1021,-0.052 0.0569,0 0.0813,0.052 Q 0.4159,0.8882 0.399,0.9729 0.3816,1.0599 0.3365,1.1117 0.2913,1.1636 0.2329,1.1636 Z M 0.2406,1.1275 q 0.0765,0 0.1075,-0.1553 0.0304,-0.1518 -0.045,-0.1518 -0.0752,0 -0.1059,0.1533 -0.0308,0.1538 0.0434,0.1538 z"
         id="path41"
         inkscape:connector-curvature="0"
         style="stroke:none" />
    </g>
    <g
       font-size="0.5px"
       font-style="italic"
       transform="matrix(50,0,0,50,330,215)"
       id="g43"
       style="font-style:italic;font-size:0.5px;font-family:sans-serif;fill:#ffffff;stroke:#ffffff;stroke-width:0.1">
      <circle
         cx="0"
         cy="0"
         r="0.44999999"
         id="circle45"
         style="stroke:none" />
      <circle
         cx="0"
         cy="0"
         r="0.44999999"
         id="circle47"
         style="fill:none;stroke:#000000" />
      <path
         d="m -0.2252,1.1209 q -0.0512,0.0398 -0.0913,0.0398 -0.0329,0 -0.0505,-0.0206 -0.0176,-0.0207 -0.0113,-0.0522 0.0087,-0.0434 0.0498,-0.0667 0.0412,-0.0233 0.1093,-0.0233 l 0.0115,0 0.0064,-0.032 q 0.0092,-0.0462 -0.0382,-0.0462 -0.038,0 -0.0869,0.0235 l 0.0079,-0.0398 q 0.0526,-0.0198 0.0951,-0.0198 0.0444,0 0.0615,0.02 0.0171,0.02 0.0087,0.0623 l -0.024,0.1201 q -0.0083,0.0412 0.0171,0.0412 0.0032,0 0.0095,-9e-4 l -0.0019,0.0266 q -0.018,0.0078 -0.0377,0.0078 -0.0337,0 -0.035,-0.0398 z m -0.0019,-0.0261 0.0137,-0.0686 -0.016,-5e-4 q -0.0395,0 -0.067,0.015 -0.0274,0.015 -0.0323,0.0394 -0.0034,0.0174 0.0064,0.0293 0.0098,0.012 0.0274,0.012 0.03,0 0.0678,-0.0266 z m 0.0696,0.144 0.0072,-0.0361 0.25,0 -0.0072,0.0361 z m 0.342,-0.0842 0.0072,-0.0361 0.0723,0 L 0.321,0.8333 0.2452,0.8514 0.2526,0.8143 0.3792,0.7842 0.3124,1.1185 l 0.0722,0 -0.0072,0.0361 z"
         id="path49"
         inkscape:connector-curvature="0"
         style="fill:#595959;stroke:none" />
    </g>
    <g
       font-size="0.5px"
       font-style="italic"
       transform="matrix(50,0,0,50,530,215)"
       id="g51"
       style="font-style:italic;font-size:0.5px;font-family:sans-serif;fill:#ffffff;stroke:#ffffff;stroke-width:0.1">
      <circle
         cx="0"
         cy="0"
         r="0.44999999"
         id="circle53"
         style="stroke:none" />
      <circle
         cx="0"
         cy="0"
         r="0.44999999"
         id="circle55"
         style="fill:none;stroke:#000000" />
      <circle
         cx="0"
         cy="0"
         r="0.26320001"
         id="circle57"
         style="fill:#000000;stroke:none" />
      <path
         d="m -0.4276,1.1727 0.0777,-0.3885 0.0481,0 -0.034,0.1702 q 0.0407,-0.0557 0.0997,-0.0557 0.0479,0 0.0684,0.0349 0.0205,0.035 0.0083,0.0955 -0.0131,0.0659 -0.0523,0.1063 -0.0393,0.0404 -0.09,0.0404 -0.0472,0 -0.0712,-0.0361 l -0.0124,0.033 z m 0.0614,-0.0662 q 0.0304,0.0332 0.0641,0.0332 0.0694,0 0.0905,-0.1057 0.0187,-0.0933 -0.0429,-0.0933 -0.0403,0 -0.0873,0.0437 z m 0.189,0.1475 0.0072,-0.0362 0.25,0 L 0.0728,1.254 Z M 0.2446,1.1788 q -0.056,0 -0.08,-0.0527 Q 0.1406,1.0735 0.1575,0.9888 0.1746,0.9034 0.2198,0.8514 0.265,0.7994 0.3219,0.7994 q 0.0569,0 0.0813,0.052 0.0244,0.052 0.0074,0.1367 Q 0.3932,1.075 0.3481,1.1269 0.3029,1.1788 0.2446,1.1788 Z M 0.2523,1.1426 q 0.0764,0 0.1074,-0.1552 0.0304,-0.1519 -0.045,-0.1519 -0.0752,0 -0.1059,0.1533 -0.0307,0.1538 0.0435,0.1538 z"
         id="path59"
         inkscape:connector-curvature="0"
         style="fill:#595959;stroke:none" />
    </g>
    <g
       font-size="0.5px"
       font-style="italic"
       transform="matrix(50,0,0,50,830,215)"
       id="g61"
       style="font-style:italic;font-size:0.5px;font-family:sans-serif;fill:#ffffff;stroke:#ffffff;stroke-width:0.1">
      <circle
         cx="0"
         cy="0"
         r="0.44999999"
         id="circle63"
         style="stroke:none" />
      <circle
         cx="0"
         cy="0"
         r="0.44999999"
         id="circle65"
         style="fill:none;stroke:#000000" />
      <path
         d="m -0.3962,1.1727 0.0776,-0.3885 0.0481,0 -0.034,0.1702 q 0.0407,-0.0557 0.0998,-0.0557 0.0478,0 0.0683,0.0349 0.0205,0.035 0.0084,0.0955 -0.0132,0.0659 -0.0524,0.1063 -0.0392,0.0404 -0.09,0.0404 -0.0471,0 -0.0712,-0.0361 l -0.0124,0.033 z m 0.0613,-0.0662 q 0.0305,0.0332 0.0641,0.0332 0.0694,0 0.0905,-0.1057 0.0187,-0.0933 -0.0428,-0.0933 -0.0403,0 -0.0874,0.0437 z m 0.189,0.1475 0.0072,-0.0362 0.25,0 -0.0072,0.0362 z m 0.342,-0.0843 0.0073,-0.0361 0.0722,0 0.0571,-0.2852 -0.0759,0.0181 0.0074,-0.0371 0.1266,-0.03 -0.0668,0.3342 0.0722,0 -0.0072,0.0361 z"
         id="path67"
         inkscape:connector-curvature="0"
         style="fill:#595959;stroke:none" />
    </g>
    <g
       font-size="0.5px"
       font-style="italic"
       transform="matrix(50,0,0,50,1030,215)"
       id="g69"
       style="font-style:italic;font-size:0.5px;font-family:sans-serif;fill:#ffffff;stroke:#ffffff;stroke-width:0.1">
      <circle
         cx="0"
         cy="0"
         r="0.44999999"
         id="circle71"
         style="stroke:none" />
      <circle
         cx="0"
         cy="0"
         r="0.44999999"
         id="circle73"
         style="fill:none;stroke:#000000" />
      <circle
         cx="0"
         cy="0"
         r="0.26320001"
         id="circle75"
         style="fill:#000000;stroke:none" />
      <path
         d="m -0.2925,1.1607 q -0.0537,0 -0.0812,-0.0398 -0.0274,-0.0398 -0.0153,-0.1003 0.0129,-0.0647 0.0552,-0.1009 0.0422,-0.0361 0.105,-0.0361 0.031,0 0.0676,0.0085 l -0.008,0.0403 q -0.0384,-0.0119 -0.0641,-0.0119 -0.0368,0 -0.0647,0.0277 -0.0279,0.0277 -0.0371,0.0738 -0.0089,0.0447 0.0085,0.0723 0.0174,0.0276 0.0545,0.0276 0.033,0 0.0713,-0.0169 l -0.0083,0.0415 q -0.0495,0.0142 -0.0834,0.0142 z m 0.0888,0.0781 0.0073,-0.0361 0.25,0 -0.0073,0.0361 z M 0.2181,1.1636 Q 0.1622,1.1636 0.1382,1.111 0.1142,1.0584 0.1311,0.9737 0.1482,0.8882 0.1934,0.8362 q 0.0452,-0.052 0.1021,-0.052 0.0568,0 0.0812,0.052 0.0244,0.052 0.0075,0.1367 Q 0.3668,1.0599 0.3216,1.1117 0.2765,1.1636 0.2181,1.1636 Z M 0.2258,1.1275 q 0.0764,0 0.1075,-0.1553 0.0304,-0.1518 -0.0451,-0.1518 -0.0752,0 -0.1058,0.1533 -0.0308,0.1538 0.0434,0.1538 z"
         id="path77"
         inkscape:connector-curvature="0"
         style="fill:#595959;stroke:none" />
    </g>
    <g
       font-size="0.5px"
       font-style="italic"
       transform="matrix(50,0,0,50,1330,215)"
       id="g79"
       style="font-style:italic;font-size:0.5px;font-family:sans-serif;fill:#ffffff;stroke:#ffffff;stroke-width:0.1">
      <circle
         cx="0"
         cy="0"
         r="0.44999999"
         id="circle81"
         style="stroke:none" />
      <circle
         cx="0"
         cy="0"
         r="0.44999999"
         id="circle83"
         style="fill:none;stroke:#000000" />
      <path
         d="m -0.2612,1.1607 q -0.0537,0 -0.0812,-0.0398 -0.0274,-0.0398 -0.0153,-0.1003 0.0129,-0.0647 0.0552,-0.1009 0.0423,-0.0361 0.105,-0.0361 0.031,0 0.0676,0.0085 l -0.008,0.0403 q -0.0384,-0.0119 -0.064,-0.0119 -0.0369,0 -0.0648,0.0277 -0.0279,0.0277 -0.0371,0.0738 -0.0089,0.0447 0.0085,0.0723 0.0174,0.0276 0.0546,0.0276 0.0329,0 0.0712,-0.0169 l -0.0083,0.0415 q -0.0495,0.0142 -0.0834,0.0142 z m 0.0889,0.0781 0.0072,-0.0361 0.25,0 -0.0072,0.0361 z m 0.342,-0.0842 0.0072,-0.0361 0.0723,0 0.057,-0.2852 -0.0759,0.0181 0.0075,-0.0371 0.1266,-0.0301 -0.0669,0.3343 0.0723,0 -0.0072,0.0361 z"
         id="path85"
         inkscape:connector-curvature="0"
         style="fill:#595959;stroke:none" />
    </g>
    <g
       font-size="0.5px"
       font-style="italic"
       transform="matrix(50,0,0,50,680,515)"
       id="g87"
       style="font-style:italic;font-size:0.5px;font-family:sans-serif;stroke-width:0.02">
      <path
         d="m -12.6464,-6.3536 1.9758,-1.9758"
         id="path89"
         inkscape:connector-curvature="0"
         style="fill:none" />
      <path
         d="m -10.7237,-8.3824 0.1061,0.1061 0.2298,-0.3359 z"
         id="path91"
         inkscape:connector-curvature="0"
         style="stroke:none" />
    </g>
    <g
       font-size="0.5px"
       font-style="italic"
       transform="matrix(50,0,0,50,680,515)"
       id="g93"
       style="font-style:italic;font-size:0.5px;font-family:sans-serif;stroke-width:0.02">
      <path
         d="m -9.6122,-8.6122 1.9758,1.9758"
         id="path95"
         inkscape:connector-curvature="0"
         style="fill:none" />
      <path
         d="m -7.5834,-6.6894 -0.106,0.106 0.3358,0.2298 z"
         id="path97"
         inkscape:connector-curvature="0"
         style="stroke:none" />
    </g>
    <g
       font-size="0.5px"
       font-style="italic"
       transform="matrix(50,0,0,50,680,515)"
       id="g99"
       style="font-style:italic;font-size:0.5px;font-family:sans-serif;stroke-width:0.02">
      <path
         d="M -7.3536,-5.6464 -9.347,-3.653"
         id="path101"
         inkscape:connector-curvature="0"
         style="fill:none" />
      <path
         d="M -9.294,-3.6 -9.4,-3.706 -9.6298,-3.3702 Z"
         id="path103"
         inkscape:connector-curvature="0"
         style="stroke:none" />
    </g>
    <g
       font-size="0.5px"
       font-style="italic"
       transform="matrix(50,0,0,50,680,515)"
       id="g105"
       style="font-style:italic;font-size:0.5px;font-family:sans-serif;stroke-width:0.02">
      <path
         d="m -10.3702,-3.3702 -1.9934,-1.9934"
         id="path107"
         inkscape:connector-curvature="0"
         style="fill:none" />
      <path
         d="m -12.4166,-5.3106 0.106,-0.106 -0.3358,-0.2298 z"
         id="path109"
         inkscape:connector-curvature="0"
         style="stroke:none" />
    </g>
    <g
       font-size="0.5px"
       font-style="italic"
       transform="matrix(50,0,0,50,680,515)"
       id="g111"
       style="font-style:italic;font-size:0.5px;font-family:sans-serif;stroke-width:0.02">
      <path
         d="m -2.6464,-6.3536 1.8817,-1.8817"
         id="path113"
         inkscape:connector-curvature="0"
         style="fill:none" />
      <path
         d="m -0.8177,-8.2884 0.1061,0.1061 0.2298,-0.3359 z"
         id="path115"
         inkscape:connector-curvature="0"
         style="stroke:none" />
    </g>
    <g
       font-size="0.5px"
       font-style="italic"
       transform="matrix(50,0,0,50,680,515)"
       id="g117"
       style="font-style:italic;font-size:0.5px;font-family:sans-serif;stroke-width:0.02">
      <path
         d="m 0.4818,-8.5182 1.8818,1.8818"
         id="path119"
         inkscape:connector-curvature="0"
         style="fill:none" />
      <path
         d="m 2.4166,-6.6894 -0.106,0.106 0.3358,0.2298 z"
         id="path121"
         inkscape:connector-curvature="0"
         style="stroke:none" />
    </g>
    <g
       font-size="0.5px"
       font-style="italic"
       transform="matrix(50,0,0,50,680,515)"
       id="g123"
       style="font-style:italic;font-size:0.5px;font-family:sans-serif;stroke-width:0.02">
      <path
         d="M 2.6464,-5.6464 0.7647,-3.7647"
         id="path125"
         inkscape:connector-curvature="0"
         style="fill:none" />
      <path
         d="M 0.8177,-3.7116 0.7116,-3.8177 0.4818,-3.4818 Z"
         id="path127"
         inkscape:connector-curvature="0"
         style="stroke:none" />
    </g>
    <g
       font-size="0.5px"
       font-style="italic"
       transform="matrix(50,0,0,50,680,515)"
       id="g129"
       style="font-style:italic;font-size:0.5px;font-family:sans-serif;stroke-width:0.02">
      <path
         d="M -0.4818,-3.4818 -2.3636,-5.3636"
         id="path131"
         inkscape:connector-curvature="0"
         style="fill:none" />
      <path
         d="m -2.4166,-5.3106 0.106,-0.106 -0.3358,-0.2298 z"
         id="path133"
         inkscape:connector-curvature="0"
         style="stroke:none" />
    </g>
    <g
       font-size="0.5px"
       font-style="italic"
       transform="matrix(50,0,0,50,680,515)"
       id="g135"
       style="font-style:italic;font-size:0.5px;font-family:sans-serif;stroke-width:0.02">
      <path
         d="M 7.3536,-6.3536 9.3294,-8.3294"
         id="path137"
         inkscape:connector-curvature="0"
         style="fill:none" />
      <path
         d="m 9.2763,-8.3824 0.1061,0.1061 0.2298,-0.3359 z"
         id="path139"
         inkscape:connector-curvature="0"
         style="stroke:none" />
    </g>
    <g
       font-size="0.5px"
       font-style="italic"
       transform="matrix(50,0,0,50,680,515)"
       id="g141"
       style="font-style:italic;font-size:0.5px;font-family:sans-serif;stroke-width:0.02">
      <path
         d="m 10.3878,-8.6122 1.9758,1.9758"
         id="path143"
         inkscape:connector-curvature="0"
         style="fill:none" />
      <path
         d="m 12.4166,-6.6894 -0.106,0.106 0.3358,0.2298 z"
         id="path145"
         inkscape:connector-curvature="0"
         style="stroke:none" />
    </g>
    <g
       font-size="0.5px"
       font-style="italic"
       transform="matrix(50,0,0,50,680,515)"
       id="g147"
       style="font-style:italic;font-size:0.5px;font-family:sans-serif;stroke-width:0.02">
      <path
         d="M 12.6464,-5.6464 10.653,-3.653"
         id="path149"
         inkscape:connector-curvature="0"
         style="fill:none" />
      <path
         d="M 10.706,-3.6 10.6,-3.706 10.3702,-3.3702 Z"
         id="path151"
         inkscape:connector-curvature="0"
         style="stroke:none" />
    </g>
    <g
       font-size="0.5px"
       font-style="italic"
       transform="matrix(50,0,0,50,680,515)"
       id="g153"
       style="font-style:italic;font-size:0.5px;font-family:sans-serif;stroke-width:0.02">
      <path
         d="M 9.6298,-3.3702 7.6364,-5.3636"
         id="path155"
         inkscape:connector-curvature="0"
         style="fill:none" />
      <path
         d="m 7.5834,-5.3106 0.106,-0.106 -0.3358,-0.2298 z"
         id="path157"
         inkscape:connector-curvature="0"
         style="stroke:none" />
    </g>
    <g
       font-size="0.5px"
       font-style="italic"
       transform="matrix(50,0,0,50,680,515)"
       id="g159"
       style="font-style:italic;font-size:0.5px;font-family:sans-serif;stroke-width:0.05">
      <path
         d="M -6.7764,-6.4472 -5,-10 l 14,0 0.6122,0.6122"
         id="path161"
         inkscape:connector-curvature="0"
         style="fill:none" />
    </g>
    <g
       font-size="0.5px"
       font-style="italic"
       transform="matrix(50,0,0,50,680,515)"
       id="g163"
       style="font-style:italic;font-size:0.5px;font-family:sans-serif;stroke-width:0.05">
      <path
         d="m -13,-5.5 0,3.5 22,0 0.6298,-0.6298"
         id="path165"
         inkscape:connector-curvature="0"
         style="fill:none" />
    </g>
    <g
       font-size="0.5px"
       font-style="italic"
       transform="matrix(50,0,0,50,680,515)"
       id="g167"
       style="font-style:italic;font-size:0.5px;font-family:sans-serif;stroke-width:0.05">
      <path
         d="m 3.4596,-5.803 6.0789,2.6052"
         id="path169"
         inkscape:connector-curvature="0"
         style="fill:none" />
    </g>
    <g
       font-size="0.5px"
       font-style="italic"
       transform="matrix(50,0,0,50,680,515)"
       id="g171"
       style="font-style:italic;font-size:0.5px;font-family:sans-serif;stroke-width:0.05">
      <path
         d="M -2.5128,-6.1124 9.4708,-8.8779"
         id="path173"
         inkscape:connector-curvature="0"
         style="fill:none" />
    </g>
  </g>
</svg>
