<?xml version="1.0" encoding="UTF-8" standalone="no"?>
<svg
   xmlns:dc="http://purl.org/dc/elements/1.1/"
   xmlns:cc="http://creativecommons.org/ns#"
   xmlns:rdf="http://www.w3.org/1999/02/22-rdf-syntax-ns#"
   xmlns:svg="http://www.w3.org/2000/svg"
   xmlns="http://www.w3.org/2000/svg"
   xmlns:sodipodi="http://sodipodi.sourceforge.net/DTD/sodipodi-0.dtd"
   xmlns:inkscape="http://www.inkscape.org/namespaces/inkscape"
   font-size="12px"
   font-style="normal"
   font-weight="normal"
   height="307"
   stroke-miterlimit="10"
   width="1750"
   id="svg2"
   version="1.1"
   inkscape:version="0.91 r13725"
   sodipodi:docname="stg-WAIT.svg"
   style="font-style:normal;font-weight:normal;font-size:12px;font-family:Dialog;color-interpolation:auto;fill:#000000;fill-opacity:1;stroke:#000000;stroke-width:1;stroke-linecap:square;stroke-linejoin:miter;stroke-miterlimit:10;stroke-dasharray:none;stroke-dashoffset:0;stroke-opacity:1;color-rendering:auto;image-rendering:auto;shape-rendering:auto;text-rendering:auto">
  <metadata
     id="metadata103">
    <rdf:RDF>
      <cc:Work
         rdf:about="">
        <dc:format>image/svg+xml</dc:format>
        <dc:type
           rdf:resource="http://purl.org/dc/dcmitype/StillImage" />
        <dc:title></dc:title>
      </cc:Work>
    </rdf:RDF>
  </metadata>
  <sodipodi:namedview
     pagecolor="#ffffff"
     bordercolor="#666666"
     borderopacity="1"
     objecttolerance="10"
     gridtolerance="10"
     guidetolerance="10"
     inkscape:pageopacity="0"
     inkscape:pageshadow="2"
     inkscape:window-width="1680"
     inkscape:window-height="1005"
     id="namedview101"
     showgrid="false"
     inkscape:zoom="0.78172609"
     inkscape:cx="-40.715776"
     inkscape:cy="216.53598"
     inkscape:window-x="0"
     inkscape:window-y="0"
     inkscape:window-maximized="0"
     inkscape:current-layer="g5" />
  <!--Generated by the Batik Graphics2D SVG Generator-->
  <defs
     id="genericDefs" />
  <g
     id="g5">
    <g
       id="g3381"
       transform="translate(576.21885,3.4578)">
      <g
         id="g7"
         transform="matrix(50,0,0,50,549.585,278.865)"
         font-size="0.75px"
         style="font-size:0.75px;font-family:sans-serif;fill:#0000b2;stroke:#0000b2">
        <path
           id="path9"
           d="m -0.468,-0.2473 0,0.0637 q -0.0286,-0.0147 -0.0593,-0.022 -0.0308,-0.0073 -0.0638,-0.0073 -0.0501,0 -0.0752,0.0154 -0.0251,0.0153 -0.0251,0.0461 0,0.0234 0.0179,0.0368 0.018,0.0134 0.0722,0.0255 l 0.023,0.0051 q 0.0718,0.0154 0.102,0.0434 0.0302,0.028 0.0302,0.0782 0,0.0571 -0.0452,0.0904 -0.0452,0.0334 -0.1243,0.0334 -0.033,0 -0.0687,-0.0065 Q -0.72,0.1485 -0.7595,0.1357 l 0,-0.0696 q 0.0373,0.0194 0.0736,0.0292 0.0362,0.0097 0.0718,0.0097 0.0476,0 0.0732,-0.0163 0.0256,-0.0163 0.0256,-0.046 0,-0.0275 -0.0185,-0.0421 -0.0185,-0.0147 -0.0811,-0.0282 l -0.0234,-0.0055 q -0.0626,-0.0132 -0.0905,-0.0405 -0.0278,-0.0273 -0.0278,-0.0749 0,-0.0578 0.041,-0.0893 0.041,-0.0315 0.1165,-0.0315 0.0373,0 0.0703,0.0055 0.033,0.0055 0.0608,0.0165 z m 0.3156,0.1919 q -0.0816,0 -0.1131,0.0186 -0.0315,0.0187 -0.0315,0.0638 0,0.0358 0.0236,0.0569 0.0236,0.0211 0.0643,0.0211 0.056,0 0.0899,-0.0398 0.0339,-0.0397 0.0339,-0.1056 l 0,-0.015 -0.0671,0 z m 0.1345,-0.0279 0,0.234 -0.0674,0 0,-0.0622 q -0.0231,0.0373 -0.0575,0.0551 -0.0345,0.0178 -0.0843,0.0178 -0.0629,0 -0.1001,-0.0354 -0.0372,-0.0353 -0.0372,-0.0947 0,-0.0692 0.0463,-0.1043 0.0464,-0.0352 0.1383,-0.0352 l 0.0945,0 0,-0.0066 q 0,-0.0465 -0.0306,-0.0719 -0.0306,-0.0255 -0.0859,-0.0255 -0.0351,0 -0.0685,0.0084 -0.0333,0.0085 -0.0641,0.0253 l 0,-0.0622 q 0.037,-0.0143 0.0718,-0.0215 0.0348,-0.0071 0.0678,-0.0071 0.089,0 0.1329,0.0461 0.044,0.0462 0.044,0.1399 z m 0.4797,-0.0135 0,0.2475 -0.0674,0 0,-0.2453 q 0,-0.0583 -0.0227,-0.0872 -0.0227,-0.0289 -0.0681,-0.0289 -0.0546,0 -0.0861,0.0348 -0.0315,0.0348 -0.0315,0.0948 l 0,0.2318 -0.0677,0 0,-0.4101 0.0677,0 0,0.0637 q 0.0242,-0.037 0.057,-0.0553 0.0328,-0.0183 0.0756,-0.0183 0.0707,0 0.1069,0.0438 0.0363,0.0437 0.0363,0.1287 z m 0.1003,0.0121 0.1974,0 0,0.06 -0.1974,0 0,-0.06 z"
           inkscape:connector-curvature="0"
           style="stroke:none" />
      </g>
      <g
         id="g11"
         transform="matrix(50,0,0,50,49.5873,228.8647)"
         font-size="0.75px"
         style="font-size:0.75px;font-family:sans-serif;fill:#b20000;stroke:#b20000">
        <path
           id="path13"
           d="m -0.5002,-0.144 0,0.0637 q -0.0286,-0.0147 -0.0594,-0.022 -0.0307,-0.0073 -0.0637,-0.0073 -0.0502,0 -0.0753,0.0154 -0.025,0.0153 -0.025,0.0461 0,0.0235 0.0179,0.0368 0.018,0.0134 0.0722,0.0255 l 0.023,0.0051 q 0.0718,0.0154 0.102,0.0434 0.0302,0.028 0.0302,0.0782 0,0.0571 -0.0452,0.0904 -0.0452,0.0334 -0.1243,0.0334 -0.033,0 -0.0687,-0.0064 Q -0.7522,0.2518 -0.7917,0.239 l 0,-0.0696 q 0.0373,0.0195 0.0736,0.0292 0.0362,0.0097 0.0717,0.0097 0.0476,0 0.0733,-0.0163 0.0256,-0.0163 0.0256,-0.046 0,-0.0275 -0.0185,-0.0421 Q -0.5845,0.0892 -0.6471,0.0757 L -0.6705,0.0702 Q -0.7332,0.057 -0.761,0.0297 -0.7888,0.0024 -0.7888,-0.0451 q 0,-0.0579 0.041,-0.0894 0.041,-0.0315 0.1164,-0.0315 0.0374,0 0.0704,0.0055 0.0329,0.0055 0.0608,0.0165 z m 0.1292,-0.0121 0.0674,0 0,0.4101 -0.0674,0 0,-0.4101 z m 0,-0.1597 0.0674,0 0,0.0853 -0.0674,0 0,-0.0853 z m 0.4783,0.36 q 0,-0.0732 -0.0302,-0.1135 -0.0302,-0.0403 -0.0848,-0.0403 -0.0542,0 -0.0844,0.0403 -0.0302,0.0403 -0.0302,0.1135 0,0.0729 0.0302,0.1132 0.0302,0.0402 0.0844,0.0402 0.0546,0 0.0848,-0.0402 0.0302,-0.0403 0.0302,-0.1132 z m 0.0674,0.1589 q 0,0.1048 -0.0465,0.1559 -0.0465,0.051 -0.1425,0.051 -0.0355,0 -0.067,-0.0053 -0.0315,-0.0053 -0.0612,-0.0163 l 0,-0.0655 q 0.0297,0.0161 0.0586,0.0238 0.029,0.0077 0.059,0.0077 0.0663,0 0.0992,-0.0346 0.033,-0.0346 0.033,-0.1046 l 0,-0.0333 Q 0.0864,0.2181 0.0538,0.2361 0.0212,0.254 -0.0242,0.254 q -0.0754,0 -0.1216,-0.0575 -0.0461,-0.0574 -0.0461,-0.1523 0,-0.0952 0.0461,-0.1527 0.0462,-0.0575 0.1216,-0.0575 0.0454,0 0.078,0.0179 0.0326,0.018 0.0535,0.0542 l 0,-0.0622 0.0674,0 0,0.3592 z m 0.4131,-0.4193 0,0.204 0.2039,0 0,0.0623 -0.2039,0 0,0.2039 -0.0616,0 0,-0.2039 -0.2039,0 0,-0.0623 0.2039,0 0,-0.204 0.0616,0 z"
           inkscape:connector-curvature="0"
           style="stroke:none" />
      </g>
      <g
         id="g15"
         transform="matrix(50,0,0,50,349.5873,28.8647)"
         font-size="0.75px"
         style="font-size:0.75px;font-family:sans-serif;fill:#0000b2;stroke:#0000b2">
        <path
           id="path17"
           d="m -0.6255,-0.2298 0,0.0638 q -0.0286,-0.0147 -0.0593,-0.022 -0.0308,-0.0073 -0.0637,-0.0073 -0.0502,0 -0.0753,0.0153 -0.0251,0.0154 -0.0251,0.0462 0,0.0234 0.018,0.0368 0.0179,0.0133 0.0721,0.0254 l 0.0231,0.0052 q 0.0718,0.0153 0.102,0.0434 0.0302,0.028 0.0302,0.0781 0,0.0572 -0.0452,0.0905 -0.0453,0.0333 -0.1244,0.0333 -0.0329,0 -0.0686,-0.0064 Q -0.8774,0.1661 -0.917,0.1533 l 0,-0.0696 q 0.0374,0.0194 0.0736,0.0291 0.0363,0.0097 0.0718,0.0097 0.0476,0 0.0732,-0.0163 0.0257,-0.0163 0.0257,-0.0459 0,-0.0275 -0.0185,-0.0422 Q -0.7097,0.0035 -0.7723,-0.01 l -0.0235,-0.0055 q -0.0626,-0.0132 -0.0904,-0.0405 -0.0279,-0.0273 -0.0279,-0.0749 0,-0.0579 0.041,-0.0894 0.0411,-0.0315 0.1165,-0.0315 0.0374,0 0.0703,0.0055 0.033,0.0055 0.0608,0.0165 z m 0.3157,0.1919 q -0.0817,0 -0.1132,0.0187 -0.0315,0.0187 -0.0315,0.0637 0,0.0359 0.0236,0.057 0.0237,0.021 0.0643,0.021 0.056,0 0.0899,-0.0397 0.0339,-0.0398 0.0339,-0.1057 l 0,-0.015 -0.067,0 z m 0.1344,-0.0278 0,0.234 -0.0674,0 0,-0.0623 q -0.0231,0.0374 -0.0575,0.0552 -0.0344,0.0177 -0.0842,0.0177 -0.063,0 -0.1002,-0.0353 -0.0372,-0.0354 -0.0372,-0.0947 0,-0.0692 0.0464,-0.1044 0.0463,-0.0351 0.1382,-0.0351 l 0.0945,0 0,-0.0066 q 0,-0.0465 -0.0306,-0.072 -0.0306,-0.0254 -0.0859,-0.0254 -0.0351,0 -0.0684,0.0084 -0.0334,0.0084 -0.0641,0.0253 l 0,-0.0623 q 0.037,-0.0143 0.0718,-0.0214 0.0347,-0.0072 0.0677,-0.0072 0.089,0 0.1329,0.0462 0.044,0.0461 0.044,0.1399 z m 0.4797,-0.0136 0,0.2476 -0.0674,0 0,-0.2454 q 0,-0.0582 -0.0227,-0.0871 -0.0227,-0.029 -0.0681,-0.029 -0.0545,0 -0.086,0.0348 -0.0315,0.0348 -0.0315,0.0949 l 0,0.2318 -0.0678,0 0,-0.4102 0.0678,0 0,0.0638 q 0.0241,-0.037 0.0569,-0.0553 0.0328,-0.0184 0.0756,-0.0184 0.0707,0 0.107,0.0438 0.0362,0.0438 0.0362,0.1287 z m 0.4087,-0.2226 0,0.204 0.204,0 0,0.0622 -0.204,0 0,0.204 -0.0615,0 0,-0.204 -0.204,0 0,-0.0622 0.204,0 0,-0.204 0.0615,0 z"
           inkscape:connector-curvature="0"
           style="stroke:none" />
      </g>
      <g
         id="g19"
         transform="matrix(50,0,0,50,349.5873,278.8647)"
         font-size="0.75px"
         style="font-size:0.75px;font-family:sans-serif;fill:#b20000;stroke:#b20000">
        <path
           id="path21"
           d="m -0.5409,-0.1912 0,0.0629 q -0.0286,-0.0157 -0.0573,-0.0236 -0.0288,-0.0079 -0.0581,-0.0079 -0.0655,0 -0.1018,0.0416 -0.0362,0.0416 -0.0362,0.1166 0,0.0751 0.0362,0.1167 0.0363,0.0415 0.1018,0.0415 0.0293,0 0.0581,-0.0078 0.0287,-0.0079 0.0573,-0.0236 l 0,0.0622 q -0.0282,0.0132 -0.0584,0.0198 -0.0302,0.0066 -0.0643,0.0066 -0.0926,0 -0.1472,-0.0582 -0.0546,-0.0583 -0.0546,-0.1572 0,-0.1003 0.0552,-0.1578 0.0551,-0.0575 0.151,-0.0575 0.0312,0 0.0608,0.0064 0.0297,0.0064 0.0575,0.0193 z m 0.1838,-0.1323 0,0.1165 0.1388,0 0,0.0524 -0.1388,0 0,0.2226 q 0,0.0502 0.0138,0.0645 0.0137,0.0143 0.0558,0.0143 l 0.0692,0 0,0.0564 -0.0692,0 q -0.078,0 -0.1076,-0.0292 -0.0297,-0.0291 -0.0297,-0.106 l 0,-0.2226 -0.0494,0 0,-0.0524 0.0494,0 0,-0.1165 0.0677,0 z M 0.108,-0.144 Q 0.0967,-0.1506 0.0833,-0.1537 0.07,-0.1568 0.0538,-0.1568 q -0.0571,0 -0.0877,0.0371 -0.0306,0.0372 -0.0306,0.1068 l 0,0.2161 -0.0677,0 0,-0.4102 0.0677,0 0,0.0637 q 0.0213,-0.0373 0.0553,-0.0555 0.0341,-0.0181 0.0828,-0.0181 0.007,0 0.0154,9e-4 0.0084,9e-4 0.0187,0.0028 l 3e-4,0.0692 z m 0.0707,-0.2227 0.0674,0 0,0.5699 -0.0674,0 0,-0.5699 z m 0.4827,0.0996 0,0.204 0.204,0 0,0.0623 -0.204,0 0,0.204 -0.0615,0 0,-0.204 -0.204,0 0,-0.0623 0.204,0 0,-0.204 0.0615,0 z"
           inkscape:connector-curvature="0"
           style="stroke:none" />
      </g>
      <g
         id="g23"
         transform="matrix(50,0,0,50,49.5873,78.8647)"
         font-size="0.75px"
         style="font-size:0.75px;font-family:sans-serif;fill:#b20000;stroke:#b20000">
        <path
           id="path25"
           d="m -0.3428,-0.144 0,0.0637 q -0.0285,-0.0147 -0.0593,-0.022 -0.0308,-0.0073 -0.0637,-0.0073 -0.0502,0 -0.0753,0.0154 -0.0251,0.0153 -0.0251,0.0461 0,0.0235 0.018,0.0368 0.0179,0.0134 0.0721,0.0255 l 0.0231,0.0051 q 0.0718,0.0154 0.102,0.0434 0.0302,0.028 0.0302,0.0782 0,0.0571 -0.0452,0.0904 -0.0453,0.0334 -0.1244,0.0334 -0.0329,0 -0.0686,-0.0064 Q -0.5947,0.2518 -0.6343,0.239 l 0,-0.0696 q 0.0374,0.0195 0.0736,0.0292 0.0363,0.0097 0.0718,0.0097 0.0476,0 0.0732,-0.0163 Q -0.39,0.1757 -0.39,0.146 -0.39,0.1185 -0.4085,0.1039 -0.427,0.0892 -0.4896,0.0757 L -0.5131,0.0702 Q -0.5757,0.057 -0.6035,0.0297 -0.6314,0.0024 -0.6314,-0.0451 q 0,-0.0579 0.0411,-0.0894 0.041,-0.0315 0.1164,-0.0315 0.0374,0 0.0703,0.0055 0.033,0.0055 0.0608,0.0165 z m 0.1293,-0.0121 0.0674,0 0,0.4101 -0.0674,0 0,-0.4101 z m 0,-0.1597 0.0674,0 0,0.0853 -0.0674,0 0,-0.0853 z m 0.4783,0.36 q 0,-0.0732 -0.0302,-0.1135 -0.0303,-0.0403 -0.0848,-0.0403 -0.0542,0 -0.0844,0.0403 -0.0302,0.0403 -0.0302,0.1135 0,0.0729 0.0302,0.1132 0.0302,0.0402 0.0844,0.0402 0.0545,0 0.0848,-0.0402 0.0302,-0.0403 0.0302,-0.1132 z m 0.0673,0.1589 q 0,0.1048 -0.0465,0.1559 Q 0.2391,0.41 0.1432,0.41 0.1077,0.41 0.0762,0.4047 0.0447,0.3994 0.015,0.3884 l 0,-0.0655 q 0.0297,0.0161 0.0586,0.0238 0.0289,0.0077 0.059,0.0077 0.0662,0 0.0992,-0.0346 0.033,-0.0346 0.033,-0.1046 l 0,-0.0333 Q 0.2439,0.2181 0.2113,0.2361 0.1787,0.254 0.1333,0.254 0.0579,0.254 0.0117,0.1965 -0.0344,0.1391 -0.0344,0.0442 q 0,-0.0952 0.0461,-0.1527 0.0462,-0.0575 0.1216,-0.0575 0.0454,0 0.078,0.0179 0.0326,0.018 0.0535,0.0542 l 0,-0.0622 0.0673,0 0,0.3592 z m 0.1048,-0.1845 0.1974,0 0,0.06 -0.1974,0 0,-0.06 z"
           inkscape:connector-curvature="0"
           style="stroke:none" />
      </g>
      <g
         id="g27"
         transform="matrix(50,0,0,50,212.0873,153.8647)"
         font-size="0.75px"
         style="font-size:0.75px;font-family:sans-serif;fill:#ffffff;stroke:#ffffff">
        <circle
           id="circle29"
           r="0.44999999"
           cy="0"
           cx="0"
           style="stroke:none" />
        <circle
           id="circle31"
           r="0.44999999"
           cy="0"
           cx="0"
           style="fill:none;stroke:#000000;stroke-width:0.1" />
      </g>
      <g
         style="font-size:0.75px;font-family:sans-serif;fill:#b20000;stroke:#b20000;stroke-width:0.1"
         id="g33"
         transform="matrix(50,0,0,50,549.5873,28.8647)"
         font-size="0.75px">
        <path
           style="stroke:none"
           inkscape:connector-curvature="0"
           id="path35"
           d="m -0.3834,-0.1912 0,0.0629 q -0.0286,-0.0157 -0.0573,-0.0236 -0.0288,-0.0079 -0.0581,-0.0079 -0.0655,0 -0.1018,0.0416 -0.0362,0.0416 -0.0362,0.1166 0,0.0751 0.0362,0.1167 0.0363,0.0415 0.1018,0.0415 0.0293,0 0.0581,-0.0078 0.0287,-0.0079 0.0573,-0.0236 l 0,0.0622 q -0.0282,0.0132 -0.0584,0.0198 -0.0302,0.0066 -0.0643,0.0066 -0.0927,0 -0.1472,-0.0582 -0.0546,-0.0583 -0.0546,-0.1572 0,-0.1003 0.0551,-0.1578 0.0551,-0.0575 0.1511,-0.0575 0.0311,0 0.0608,0.0064 0.0296,0.0064 0.0575,0.0193 z m 0.1838,-0.1323 0,0.1165 0.1388,0 0,0.0524 -0.1388,0 0,0.2226 q 0,0.0502 0.0137,0.0645 0.0138,0.0143 0.0559,0.0143 l 0.0692,0 0,0.0564 -0.0692,0 q -0.078,0 -0.1077,-0.0292 -0.0296,-0.0291 -0.0296,-0.106 l 0,-0.2226 -0.0495,0 0,-0.0524 0.0495,0 0,-0.1165 0.0677,0 z M 0.2655,-0.144 Q 0.2542,-0.1506 0.2408,-0.1537 0.2274,-0.1568 0.2113,-0.1568 q -0.0571,0 -0.0877,0.0371 -0.0306,0.0372 -0.0306,0.1068 l 0,0.2161 -0.0677,0 0,-0.4102 0.0677,0 0,0.0637 q 0.0213,-0.0373 0.0553,-0.0555 0.0341,-0.0181 0.0828,-0.0181 0.0069,0 0.0154,9e-4 0.0084,9e-4 0.0186,0.0028 l 4e-4,0.0692 z m 0.0707,-0.2227 0.0674,0 0,0.5699 -0.0674,0 0,-0.5699 z m 0.1743,0.3344 0.1974,0 0,0.06 -0.1974,0 0,-0.06 z" />
      </g>
      <g
         id="g41"
         transform="matrix(50,0,0,50,249.5873,128.8647)"
         font-size="0.75px"
         style="font-size:0.75px;font-family:sans-serif;stroke-width:0.02">
        <path
           id="path43"
           d="M -3.1083,1.5884 -1.5672,0.8772"
           inkscape:connector-curvature="0"
           style="fill:none" />
        <path
           id="path45"
           d="M -1.5986,0.8091 -1.5357,0.9452 -1.204,0.7095 Z"
           inkscape:connector-curvature="0"
           style="stroke:none" />
      </g>
      <g
         id="g47"
         transform="matrix(50,0,0,50,249.5873,128.8647)"
         font-size="0.75px"
         style="font-size:0.75px;font-family:sans-serif;stroke-width:0.02">
        <path
           id="path49"
           d="m -1.204,0.2905 -1.6985,-0.784"
           inkscape:connector-curvature="0"
           style="fill:none" />
        <path
           id="path51"
           d="m -2.934,-0.4254 0.0629,-0.1362 -0.3946,-0.0995 z"
           inkscape:connector-curvature="0"
           style="stroke:none" />
      </g>
      <g
         id="g53"
         transform="matrix(50,0,0,50,249.5873,128.8647)"
         font-size="0.75px"
         style="font-size:0.75px;font-family:sans-serif;stroke-width:0.02">
        <path
           id="path55"
           d="m 3.017,-2 1.7751,0"
           inkscape:connector-curvature="0"
           style="fill:none" />
        <path
           id="path57"
           d="m 4.7921,-2.075 0,0.15 0.4,-0.075 z"
           inkscape:connector-curvature="0"
           style="stroke:none" />
      </g>
      <g
         id="g59"
         transform="matrix(50,0,0,50,249.5873,128.8647)"
         font-size="0.75px"
         style="font-size:0.75px;font-family:sans-serif;stroke-width:0.02">
        <path
           id="path61"
           d="M 6,-1.5227 6,2.2201"
           inkscape:connector-curvature="0"
           style="fill:none" />
        <path
           id="path63"
           d="m 6.075,2.2201 -0.15,0 0.075,0.4 z"
           inkscape:connector-curvature="0"
           style="stroke:none" />
      </g>
      <g
         id="g65"
         transform="matrix(50,0,0,50,249.5873,128.8647)"
         font-size="0.75px"
         style="font-size:0.75px;font-family:sans-serif;stroke-width:0.02">
        <path
           id="path67"
           d="M 5.1405,3 3.3654,3"
           inkscape:connector-curvature="0"
           style="fill:none" />
        <path
           id="path69"
           d="m 3.3654,3.075 0,-0.15 -0.4,0.075 z"
           inkscape:connector-curvature="0"
           style="stroke:none" />
      </g>
      <g
         id="g71"
         transform="matrix(50,0,0,50,462.2323,278.8647)"
         font-size="0.75px"
         style="font-size:0.75px;font-family:sans-serif;stroke-width:0.02">
        <circle
           id="circle73"
           r="0.2105"
           cy="0"
           cx="0"
           style="stroke:none" />
      </g>
      <g
         id="g75"
         transform="matrix(50,0,0,50,249.5873,128.8647)"
         font-size="0.75px"
         style="font-size:0.75px;font-family:sans-serif;stroke-width:0.02">
        <path
           id="path77"
           d="M 2,2.5227 2,1.2799"
           inkscape:connector-curvature="0"
           style="fill:none" />
        <path
           id="path79"
           d="m 1.925,1.2799 0.15,0 L 2,0.8799 Z"
           inkscape:connector-curvature="0"
           style="stroke:none" />
      </g>
      <g
         id="g81"
         transform="matrix(50,0,0,50,249.5873,128.8647)"
         font-size="0.75px"
         style="font-size:0.75px;font-family:sans-serif;stroke-width:0.02">
        <path
           id="path83"
           d="M 2,0.1201 2,-1.1875"
           inkscape:connector-curvature="0"
           style="fill:none" />
        <path
           id="path85"
           d="m 1.925,-1.1875 0.15,0 -0.075,-0.4 z"
           inkscape:connector-curvature="0"
           style="stroke:none" />
      </g>
      <g
         style="font-size:0.75px;font-family:sans-serif;stroke-width:0.02"
         id="g87"
         transform="matrix(48.629407,0,0,50,249.23095,128.8647)"
         font-size="0.75px">
        <path
           style="fill:none"
           inkscape:connector-curvature="0"
           id="path89"
           d="m -0.25,0.5 1.9599,0" />
      </g>
      <g
         id="g91"
         transform="matrix(50,0,0,50,249.5873,128.8647)"
         font-size="0.75px"
         style="font-size:0.75px;font-family:sans-serif;stroke-width:0.02">
        <path
           id="path93"
           d="m -4,-0.4282 0,1.4564"
           inkscape:connector-curvature="0"
           style="fill:none" />
        <path
           id="path95"
           d="m -3.925,1.0282 -0.15,0 0.075,0.4 z"
           inkscape:connector-curvature="0"
           style="stroke:none" />
      </g>
      <g
         id="g97"
         transform="matrix(50,0,0,50,49.5873,143.8647)"
         font-size="0.75px"
         style="font-size:0.75px;font-family:sans-serif;stroke-width:0.02">
        <circle
           id="circle99"
           r="0.2105"
           cy="0"
           cx="0"
           style="stroke:none" />
      </g>
      <g
         transform="matrix(2,0,0,2,49.222198,-468.52076)"
         id="g3204">
        <g
           style="font-style:normal;font-variant:normal;font-weight:normal;font-stretch:normal;letter-spacing:normal;word-spacing:normal;text-anchor:start;fill:none;stroke:#000000;stroke-linecap:butt;stroke-linejoin:miter;stroke-miterlimit:10.43299961;stroke-dasharray:none;stroke-dashoffset:0;stroke-opacity:1"
           id="content"
           transform="matrix(0.51428571,0,0,-0.51428571,-90,525.75)"
           xml:space="preserve"
           stroke-miterlimit="10.433"
           font-style="normal"
           font-variant="normal"
           font-weight="normal"
           font-stretch="normal"
           font-size-adjust="none"
           letter-spacing="normal"
           word-spacing="normal"><path
             style="fill:#000000;stroke-width:0"
             inkscape:connector-curvature="0"
             d="m 462.55,417.51 0.15,-0.06 0.16,-0.06 0.15,-0.06 0.15,-0.05 0.14,-0.05 0.15,-0.04 0.15,-0.05 0.14,-0.03 0.15,-0.04 0.14,-0.03 0.28,-0.06 0.27,-0.05 0.28,-0.03 0.26,-0.03 0.26,-0.02 0.26,-0.02 0.25,-0.01 0.24,-0.01 0.24,0 0.23,0 0.23,0 0,1.09 c -1.09,0 -1.7,0 -2.64,0.25 l 0,0 c 1.14,0.41 2.19,0.46 3.03,0.46 1.25,0 1.46,-0.05 2.35,-0.3 -0.75,-0.35 -0.85,-0.41 -2.74,-0.41 l 0,-1.09 c 1.3,0 4.03,0 4.03,1.55 0,1.2 -1.75,1.34 -3.64,1.34 -1.04,0 -2.78,-0.09 -4.62,-0.94 -1.16,0.6 -2,1.53 -2,2.88 0,3.04 4.89,4.84 9.37,4.84 0.8,0 2.58,0 4.58,-1.41 0.55,-0.39 0.64,-0.48 1,-0.48 0.64,0 1.34,0.64 1.34,1.34 0,0.94 -3.04,2.83 -6.42,2.83 -5.73,0 -11.11,-3.33 -11.11,-7.12 0,-2.14 1.78,-3.38 1.99,-3.53 -2.94,-1.65 -4.53,-4.44 -4.53,-6.72 0,-3.25 2.84,-6.28 8.12,-6.28 6.58,0 9.36,4.37 9.36,5.12 0,0.3 -0.25,0.5 -0.55,0.5 -0.25,0 -0.39,-0.2 -0.5,-0.34 -0.7,-1.14 -1.89,-2.99 -7.87,-2.99 -3.03,0 -7.27,0.74 -7.27,4.28 0,1.69 1.39,4.33 4.44,5.83 z"
             id="path3207" /></g>      </g>
    </g>
  </g>
</svg>
