<?xml version="1.0" encoding="UTF-8" standalone="no"?>
<svg
   xmlns:dc="http://purl.org/dc/elements/1.1/"
   xmlns:cc="http://creativecommons.org/ns#"
   xmlns:rdf="http://www.w3.org/1999/02/22-rdf-syntax-ns#"
   xmlns:svg="http://www.w3.org/2000/svg"
   xmlns="http://www.w3.org/2000/svg"
   xmlns:sodipodi="http://sodipodi.sourceforge.net/DTD/sodipodi-0.dtd"
   xmlns:inkscape="http://www.inkscape.org/namespaces/inkscape"
   font-size="12px"
   font-style="normal"
   font-weight="normal"
   height="265"
   stroke-miterlimit="10"
   width="1750"
   id="svg2"
   version="1.1"
   inkscape:version="0.91 r13725"
   sodipodi:docname="WAIT-stg-resynth.svg"
   style="font-style:normal;font-weight:normal;font-size:12px;font-family:Dialog;color-interpolation:auto;fill:#000000;fill-opacity:1;stroke:#000000;stroke-width:1;stroke-linecap:square;stroke-linejoin:miter;stroke-miterlimit:10;stroke-dasharray:none;stroke-dashoffset:0;stroke-opacity:1;color-rendering:auto;image-rendering:auto;shape-rendering:auto;text-rendering:auto">
  <metadata
     id="metadata97">
    <rdf:RDF>
      <cc:Work
         rdf:about="">
        <dc:format>image/svg+xml</dc:format>
        <dc:type
           rdf:resource="http://purl.org/dc/dcmitype/StillImage" />
        <dc:title></dc:title>
      </cc:Work>
    </rdf:RDF>
  </metadata>
  <sodipodi:namedview
     pagecolor="#ffffff"
     bordercolor="#666666"
     borderopacity="1"
     objecttolerance="10"
     gridtolerance="10"
     guidetolerance="10"
     inkscape:pageopacity="0"
     inkscape:pageshadow="2"
     inkscape:window-width="1680"
     inkscape:window-height="1005"
     id="namedview95"
     showgrid="false"
     inkscape:zoom="0.44476327"
     inkscape:cx="67.451613"
     inkscape:cy="132.5"
     inkscape:window-x="0"
     inkscape:window-y="1"
     inkscape:window-maximized="1"
     inkscape:current-layer="svg2" />
  <!--Generated by the Batik Graphics2D SVG Generator-->
  <defs
     id="genericDefs" />
  <g
     id="g5"
     transform="translate(526.1504,-0.7033)">
    <g
       font-size="0.75px"
       transform="matrix(50,0,0,50,48.105,232.6)"
       id="g7"
       style="font-size:0.75px;font-family:sans-serif;fill:#b20000;stroke:#b20000">
      <path
         d="m -0.642,0.2526 q -0.0494,0 -0.1201,-0.0231 l 0,-0.0663 q 0.0707,0.0352 0.1231,0.0352 0.0311,0 0.0516,-0.0169 0.0205,-0.0168 0.0205,-0.0421 0,-0.037 -0.0575,-0.0612 L -0.6665,0.0603 q -0.0934,-0.0388 -0.0934,-0.1117 0,-0.052 0.0368,-0.0818 0.0368,-0.0299 0.1009,-0.0299 0.0333,0 0.0824,0.0092 l 0.015,0.0029 0,0.0601 q -0.0604,-0.018 -0.0959,-0.018 -0.0696,0 -0.0696,0.0505 0,0.0326 0.0527,0.055 l 0.0348,0.0146 q 0.059,0.0249 0.0835,0.0526 0.0245,0.0276 0.0245,0.069 0,0.0524 -0.0413,0.0861 -0.0414,0.0337 -0.1059,0.0337 z m 0.2769,-0.0092 0,-0.3977 0.0721,0 0,0.3977 z m 0,-0.4698 0,-0.0722 0.0721,0 0,0.0722 z m 0.2182,0.602 0.0085,-0.0626 q 0.0626,0.0296 0.1234,0.0296 0.1219,0 0.1219,-0.1292 l 0,-0.0626 q -0.0399,0.0834 -0.1311,0.0834 -0.0714,0 -0.1135,-0.052 -0.0421,-0.052 -0.0421,-0.1402 0,-0.0908 0.048,-0.148 0.0479,-0.0571 0.1241,-0.0571 0.0667,0 0.1146,0.0542 l 0,-0.0454 0.0725,0 0,0.2893 q 0,0.0934 -0.0097,0.1382 Q 0.16,0.3181 0.1333,0.3467 0.0861,0.3968 -0.0135,0.3968 q -0.0696,0 -0.1334,-0.0212 z m 0.2538,-0.2699 0,-0.1652 q -0.0476,-0.0494 -0.1036,-0.0494 -0.0498,0 -0.078,0.0399 -0.0282,0.0399 -0.0282,0.1095 0,0.1308 0.0919,0.1308 0.0626,0 0.1179,-0.0656 z m 0.4113,0.1377 0,-0.1897 -0.1897,0 0,-0.0542 0.1897,0 0,-0.1897 0.0542,0 0,0.1897 0.1897,0 0,0.0542 -0.1897,0 0,0.1897 z"
         id="path9"
         inkscape:connector-curvature="0"
         style="stroke:none" />
    </g>
    <g
       font-size="0.75px"
       transform="matrix(50,0,0,50,223.1042,132.6016)"
       id="g11"
       style="font-size:0.75px;font-family:sans-serif;fill:#ffffff;stroke:#ffffff">
      <circle
         cx="0"
         cy="0"
         r="0.44999999"
         id="circle13"
         style="stroke:none" />
      <circle
         cx="0"
         cy="0"
         r="0.44999999"
         id="circle15"
         style="fill:none;stroke:#000000;stroke-width:0.1" />
    </g>
    <g
       font-size="0.5px"
       font-style="italic"
       transform="matrix(50,0,0,50,223.1042,132.6016)"
       id="g17"
       style="font-style:italic;font-size:0.5px;font-family:sans-serif;fill:#595959;stroke:#595959;stroke-width:0.1">
      <path
         d="M -0.0548,0.9322 -0.0852,0.7764 -0.1781,0.9322 Z m 0.0265,0.1382 -0.0193,-0.1001 -0.153,0 -0.0598,0.1001 -0.0477,0 0.2156,-0.3614 0.0508,0 0.0688,0.3614 z m 0.1363,0 0.0072,-0.0362 0.0723,0 L 0.2445,0.7491 0.1686,0.7671 0.176,0.73 0.3026,0.7 0.2358,1.0342 l 0.0723,0 -0.0073,0.0362 z"
         id="path19"
         inkscape:connector-curvature="0"
         style="stroke:none" />
    </g>
    <g
       font-size="0.75px"
       transform="matrix(50,0,0,50,48.1042,32.6016)"
       id="g21"
       style="font-size:0.75px;font-family:sans-serif;fill:#b20000;stroke:#b20000;stroke-width:0.1">
      <path
         d="m -0.5742,0.2526 q -0.0495,0 -0.1201,-0.0231 l 0,-0.0663 q 0.0706,0.0352 0.123,0.0352 0.0311,0 0.0516,-0.0169 0.0206,-0.0168 0.0206,-0.0421 0,-0.037 -0.0575,-0.0612 L -0.5988,0.0603 q -0.0933,-0.0388 -0.0933,-0.1117 0,-0.052 0.0368,-0.0818 0.0368,-0.0299 0.1009,-0.0299 0.0333,0 0.0824,0.0092 l 0.015,0.0029 0,0.0601 q -0.0605,-0.018 -0.096,-0.018 -0.0696,0 -0.0696,0.0505 0,0.0326 0.0528,0.055 l 0.0348,0.0146 q 0.0589,0.0249 0.0835,0.0526 0.0245,0.0276 0.0245,0.069 0,0.0524 -0.0414,0.0861 -0.0414,0.0337 -0.1058,0.0337 z m 0.2768,-0.0092 0,-0.3977 0.0722,0 0,0.3977 z m 0,-0.4698 0,-0.0722 0.0722,0 0,0.0722 z m 0.2183,0.602 0.0084,-0.0626 q 0.0626,0.0296 0.1234,0.0296 0.122,0 0.122,-0.1292 l 0,-0.0626 q -0.0399,0.0834 -0.1311,0.0834 -0.0714,0 -0.1135,-0.052 -0.0422,-0.052 -0.0422,-0.1402 0,-0.0908 0.048,-0.148 0.048,-0.0571 0.1242,-0.0571 0.0666,0 0.1146,0.0542 l 0,-0.0454 0.0725,0 0,0.2893 q 0,0.0934 -0.0097,0.1382 Q 0.2278,0.3181 0.201,0.3467 0.1538,0.3968 0.0542,0.3968 q -0.0696,0 -0.1333,-0.0212 z m 0.2538,-0.2699 0,-0.1652 Q 0.1271,-0.1089 0.071,-0.1089 q -0.0498,0 -0.078,0.0399 -0.0282,0.0399 -0.0282,0.1095 0,0.1308 0.092,0.1308 0.0626,0 0.1179,-0.0656 z m 0.1944,-0.052 0,-0.0542 0.3252,0 0,0.0542 z"
         id="path23"
         inkscape:connector-curvature="0"
         style="stroke:none" />
    </g>
    <g
       font-size="0.75px"
       transform="matrix(50,0,0,50,448.1042,32.6016)"
       id="g25"
       style="font-size:0.75px;font-family:sans-serif;fill:#0000b2;stroke:#0000b2;stroke-width:0.1">
      <path
         d="m -0.7396,0.1641 q -0.0494,0 -0.1201,-0.0231 l 0,-0.0662 q 0.0707,0.0351 0.1231,0.0351 0.0311,0 0.0516,-0.0168 0.0205,-0.0169 0.0205,-0.0421 0,-0.037 -0.0575,-0.0612 l -0.0421,-0.0179 q -0.0934,-0.0389 -0.0934,-0.1117 0,-0.052 0.0368,-0.0819 0.0368,-0.0298 0.1009,-0.0298 0.0333,0 0.0824,0.0091 l 0.015,0.003 0,0.06 q -0.0604,-0.0179 -0.0959,-0.0179 -0.0696,0 -0.0696,0.0505 0,0.0326 0.0527,0.0549 l 0.0348,0.0147 q 0.059,0.0249 0.0835,0.0525 0.0246,0.0277 0.0246,0.0691 0,0.0523 -0.0414,0.086 -0.0414,0.0337 -0.1059,0.0337 z m 0.482,-0.0597 q -0.0648,0.0597 -0.1249,0.0597 -0.0494,0 -0.082,-0.0309 -0.0326,-0.031 -0.0326,-0.0782 0,-0.0652 0.0547,-0.1002 0.0548,-0.0349 0.1569,-0.0349 l 0.0173,0 0,-0.048 q 0,-0.0692 -0.0711,-0.0692 -0.0571,0 -0.1234,0.0351 l 0,-0.0597 q 0.0729,-0.0296 0.1366,-0.0296 0.0666,0 0.0983,0.03 0.0317,0.03 0.0317,0.0934 l 0,0.1802 q 0,0.0618 0.0381,0.0618 0.0047,0 0.0139,-0.0014 l 0.0051,0.0399 q -0.0245,0.0117 -0.0542,0.0117 -0.0505,0 -0.0644,-0.0597 z m -0.0106,-0.0392 0,-0.1029 -0.0242,-7e-4 q -0.0593,0 -0.096,0.0225 -0.0366,0.0225 -0.0366,0.0592 0,0.026 0.0183,0.0439 0.0183,0.018 0.0447,0.018 0.045,0 0.0938,-0.04 z m 0.2197,0.0898 0,-0.3977 0.0721,0 0,0.0747 q 0.0571,-0.0835 0.1399,-0.0835 0.0516,0 0.0824,0.0327 0.0308,0.0328 0.0308,0.0881 l 0,0.2857 -0.0722,0 0,-0.2622 q 0,-0.0444 -0.013,-0.0632 -0.013,-0.0189 -0.043,-0.0189 -0.0663,0 -0.1249,0.0868 l 0,0.2575 z m 0.6643,0 0,-0.1897 -0.1897,0 0,-0.0542 0.1897,0 0,-0.1897 0.0542,0 0,0.1897 0.1897,0 0,0.0542 -0.1897,0 0,0.1897 z"
         id="path27"
         inkscape:connector-curvature="0"
         style="stroke:none" />
    </g>
    <g
       font-size="0.75px"
       transform="matrix(50,0,0,50,648.1042,232.6016)"
       id="g29"
       style="font-size:0.75px;font-family:sans-serif;fill:#0000b2;stroke:#0000b2;stroke-width:0.1">
      <path
         d="m -0.6718,0.1546 q -0.0495,0 -0.1201,-0.023 l 0,-0.0663 q 0.0706,0.0351 0.123,0.0351 0.0311,0 0.0517,-0.0168 0.0205,-0.0169 0.0205,-0.0421 0,-0.037 -0.0575,-0.0612 l -0.0422,-0.0179 q -0.0933,-0.0388 -0.0933,-0.1117 0,-0.052 0.0368,-0.0819 0.0368,-0.0298 0.1009,-0.0298 0.0333,0 0.0824,0.0091 l 0.015,0.003 0,0.06 q -0.0605,-0.0179 -0.096,-0.0179 -0.0696,0 -0.0696,0.0505 0,0.0326 0.0528,0.055 l 0.0348,0.0146 q 0.0589,0.0249 0.0835,0.0526 0.0245,0.0276 0.0245,0.069 0,0.0523 -0.0414,0.086 -0.0414,0.0337 -0.1058,0.0337 z m 0.4819,-0.0597 q -0.0648,0.0597 -0.1249,0.0597 -0.0494,0 -0.082,-0.0309 -0.0326,-0.031 -0.0326,-0.0782 0,-0.0652 0.0548,-0.1002 0.0547,-0.0349 0.1569,-0.0349 l 0.0172,0 0,-0.048 q 0,-0.0692 -0.071,-0.0692 -0.0572,0 -0.1235,0.0351 l 0,-0.0597 q 0.0729,-0.0296 0.1366,-0.0296 0.0667,0 0.0984,0.03 0.0316,0.03 0.0316,0.0934 l 0,0.1802 q 0,0.0619 0.0381,0.0619 0.0048,0 0.0139,-0.0015 l 0.0052,0.0399 q -0.0246,0.0117 -0.0542,0.0117 -0.0506,0 -0.0645,-0.0597 z m -0.0106,-0.0391 0,-0.1029 -0.0242,-8e-4 q -0.0593,0 -0.0959,0.0225 -0.0366,0.0226 -0.0366,0.0592 0,0.026 0.0183,0.0439 0.0183,0.018 0.0446,0.018 0.0451,0 0.0938,-0.0399 z m 0.2197,0.0897 0,-0.3977 0.0722,0 0,0.0747 q 0.0571,-0.0835 0.1399,-0.0835 0.0516,0 0.0824,0.0328 0.0307,0.0327 0.0307,0.088 l 0,0.2857 -0.0721,0 0,-0.2622 q 0,-0.0443 -0.013,-0.0632 -0.013,-0.0189 -0.0431,-0.0189 -0.0662,0 -0.1248,0.0868 l 0,0.2575 z m 0.4475,-0.1897 0,-0.0542 0.3252,0 0,0.0542 z"
         id="path31"
         inkscape:connector-curvature="0"
         style="stroke:none" />
    </g>
    <g
       font-size="0.75px"
       transform="matrix(50,0,0,50,448.1042,232.6016)"
       id="g33"
       style="font-size:0.75px;font-family:sans-serif;fill:#b20000;stroke:#b20000;stroke-width:0.1">
      <path
         d="m -0.6445,0.2147 q -0.0806,0 -0.1337,-0.0596 -0.0531,-0.0597 -0.0531,-0.1506 0,-0.097 0.0526,-0.1512 0.0525,-0.0542 0.1466,-0.0542 0.0465,0 0.104,0.0128 l 0,0.0604 q -0.0611,-0.0179 -0.0996,-0.0179 -0.0553,0 -0.0888,0.0416 -0.0335,0.0415 -0.0335,0.1107 0,0.0671 0.0344,0.1084 0.0344,0.0414 0.0901,0.0414 0.0495,0 0.1018,-0.0253 l 0,0.0623 q -0.0699,0.0212 -0.1208,0.0212 z m 0.3482,0 q -0.0549,0 -0.0857,-0.0314 -0.0307,-0.0315 -0.0307,-0.0876 l 0,-0.2336 -0.0498,0 0,-0.0542 0.0498,0 0,-0.0722 0.0721,-0.0069 0,0.0791 0.104,0 0,0.0542 -0.104,0 0,0.2204 q 0,0.078 0.0674,0.078 0.0143,0 0.0348,-0.0047 l 0,0.0498 q -0.0333,0.0091 -0.0579,0.0091 z m 0.1612,-0.0091 0,-0.3977 0.0721,0 0,0.0747 q 0.0429,-0.0835 0.1245,-0.0835 0.011,0 0.0231,0.0018 l 0,0.0674 q -0.0187,-0.0062 -0.033,-0.0062 -0.0684,0 -0.1146,0.0813 l 0,0.2622 z m 0.3069,0 0,-0.5783 0.0721,0 0,0.5783 z m 0.4156,0 0,-0.1897 -0.1897,0 0,-0.0542 0.1897,0 0,-0.1897 0.0542,0 0,0.1897 0.1897,0 0,0.0542 -0.1897,0 0,0.1897 z"
         id="path35"
         inkscape:connector-curvature="0"
         style="stroke:none" />
    </g>
    <g
       font-size="0.75px"
       transform="matrix(50,0,0,50,648.1042,32.6016)"
       id="g37"
       style="font-size:0.75px;font-family:sans-serif;fill:#b20000;stroke:#b20000;stroke-width:0.1">
      <path
         d="m -0.5768,0.2147 q -0.0805,0 -0.1336,-0.0596 -0.0531,-0.0597 -0.0531,-0.1506 0,-0.097 0.0525,-0.1512 0.0526,-0.0542 0.1467,-0.0542 0.0465,0 0.104,0.0128 l 0,0.0604 q -0.0612,-0.0179 -0.0996,-0.0179 -0.0553,0 -0.0888,0.0416 -0.0336,0.0415 -0.0336,0.1107 0,0.0671 0.0345,0.1084 0.0344,0.0414 0.0901,0.0414 0.0494,0 0.1018,-0.0253 l 0,0.0623 q -0.07,0.0212 -0.1209,0.0212 z m 0.3483,0 q -0.0549,0 -0.0857,-0.0314 Q -0.345,0.1518 -0.345,0.0957 l 0,-0.2336 -0.0498,0 0,-0.0542 0.0498,0 0,-0.0722 0.0722,-0.0069 0,0.0791 0.104,0 0,0.0542 -0.104,0 0,0.2204 q 0,0.078 0.0674,0.078 0.0142,0 0.0347,-0.0047 l 0,0.0498 Q -0.204,0.2147 -0.2285,0.2147 Z m 0.1611,-0.0091 0,-0.3977 0.0722,0 0,0.0747 q 0.0428,-0.0835 0.1245,-0.0835 0.011,0 0.023,0.0018 l 0,0.0674 q -0.0186,-0.0062 -0.0329,-0.0062 -0.0685,0 -0.1146,0.0813 l 0,0.2622 z m 0.3069,0 0,-0.5783 0.0721,0 0,0.5783 z m 0.1989,-0.1897 0,-0.0542 0.3251,0 0,0.0542 z"
         id="path39"
         inkscape:connector-curvature="0"
         style="stroke:none" />
    </g>
    <g
       font-size="0.75px"
       transform="matrix(50,0,0,50,273.1042,107.6016)"
       id="g41"
       style="font-size:0.75px;font-family:sans-serif;stroke-width:0.02">
      <path
         d="M -3.6379,2.0074 -1.7814,0.9465"
         id="path43"
         inkscape:connector-curvature="0"
         style="fill:none" />
      <path
         d="m -1.8186,0.8814 0.0744,0.1302 0.3101,-0.2635 z"
         id="path45"
         inkscape:connector-curvature="0"
         style="stroke:none" />
    </g>
    <g
       font-size="0.75px"
       transform="matrix(50,0,0,50,273.1042,107.6016)"
       id="g47"
       style="font-size:0.75px;font-family:sans-serif;stroke-width:0.02">
      <path
         d="M -1.4341,0.2519 -3.3584,-0.8476"
         id="path49"
         inkscape:connector-curvature="0"
         style="fill:none" />
      <path
         d="m -3.3956,-0.7825 0.0744,-0.1303 -0.3845,-0.1333 z"
         id="path51"
         inkscape:connector-curvature="0"
         style="stroke:none" />
    </g>
    <g
       font-size="0.75px"
       transform="matrix(50,0,0,50,273.1042,107.6016)"
       id="g53"
       style="font-size:0.75px;font-family:sans-serif;stroke-width:0.02">
      <path
         d="M -0.5431,0.2969 2.6275,-1.1122"
         id="path55"
         inkscape:connector-curvature="0"
         style="fill:none" />
    </g>
    <g
       font-size="0.75px"
       transform="matrix(50,0,0,50,273.1042,107.6016)"
       id="g57"
       style="font-size:0.75px;font-family:sans-serif;stroke-width:0.02">
      <path
         d="m -4.5,-0.948 0,2.496"
         id="path59"
         inkscape:connector-curvature="0"
         style="fill:none" />
      <path
         d="m -4.425,1.548 -0.15,0 0.075,0.4 z"
         id="path61"
         inkscape:connector-curvature="0"
         style="stroke:none" />
    </g>
    <g
       font-size="0.75px"
       transform="matrix(50,0,0,50,48.1042,122.6016)"
       id="g63"
       style="font-size:0.75px;font-family:sans-serif;stroke-width:0.02">
      <circle
         cx="0"
         cy="0"
         r="0.2105"
         id="circle65"
         style="stroke:none" />
    </g>
    <g
       font-size="0.75px"
       transform="matrix(50,0,0,50,273.1042,107.6016)"
       id="g67"
       style="font-size:0.75px;font-family:sans-serif;stroke-width:0.02">
      <path
         d="m 3.5,2.0182 0,-2.7304"
         id="path69"
         inkscape:connector-curvature="0"
         style="fill:none" />
      <path
         d="m 3.425,-0.7122 0.15,0 -0.075,-0.4 z"
         id="path71"
         inkscape:connector-curvature="0"
         style="stroke:none" />
    </g>
    <g
       font-size="0.75px"
       transform="matrix(50,0,0,50,273.1042,107.6016)"
       id="g73"
       style="font-size:0.75px;font-family:sans-serif;stroke-width:0.02">
      <path
         d="m 4.4597,-1.5 1.7768,0"
         id="path75"
         inkscape:connector-curvature="0"
         style="fill:none" />
      <path
         d="m 6.2365,-1.575 0,0.15 0.4,-0.075 z"
         id="path77"
         inkscape:connector-curvature="0"
         style="stroke:none" />
    </g>
    <g
       font-size="0.75px"
       transform="matrix(50,0,0,50,273.1042,107.6016)"
       id="g79"
       style="font-size:0.75px;font-family:sans-serif;stroke-width:0.02">
      <path
         d="m 7.5,-1.0182 0,2.748"
         id="path81"
         inkscape:connector-curvature="0"
         style="fill:none" />
      <path
         d="m 7.575,1.7298 -0.15,0 0.075,0.4 z"
         id="path83"
         inkscape:connector-curvature="0"
         style="stroke:none" />
    </g>
    <g
       font-size="0.75px"
       transform="matrix(50,0,0,50,273.1042,107.6016)"
       id="g85"
       style="font-size:0.75px;font-family:sans-serif;stroke-width:0.02">
      <path
         d="m 6.6081,2.5 -1.7768,0"
         id="path87"
         inkscape:connector-curvature="0"
         style="fill:none" />
      <path
         d="m 4.8313,2.575 0,-0.15 -0.4,0.075 z"
         id="path89"
         inkscape:connector-curvature="0"
         style="stroke:none" />
    </g>
    <g
       font-size="0.75px"
       transform="matrix(50,0,0,50,559.0892,232.6016)"
       id="g91"
       style="font-size:0.75px;font-family:sans-serif;stroke-width:0.02">
      <circle
         cx="0"
         cy="0"
         r="0.2105"
         id="circle93"
         style="stroke:none" />
    </g>
  </g>
</svg>
