<?xml version="1.0" encoding="UTF-8" standalone="no"?>
<svg
   xmlns:dc="http://purl.org/dc/elements/1.1/"
   xmlns:cc="http://creativecommons.org/ns#"
   xmlns:rdf="http://www.w3.org/1999/02/22-rdf-syntax-ns#"
   xmlns:svg="http://www.w3.org/2000/svg"
   xmlns="http://www.w3.org/2000/svg"
   xmlns:sodipodi="http://sodipodi.sourceforge.net/DTD/sodipodi-0.dtd"
   xmlns:inkscape="http://www.inkscape.org/namespaces/inkscape"
   font-size="12px"
   font-style="normal"
   font-weight="normal"
   height="656"
   stroke-miterlimit="10"
   width="1750"
   id="svg2"
   version="1.1"
   inkscape:version="0.91 r13725"
   sodipodi:docname="WAIT-stg.svg"
   style="font-style:normal;font-weight:normal;font-size:12px;font-family:Dialog;color-interpolation:auto;fill:#000000;fill-opacity:1;stroke:#000000;stroke-width:1;stroke-linecap:square;stroke-linejoin:miter;stroke-miterlimit:10;stroke-dasharray:none;stroke-dashoffset:0;stroke-opacity:1;color-rendering:auto;image-rendering:auto;shape-rendering:auto;text-rendering:auto">
  <metadata
     id="metadata191">
    <rdf:RDF>
      <cc:Work
         rdf:about="">
        <dc:format>image/svg+xml</dc:format>
        <dc:type
           rdf:resource="http://purl.org/dc/dcmitype/StillImage" />
        <dc:title></dc:title>
      </cc:Work>
    </rdf:RDF>
  </metadata>
  <sodipodi:namedview
     pagecolor="#ffffff"
     bordercolor="#666666"
     borderopacity="1"
     objecttolerance="10"
     gridtolerance="10"
     guidetolerance="10"
     inkscape:pageopacity="0"
     inkscape:pageshadow="2"
     inkscape:window-width="1680"
     inkscape:window-height="1005"
     id="namedview189"
     showgrid="false"
     inkscape:zoom="0.3597561"
     inkscape:cx="-17.457627"
     inkscape:cy="328"
     inkscape:window-x="0"
     inkscape:window-y="1"
     inkscape:window-maximized="1"
     inkscape:current-layer="svg2" />
  <!--Generated by the Batik Graphics2D SVG Generator-->
  <defs
     id="genericDefs" />
  <g
     id="g5"
     transform="translate(545,0.8509)">
    <g
       transform="matrix(50,0,0,50,30,157.6)"
       id="g7"
       style="fill:#ffffff;stroke:#ffffff">
      <circle
         cx="0"
         cy="0"
         r="0.44999999"
         id="circle9"
         style="stroke:none" />
      <circle
         cx="0"
         cy="0"
         r="0.44999999"
         id="circle11"
         style="fill:none;stroke:#000000;stroke-width:0.1" />
      <circle
         cx="0"
         cy="0"
         r="0.26320001"
         id="circle13"
         style="fill:#000000;stroke:none;stroke-width:0.1" />
    </g>
    <g
       font-size="0.5px"
       font-style="italic"
       transform="matrix(50,0,0,50,30,157.6)"
       id="g15"
       style="font-style:italic;font-size:0.5px;font-family:sans-serif;fill:#595959;stroke:#595959;stroke-width:0.1">
      <path
         d="M -0.0862,0.9412 -0.1165,0.7854 -0.2094,0.9412 Z m 0.0266,0.1382 -0.0193,-0.1001 -0.1531,0 -0.0598,0.1001 -0.0476,0 0.2156,-0.3613 0.0508,0 0.0688,0.3613 z m 0.216,0.009 q -0.0559,0 -0.08,-0.0526 Q 0.0524,0.9832 0.0694,0.8985 0.0865,0.813 0.1316,0.761 0.1768,0.709 0.2337,0.709 0.2906,0.709 0.315,0.761 0.3394,0.813 0.3224,0.8978 0.3051,0.9847 0.2599,1.0365 0.2147,1.0884 0.1564,1.0884 Z M 0.1641,1.0523 q 0.0764,0 0.1075,-0.1553 0.0303,-0.1518 -0.0451,-0.1518 -0.0752,0 -0.1059,0.1533 -0.0307,0.1538 0.0435,0.1538 z"
         id="path17"
         inkscape:connector-curvature="0"
         style="stroke:none" />
    </g>
    <g
       font-size="0.75px"
       transform="matrix(50,0,0,50,155,32.6016)"
       id="g19"
       style="font-size:0.75px;font-family:sans-serif;fill:#b20000;stroke:#b20000;stroke-width:0.1">
      <path
         d="m -0.642,0.2526 q -0.0494,0 -0.1201,-0.0231 l 0,-0.0663 q 0.0707,0.0352 0.1231,0.0352 0.0311,0 0.0516,-0.0169 0.0205,-0.0168 0.0205,-0.0421 0,-0.037 -0.0575,-0.0612 L -0.6665,0.0603 q -0.0934,-0.0388 -0.0934,-0.1117 0,-0.052 0.0368,-0.0818 0.0368,-0.0299 0.1009,-0.0299 0.0333,0 0.0824,0.0092 l 0.015,0.0029 0,0.0601 q -0.0604,-0.018 -0.0959,-0.018 -0.0696,0 -0.0696,0.0505 0,0.0326 0.0527,0.055 l 0.0348,0.0146 q 0.059,0.0249 0.0835,0.0526 0.0245,0.0276 0.0245,0.069 0,0.0524 -0.0413,0.0861 -0.0414,0.0337 -0.1059,0.0337 z m 0.2769,-0.0092 0,-0.3977 0.0721,0 0,0.3977 z m 0,-0.4698 0,-0.0722 0.0721,0 0,0.0722 z m 0.2182,0.602 0.0085,-0.0626 q 0.0626,0.0296 0.1234,0.0296 0.1219,0 0.1219,-0.1292 l 0,-0.0626 q -0.0399,0.0834 -0.1311,0.0834 -0.0714,0 -0.1135,-0.052 -0.0421,-0.052 -0.0421,-0.1402 0,-0.0908 0.048,-0.148 0.0479,-0.0571 0.1241,-0.0571 0.0667,0 0.1146,0.0542 l 0,-0.0454 0.0725,0 0,0.2893 q 0,0.0934 -0.0097,0.1382 Q 0.16,0.3181 0.1333,0.3467 0.0861,0.3968 -0.0135,0.3968 q -0.0696,0 -0.1334,-0.0212 z m 0.2538,-0.2699 0,-0.1652 q -0.0476,-0.0494 -0.1036,-0.0494 -0.0498,0 -0.078,0.0399 -0.0282,0.0399 -0.0282,0.1095 0,0.1308 0.0919,0.1308 0.0626,0 0.1179,-0.0656 z m 0.4113,0.1377 0,-0.1897 -0.1897,0 0,-0.0542 0.1897,0 0,-0.1897 0.0542,0 0,0.1897 0.1897,0 0,0.0542 -0.1897,0 0,0.1897 z"
         id="path21"
         inkscape:connector-curvature="0"
         style="stroke:none" />
    </g>
    <g
       font-size="0.75px"
       transform="matrix(50,0,0,50,280,157.6016)"
       id="g23"
       style="font-size:0.75px;font-family:sans-serif;fill:#ffffff;stroke:#ffffff;stroke-width:0.1">
      <circle
         cx="0"
         cy="0"
         r="0.44999999"
         id="circle25"
         style="stroke:none" />
      <circle
         cx="0"
         cy="0"
         r="0.44999999"
         id="circle27"
         style="fill:none;stroke:#000000" />
    </g>
    <g
       font-size="0.5px"
       font-style="italic"
       transform="matrix(50,0,0,50,280,157.6016)"
       id="g29"
       style="font-style:italic;font-size:0.5px;font-family:sans-serif;fill:#595959;stroke:#595959;stroke-width:0.1">
      <path
         d="M -0.0548,0.9322 -0.0852,0.7764 -0.1781,0.9322 Z m 0.0265,0.1382 -0.0193,-0.1001 -0.153,0 -0.0598,0.1001 -0.0477,0 0.2156,-0.3614 0.0508,0 0.0688,0.3614 z m 0.1363,0 0.0072,-0.0362 0.0723,0 L 0.2445,0.7491 0.1686,0.7671 0.176,0.73 0.3026,0.7 0.2358,1.0342 l 0.0723,0 -0.0073,0.0362 z"
         id="path31"
         inkscape:connector-curvature="0"
         style="stroke:none" />
    </g>
    <g
       font-size="0.75px"
       transform="matrix(50,0,0,50,155,282.6016)"
       id="g33"
       style="font-size:0.75px;font-family:sans-serif;fill:#b20000;stroke:#b20000;stroke-width:0.1">
      <path
         d="m -0.5742,0.2526 q -0.0495,0 -0.1201,-0.0231 l 0,-0.0663 q 0.0706,0.0352 0.123,0.0352 0.0311,0 0.0516,-0.0169 0.0206,-0.0168 0.0206,-0.0421 0,-0.037 -0.0575,-0.0612 L -0.5988,0.0603 q -0.0933,-0.0388 -0.0933,-0.1117 0,-0.052 0.0368,-0.0818 0.0368,-0.0299 0.1009,-0.0299 0.0333,0 0.0824,0.0092 l 0.015,0.0029 0,0.0601 q -0.0605,-0.018 -0.096,-0.018 -0.0696,0 -0.0696,0.0505 0,0.0326 0.0528,0.055 l 0.0348,0.0146 q 0.0589,0.0249 0.0835,0.0526 0.0245,0.0276 0.0245,0.069 0,0.0524 -0.0414,0.0861 -0.0414,0.0337 -0.1058,0.0337 z m 0.2768,-0.0092 0,-0.3977 0.0722,0 0,0.3977 z m 0,-0.4698 0,-0.0722 0.0722,0 0,0.0722 z m 0.2183,0.602 0.0084,-0.0626 q 0.0626,0.0296 0.1234,0.0296 0.122,0 0.122,-0.1292 l 0,-0.0626 q -0.0399,0.0834 -0.1311,0.0834 -0.0714,0 -0.1135,-0.052 -0.0422,-0.052 -0.0422,-0.1402 0,-0.0908 0.048,-0.148 0.048,-0.0571 0.1242,-0.0571 0.0666,0 0.1146,0.0542 l 0,-0.0454 0.0725,0 0,0.2893 q 0,0.0934 -0.0097,0.1382 Q 0.2278,0.3181 0.201,0.3467 0.1538,0.3968 0.0542,0.3968 q -0.0696,0 -0.1333,-0.0212 z m 0.2538,-0.2699 0,-0.1652 Q 0.1271,-0.1089 0.071,-0.1089 q -0.0498,0 -0.078,0.0399 -0.0282,0.0399 -0.0282,0.1095 0,0.1308 0.092,0.1308 0.0626,0 0.1179,-0.0656 z m 0.1944,-0.052 0,-0.0542 0.3252,0 0,0.0542 z"
         id="path35"
         inkscape:connector-curvature="0"
         style="stroke:none" />
    </g>
    <g
       font-size="0.75px"
       transform="matrix(50,0,0,50,205,507.6016)"
       id="g37"
       style="font-size:0.75px;font-family:sans-serif;fill:#ffffff;stroke:#ffffff;stroke-width:0.1">
      <circle
         cx="0"
         cy="0"
         r="0.44999999"
         id="circle39"
         style="stroke:none" />
      <circle
         cx="0"
         cy="0"
         r="0.44999999"
         id="circle41"
         style="fill:none;stroke:#000000" />
      <circle
         cx="0"
         cy="0"
         r="0.26320001"
         id="circle43"
         style="fill:#000000;stroke:none" />
    </g>
    <g
       font-size="0.5px"
       font-style="italic"
       transform="matrix(50,0,0,50,205,507.6016)"
       id="g45"
       style="font-style:italic;font-size:0.5px;font-family:sans-serif;fill:#595959;stroke:#595959;stroke-width:0.1">
      <path
         d="m -0.2895,1.0794 0.0723,-0.3613 0.0938,0 q 0.0542,0 0.079,0.0205 0.0248,0.0205 0.0171,0.0591 -0.0131,0.0656 -0.0929,0.0935 0.0832,0.0271 0.069,0.0979 Q -0.06,1.033 -0.0939,1.0562 -0.1278,1.0794 -0.183,1.0794 Z m 0.0585,-0.0383 0.0105,0 q 0.0564,0 0.0744,-0.0071 Q -0.1117,1.0206 -0.1044,0.9842 -0.0979,0.952 -0.1225,0.9306 -0.147,0.9092 -0.1902,0.9092 l -0.0144,0 z m 0.0329,-0.1643 0.0163,0 q 0.041,0 0.0671,-0.0176 0.0261,-0.0176 0.0325,-0.0496 0.0107,-0.0532 -0.0719,-0.0532 l -0.02,0 z M 0.1064,1.0884 Q 0.0505,1.0884 0.0265,1.0358 0.0025,0.9832 0.0194,0.8985 0.0365,0.813 0.0817,0.761 0.1269,0.709 0.1838,0.709 0.2407,0.709 0.2651,0.761 0.2895,0.813 0.2725,0.8978 0.2551,0.9847 0.21,1.0365 0.1648,1.0884 0.1064,1.0884 Z M 0.1142,1.0523 q 0.0764,0 0.1074,-0.1553 0.0304,-0.1518 -0.045,-0.1518 -0.0752,0 -0.1059,0.1533 -0.0308,0.1538 0.0435,0.1538 z"
         id="path47"
         inkscape:connector-curvature="0"
         style="stroke:none" />
    </g>
    <g
       font-size="0.75px"
       transform="matrix(50,0,0,50,330,382.6016)"
       id="g49"
       style="font-size:0.75px;font-family:sans-serif;fill:#0000b2;stroke:#0000b2;stroke-width:0.1">
      <path
         d="m -0.7396,0.1641 q -0.0494,0 -0.1201,-0.0231 l 0,-0.0662 q 0.0707,0.0351 0.1231,0.0351 0.0311,0 0.0516,-0.0168 0.0205,-0.0169 0.0205,-0.0421 0,-0.037 -0.0575,-0.0612 l -0.0421,-0.0179 q -0.0934,-0.0389 -0.0934,-0.1117 0,-0.052 0.0368,-0.0819 0.0368,-0.0298 0.1009,-0.0298 0.0333,0 0.0824,0.0091 l 0.015,0.003 0,0.06 q -0.0604,-0.0179 -0.0959,-0.0179 -0.0696,0 -0.0696,0.0505 0,0.0326 0.0527,0.0549 l 0.0348,0.0147 q 0.059,0.0249 0.0835,0.0525 0.0246,0.0277 0.0246,0.0691 0,0.0523 -0.0414,0.086 -0.0414,0.0337 -0.1059,0.0337 z m 0.482,-0.0597 q -0.0648,0.0597 -0.1249,0.0597 -0.0494,0 -0.082,-0.0309 -0.0326,-0.031 -0.0326,-0.0782 0,-0.0652 0.0547,-0.1002 0.0548,-0.0349 0.1569,-0.0349 l 0.0173,0 0,-0.048 q 0,-0.0692 -0.0711,-0.0692 -0.0571,0 -0.1234,0.0351 l 0,-0.0597 q 0.0729,-0.0296 0.1366,-0.0296 0.0666,0 0.0983,0.03 0.0317,0.03 0.0317,0.0934 l 0,0.1802 q 0,0.0618 0.0381,0.0618 0.0047,0 0.0139,-0.0014 l 0.0051,0.0399 q -0.0245,0.0117 -0.0542,0.0117 -0.0505,0 -0.0644,-0.0597 z m -0.0106,-0.0392 0,-0.1029 -0.0242,-7e-4 q -0.0593,0 -0.096,0.0225 -0.0366,0.0225 -0.0366,0.0592 0,0.026 0.0183,0.0439 0.0183,0.018 0.0447,0.018 0.045,0 0.0938,-0.04 z m 0.2197,0.0898 0,-0.3977 0.0721,0 0,0.0747 q 0.0571,-0.0835 0.1399,-0.0835 0.0516,0 0.0824,0.0327 0.0308,0.0328 0.0308,0.0881 l 0,0.2857 -0.0722,0 0,-0.2622 q 0,-0.0444 -0.013,-0.0632 -0.013,-0.0189 -0.043,-0.0189 -0.0663,0 -0.1249,0.0868 l 0,0.2575 z m 0.6643,0 0,-0.1897 -0.1897,0 0,-0.0542 0.1897,0 0,-0.1897 0.0542,0 0,0.1897 0.1897,0 0,0.0542 -0.1897,0 0,0.1897 z"
         id="path51"
         inkscape:connector-curvature="0"
         style="stroke:none" />
    </g>
    <g
       font-size="0.75px"
       transform="matrix(50,0,0,50,455,507.6016)"
       id="g53"
       style="font-size:0.75px;font-family:sans-serif;fill:#ffffff;stroke:#ffffff;stroke-width:0.1">
      <circle
         cx="0"
         cy="0"
         r="0.44999999"
         id="circle55"
         style="stroke:none" />
      <circle
         cx="0"
         cy="0"
         r="0.44999999"
         id="circle57"
         style="fill:none;stroke:#000000" />
    </g>
    <g
       font-size="0.5px"
       font-style="italic"
       transform="matrix(50,0,0,50,455,507.6016)"
       id="g59"
       style="font-style:italic;font-size:0.5px;font-family:sans-serif;fill:#595959;stroke:#595959;stroke-width:0.1">
      <path
         d="m -0.2581,1.0704 0.0722,-0.3614 0.0938,0 q 0.0542,0 0.079,0.0205 Q 0.0117,0.75 0.004,0.7886 -0.0091,0.8543 -0.0889,0.8821 -0.0057,0.9092 -0.0198,0.98 -0.0286,1.024 -0.0626,1.0472 -0.0965,1.0704 -0.1517,1.0704 Z m 0.0584,-0.0384 0.0105,0 q 0.0564,0 0.0744,-0.007 Q -0.0803,1.0115 -0.0731,0.9751 -0.0666,0.9429 -0.0912,0.9216 -0.1157,0.9002 -0.1589,0.9002 l -0.0144,0 z m 0.0329,-0.1643 0.0163,0 q 0.0411,0 0.0672,-0.0176 0.026,-0.0175 0.0324,-0.0495 0.0107,-0.0532 -0.0718,-0.0532 l -0.02,0 z m 0.2248,0.2027 0.0073,-0.0362 0.0722,0 L 0.1946,0.7491 0.1187,0.7671 0.1261,0.73 0.2527,0.7 0.1859,1.0342 l 0.0722,0 -0.0072,0.0362 z"
         id="path61"
         inkscape:connector-curvature="0"
         style="stroke:none" />
    </g>
    <g
       font-size="0.75px"
       transform="matrix(50,0,0,50,330,632.6016)"
       id="g63"
       style="font-size:0.75px;font-family:sans-serif;fill:#0000b2;stroke:#0000b2;stroke-width:0.1">
      <path
         d="m -0.6718,0.1546 q -0.0495,0 -0.1201,-0.023 l 0,-0.0663 q 0.0706,0.0351 0.123,0.0351 0.0311,0 0.0517,-0.0168 0.0205,-0.0169 0.0205,-0.0421 0,-0.037 -0.0575,-0.0612 l -0.0422,-0.0179 q -0.0933,-0.0388 -0.0933,-0.1117 0,-0.052 0.0368,-0.0819 0.0368,-0.0298 0.1009,-0.0298 0.0333,0 0.0824,0.0091 l 0.015,0.003 0,0.06 q -0.0605,-0.0179 -0.096,-0.0179 -0.0696,0 -0.0696,0.0505 0,0.0326 0.0528,0.055 l 0.0348,0.0146 q 0.0589,0.0249 0.0835,0.0526 0.0245,0.0276 0.0245,0.069 0,0.0523 -0.0414,0.086 -0.0414,0.0337 -0.1058,0.0337 z m 0.4819,-0.0597 q -0.0648,0.0597 -0.1249,0.0597 -0.0494,0 -0.082,-0.0309 -0.0326,-0.031 -0.0326,-0.0782 0,-0.0652 0.0548,-0.1002 0.0547,-0.0349 0.1569,-0.0349 l 0.0172,0 0,-0.048 q 0,-0.0692 -0.071,-0.0692 -0.0572,0 -0.1235,0.0351 l 0,-0.0597 q 0.0729,-0.0296 0.1366,-0.0296 0.0667,0 0.0984,0.03 0.0316,0.03 0.0316,0.0934 l 0,0.1802 q 0,0.0619 0.0381,0.0619 0.0048,0 0.0139,-0.0015 l 0.0052,0.0399 q -0.0246,0.0117 -0.0542,0.0117 -0.0506,0 -0.0645,-0.0597 z m -0.0106,-0.0391 0,-0.1029 -0.0242,-8e-4 q -0.0593,0 -0.0959,0.0225 -0.0366,0.0226 -0.0366,0.0592 0,0.026 0.0183,0.0439 0.0183,0.018 0.0446,0.018 0.0451,0 0.0938,-0.0399 z m 0.2197,0.0897 0,-0.3977 0.0722,0 0,0.0747 q 0.0571,-0.0835 0.1399,-0.0835 0.0516,0 0.0824,0.0328 0.0307,0.0327 0.0307,0.088 l 0,0.2857 -0.0721,0 0,-0.2622 q 0,-0.0443 -0.013,-0.0632 -0.013,-0.0189 -0.0431,-0.0189 -0.0662,0 -0.1248,0.0868 l 0,0.2575 z m 0.4475,-0.1897 0,-0.0542 0.3252,0 0,0.0542 z"
         id="path65"
         inkscape:connector-curvature="0"
         style="stroke:none" />
    </g>
    <g
       font-size="0.75px"
       transform="matrix(50,0,0,50,380,157.6016)"
       id="g67"
       style="font-size:0.75px;font-family:sans-serif;fill:#ffffff;stroke:#ffffff;stroke-width:0.1">
      <circle
         cx="0"
         cy="0"
         r="0.44999999"
         id="circle69"
         style="stroke:none" />
      <circle
         cx="0"
         cy="0"
         r="0.44999999"
         id="circle71"
         style="fill:none;stroke:#000000" />
      <circle
         cx="0"
         cy="0"
         r="0.26320001"
         id="circle73"
         style="fill:#000000;stroke:none" />
    </g>
    <g
       font-size="0.5px"
       font-style="italic"
       transform="matrix(50,0,0,50,380,157.6016)"
       id="g75"
       style="font-style:italic;font-size:0.5px;font-family:sans-serif;fill:#595959;stroke:#595959;stroke-width:0.1">
      <path
         d="m -0.164,1.0884 q -0.0842,0 -0.1203,-0.0494 -0.036,-0.0494 -0.0178,-0.14 0.018,-0.0904 0.0747,-0.1402 0.0567,-0.0498 0.1417,-0.0498 0.0486,0 0.1106,0.0159 L 0.0153,0.773 q -0.0691,-0.0256 -0.1094,-0.0256 -0.0588,0 -0.099,0.0398 -0.0402,0.0398 -0.0547,0.1123 -0.0138,0.0691 0.0126,0.109 0.0265,0.0399 0.086,0.0399 0.0513,0 0.1162,-0.0315 l -0.0088,0.0439 q -0.059,0.0276 -0.1222,0.0276 z m 0.3013,0 q -0.056,0 -0.08,-0.0526 Q 0.0333,0.9832 0.0502,0.8985 0.0673,0.813 0.1125,0.761 0.1577,0.709 0.2146,0.709 0.2715,0.709 0.2959,0.761 0.3203,0.813 0.3033,0.8978 0.2859,0.9847 0.2408,1.0365 0.1956,1.0884 0.1373,1.0884 Z M 0.145,1.0523 q 0.0764,0 0.1074,-0.1553 0.0304,-0.1518 -0.045,-0.1518 -0.0752,0 -0.1059,0.1533 -0.0307,0.1538 0.0435,0.1538 z"
         id="path77"
         inkscape:connector-curvature="0"
         style="stroke:none" />
    </g>
    <g
       font-size="0.75px"
       transform="matrix(50,0,0,50,505,32.6016)"
       id="g79"
       style="font-size:0.75px;font-family:sans-serif;fill:#b20000;stroke:#b20000;stroke-width:0.1">
      <path
         d="m -0.6445,0.2147 q -0.0806,0 -0.1337,-0.0596 -0.0531,-0.0597 -0.0531,-0.1506 0,-0.097 0.0526,-0.1512 0.0525,-0.0542 0.1466,-0.0542 0.0465,0 0.104,0.0128 l 0,0.0604 q -0.0611,-0.0179 -0.0996,-0.0179 -0.0553,0 -0.0888,0.0416 -0.0335,0.0415 -0.0335,0.1107 0,0.0671 0.0344,0.1084 0.0344,0.0414 0.0901,0.0414 0.0495,0 0.1018,-0.0253 l 0,0.0623 q -0.0699,0.0212 -0.1208,0.0212 z m 0.3482,0 q -0.0549,0 -0.0857,-0.0314 -0.0307,-0.0315 -0.0307,-0.0876 l 0,-0.2336 -0.0498,0 0,-0.0542 0.0498,0 0,-0.0722 0.0721,-0.0069 0,0.0791 0.104,0 0,0.0542 -0.104,0 0,0.2204 q 0,0.078 0.0674,0.078 0.0143,0 0.0348,-0.0047 l 0,0.0498 q -0.0333,0.0091 -0.0579,0.0091 z m 0.1612,-0.0091 0,-0.3977 0.0721,0 0,0.0747 q 0.0429,-0.0835 0.1245,-0.0835 0.011,0 0.0231,0.0018 l 0,0.0674 q -0.0187,-0.0062 -0.033,-0.0062 -0.0684,0 -0.1146,0.0813 l 0,0.2622 z m 0.3069,0 0,-0.5783 0.0721,0 0,0.5783 z m 0.4156,0 0,-0.1897 -0.1897,0 0,-0.0542 0.1897,0 0,-0.1897 0.0542,0 0,0.1897 0.1897,0 0,0.0542 -0.1897,0 0,0.1897 z"
         id="path81"
         inkscape:connector-curvature="0"
         style="stroke:none" />
    </g>
    <g
       font-size="0.75px"
       transform="matrix(50,0,0,50,630,157.6016)"
       id="g83"
       style="font-size:0.75px;font-family:sans-serif;fill:#ffffff;stroke:#ffffff;stroke-width:0.1">
      <circle
         cx="0"
         cy="0"
         r="0.44999999"
         id="circle85"
         style="stroke:none" />
      <circle
         cx="0"
         cy="0"
         r="0.44999999"
         id="circle87"
         style="fill:none;stroke:#000000" />
    </g>
    <g
       font-size="0.5px"
       font-style="italic"
       transform="matrix(50,0,0,50,630,157.6016)"
       id="g89"
       style="font-style:italic;font-size:0.5px;font-family:sans-serif;fill:#595959;stroke:#595959;stroke-width:0.1">
      <path
         d="m -0.1327,1.0884 q -0.0842,0 -0.1202,-0.0494 -0.036,-0.0494 -0.0179,-0.14 0.018,-0.0904 0.0748,-0.1402 0.0567,-0.0498 0.1416,-0.0498 0.0486,0 0.1106,0.0159 L 0.0466,0.773 q -0.0691,-0.0256 -0.1094,-0.0256 -0.0588,0 -0.099,0.0398 -0.0402,0.0398 -0.0547,0.1123 -0.0138,0.0691 0.0126,0.109 0.0265,0.0399 0.0861,0.0399 0.0512,0 0.1161,-0.0315 l -0.0088,0.0439 q -0.059,0.0276 -0.1222,0.0276 z m 0.2215,-0.009 0.0073,-0.0361 0.0722,0 L 0.2254,0.7581 0.1495,0.7762 0.1569,0.7391 0.2835,0.709 0.2167,1.0433 l 0.0722,0 -0.0072,0.0361 z"
         id="path91"
         inkscape:connector-curvature="0"
         style="stroke:none" />
    </g>
    <g
       font-size="0.75px"
       transform="matrix(50,0,0,50,505,282.6016)"
       id="g93"
       style="font-size:0.75px;font-family:sans-serif;fill:#b20000;stroke:#b20000;stroke-width:0.1">
      <path
         d="m -0.5768,0.2147 q -0.0805,0 -0.1336,-0.0596 -0.0531,-0.0597 -0.0531,-0.1506 0,-0.097 0.0525,-0.1512 0.0526,-0.0542 0.1467,-0.0542 0.0465,0 0.104,0.0128 l 0,0.0604 q -0.0612,-0.0179 -0.0996,-0.0179 -0.0553,0 -0.0888,0.0416 -0.0336,0.0415 -0.0336,0.1107 0,0.0671 0.0345,0.1084 0.0344,0.0414 0.0901,0.0414 0.0494,0 0.1018,-0.0253 l 0,0.0623 q -0.07,0.0212 -0.1209,0.0212 z m 0.3483,0 q -0.0549,0 -0.0857,-0.0314 Q -0.345,0.1518 -0.345,0.0957 l 0,-0.2336 -0.0498,0 0,-0.0542 0.0498,0 0,-0.0722 0.0722,-0.0069 0,0.0791 0.104,0 0,0.0542 -0.104,0 0,0.2204 q 0,0.078 0.0674,0.078 0.0142,0 0.0347,-0.0047 l 0,0.0498 Q -0.204,0.2147 -0.2285,0.2147 Z m 0.1611,-0.0091 0,-0.3977 0.0722,0 0,0.0747 q 0.0428,-0.0835 0.1245,-0.0835 0.011,0 0.023,0.0018 l 0,0.0674 q -0.0186,-0.0062 -0.0329,-0.0062 -0.0685,0 -0.1146,0.0813 l 0,0.2622 z m 0.3069,0 0,-0.5783 0.0721,0 0,0.5783 z m 0.1989,-0.1897 0,-0.0542 0.3251,0 0,0.0542 z"
         id="path95"
         inkscape:connector-curvature="0"
         style="stroke:none" />
    </g>
    <g
       font-size="0.75px"
       transform="matrix(50,0,0,50,155,157.6016)"
       id="g97"
       style="font-size:0.75px;font-family:sans-serif;stroke-width:0.02">
      <path
         d="m -2.1464,-0.3536 1.3115,-1.3115"
         id="path99"
         inkscape:connector-curvature="0"
         style="fill:none" />
      <path
         d="m -0.8879,-1.7182 0.1061,0.1061 0.2298,-0.3359 z"
         id="path101"
         inkscape:connector-curvature="0"
         style="stroke:none" />
    </g>
    <g
       font-size="0.75px"
       transform="matrix(50,0,0,50,155,157.6016)"
       id="g103"
       style="font-size:0.75px;font-family:sans-serif;stroke-width:0.02">
      <path
         d="m 0.552,-1.948 1.3116,1.3116"
         id="path105"
         inkscape:connector-curvature="0"
         style="fill:none" />
      <path
         d="m 1.9166,-0.6894 -0.106,0.106 0.3358,0.2298 z"
         id="path107"
         inkscape:connector-curvature="0"
         style="stroke:none" />
    </g>
    <g
       font-size="0.75px"
       transform="matrix(50,0,0,50,155,157.6016)"
       id="g109"
       style="font-size:0.75px;font-family:sans-serif;stroke-width:0.02">
      <path
         d="M 2.1464,0.3536 0.8349,1.6651"
         id="path111"
         inkscape:connector-curvature="0"
         style="fill:none" />
      <path
         d="M 0.8879,1.7182 0.7818,1.6121 0.552,1.948 Z"
         id="path113"
         inkscape:connector-curvature="0"
         style="stroke:none" />
    </g>
    <g
       font-size="0.75px"
       transform="matrix(50,0,0,50,155,157.6016)"
       id="g115"
       style="font-size:0.75px;font-family:sans-serif;stroke-width:0.02">
      <path
         d="M -0.552,1.948 -1.8636,0.6364"
         id="path117"
         inkscape:connector-curvature="0"
         style="fill:none" />
      <path
         d="m -1.9166,0.6894 0.106,-0.106 -0.3358,-0.2298 z"
         id="path119"
         inkscape:connector-curvature="0"
         style="stroke:none" />
    </g>
    <g
       font-size="0.75px"
       transform="matrix(50,0,0,50,155,157.6016)"
       id="g121"
       style="font-size:0.75px;font-family:sans-serif;stroke-width:0.02">
      <path
         d="M 1.3536,6.6464 2.8294,5.1706"
         id="path123"
         inkscape:connector-curvature="0"
         style="fill:none" />
      <path
         d="M 2.7763,5.1176 2.8824,5.2237 3.1122,4.8878 Z"
         id="path125"
         inkscape:connector-curvature="0"
         style="stroke:none" />
    </g>
    <g
       font-size="0.75px"
       transform="matrix(50,0,0,50,155,157.6016)"
       id="g127"
       style="font-size:0.75px;font-family:sans-serif;stroke-width:0.02">
      <path
         d="M 3.8878,4.8878 5.3636,6.3636"
         id="path129"
         inkscape:connector-curvature="0"
         style="fill:none" />
      <path
         d="m 5.4166,6.3106 -0.106,0.106 0.3358,0.2298 z"
         id="path131"
         inkscape:connector-curvature="0"
         style="stroke:none" />
    </g>
    <g
       font-size="0.75px"
       transform="matrix(50,0,0,50,155,157.6016)"
       id="g133"
       style="font-size:0.75px;font-family:sans-serif;stroke-width:0.02">
      <path
         d="M 5.6464,7.3536 4.153,8.847"
         id="path135"
         inkscape:connector-curvature="0"
         style="fill:none" />
      <path
         d="M 4.206,8.9 4.1,8.794 3.8702,9.1298 Z"
         id="path137"
         inkscape:connector-curvature="0"
         style="stroke:none" />
    </g>
    <g
       font-size="0.75px"
       transform="matrix(50,0,0,50,155,157.6016)"
       id="g139"
       style="font-size:0.75px;font-family:sans-serif;stroke-width:0.02">
      <path
         d="M 3.1298,9.1298 1.6364,7.6364"
         id="path141"
         inkscape:connector-curvature="0"
         style="fill:none" />
      <path
         d="M 1.5834,7.6894 1.6894,7.5834 1.3536,7.3536 Z"
         id="path143"
         inkscape:connector-curvature="0"
         style="stroke:none" />
    </g>
    <g
       font-size="0.75px"
       transform="matrix(50,0,0,50,155,157.6016)"
       id="g145"
       style="font-size:0.75px;font-family:sans-serif;stroke-width:0.02">
      <path
         d="M 4.8536,-0.3536 6.2353,-1.7353"
         id="path147"
         inkscape:connector-curvature="0"
         style="fill:none" />
      <path
         d="m 6.1823,-1.7884 0.1061,0.1061 0.2298,-0.3359 z"
         id="path149"
         inkscape:connector-curvature="0"
         style="stroke:none" />
    </g>
    <g
       font-size="0.75px"
       transform="matrix(50,0,0,50,155,157.6016)"
       id="g151"
       style="font-size:0.75px;font-family:sans-serif;stroke-width:0.02">
      <path
         d="m 7.4818,-2.0182 1.3818,1.3818"
         id="path153"
         inkscape:connector-curvature="0"
         style="fill:none" />
      <path
         d="m 8.9166,-0.6894 -0.106,0.106 0.3358,0.2298 z"
         id="path155"
         inkscape:connector-curvature="0"
         style="stroke:none" />
    </g>
    <g
       font-size="0.75px"
       transform="matrix(50,0,0,50,155,157.6016)"
       id="g157"
       style="font-size:0.75px;font-family:sans-serif;stroke-width:0.02">
      <path
         d="M 9.1464,0.3536 7.7647,1.7353"
         id="path159"
         inkscape:connector-curvature="0"
         style="fill:none" />
      <path
         d="M 7.8177,1.7884 7.7116,1.6823 7.4818,2.0182 Z"
         id="path161"
         inkscape:connector-curvature="0"
         style="stroke:none" />
    </g>
    <g
       font-size="0.75px"
       transform="matrix(50,0,0,50,155,157.6016)"
       id="g163"
       style="font-size:0.75px;font-family:sans-serif;stroke-width:0.02">
      <path
         d="M 6.5182,2.0182 5.1364,0.6364"
         id="path165"
         inkscape:connector-curvature="0"
         style="fill:none" />
      <path
         d="M 5.0834,0.6894 5.1894,0.5834 4.8536,0.3536 Z"
         id="path167"
         inkscape:connector-curvature="0"
         style="stroke:none" />
    </g>
    <g
       font-size="0.75px"
       transform="matrix(50,0,0,50,155,157.6016)"
       id="g169"
       style="font-size:0.75px;font-family:sans-serif;stroke-width:0.02">
      <path
         d="M 1.1756,6.5318 4,-1 6.0687,-2.0343"
         id="path171"
         inkscape:connector-curvature="0"
         style="fill:none" />
    </g>
    <g
       font-size="0.75px"
       transform="matrix(50,0,0,50,155,157.6016)"
       id="g173"
       style="font-size:0.75px;font-family:sans-serif;stroke-width:0.02">
      <path
         d="M 6.1085,6.5119 6.8929,2.9818"
         id="path175"
         inkscape:connector-curvature="0"
         style="fill:none" />
    </g>
    <g
       font-size="0.75px"
       transform="matrix(50,0,0,50,155,157.6016)"
       id="g177"
       style="font-size:0.75px;font-family:sans-serif;stroke-width:0.02">
      <path
         d="M 2.4153,0.4928 2.0951,2.3563 3.2459,4.1122"
         id="path179"
         inkscape:connector-curvature="0"
         style="fill:none" />
    </g>
    <g
       font-size="0.75px"
       transform="matrix(50,0,0,50,155,157.6016)"
       id="g181"
       style="font-size:0.75px;font-family:sans-serif;stroke-width:0.02">
      <path
         d="M 9.5,0.5 9.5,3 4.4597,4.2601"
         id="path183"
         inkscape:connector-curvature="0"
         style="fill:none" />
    </g>
    <g
       font-size="0.75px"
       transform="matrix(50,0,0,50,155,157.6016)"
       id="g185"
       style="font-size:0.75px;font-family:sans-serif;stroke-width:0.02">
      <path
         d="M 4.5,0.5 4.5,5 3.5823,9.1298"
         id="path187"
         inkscape:connector-curvature="0"
         style="fill:none" />
    </g>
  </g>
</svg>
