<?xml version="1.0" encoding="UTF-8" standalone="no"?>
<svg
   xmlns:dc="http://purl.org/dc/elements/1.1/"
   xmlns:cc="http://creativecommons.org/ns#"
   xmlns:rdf="http://www.w3.org/1999/02/22-rdf-syntax-ns#"
   xmlns:svg="http://www.w3.org/2000/svg"
   xmlns="http://www.w3.org/2000/svg"
   xmlns:sodipodi="http://sodipodi.sourceforge.net/DTD/sodipodi-0.dtd"
   xmlns:inkscape="http://www.inkscape.org/namespaces/inkscape"
   font-size="12px"
   font-style="normal"
   font-weight="normal"
   height="366"
   stroke-miterlimit="10"
   width="1000"
   id="svg3672"
   version="1.1"
   inkscape:version="0.91 r13725"
   sodipodi:docname="zcAbsent-fst.svg"
   style="font-style:normal;font-weight:normal;font-size:12px;font-family:Dialog;color-interpolation:auto;fill:#000000;fill-opacity:1;stroke:#000000;stroke-width:1;stroke-linecap:square;stroke-linejoin:miter;stroke-miterlimit:10;stroke-dasharray:none;stroke-dashoffset:0;stroke-opacity:1;color-rendering:auto;image-rendering:auto;shape-rendering:auto;text-rendering:auto">
  <metadata
     id="metadata3873">
    <rdf:RDF>
      <cc:Work
         rdf:about="">
        <dc:format>image/svg+xml</dc:format>
        <dc:type
           rdf:resource="http://purl.org/dc/dcmitype/StillImage" />
        <dc:title></dc:title>
      </cc:Work>
    </rdf:RDF>
  </metadata>
  <sodipodi:namedview
     pagecolor="#ffffff"
     bordercolor="#666666"
     borderopacity="1"
     objecttolerance="10"
     gridtolerance="10"
     guidetolerance="10"
     inkscape:pageopacity="0"
     inkscape:pageshadow="2"
     inkscape:window-width="1676"
     inkscape:window-height="1005"
     id="namedview3871"
     showgrid="false"
     inkscape:zoom="1.4976744"
     inkscape:cx="430"
     inkscape:cy="183"
     inkscape:window-x="4"
     inkscape:window-y="1"
     inkscape:window-maximized="1"
     inkscape:current-layer="svg3672" />
  <!--Generated by the Batik Graphics2D SVG Generator-->
  <defs
     id="genericDefs" />
  <g
     id="g3675"
     transform="translate(70,-2.9098997)">
    <g
       transform="matrix(50,0,0,50,430,336.705)"
       id="g3677"
       style="fill:#ffffff;stroke:#ffffff">
      <circle
         cx="0"
         cy="0"
         r="0.44999999"
         id="circle3679"
         style="stroke:none" />
      <circle
         cx="0"
         cy="0"
         r="0.44999999"
         id="circle3681"
         style="fill:none;stroke:#000000;stroke-width:0.1" />
    </g>
    <g
       transform="matrix(50,0,0,50,230,336.7065)"
       id="g3683"
       style="fill:#ffffff;stroke:#ffffff;stroke-width:0.1">
      <circle
         cx="0"
         cy="0"
         r="0.44999999"
         id="circle3685"
         style="stroke:none" />
      <circle
         cx="0"
         cy="0"
         r="0.44999999"
         id="circle3687"
         style="fill:none;stroke:#000000" />
    </g>
    <g
       transform="matrix(50,0,0,50,830,186.7065)"
       id="g3689"
       style="fill:#ffffff;stroke:#ffffff;stroke-width:0.1">
      <circle
         cx="0"
         cy="0"
         r="0.44999999"
         id="circle3691"
         style="stroke:none" />
      <circle
         cx="0"
         cy="0"
         r="0.44999999"
         id="circle3693"
         style="fill:none;stroke:#000000" />
    </g>
    <g
       transform="matrix(50,0,0,50,830,336.7065)"
       id="g3695"
       style="fill:#ffffff;stroke:#ffffff;stroke-width:0.1">
      <circle
         cx="0"
         cy="0"
         r="0.44999999"
         id="circle3697"
         style="stroke:none" />
      <circle
         cx="0"
         cy="0"
         r="0.44999999"
         id="circle3699"
         style="fill:none;stroke:#000000" />
    </g>
    <g
       transform="matrix(50,0,0,50,630,336.7065)"
       id="g3701"
       style="fill:#ffffff;stroke:#ffffff;stroke-width:0.1">
      <circle
         cx="0"
         cy="0"
         r="0.44999999"
         id="circle3703"
         style="stroke:none" />
      <circle
         cx="0"
         cy="0"
         r="0.44999999"
         id="circle3705"
         style="fill:none;stroke:#000000" />
    </g>
    <g
       transform="matrix(50,0,0,50,230,36.7065)"
       id="g3707"
       style="fill:#ffffff;stroke:#ffffff;stroke-width:0.1">
      <circle
         cx="0"
         cy="0"
         r="0.44999999"
         id="circle3709"
         style="stroke:none" />
      <circle
         cx="0"
         cy="0"
         r="0.44999999"
         id="circle3711"
         style="fill:none;stroke:#000000" />
    </g>
    <g
       transform="matrix(50,0,0,50,430,36.7065)"
       id="g3713"
       style="fill:#ffffff;stroke:#ffffff;stroke-width:0.1">
      <circle
         cx="0"
         cy="0"
         r="0.44999999"
         id="circle3715"
         style="stroke:none" />
      <circle
         cx="0"
         cy="0"
         r="0.44999999"
         id="circle3717"
         style="fill:none;stroke:#000000" />
    </g>
    <g
       transform="matrix(50,0,0,50,630,36.7065)"
       id="g3719"
       style="fill:#ffffff;stroke:#ffffff;stroke-width:0.1">
      <circle
         cx="0"
         cy="0"
         r="0.44999999"
         id="circle3721"
         style="stroke:none" />
      <circle
         cx="0"
         cy="0"
         r="0.44999999"
         id="circle3723"
         style="fill:none;stroke:#000000" />
    </g>
    <g
       transform="matrix(50,0,0,50,830,36.7065)"
       id="g3725"
       style="fill:#ffffff;stroke:#ffffff;stroke-width:0.1">
      <circle
         cx="0"
         cy="0"
         r="0.44999999"
         id="circle3727"
         style="stroke:none" />
      <circle
         cx="0"
         cy="0"
         r="0.44999999"
         id="circle3729"
         style="fill:none;stroke:#000000" />
    </g>
    <g
       transform="matrix(50,0,0,50,30,336.7065)"
       id="g3731"
       style="fill:#ffffff;stroke:#ffffff;stroke-width:0.1">
      <circle
         cx="0"
         cy="0"
         r="0.44999999"
         id="circle3733"
         style="stroke:none" />
      <circle
         cx="0"
         cy="0"
         r="0.44999999"
         id="circle3735"
         style="fill:none;stroke:#000000" />
    </g>
    <g
       transform="matrix(50,0,0,50,30,36.7065)"
       id="g3737"
       style="fill:#ffffff;stroke:#ffffff;stroke-width:0.1">
      <circle
         cx="0"
         cy="0"
         r="0.44999999"
         id="circle3739"
         style="stroke:none" />
      <circle
         cx="0"
         cy="0"
         r="0.44999999"
         id="circle3741"
         style="fill:none;stroke:#000000" />
    </g>
    <g
       transform="matrix(50,0,0,50,30,199.2065)"
       id="g3743"
       style="fill:#ffffff;stroke:#ffffff;stroke-width:0.1">
      <circle
         cx="0"
         cy="0"
         r="0.44999999"
         id="circle3745"
         style="stroke:none" />
      <circle
         cx="0"
         cy="0"
         r="0.44999999"
         id="circle3747"
         style="fill:none;stroke:#000000" />
      <path
         d="m 0,-1 0,0.5 M -0.125,-0.75 0,-0.5 0.125,-0.75"
         id="path3749"
         inkscape:connector-curvature="0"
         style="fill:none;stroke:#000000" />
    </g>
    <g
       transform="matrix(50,0,0,50,530,1686.7065)"
       id="g3751"
       style="stroke-width:0.02">
      <path
         d="m -2.5,-27 -2.6,0"
         id="path3753"
         inkscape:connector-curvature="0"
         style="fill:none" />
      <path
         d="m -5.1,-26.925 0,-0.15 -0.4,0.075 z"
         id="path3755"
         inkscape:connector-curvature="0"
         style="stroke:none" />
    </g>
    <g
       font-size="0.5px"
       transform="matrix(50,0,0,50,330,323.9874)"
       id="g3757"
       style="font-size:0.5px;font-family:sans-serif;fill:#0000b2;stroke:#0000b2;stroke-width:0.02">
      <path
         d="m -0.4471,0.2251 0.0056,-0.0417 q 0.0417,0.0197 0.0822,0.0197 0.0813,0 0.0813,-0.0861 l 0,-0.0418 q -0.0266,0.0557 -0.0874,0.0557 -0.0476,0 -0.0756,-0.0347 -0.0281,-0.0347 -0.0281,-0.0935 0,-0.0605 0.032,-0.0986 0.0319,-0.0381 0.0827,-0.0381 0.0445,0 0.0764,0.0361 l 0,-0.0303 0.0484,0 0,0.1929 q 0,0.0623 -0.0065,0.0922 -0.0065,0.0299 -0.0243,0.0489 -0.0315,0.0335 -0.0979,0.0335 -0.0464,0 -0.0888,-0.0142 z m 0.1691,-0.1799 0,-0.1101 q -0.0317,-0.033 -0.069,-0.033 -0.0332,0 -0.052,0.0266 -0.0188,0.0266 -0.0188,0.073 0,0.0872 0.0612,0.0872 0.0418,0 0.0786,-0.0437 z m 0.1416,0.0918 0,-0.2652 0.0481,0 0,0.0498 q 0.0381,-0.0556 0.0933,-0.0556 0.0344,0 0.0549,0.0218 0.0205,0.0219 0.0205,0.0587 l 0,0.1905 -0.0481,0 0,-0.1748 q 0,-0.0296 -0.0086,-0.0421 -0.0087,-0.0126 -0.0287,-0.0126 -0.0442,0 -0.0833,0.0578 l 0,0.1717 z m 0.4429,0 0,-0.1265 -0.1264,0 0,-0.0361 0.1264,0 0,-0.1265 0.0362,0 0,0.1265 0.1264,0 0,0.0361 -0.1264,0 0,0.1265 z"
         id="path3759"
         inkscape:connector-curvature="0"
         style="stroke:none" />
    </g>
    <g
       font-size="0.5px"
       transform="matrix(50,0,0,50,530,1686.7065)"
       id="g3761"
       style="font-size:0.5px;font-family:sans-serif;stroke-width:0.02">
      <path
         d="m 6,-29.5 0,1.6"
         id="path3763"
         inkscape:connector-curvature="0"
         style="fill:none" />
      <path
         d="m 6.075,-27.9 -0.15,0 0.075,0.4 z"
         id="path3765"
         inkscape:connector-curvature="0"
         style="stroke:none" />
    </g>
    <g
       font-size="0.5px"
       transform="matrix(0,50,-50,0,839.5929,261.7065)"
       id="g3767"
       style="font-size:0.5px;font-family:sans-serif;fill:#b20000;stroke:#b20000;stroke-width:0.02">
      <path
         d="m -0.3149,0.1094 q -0.0569,0 -0.0909,-0.0377 -0.0339,-0.0377 -0.0339,-0.101 0,-0.0639 0.0341,-0.1012 0.034,-0.0372 0.0924,-0.0372 0.0583,0 0.0924,0.0372 0.034,0.0373 0.034,0.1008 0,0.0649 -0.0341,0.102 -0.0342,0.0371 -0.094,0.0371 z m 7e-4,-0.0361 q 0.0764,0 0.0764,-0.103 0,-0.1019 -0.0754,-0.1019 -0.0752,0 -0.0752,0.1023 0,0.1026 0.0742,0.1026 z m 0.3061,0.0361 q -0.0537,0 -0.0891,-0.0398 -0.0354,-0.0398 -0.0354,-0.1003 0,-0.0647 0.0351,-0.1009 0.035,-0.0361 0.0977,-0.0361 0.031,0 0.0694,0.0086 l 0,0.0402 q -0.0408,-0.0119 -0.0664,-0.0119 -0.0369,0 -0.0592,0.0277 -0.0224,0.0277 -0.0224,0.0738 0,0.0447 0.023,0.0723 0.0229,0.0276 0.06,0.0276 0.033,0 0.0679,-0.0169 l 0,0.0416 Q 0.0259,0.1094 -0.0081,0.1094 Z m 0.2852,-0.0061 0,-0.1265 -0.1265,0 0,-0.0361 0.1265,0 0,-0.1265 0.0361,0 0,0.1265 0.1265,0 0,0.0361 -0.1265,0 0,0.1265 z"
         id="path3769"
         inkscape:connector-curvature="0"
         style="stroke:none" />
    </g>
    <g
       font-size="0.5px"
       transform="matrix(50,0,0,50,530,1686.7065)"
       id="g3771"
       style="font-size:0.5px;font-family:sans-serif;stroke-width:0.02">
      <path
         d="m 1.5,-27 -2.6,0"
         id="path3773"
         inkscape:connector-curvature="0"
         style="fill:none" />
      <path
         d="m -1.1,-26.925 0,-0.15 -0.4,0.075 z"
         id="path3775"
         inkscape:connector-curvature="0"
         style="stroke:none" />
    </g>
    <g
       font-size="0.5px"
       transform="matrix(50,0,0,50,530,320.8533)"
       id="g3777"
       style="font-size:0.5px;font-family:sans-serif;fill:#b20000;stroke:#b20000;stroke-width:0.02">
      <path
         d="m -0.9414,0.2589 0.0056,-0.0418 q 0.0418,0.0198 0.0823,0.0198 0.0813,0 0.0813,-0.0862 l 0,-0.0417 q -0.0266,0.0556 -0.0874,0.0556 -0.0476,0 -0.0757,-0.0346 -0.0281,-0.0347 -0.0281,-0.0935 0,-0.0606 0.032,-0.0987 0.032,-0.0381 0.0828,-0.0381 0.0444,0 0.0764,0.0362 l 0,-0.0303 0.0483,0 0,0.1929 q 0,0.0622 -0.0064,0.0921 -0.0065,0.0299 -0.0243,0.049 -0.0315,0.0334 -0.0979,0.0334 -0.0464,0 -0.0889,-0.0141 z m 0.1692,-0.18 0,-0.1101 q -0.0318,-0.0329 -0.0691,-0.0329 -0.0332,0 -0.052,0.0266 -0.0188,0.0266 -0.0188,0.073 0,0.0871 0.0613,0.0871 0.0417,0 0.0786,-0.0437 z m 0.1416,0.1883 0,-0.3616 0.0481,0 0,0.0498 q 0.0295,-0.0557 0.0886,-0.0557 0.0479,0 0.0753,0.0349 0.0275,0.035 0.0275,0.0955 0,0.0659 -0.0311,0.1063 -0.0312,0.0404 -0.082,0.0404 -0.0471,0 -0.0783,-0.0361 l 0,0.1265 z m 0.0481,-0.1597 q 0.0371,0.0332 0.0708,0.0332 0.0693,0 0.0693,-0.1057 0,-0.0933 -0.0615,-0.0933 -0.0403,0 -0.0786,0.0437 z m 0.2185,0.1475 0,-0.0362 0.25,0 0,0.0362 z M 0.0708,0.137 q -0.0432,0.0398 -0.0833,0.0398 -0.0329,0 -0.0546,-0.0206 -0.0218,-0.0206 -0.0218,-0.0521 0,-0.0435 0.0365,-0.0668 Q -0.0159,0.014 0.0522,0.014 l 0.0115,0 0,-0.032 q 0,-0.0461 -0.0473,-0.0461 -0.0381,0 -0.0823,0.0234 l 0,-0.0398 q 0.0486,-0.0198 0.091,-0.0198 0.0445,0 0.0656,0.0201 0.0211,0.02 0.0211,0.0622 l 0,0.1201 q 0,0.0413 0.0254,0.0413 0.0032,0 0.0093,-0.001 L 0.1499,0.169 q -0.0164,0.0078 -0.0361,0.0078 -0.0337,0 -0.043,-0.0398 z m -0.0071,-0.0261 0,-0.0686 -0.0161,-5e-4 q -0.0395,0 -0.064,0.015 -0.0244,0.0151 -0.0244,0.0395 0,0.0173 0.0122,0.0293 0.0122,0.0119 0.0298,0.0119 0.03,0 0.0625,-0.0266 z m 0.25,0.0659 Q 0.26,0.1768 0.2246,0.137 0.1892,0.0972 0.1892,0.0367 q 0,-0.0647 0.035,-0.1008 0.0351,-0.0362 0.0978,-0.0362 0.031,0 0.0694,0.0086 l 0,0.0403 q -0.0408,-0.012 -0.0664,-0.012 -0.0369,0 -0.0593,0.0277 -0.0223,0.0277 -0.0223,0.0739 0,0.0446 0.023,0.0722 0.0229,0.0276 0.06,0.0276 0.033,0 0.0679,-0.0168 l 0,0.0415 Q 0.3477,0.1768 0.3137,0.1768 Z m 0.1526,-0.0061 0,-0.3855 0.0481,0 0,0.2491 0.1123,-0.1287 0.0518,0 -0.1072,0.1238 0.1294,0.1413 -0.0615,0 -0.1248,-0.136 0,0.136 z m 0.2803,-0.1264 0,-0.0362 0.2168,0 0,0.0362 z"
         id="path3779"
         inkscape:connector-curvature="0"
         style="stroke:none" />
    </g>
    <g
       font-size="0.5px"
       transform="matrix(50,0,0,50,530,1686.7065)"
       id="g3781"
       style="font-size:0.5px;font-family:sans-serif;stroke-width:0.02">
      <path
         d="m -5.5,-33 2.6,0"
         id="path3783"
         inkscape:connector-curvature="0"
         style="fill:none" />
      <path
         d="m -2.9,-33.075 0,0.15 0.4,-0.075 z"
         id="path3785"
         inkscape:connector-curvature="0"
         style="stroke:none" />
    </g>
    <g
       font-size="0.5px"
       transform="matrix(50,0,0,50,330,20.8533)"
       id="g3787"
       style="font-size:0.5px;font-family:sans-serif;fill:#b20000;stroke:#b20000;stroke-width:0.02">
      <path
         d="m -0.9392,0.2589 0.0056,-0.0418 q 0.0418,0.0198 0.0823,0.0198 0.0813,0 0.0813,-0.0862 l 0,-0.0417 q -0.0266,0.0556 -0.0874,0.0556 -0.0476,0 -0.0757,-0.0346 -0.0281,-0.0347 -0.0281,-0.0935 0,-0.0606 0.032,-0.0987 0.032,-0.0381 0.0828,-0.0381 0.0444,0 0.0764,0.0362 l 0,-0.0303 0.0483,0 0,0.1929 q 0,0.0622 -0.0064,0.0921 -0.0065,0.0299 -0.0243,0.049 -0.0315,0.0334 -0.0979,0.0334 -0.0464,0 -0.0889,-0.0141 z m 0.1692,-0.18 0,-0.1101 q -0.0318,-0.0329 -0.0691,-0.0329 -0.0332,0 -0.052,0.0266 -0.0188,0.0266 -0.0188,0.073 0,0.0871 0.0613,0.0871 0.0417,0 0.0786,-0.0437 z m 0.1416,0.0918 0,-0.2651 0.0481,0 0,0.0498 q 0.0381,-0.0557 0.0932,-0.0557 0.0345,0 0.055,0.0219 0.0205,0.0218 0.0205,0.0587 l 0,0.1904 -0.0481,0 0,-0.1748 q 0,-0.0295 -0.0087,-0.0421 -0.0087,-0.0126 -0.0287,-0.0126 -0.0442,0 -0.0832,0.0579 l 0,0.1716 z m 0.2622,0.0843 0,-0.0362 0.25,0 0,0.0362 z M 0.0686,0.137 q -0.0432,0.0398 -0.0832,0.0398 -0.033,0 -0.0547,-0.0206 -0.0218,-0.0206 -0.0218,-0.0521 0,-0.0435 0.0365,-0.0668 Q -0.0181,0.014 0.05,0.014 l 0.0115,0 0,-0.032 q 0,-0.0461 -0.0473,-0.0461 -0.0381,0 -0.0823,0.0234 l 0,-0.0398 q 0.0486,-0.0198 0.091,-0.0198 0.0445,0 0.0656,0.0201 0.0211,0.02 0.0211,0.0622 l 0,0.1201 q 0,0.0413 0.0254,0.0413 0.0032,0 0.0093,-0.001 L 0.1477,0.169 q -0.0164,0.0078 -0.0361,0.0078 -0.0337,0 -0.043,-0.0398 z m -0.0071,-0.0261 0,-0.0686 -0.0161,-5e-4 q -0.0395,0 -0.064,0.015 -0.0244,0.0151 -0.0244,0.0395 0,0.0173 0.0122,0.0293 0.0122,0.0119 0.0298,0.0119 0.0301,0 0.0625,-0.0266 z m 0.25,0.0659 Q 0.2578,0.1768 0.2224,0.137 0.187,0.0972 0.187,0.0367 q 0,-0.0647 0.035,-0.1008 0.0351,-0.0362 0.0978,-0.0362 0.031,0 0.0694,0.0086 l 0,0.0403 q -0.0408,-0.012 -0.0664,-0.012 -0.0369,0 -0.0593,0.0277 -0.0223,0.0277 -0.0223,0.0739 0,0.0446 0.023,0.0722 0.0229,0.0276 0.06,0.0276 0.033,0 0.0679,-0.0168 l 0,0.0415 Q 0.3455,0.1768 0.3115,0.1768 Z m 0.1526,-0.0061 0,-0.3855 0.0481,0 0,0.2491 0.1123,-0.1287 0.0518,0 -0.1072,0.1238 0.1294,0.1413 -0.0615,0 -0.1248,-0.136 0,0.136 z m 0.2803,-0.1264 0,-0.0362 0.2168,0 0,0.0362 z"
         id="path3789"
         inkscape:connector-curvature="0"
         style="stroke:none" />
    </g>
    <g
       font-size="0.5px"
       transform="matrix(50,0,0,50,530,1686.7065)"
       id="g3791"
       style="font-size:0.5px;font-family:sans-serif;stroke-width:0.02">
      <path
         d="m 2.5,-33 2.6,0"
         id="path3793"
         inkscape:connector-curvature="0"
         style="fill:none" />
      <path
         d="m 5.1,-33.075 0,0.15 L 5.5,-33 Z"
         id="path3795"
         inkscape:connector-curvature="0"
         style="stroke:none" />
    </g>
    <g
       font-size="0.5px"
       transform="matrix(50,0,0,50,730,20.8533)"
       id="g3797"
       style="font-size:0.5px;font-family:sans-serif;fill:#b20000;stroke:#b20000;stroke-width:0.02">
      <path
         d="M -0.9866,0.2589 -0.981,0.2171 q 0.0418,0.0198 0.0823,0.0198 0.0813,0 0.0813,-0.0862 l 0,-0.0417 q -0.0266,0.0556 -0.0874,0.0556 -0.0476,0 -0.0757,-0.0346 -0.028,-0.0347 -0.028,-0.0935 0,-0.0606 0.0319,-0.0987 0.032,-0.0381 0.0828,-0.0381 0.0444,0 0.0764,0.0362 l 0,-0.0303 0.0484,0 0,0.1929 q 0,0.0622 -0.0065,0.0921 -0.0065,0.0299 -0.0243,0.049 -0.0315,0.0334 -0.0979,0.0334 -0.0464,0 -0.0889,-0.0141 z m 0.1692,-0.18 0,-0.1101 q -0.0317,-0.0329 -0.0691,-0.0329 -0.0332,0 -0.052,0.0266 -0.0188,0.0266 -0.0188,0.073 0,0.0871 0.0613,0.0871 0.0418,0 0.0786,-0.0437 z m 0.1416,0.1883 0,-0.3616 0.0481,0 0,0.0498 q 0.0296,-0.0557 0.0886,-0.0557 0.0479,0 0.0754,0.0349 0.0274,0.035 0.0274,0.0955 0,0.0659 -0.0311,0.1063 -0.0311,0.0404 -0.0819,0.0404 -0.0471,0 -0.0784,-0.0361 l 0,0.1265 z m 0.0481,-0.1597 q 0.0371,0.0332 0.0708,0.0332 0.0694,0 0.0694,-0.1057 0,-0.0933 -0.0616,-0.0933 -0.0403,0 -0.0786,0.0437 z m 0.2185,0.1475 0,-0.0362 0.25,0 0,0.0362 z M 0.0256,0.137 q -0.0432,0.0398 -0.0832,0.0398 -0.033,0 -0.0547,-0.0206 Q -0.134,0.1356 -0.134,0.1041 -0.134,0.0606 -0.0975,0.0373 -0.061,0.014 0.0071,0.014 l 0.0115,0 0,-0.032 q 0,-0.0461 -0.0474,-0.0461 -0.0381,0 -0.0823,0.0234 l 0,-0.0398 q 0.0486,-0.0198 0.0911,-0.0198 0.0444,0 0.0655,0.0201 0.0212,0.02 0.0212,0.0622 l 0,0.1201 q 0,0.0413 0.0253,0.0413 0.0032,0 0.0093,-0.001 L 0.1047,0.169 q -0.0163,0.0078 -0.0361,0.0078 -0.0337,0 -0.043,-0.0398 z m -0.007,-0.0261 0,-0.0686 -0.0162,-5e-4 q -0.0395,0 -0.0639,0.015 -0.0244,0.0151 -0.0244,0.0395 0,0.0173 0.0122,0.0293 0.0122,0.0119 0.0298,0.0119 0.03,0 0.0625,-0.0266 z m 0.25,0.0659 Q 0.2148,0.1768 0.1794,0.137 0.144,0.0972 0.144,0.0367 q 0,-0.0647 0.0351,-0.1008 0.035,-0.0362 0.0978,-0.0362 0.031,0 0.0693,0.0086 l 0,0.0403 q -0.0408,-0.012 -0.0664,-0.012 -0.0369,0 -0.0592,0.0277 -0.0224,0.0277 -0.0224,0.0739 0,0.0446 0.023,0.0722 0.0229,0.0276 0.06,0.0276 0.033,0 0.0679,-0.0168 l 0,0.0415 Q 0.3025,0.1768 0.2686,0.1768 Z m 0.1525,-0.0061 0,-0.3855 0.0481,0 0,0.2491 0.1123,-0.1287 0.0518,0 -0.1072,0.1238 0.1294,0.1413 -0.0615,0 -0.1248,-0.136 0,0.136 z m 0.4248,0 0,-0.1264 -0.1264,0 0,-0.0362 0.1264,0 0,-0.1264 0.0362,0 0,0.1264 0.1264,0 0,0.0362 -0.1264,0 0,0.1264 z"
         id="path3799"
         inkscape:connector-curvature="0"
         style="stroke:none" />
    </g>
    <g
       font-size="0.5px"
       transform="matrix(50,0,0,50,530,1686.7065)"
       id="g3801"
       style="font-size:0.5px;font-family:sans-serif;stroke-width:0.02">
      <path
         d="m -6.5,-27 -2.6,0"
         id="path3803"
         inkscape:connector-curvature="0"
         style="fill:none" />
      <path
         d="m -9.1,-26.925 0,-0.15 -0.4,0.075 z"
         id="path3805"
         inkscape:connector-curvature="0"
         style="stroke:none" />
    </g>
    <g
       font-size="0.5px"
       transform="matrix(50,0,0,50,130,320.8533)"
       id="g3807"
       style="font-size:0.5px;font-family:sans-serif;fill:#b20000;stroke:#b20000;stroke-width:0.02">
      <path
         d="m -0.9844,0.2589 0.0056,-0.0418 q 0.0418,0.0198 0.0823,0.0198 0.0813,0 0.0813,-0.0862 l 0,-0.0417 q -0.0266,0.0556 -0.0874,0.0556 -0.0476,0 -0.0757,-0.0346 -0.028,-0.0347 -0.028,-0.0935 0,-0.0606 0.0319,-0.0987 0.032,-0.0381 0.0828,-0.0381 0.0444,0 0.0764,0.0362 l 0,-0.0303 0.0484,0 0,0.1929 q 0,0.0622 -0.0065,0.0921 -0.0065,0.0299 -0.0243,0.049 -0.0315,0.0334 -0.0979,0.0334 -0.0464,0 -0.0889,-0.0141 z m 0.1692,-0.18 0,-0.1101 q -0.0317,-0.0329 -0.0691,-0.0329 -0.0332,0 -0.052,0.0266 -0.0188,0.0266 -0.0188,0.073 0,0.0871 0.0613,0.0871 0.0417,0 0.0786,-0.0437 z m 0.1416,0.0918 0,-0.2651 0.0481,0 0,0.0498 q 0.0381,-0.0557 0.0933,-0.0557 0.0344,0 0.0549,0.0219 0.0205,0.0218 0.0205,0.0587 l 0,0.1904 -0.0481,0 0,-0.1748 q 0,-0.0295 -0.0086,-0.0421 -0.0087,-0.0126 -0.0287,-0.0126 -0.0442,0 -0.0833,0.0579 l 0,0.1716 z m 0.2622,0.0843 0,-0.0362 0.25,0 0,0.0362 z M 0.0234,0.137 q -0.0432,0.0398 -0.0832,0.0398 -0.033,0 -0.0547,-0.0206 -0.0217,-0.0206 -0.0217,-0.0521 0,-0.0435 0.0365,-0.0668 Q -0.0632,0.014 0.0049,0.014 l 0.0115,0 0,-0.032 q 0,-0.0461 -0.0474,-0.0461 -0.0381,0 -0.0823,0.0234 l 0,-0.0398 q 0.0486,-0.0198 0.0911,-0.0198 0.0444,0 0.0655,0.0201 0.0212,0.02 0.0212,0.0622 l 0,0.1201 q 0,0.0413 0.0253,0.0413 0.0032,0 0.0093,-0.001 L 0.1025,0.169 q -0.0163,0.0078 -0.0361,0.0078 -0.0337,0 -0.043,-0.0398 z m -0.007,-0.0261 0,-0.0686 -0.0162,-5e-4 q -0.0395,0 -0.0639,0.015 -0.0244,0.0151 -0.0244,0.0395 0,0.0173 0.0122,0.0293 0.0122,0.0119 0.0298,0.0119 0.03,0 0.0625,-0.0266 z m 0.25,0.0659 Q 0.2126,0.1768 0.1772,0.137 0.1418,0.0972 0.1418,0.0367 q 0,-0.0647 0.0351,-0.1008 0.035,-0.0362 0.0978,-0.0362 0.031,0 0.0693,0.0086 l 0,0.0403 q -0.0408,-0.012 -0.0664,-0.012 -0.0369,0 -0.0592,0.0277 -0.0224,0.0277 -0.0224,0.0739 0,0.0446 0.023,0.0722 0.0229,0.0276 0.0601,0.0276 0.0329,0 0.0678,-0.0168 l 0,0.0415 Q 0.3003,0.1768 0.2664,0.1768 Z m 0.1525,-0.0061 0,-0.3855 0.0481,0 0,0.2491 0.1123,-0.1287 0.0518,0 -0.1072,0.1238 0.1294,0.1413 -0.0615,0 -0.1248,-0.136 0,0.136 z m 0.4249,0 0,-0.1264 -0.1265,0 0,-0.0362 0.1265,0 0,-0.1264 0.0361,0 0,0.1264 0.1264,0 0,0.0362 -0.1264,0 0,0.1264 z"
         id="path3809"
         inkscape:connector-curvature="0"
         style="stroke:none" />
    </g>
    <g
       font-size="0.5px"
       transform="matrix(50,0,0,50,530,1686.7065)"
       id="g3811"
       style="font-size:0.5px;font-family:sans-serif;stroke-width:0.02">
      <path
         d="m 5.5,-27 -2.6,0"
         id="path3813"
         inkscape:connector-curvature="0"
         style="fill:none" />
      <path
         d="m 2.9,-26.925 0,-0.15 L 2.5,-27 Z"
         id="path3815"
         inkscape:connector-curvature="0"
         style="stroke:none" />
    </g>
    <g
       font-size="0.5px"
       transform="matrix(50,0,0,50,730,324.5746)"
       id="g3817"
       style="font-size:0.5px;font-family:sans-serif;fill:#0000b2;stroke:#0000b2;stroke-width:0.02">
      <path
         d="M -0.4042,0.2188 -0.3986,0.177 q 0.0418,0.0198 0.0823,0.0198 0.0813,0 0.0813,-0.0862 l 0,-0.0417 q -0.0266,0.0556 -0.0874,0.0556 -0.0476,0 -0.0757,-0.0346 -0.028,-0.0347 -0.028,-0.0935 0,-0.0606 0.0319,-0.0987 0.032,-0.038 0.0828,-0.038 0.0444,0 0.0764,0.0361 l 0,-0.0303 0.0484,0 0,0.1929 q 0,0.0622 -0.0065,0.0921 -0.0065,0.03 -0.0243,0.049 -0.0315,0.0334 -0.0979,0.0334 -0.0464,0 -0.0889,-0.0141 z m 0.1692,-0.1799 0,-0.1102 q -0.0317,-0.0329 -0.0691,-0.0329 -0.0332,0 -0.052,0.0266 -0.0188,0.0266 -0.0188,0.073 0,0.0872 0.0613,0.0872 0.0417,0 0.0786,-0.0437 z m 0.1416,0.1882 0,-0.3616 0.0481,0 0,0.0498 q 0.0296,-0.0556 0.0886,-0.0556 0.0479,0 0.0754,0.0349 0.0274,0.0349 0.0274,0.0954 0,0.0659 -0.0311,0.1064 -0.0311,0.0404 -0.0819,0.0404 -0.0471,0 -0.0784,-0.0362 l 0,0.1265 z m 0.0481,-0.1597 q 0.0371,0.0332 0.0708,0.0332 0.0693,0 0.0693,-0.1057 0,-0.0933 -0.0615,-0.0933 -0.0403,0 -0.0786,0.0437 z m 0.2547,-0.0632 0,-0.0361 0.2167,0 0,0.0361 z"
         id="path3819"
         inkscape:connector-curvature="0"
         style="stroke:none" />
    </g>
    <g
       font-size="0.5px"
       transform="matrix(50,0,0,50,530,1686.7065)"
       id="g3821"
       style="font-size:0.5px;font-family:sans-serif;stroke-width:0.02">
      <path
         d="m -9.5,-33 2.6,0"
         id="path3823"
         inkscape:connector-curvature="0"
         style="fill:none" />
      <path
         d="m -6.9,-33.075 0,0.15 0.4,-0.075 z"
         id="path3825"
         inkscape:connector-curvature="0"
         style="stroke:none" />
    </g>
    <g
       font-size="0.5px"
       transform="matrix(50,0,0,50,130,24.5746)"
       id="g3827"
       style="font-size:0.5px;font-family:sans-serif;fill:#0000b2;stroke:#0000b2;stroke-width:0.02">
      <path
         d="M -0.402,0.2188 -0.3964,0.177 q 0.0418,0.0198 0.0823,0.0198 0.0813,0 0.0813,-0.0862 l 0,-0.0417 q -0.0266,0.0556 -0.0874,0.0556 -0.0476,0 -0.0757,-0.0346 -0.0281,-0.0347 -0.0281,-0.0935 0,-0.0606 0.032,-0.0987 0.032,-0.038 0.0828,-0.038 0.0444,0 0.0764,0.0361 l 0,-0.0303 0.0484,0 0,0.1929 q 0,0.0622 -0.0065,0.0921 -0.0065,0.03 -0.0243,0.049 -0.0315,0.0334 -0.0979,0.0334 -0.0464,0 -0.0889,-0.0141 z m 0.1692,-0.1799 0,-0.1102 q -0.0317,-0.0329 -0.0691,-0.0329 -0.0332,0 -0.052,0.0266 -0.0188,0.0266 -0.0188,0.073 0,0.0872 0.0613,0.0872 0.0417,0 0.0786,-0.0437 z m 0.1416,0.0918 0,-0.2652 0.0481,0 0,0.0498 q 0.0381,-0.0556 0.0933,-0.0556 0.0344,0 0.0549,0.0218 0.0205,0.0219 0.0205,0.0587 l 0,0.1905 -0.0481,0 0,-0.1749 q 0,-0.0295 -0.0087,-0.0421 -0.0086,-0.0125 -0.0286,-0.0125 -0.0442,0 -0.0833,0.0578 l 0,0.1717 z m 0.2984,-0.1265 0,-0.0361 0.2168,0 0,0.0361 z"
         id="path3829"
         inkscape:connector-curvature="0"
         style="stroke:none" />
    </g>
    <g
       font-size="0.5px"
       transform="matrix(50,0,0,50,530,1686.7065)"
       id="g3831"
       style="font-size:0.5px;font-family:sans-serif;stroke-width:0.02">
      <path
         d="m -10,-30.25 0,-1.85"
         id="path3833"
         inkscape:connector-curvature="0"
         style="fill:none" />
      <path
         d="m -10.075,-32.1 0.15,0 -0.075,-0.4 z"
         id="path3835"
         inkscape:connector-curvature="0"
         style="stroke:none" />
    </g>
    <g
       font-size="0.5px"
       transform="matrix(0,-50,50,0,20.4071,117.9565)"
       id="g3837"
       style="font-size:0.5px;font-family:sans-serif;fill:#b20000;stroke:#b20000;stroke-width:0.02">
      <path
         d="m -0.2649,0.1033 0,-0.0498 q -0.0383,0.0559 -0.093,0.0559 -0.0347,0 -0.0552,-0.0218 -0.0205,-0.0219 -0.0205,-0.059 l 0,-0.1904 0.0481,0 0,0.1748 q 0,0.0298 0.0087,0.0423 0.0086,0.0126 0.0289,0.0126 0.0439,0 0.083,-0.0579 l 0,-0.1718 0.0481,0 0,0.2651 z m 0.1995,0 -0.0987,-0.2651 0.0481,0 0.0772,0.2063 0.0813,-0.2063 0.0449,0 -0.1047,0.2651 z m 0.3364,0 0,-0.1265 -0.1265,0 0,-0.0361 0.1265,0 0,-0.1265 0.0361,0 0,0.1265 0.1265,0 0,0.0361 -0.1265,0 0,0.1265 z"
         id="path3839"
         inkscape:connector-curvature="0"
         style="stroke:none" />
    </g>
    <g
       font-size="0.5px"
       transform="matrix(50,0,0,50,530,1686.7065)"
       id="g3841"
       style="font-size:0.5px;font-family:sans-serif;stroke-width:0.02">
      <path
         d="m 6,-32.5 0,1.6"
         id="path3843"
         inkscape:connector-curvature="0"
         style="fill:none" />
      <path
         d="m 6.075,-30.9 -0.15,0 0.075,0.4 z"
         id="path3845"
         inkscape:connector-curvature="0"
         style="stroke:none" />
    </g>
    <g
       font-size="0.5px"
       transform="matrix(0,50,-50,0,838.8153,111.7065)"
       id="g3847"
       style="font-size:0.5px;font-family:sans-serif;fill:#b20000;stroke:#b20000;stroke-width:0.02">
      <path
         d="m -0.2197,0.0949 0,-0.0498 q -0.0384,0.0559 -0.093,0.0559 -0.0347,0 -0.0552,-0.0218 -0.0205,-0.0219 -0.0205,-0.059 l 0,-0.1904 0.0481,0 0,0.1748 q 0,0.0298 0.0086,0.0424 0.0087,0.0125 0.029,0.0125 0.0439,0 0.083,-0.0578 l 0,-0.1719 0.0481,0 0,0.2651 z m 0.1994,0 -0.0986,-0.2651 0.0481,0 0.0771,0.2063 0.0813,-0.2063 0.045,0 -0.1048,0.2651 z m 0.1919,-0.1264 0,-0.0362 0.2168,0 0,0.0362 z"
         id="path3849"
         inkscape:connector-curvature="0"
         style="stroke:none" />
    </g>
    <g
       font-size="0.5px"
       transform="matrix(50,0,0,50,530,1686.7065)"
       id="g3851"
       style="font-size:0.5px;font-family:sans-serif;stroke-width:0.02">
      <path
         d="m -10,-27.5 0,-1.35"
         id="path3853"
         inkscape:connector-curvature="0"
         style="fill:none" />
      <path
         d="m -10.075,-28.85 0.15,0 -0.075,-0.4 z"
         id="path3855"
         inkscape:connector-curvature="0"
         style="stroke:none" />
    </g>
    <g
       font-size="0.5px"
       transform="matrix(0,-50,50,0,20.9943,267.9565)"
       id="g3857"
       style="font-size:0.5px;font-family:sans-serif;fill:#b20000;stroke:#b20000;stroke-width:0.02">
      <path
         d="m -0.2698,0.1031 q -0.0569,0 -0.0908,-0.0377 -0.0339,-0.0378 -0.0339,-0.101 0,-0.0639 0.034,-0.1012 0.0341,-0.0372 0.0924,-0.0372 0.0584,0 0.0924,0.0372 0.0341,0.0373 0.0341,0.1007 0,0.065 -0.0342,0.1021 -0.0342,0.0371 -0.094,0.0371 z m 8e-4,-0.0361 q 0.0764,0 0.0764,-0.1031 0,-0.1018 -0.0755,-0.1018 -0.0752,0 -0.0752,0.1023 0,0.1026 0.0743,0.1026 z m 0.3061,0.0361 q -0.0537,0 -0.0891,-0.0398 -0.0354,-0.0398 -0.0354,-0.1003 0,-0.0647 0.035,-0.1009 0.0351,-0.0361 0.0978,-0.0361 0.031,0 0.0693,0.0085 l 0,0.0403 Q 0.074,-0.1371 0.0483,-0.1371 q -0.0368,0 -0.0592,0.0277 -0.0223,0.0277 -0.0223,0.0738 0,0.0447 0.0229,0.0723 0.023,0.0276 0.0601,0.0276 0.033,0 0.0679,-0.0169 l 0,0.0415 Q 0.071,0.1031 0.0371,0.1031 Z m 0.1406,-0.1326 0,-0.0361 0.2168,0 0,0.0361 z"
         id="path3859"
         inkscape:connector-curvature="0"
         style="stroke:none" />
    </g>
    <g
       font-size="0.5px"
       transform="matrix(50,0,0,50,530,1686.7065)"
       id="g3861"
       style="font-size:0.5px;font-family:sans-serif;stroke-width:0.02">
      <path
         d="m -1.5,-33 2.6,0"
         id="path3863"
         inkscape:connector-curvature="0"
         style="fill:none" />
      <path
         d="m 1.1,-33.075 0,0.15 L 1.5,-33 Z"
         id="path3865"
         inkscape:connector-curvature="0"
         style="stroke:none" />
    </g>
    <g
       font-size="0.5px"
       transform="matrix(50,0,0,50,530,23.9874)"
       id="g3867"
       style="font-size:0.5px;font-family:sans-serif;fill:#0000b2;stroke:#0000b2;stroke-width:0.02">
      <path
         d="m -0.4493,0.2251 0.0056,-0.0417 q 0.0417,0.0197 0.0822,0.0197 0.0813,0 0.0813,-0.0861 l 0,-0.0418 q -0.0266,0.0557 -0.0874,0.0557 -0.0476,0 -0.0756,-0.0347 -0.0281,-0.0347 -0.0281,-0.0935 0,-0.0605 0.032,-0.0986 0.032,-0.0381 0.0827,-0.0381 0.0445,0 0.0764,0.0361 l 0,-0.0303 0.0484,0 0,0.1929 q 0,0.0623 -0.0065,0.0922 -0.0065,0.0299 -0.0243,0.0489 -0.0315,0.0335 -0.0979,0.0335 -0.0464,0 -0.0888,-0.0142 z m 0.1691,-0.1799 0,-0.1101 q -0.0317,-0.033 -0.069,-0.033 -0.0332,0 -0.052,0.0266 -0.0188,0.0266 -0.0188,0.073 0,0.0872 0.0612,0.0872 0.0418,0 0.0786,-0.0437 z m 0.1417,0.1882 0,-0.3616 0.048,0 0,0.0498 q 0.0296,-0.0556 0.0887,-0.0556 0.0478,0 0.0753,0.0349 0.0275,0.0349 0.0275,0.0955 0,0.0659 -0.0312,0.1063 -0.0311,0.0404 -0.0819,0.0404 -0.0471,0 -0.0784,-0.0362 l 0,0.1265 z m 0.048,-0.1597 q 0.0372,0.0332 0.0708,0.0332 0.0694,0 0.0694,-0.1057 0,-0.0932 -0.0615,-0.0932 -0.0403,0 -0.0787,0.0437 z m 0.3992,0.0633 0,-0.1265 -0.1264,0 0,-0.0361 0.1264,0 0,-0.1265 0.0361,0 0,0.1265 0.1265,0 0,0.0361 -0.1265,0 0,0.1265 z"
         id="path3869"
         inkscape:connector-curvature="0"
         style="stroke:none" />
    </g>
  </g>
</svg>
